<?xml version="1.0" encoding="utf-8"?>
<!-- Generator: Adobe Illustrator 23.0.1, SVG Export Plug-In . SVG Version: 6.00 Build 0)  -->
<svg version="1.1" id="Layer_1" xmlns="http://www.w3.org/2000/svg" xmlns:xlink="http://www.w3.org/1999/xlink" x="0px" y="0px"
	 viewBox="0 0 100 100" style="enable-background:new 0 0 100 100;" xml:space="preserve">
<style type="text/css">
	.st0{opacity:0.8;}
	.st1{fill:#DD9699;}
	.st2{fill:#CF6A6E;}
	.st3{fill:#C54C50;}
	.st4{fill:#C3464B;}
	.st5{fill:#E2A6A8;}
	.st6{fill:#CA5A5E;}
	.st7{fill:#CB6063;}
	.st8{fill:#D88689;}
	.st9{fill:#C54D51;}
	.st10{fill:#C75256;}
	.st11{opacity:0.8;fill:#DD9699;}
	.st12{fill:#CD6467;}
	.st13{fill:#C8565A;}
	.st14{fill:#D06D70;}
	.st15{fill:#C9575B;}
	.st16{fill:#C65155;}
	.st17{fill:#C44A4E;}
	.st18{fill:#D27478;}
	.st19{fill:#C54B4F;}
</style>
<g>
	<g>
		<g>
			<g class="st0">
				<path class="st1" d="M43.9,4.3c1.2-0.1,2.4,0,3.6,0.2l0.9-0.5l-1.1,1.4c-1.6,2.6-3,6-4.8,7.9c0.3-0.6,0.6-1.4,0.8-2.2
					c0.1-0.3,0.2-0.5,0.2-0.7c0.2-0.5,0.3-0.9,0.4-1.3l0,0.2l-0.2-1.8L44.5,6l-0.6,1.5L43.9,4.3"/>
				<path class="st1" d="M34.5,50.5L34.5,50.5l0.2,0.4c0,1.6,0.1,3.1,0.3,4.6c0.1,1.8,0,3.5-0.3,5.4c-0.1,0.4-0.1,0.7-0.2,1.1
					l-0.4-2.4l0-0.2C34.6,56.2,34.1,53.5,34.5,50.5"/>
				<path class="st2" d="M36.8,62.1c0.1,1.8,0,3.6,0,5.5l-0.4-0.1c0.1-1,0-2.1,0.2-3.2c0-0.3,0.1-0.6,0.2-0.9l-0.1,0.2L36.8,62.1"/>
				<polyline class="st2" points="35.8,65.9 35.9,67.6 35.7,67.8 35.8,65.9 				"/>
				<polyline class="st2" points="25.8,48.6 26,48.2 25.8,48.7 25.8,48.6 				"/>
				<polyline class="st2" points="19.1,64.7 19.5,64 19.1,64.7 				"/>
				<polyline class="st2" points="19.5,64 19.5,63.9 19.5,64 				"/>
				<polyline class="st2" points="31.9,76.6 32.2,76.1 31.9,76.6 				"/>
				<polyline class="st2" points="19.7,68.1 19.8,67.9 19.7,68.1 				"/>
				<polyline class="st2" points="41.2,31.2 42.1,30.2 41.2,31.2 				"/>
				<polyline class="st2" points="26,48.2 26.6,47.4 26,48.2 				"/>
				<polyline class="st2" points="33.1,75.4 33.4,74.7 33.2,75.3 33.1,75.4 				"/>
				<polyline class="st2" points="31.4,77.6 31.9,76.6 31.6,77.3 31.4,77.6 				"/>
				<polyline class="st2" points="34.2,70.9 34.3,72.2 34.2,72.4 34.3,72.2 34.2,72.4 34.2,72.4 34.2,70.9 				"/>
				<path class="st2" d="M32.4,76.7l0.7-1.3l0.3-0.7l-0.2,0.6c0.7-1.3,1.3-2.8,1.8-4.4l-0.2-0.3l-0.5,2.1l0-0.7l-0.1,0.2l-0.1,0.4
					l0.1-0.4l-0.8,2.1l0.5-0.8l-0.5,1l0-0.2l-0.5,0.9L32.4,76.7 M33.3,74.7l0,0.2L33.3,74.7"/>
				<polyline class="st3" points="33.2,75.3 33.4,74.7 33.2,75.3 				"/>
				<polyline class="st3" points="34.2,72.4 34.3,72.2 34.2,72.4 				"/>
				<polyline class="st2" points="31.1,79.2 31.3,78.7 31.5,77.9 32.5,75.8 32.8,75.4 32.4,76.7 31.1,79.2 				"/>
				<polyline class="st2" points="34.1,72.8 34.2,72.4 34.2,72.4 34.1,72.8 				"/>
				<polyline class="st3" points="34.1,72.8 34.2,72.4 34.1,72.8 				"/>
				<polyline class="st2" points="31,79.4 31.1,79 31.3,78.7 31.1,79.2 31,79.4 				"/>
				<polyline class="st2" points="31,79.1 31.1,79 31,79.1 				"/>
				<polyline class="st2" points="31.1,78.8 31.4,77.6 31.3,78.2 31.1,78.8 				"/>
				<polyline class="st3" points="34.2,72.4 34.3,72.2 34.2,72.4 				"/>
				<polyline class="st2" points="31,79.1 31.1,78.8 31,79.1 				"/>
				<polyline class="st2" points="31.1,79 31.1,78.8 31.3,78.2 31.5,77.9 31.3,78.7 31.5,77.9 31.3,78.7 31.1,79 				"/>
				<polyline class="st3" points="31,79.1 31.1,78.8 31.1,79 31,79.1 				"/>
				<polyline class="st3" points="31.1,78.8 31.3,78.2 31.1,78.8 				"/>
				<polyline class="st3" points="31.3,78.7 31.5,77.9 31.3,78.7 				"/>
				<polyline class="st2" points="31.3,78.2 31.4,77.6 31.6,77.3 31.3,78.2 				"/>
				<polyline class="st3" points="31.4,77.6 31.6,77.3 31.4,77.6 				"/>
				<polyline class="st3" points="31.3,78.2 31.4,77.6 31.3,78.2 				"/>
				<polyline class="st2" points="31.3,78.2 31.6,77.3 32,76.8 31.5,77.8 31.5,77.9 31.3,78.2 				"/>
				<polyline class="st3" points="31.3,78.2 31.6,77.3 31.3,78.2 				"/>
				<polyline class="st3" points="33.3,74.9 33.3,74.7 33.3,74.9 				"/>
				<polyline class="st2" points="33.3,74.7 33.3,74.4 33.8,73.6 33.3,74.7 				"/>
				<polyline class="st3" points="33.3,74.7 33.3,74.4 33.3,74.7 				"/>
				<polyline class="st3" points="33.3,74.4 33.8,73.6 33.3,74.4 				"/>
				<polyline class="st2" points="32.5,75.8 32.8,75.1 32.8,75.4 32.5,75.8 				"/>
				<polyline class="st2" points="31.5,77.9 31.5,77.8 32.5,75.8 31.5,77.9 				"/>
				<polyline class="st3" points="31.5,77.9 31.5,77.8 31.5,77.9 31.5,77.8 31.5,77.9 				"/>
				<polyline class="st4" points="31.5,77.9 31.5,77.8 31.5,77.9 				"/>
				<polyline class="st2" points="23,67.6 23.8,66.1 23,67.8 23,67.6 				"/>
				<polyline class="st2" points="22.9,66.8 24,65.4 23,67.3 22.9,66.8 				"/>
				<path class="st2" d="M21.6,65.4c0.3-1.5,0.5-2.9,1.2-4l-0.5,2l0-0.1L21.6,65.4"/>
				<polyline class="st2" points="21.6,65.4 22.3,63.3 22.3,63.4 21.6,65.4 				"/>
				<polyline class="st3" points="21.6,65.4 22.3,63.3 21.6,65.4 				"/>
				<polyline class="st2" points="23,66.4 23.3,65.9 22.9,66.8 23,66.4 				"/>
				<polyline class="st2" points="22.5,70.9 22.7,70.2 22.5,70.9 				"/>
				<path class="st5" d="M20.8,93.2l0.1,0.6l0.3,0.8c0.5-1.1,1-2.3,1.3-3.7l-0.3,0.4c0.3-1.5,0.9-2.5,1.2-3.8
					C22.6,89.2,21.9,91.6,20.8,93.2"/>
				<polyline class="st2" points="23.3,85.1 23.4,84.7 23.3,85.1 				"/>
				<polyline class="st2" points="22.5,90.9 22.6,90.2 22.5,90.9 				"/>
				<polyline class="st2" points="23.1,85.8 23.3,85.1 23.1,85.8 				"/>
				<polyline class="st2" points="23.9,70.8 24.1,70.2 24.4,69.6 24,70.9 23.9,70.8 				"/>
				<polyline class="st2" points="23.8,70.8 24.1,70.2 23.9,70.8 23.8,70.8 				"/>
				<polyline class="st2" points="23.1,70.9 23.4,70.4 24.1,69.2 23.5,70.8 23.1,70.9 				"/>
				<polyline class="st2" points="23,70.9 23.4,70.4 23.1,70.9 23,70.9 				"/>
				<polyline class="st2" points="22.9,71 23.6,69.6 23.4,70.4 23,70.9 22.9,71 				"/>
				<path class="st5" d="M24,70.9l0.5-1.3l-0.4,0.6c0.3-1.2,0.6-2.6,1-3.7c0,0.7-0.1,1.3-0.2,1.9c-0.2,1.1-0.4,2.2-0.6,3.3L24,70.9"
					/>
				<polyline class="st6" points="24,70.9 24.4,69.6 24,70.9 				"/>
				<path class="st2" d="M24.3,72.2c0.5-1.6,1-3.4,1.8-4.5c0,0.1,0,0.2,0,0.4c-0.3,2.2-1.4,3.7-1.7,5.9l0,0.2c0.6-1,1.2-2.7,1.8-3.7
					c-0.7,1.7-1.4,3.2-2.1,4.8L24.3,72.2"/>
				<polyline class="st2" points="26.1,69.8 27.4,67.7 27.1,68.7 26.1,69.8 				"/>
				<polyline class="st2" points="28.5,64.8 28.6,64.5 28.7,64.4 28.5,64.8 				"/>
				<path class="st2" d="M27.7,66.7l0.2-0.5l0.6-1.4l0.1-0.3L27.7,66.7 M28,66.1l0.6-1.4L28,66.1"/>
				<path class="st2" d="M27.1,68.7l0.3-0.9l0.5-1.6l0.6-1.4l0.2-0.4l-0.1,0.1l1.2-1.9l-0.5,2.3C28.5,66,27.8,67.4,27.1,68.7"/>
				<polyline class="st3" points="27.1,68.7 27.4,67.7 27.1,68.7 				"/>
				<polyline class="st3" points="28.5,64.8 28.7,64.4 28.5,64.8 				"/>
				<polyline class="st3" points="28,66.1 28.5,64.8 28,66.1 				"/>
				<polyline class="st3" points="28,66.1 28.5,64.8 28,66.1 				"/>
				<path class="st2" d="M29.7,64.3c0.3-1.2,0.7-2.2,1.2-3l-0.3,2.6l-0.2-0.4L29.7,64.3"/>
				<polyline class="st2" points="25.4,38.3 26,37.4 26,37.8 25.4,38.3 				"/>
				<path class="st7" d="M33.3,8.7c2.2-1.6,4.3-2.7,6.4-3.5l-1.2,3.1c-1.4,3.3-3.7,6.2-5.3,5.7c-0.2-0.1-0.4-0.2-0.6-0.5
					C33.1,11.9,33.2,10.2,33.3,8.7"/>
				<path class="st2" d="M29.8,21.4l0.3-0.4c0,0.8,0.4,1.1,0.1,2.4C29.8,23.1,29.8,22.3,29.8,21.4"/>
				<path class="st8" d="M30.6,17.2c0.9-0.6,1.5-1.8,1.9-2.8c0.1-0.3,0.2-0.6,0.3-0.9c0.2,0.2,0.4,0.4,0.6,0.5
					c1.6,0.6,3.8-2.4,5.3-5.7c-0.9,2.5-1.8,5.1-2.7,7.7c-0.3,0.8-0.6,1.7-0.9,2.6c-0.8,2.5-1.6,5-2.2,7.6l0.5-0.2
					c0.2-0.6,0.4-1.2,0.6-1.8c0.2-0.6,0.4-1.2,0.5-1.8l0.2-0.5c0.3-1.1,0.7-2.1,1.1-3.1c0.4-1,0.8-1.9,1.4-2.7
					c-0.3,1.5-0.7,2.9-1.1,4.4c-0.3,1-0.7,1.9-1,2.8c-1.1,2.8-2.5,5.4-4,7.6c-0.5,0.8-1,2.1-1.4,3.3l0.5-1.8L29.8,32l-1.6,2.3
					l0.2-0.6l0.9-2.3l0.8-2.1c0.2-0.4,0.3-0.9,0.4-1.3l0,0c0.4-1.4,0.5-2.9,0.8-4.5l-0.8,1.8c-0.2,0.3-0.4,0.4-0.6,0.4
					c-0.7-0.1-0.6-2.4-0.3-3.9l0.2-0.2c0,0.8,0,1.6,0.4,2c0.3-1.3-0.1-1.6-0.1-2.4l0.7-0.3l0.9-1.3c0.5,1,1.2-1.6,1.8-1.2l1.3-2.4
					l-0.3-1.6C33.3,15.9,31.8,17.7,30.6,17.2"/>
				<path class="st9" d="M33.4,14c1.6,0.6,3.8-2.4,5.3-5.7C37.2,11.6,34.9,14.5,33.4,14"/>
				<path class="st10" d="M30.2,21.1c0,0.8,0.4,1.1,0.1,2.4C30.6,22.1,30.1,21.9,30.2,21.1"/>
				<path class="st2" d="M27.2,35.6l0.9-1.4l0.2-0.6l0.9-2.3l-0.1-0.1l-0.9,2l0.6-2.3c-0.6,0.8-0.9,1.9-1.2,2.9L27.2,35.6
					 M28.4,33.6l0.9-2.3L28.4,33.6"/>
				<polyline class="st3" points="28.4,33.6 29.3,31.3 28.4,33.6 				"/>
				<polyline class="st2" points="29.8,21.1 30.2,21.1 29.8,21.4 29.8,21.1 				"/>
				<polyline class="st2" points="41.5,14 41.9,14 41.5,14 				"/>
				<path class="st11" d="M24.7,20.8c2.2-2.5,3.5,0.1,5.1,0.3l0,0.4l-0.2,0.2c-0.3,1.5-0.3,3.8,0.3,3.9c0.2,0,0.3-0.1,0.6-0.4
					l0.8-1.8c-0.3,1.6-0.4,3.1-0.8,4.5c-0.1,0.4-0.3,0.9-0.4,1.3l-0.8,2.1l-0.1-0.1l0.7-1.9c-0.8,0.9-1.2,2.5-1.6,3.9l0.6-2.3
					c-0.6,0.8-0.9,1.9-1.2,2.9l-0.2-0.4l-1.3,1.1l1.3-2.4l-0.3-1c-1,0.7-2.3,1.6-3.4,3.2c1.3-2.1,2.9-3.7,4.1-6.7l-0.4-0.3l0.5-0.6
					c-1,0.5-1.9,2.1-2.8,2.5l1.3-1.8c-0.6,0-1.2,0.9-1.7,1.1c1.1-1.5,2.8-1.3,3.3-3.1l0-0.1l0-0.1c1-3.3-0.8-3.9-2.6-2.8l0.4-0.6
					C26,20.4,25,21.3,24.7,20.8"/>
				<path class="st12" d="M30,25.5c0.2,0,0.3-0.1,0.6-0.4l0.8-1.8l-0.8,1.8C30.3,25.4,30.1,25.5,30,25.5"/>
				<path class="st12" d="M31.3,23.4c-0.3,1.6-0.4,3.1-0.8,4.5C30.9,26.5,31.1,25,31.3,23.4"/>
				<polyline class="st13" points="28.3,33.2 28.9,30.9 28.3,33.2 				"/>
				<polyline class="st13" points="29.2,31.2 29.3,31.3 29.2,31.2 				"/>
				<path class="st11" d="M28.6,37.7l0,0.5l0.2,0.6l0.2-0.6l-0.2,0.6l0.4,0.2l0.9-1.4l-0.3,0.8l0.8-1.2l-0.7,1.5l0.2,0.1l0.3-0.5
					c0.5-1.2,0.8-2.6,1.3-3.7c-0.1,0.6-0.2,1.1-0.3,1.7c-0.3,1.2-0.6,2.3-0.9,3.6l0,0.4c0.6-1.5,1.2-3.3,2.1-4.4
					c0,0.1,0,0.2-0.1,0.3c-0.5,2.2-1.7,3.6-2.1,5.8l0,0.2c0.7-1,1.4-2.6,2-3.6c-0.8,1.6-1.6,3.1-2.4,4.6l0,0.2
					c-0.6,2.1-1.2,4-1.7,5.9l1.1-2.4l-1.1,2.4c-0.9,3.1-1.8,5.9-2.9,8.9l1.3-2.2c0.2,1.6-0.2,3.3-0.2,4.7c0.7-2.2,1.6-4.1,2.2-6.2
					c-0.6,2.1-1.5,4-2.2,6.2l0,0.4c1.1-1.7,1.8-4,2.7-5.8c-0.4,1.3-1,2.3-1.3,3.8l0.3-0.4l0.2-0.6l-0.2,0.6
					c-0.3,1.4-0.8,2.5-1.3,3.7c0.4,1.4,0.9,3,0.7,4.5l-0.1,0.8l0.5-1.6l-0.2,0.5l0.9-2.2l1.2-1.9l-0.5,2.3l0.4-0.6
					c0.3-1.2,0.7-2.2,1.2-3l-0.3,2.6l0.4,1.6l0.9-0.1c0.8-0.8,1.4-2.2,1.7-4l0-0.3l-0.8,0l0.6-0.5l-0.4-1.1l0.3-0.9
					C33,58,33,57.3,33.1,56.5c0.1-0.7,0.4-1.5,0.6-2.3l-0.4,0.6c-0.3-0.4-0.3-0.8-0.2-1.3c0.1-0.7,0.5-1.3,0.7-1.9l0.7-1.2l0-0.1
					l0,0.1l0,0l0.5-1.8l0.5-0.9l0.3-0.5l-0.3,0.5l-0.3,0.6l0.4-0.5l-0.4,1l1-2l0.3-0.7l0,0.2l0.6-0.9l0.9-1.9l0.1-1.4l0,1.2l0,0.6
					l0.6-2.1l0.2,0.2c0.3-0.8,0.6-1.8,0.9-2.8l0-0.1l0.2-1.8l-0.1,1.6l0.5,0c0.2-1,0.2-2.1,0.4-3.2c0.1-0.3,0.1-0.5,0.2-0.8
					l-0.1,0.2l0.3-1.5c0-0.9,0-1.8,0-2.7l-0.5,0.6l0.5-0.6c0-3.1-0.3-6-1-8.3c-0.2,1.5-0.3,3-0.2,4.4c-0.1,2-0.4,3.8-0.9,5.8
					L39,33.6l-0.2-2.3l0,0.1l-0.2-0.6l0.2,0.5c0.9-3.3,0.5-6,1.4-9l0.1,0.6c0.3-1.8,0.5-3.6,0.9-5.5L40.5,15l-0.6,1.6l0.1-1
					c0-0.2,0-0.7-0.1-0.8c-0.1-0.1-0.5,0.6-1.6,3.9l-0.5,1.8c0.2-2.1,0.5-4,0.2-5.7L37.1,16c-0.3,1.5-0.7,2.9-1.1,4.4
					c-0.3,1-0.7,1.9-1,2.8c-1.1,2.8-2.5,5.4-4,7.6c-0.5,0.8-1,2.1-1.4,3.3l0,0.2l0.4-0.6l-0.4,0.9l1.1-1.3l-1.1,1.8l0,0.3l0.9-1.5
					l-0.9,1.7l0.1,0.5L28.6,37.7 M28.8,53.7c-0.6,1.6-1.4,2.9-2,4.9C27.4,56.5,28.2,55.2,28.8,53.7l0.3-0.6l0.1-0.4L29.1,53
					L28.8,53.7l-0.1-0.1l0.4-1.7l-0.4,1.7L28.8,53.7 M30.2,44.7c-0.3,1.5-1.2,2.3-1.5,3.7C29,47,29.9,46.2,30.2,44.7 M30.5,43.4
					l0-0.1l0.3-1.1l-0.3,1.1L30.5,43.4c-0.4,1.2-1,2.1-1.4,3.4C29.4,45.6,30,44.7,30.5,43.4 M28.8,52.4l0-0.7L28.8,52.4 M37.4,23.3
					l0.4-2.8L37.4,23.3 M37.4,23.3l0.4-2.8L37.4,23.3 M37.4,23.3l-0.1,0.4l0,0.4l-0.1,0.4l0,0.4l0,0l-0.1,0.4l0,0.4L37,26.3l0,0.4
					l0,0.4l0,0.3l0,0.4l0,0.4l0,0.4l0,0.3l0,0.4l0.1,0.3c0.3-1.6,0.3-3.1,0.4-4.5l0-0.2l0-0.1l0-0.5l0-0.1l0-0.4l0-0.3L37.4,23.3
					 M39.9,16.6c-0.1,0.2-0.1,0.4-0.2,0.5c0,0.1-0.1,0.3-0.1,0.4L39.4,18l-0.1,0.4l-0.1,0.5l0,0.3c0,0.2-0.1,0.5-0.1,0.7l0,0l0,0.4
					l0-0.4l0,0.4l0-0.4l0,0c0,0.1,0,0.3,0,0.4c0-0.2,0-0.4,0.1-0.6l0.1-0.3l0.1-0.5l0-0.2l0.1-0.5l0.1-0.3l0.1-0.3
					C39.7,17.3,39.8,16.9,39.9,16.6 M32.9,61.1l-0.1,0l-0.2,0.4L32.9,61.1"/>
				<path class="st1" d="M37.4,23.3c-0.1,0.6-0.1,1.1-0.2,1.7l0-0.4l0.1-0.4l0-0.4L37.4,23.3"/>
				<polyline class="st1" points="37.3,23.8 37.3,24.1 37.3,24.5 37.3,24.6 37.3,23.8 				"/>
				<path class="st1" d="M37.2,25.1c-0.2,1.7-0.4,3.4-0.3,4.9l-0.1-0.3l0-0.4l0-0.3l0-0.4l0-0.4l0-0.4l0-0.3l0-0.4l0-0.4l0.1-0.4
					l0-0.4L37.2,25.1"/>
				<polyline class="st1" points="37.3,25.2 37.3,25.3 37.3,25.5 37.3,25.2 				"/>
				<polyline class="st14" points="34.5,50.4 34.5,50.5 34.5,50.5 34.5,50.4 				"/>
				<polyline class="st13" points="40.7,31.8 41.2,31.2 40.7,31.8 				"/>
				<polyline class="st13" points="27.7,66.7 28,66.1 27.7,66.7 				"/>
				<polyline class="st13" points="29.3,64.9 29.8,62.6 29.3,64.9 				"/>
				<polyline class="st13" points="30.9,61.3 30.7,63.9 30.9,61.3 				"/>
				<polyline class="st15" points="37.4,23.3 37.3,23.7 37.3,24.2 37.2,24.6 37.2,25 37.2,24.6 37.3,24.2 37.3,23.7 37.4,23.3 				
					"/>
				<polyline class="st15" points="37.3,23.8 37.3,24.1 37.3,24.5 37.3,24.6 37.3,24.5 37.3,24.1 37.3,23.8 				"/>
				<polyline class="st15" points="37.2,25.1 37.1,25.5 37.1,25.9 37,26.3 37,26.8 36.9,27.2 36.9,27.5 36.9,28 36.9,28.4 
					36.8,28.9 36.9,29.2 36.8,29.6 36.9,30 36.8,29.6 36.9,29.2 36.8,28.9 36.9,28.4 36.9,28 36.9,27.5 36.9,27.2 37,26.8 37,26.3 
					37.1,25.9 37.1,25.5 37.2,25.1 				"/>
				<polyline class="st15" points="37.3,25.2 37.3,25.3 37.3,25.5 37.3,25.3 37.3,25.2 				"/>
				<polyline class="st15" points="37.7,20.5 37.4,23.3 37.7,20.5 				"/>
				<polyline class="st15" points="37.7,20.5 37.4,23.3 37.7,20.5 				"/>
				<path class="st12" d="M29.6,34.1c0.4-1.3,0.9-2.5,1.4-3.3c1.5-2.2,2.9-4.8,4-7.6c-1.1,2.8-2.5,5.4-4,7.6
					C30.5,31.6,30,32.9,29.6,34.1"/>
				<path class="st12" d="M37.1,16c-0.3,1.5-0.7,2.9-1.1,4.4C36.5,18.9,36.9,17.5,37.1,16"/>
				<path class="st1" d="M39.4,18l0.1-0.4c-0.2,0.5-0.3,1.1-0.4,1.6l0-0.3l0.1-0.5L39.4,18"/>
				<polyline class="st1" points="39.6,17.7 39.6,18 39.5,18.3 39.6,17.7 				"/>
				<path class="st1" d="M39.3,18.8l0,0.2l-0.1,0.5l-0.1,0.3C39.2,19.4,39.2,19.1,39.3,18.8"/>
				<polyline class="st1" points="39.1,19.9 39.1,19.9 39.1,19.9 39.1,19.9 				"/>
				<polyline class="st2" points="41.4,14.3 41.4,14.6 41.4,14.3 				"/>
				<path class="st7" d="M40.5,15c1-2.5,2.4-4.8,3.4-7.4l0.2,1.8l0-0.2c-0.1,0.3-0.3,0.8-0.4,1.3c-0.1,0.2-0.2,0.5-0.2,0.7
					c-0.2,0.8-0.5,1.6-0.8,2.2L41.9,14l0,0l-0.3,0l-0.1-0.7l-0.1,1l0,0.2l-0.2,2.8L40.5,15"/>
				<path class="st16" d="M43.6,10.4c0.2-0.5,0.3-0.9,0.4-1.3C43.9,9.5,43.8,9.9,43.6,10.4c-0.1,0.2-0.2,0.5-0.2,0.7
					C43.5,10.9,43.5,10.6,43.6,10.4"/>
				<polyline class="st16" points="44.1,9.1 44.1,9.4 44.1,9.1 				"/>
				<polyline class="st17" points="41.5,14 41.8,14 41.9,14 41.5,14 				"/>
				<polyline class="st16" points="40.5,15 41.1,17.4 40.5,15 				"/>
				<path class="st7" d="M37.6,13.5c0.5-1.6,1.5-3.4,2.3-5c0.5,1.7,0.4,4.3,0.6,6.5l-0.6,1.6l0.1-1c0-0.2,0-0.7-0.1-0.8
					c-0.1-0.1-0.5,0.6-1.6,3.9l-0.5,1.8c0.2-2.1,0.5-4,0.2-5.7L37.1,16l0.1-0.9c0-0.4,0.1-0.8,0.2-1.2
					C37.5,13.8,37.6,13.6,37.6,13.5"/>
				<path class="st16" d="M38,14.8c0.3,1.7,0,3.6-0.2,5.7C38,18.4,38.2,16.5,38,14.8"/>
				<path class="st16" d="M39.9,14.7c0.1,0.1,0.1,0.7,0.1,0.8l-0.1,1l0.1-1C39.9,15.4,40,14.8,39.9,14.7"/>
				<path class="st18" d="M35,18.5c0.3-0.9,0.6-1.7,0.9-2.6c0.9-2.6,1.8-5.1,2.7-7.7C39,7.6,39.3,6.8,39.5,6
					c0.1-0.3,0.2-0.5,0.2-0.8c1.4-0.4,2.8-0.8,4.2-0.9l0,3.2c-1,2.5-2.4,4.8-3.4,7.4c-0.2-2.1-0.1-4.8-0.6-6.5
					c-0.8,1.6-1.8,3.4-2.3,5l0,0c0,0.2-0.1,0.3-0.1,0.4c-0.1,0.4-0.2,0.8-0.2,1.2L37.1,16c-0.5,0.8-1,1.7-1.4,2.7
					c-0.4,1-0.7,2.1-1.1,3.1l-0.2,0.5c-0.2,0.6-0.4,1.2-0.5,1.8c-0.2,0.6-0.4,1.2-0.6,1.8l-0.5,0.2C33.4,23.6,34.2,21.1,35,18.5"/>
				<path class="st13" d="M35,18.5c-0.8,2.5-1.6,5-2.2,7.6C33.4,23.6,34.2,21.1,35,18.5"/>
				<path class="st13" d="M35.9,16c0.9-2.6,1.8-5.1,2.7-7.7C37.7,10.8,36.8,13.4,35.9,16"/>
				<path class="st13" d="M33.9,24.2c0.2-0.6,0.4-1.2,0.5-1.8l0.2-0.5c0.3-1.1,0.7-2.1,1.1-3.1c-0.4,1-0.7,2.1-1.1,3.1l-0.2,0.5
					C34.3,23,34.1,23.6,33.9,24.2"/>
				<path class="st19" d="M37.6,13.5L37.6,13.5c0,0.2-0.1,0.3-0.1,0.4C37.5,13.8,37.6,13.6,37.6,13.5"/>
				<path class="st19" d="M39.9,8.5c0.5,1.7,0.4,4.3,0.6,6.5C40.3,12.8,40.4,10.2,39.9,8.5"/>
				<path class="st2" d="M38.6,8.3l1.2-3.1c-0.1,0.3-0.2,0.5-0.2,0.8C39.3,6.8,39,7.6,38.6,8.3"/>
				<polyline class="st17" points="38.6,8.3 39.8,5.2 38.6,8.3 				"/>
			</g>
		</g>
	</g>
</g>
<g>
	<g>
		<g>
			<g class="st0">
				<path class="st1" d="M40.3,38.9c-0.4-1.1-0.8-2.3-1-3.5c-0.3-0.3-0.6-0.5-0.9-0.8c0.7,0.2,1.3,0.4,1.9,0.6
					c0.7,0.2,1.5,0.4,2.3,0.5l1,0.2l0.5,0.1l0.6,0.1c1.5,0.3,3,0.5,4.2,1c-0.7,0-1.5,0-2.3,0c-0.3,0-0.5,0-0.8,0c-0.5,0-0.9,0-1.3,0
					l0.2-0.1l-1.5,0.7l-1.5-0.1l1.5,0.1C42.4,38.3,41.4,38.6,40.3,38.9"/>
				<path class="st1" d="M68.6,23.7L68.6,23.7c-0.1,0-0.2,0.1-0.3,0.1c-0.2,0-0.3,0.1-0.5,0.1c-0.1,0-0.2,0.1-0.3,0.1l-0.2,0l-0.1,0
					c-0.1,0-0.1,0-0.2,0c-1.6-0.6-3.3-1.5-4.8-2.6c-0.3-0.2-0.6-0.4-0.9-0.7l2.4,0.7l0.2,0.1c0.7,0.5,1.4,0.9,2,1.2
					c0.3,0.2,0.7,0.3,1,0.5c0.2,0.1,0.4,0.2,0.5,0.2l0.2,0.1c0.1,0,0.1,0,0.1,0C68.2,23.6,68.5,23.5,68.6,23.7"/>
				<path class="st2" d="M60.2,22.8l-0.6-0.3l-0.3-0.1l-0.2-0.1c-0.2-0.1-0.6-0.2-0.9-0.3c-0.7-0.2-1.3-0.4-2-0.6l0.2-0.4
					c0.7,0.3,1.5,0.5,2.3,0.9c0.2,0.1,0.4,0.3,0.5,0.4l-0.1-0.2C59.3,22.2,59.8,22.5,60.2,22.8"/>
				<path class="st2" d="M57.8,20.8c-0.4-0.1-0.8-0.2-1.2-0.3l-0.1-0.2C56.9,20.5,57.3,20.6,57.8,20.8"/>
				<path class="st2" d="M77.2,21.4c0,0.2,0,0.4,0,0.7c0-0.3-0.1-0.5-0.1-0.8L77.2,21.4"/>
				<polyline class="st2" points="64.5,5.5 65.2,6.1 64.5,5.5 				"/>
				<polyline class="st2" points="65.2,6.1 65.3,6.2 65.2,6.1 				"/>
				<polyline class="st2" points="49.7,15.1 50,15.5 49.7,15.1 				"/>
				<polyline class="st2" points="60.5,4.9 60.7,5.1 60.5,4.9 				"/>
				<polyline class="st2" points="64.4,30.7 63.3,30.4 64.4,30.7 				"/>
				<path class="st2" d="M77.2,22.1c0,0.4-0.1,0.8-0.2,1.1l-0.1-0.5l0,0.1l0-0.1l0.1,0.5C77.1,22.8,77.1,22.5,77.2,22.1"/>
				<polyline class="st2" points="50.5,16.5 51,16.9 50.5,16.6 50.5,16.5 				"/>
				<polyline class="st2" points="48.9,14.5 49.7,15.1 49.2,14.7 48.9,14.5 				"/>
				<path class="st2" d="M54.5,18.3l-1-0.1l-0.1-0.1l0.1,0.1l-0.1-0.1l0,0C53.7,18.2,54.1,18.2,54.5,18.3"/>
				<path class="st2" d="M49.5,15.6l1,0.9l0.6,0.4l-0.5-0.3l0.4,0.3l0.2,0.2l0.4,0.2c0.1,0.1,0.3,0.2,0.5,0.2l0.2,0.1
					c0.1,0,0.1,0,0.1,0.1l0.4,0.3c0.5,0.4,1,0.7,1.6,1.1l0.2-0.2c-0.5-0.3-1-0.5-1.5-0.7l0.5,0.1l-0.1-0.1L53.1,18l0.3,0.1l-0.7-0.5
					l-0.2-0.1c-0.1,0-0.1-0.1-0.3-0.2c-0.3-0.1-0.6-0.3-0.9-0.4c0.2,0.1,0.4,0.3,0.7,0.4l0.3,0.2l0.1,0.1c-0.1-0.1-0.1-0.1-0.2-0.2
					l-0.4-0.2c-0.3-0.2-0.7-0.4-0.7-0.5l0.2,0.1c-0.3-0.3-0.5-0.5-0.7-0.7L49.5,15.6 M51.1,16.8l-0.2-0.1L51.1,16.8"/>
				<polyline class="st3" points="50.5,16.6 51,16.9 50.5,16.6 				"/>
				<polyline class="st3" points="53.4,18.1 53.5,18.2 53.4,18.1 				"/>
				<path class="st2" d="M47.6,14l0.4,0.2l0.6,0.3c0.6,0.4,1.1,0.9,1.7,1.3l0.3,0.3l-1.1-0.6C48.9,15.1,48.2,14.5,47.6,14"/>
				<polyline class="st2" points="53.1,18 53.4,18.1 53.4,18.1 53.1,18 				"/>
				<polyline class="st3" points="53.1,18 53.4,18.1 53.1,18 				"/>
				<polyline class="st2" points="47.4,13.9 47.8,14 48,14.2 47.6,14 47.4,13.9 				"/>
				<polyline class="st2" points="47.7,14 47.8,14 47.7,14 				"/>
				<polyline class="st2" points="47.9,14.1 48.9,14.5 48.4,14.3 47.9,14.1 				"/>
				<polyline class="st3" points="53.4,18.1 53.5,18.2 53.4,18.1 				"/>
				<polyline class="st2" points="47.7,14 47.9,14.1 47.7,14 				"/>
				<polyline class="st2" points="47.8,14 47.9,14.1 48.4,14.3 48.6,14.6 48,14.2 48.6,14.6 48,14.2 47.8,14 				"/>
				<polyline class="st3" points="47.7,14 47.9,14.1 47.8,14 47.7,14 				"/>
				<polyline class="st3" points="47.9,14.1 48.4,14.3 47.9,14.1 				"/>
				<polyline class="st3" points="48,14.2 48.6,14.6 48,14.2 				"/>
				<polyline class="st2" points="48.4,14.3 48.9,14.5 49.2,14.7 48.4,14.3 				"/>
				<polyline class="st3" points="48.9,14.5 49.2,14.7 48.9,14.5 				"/>
				<polyline class="st3" points="48.4,14.3 48.9,14.5 48.4,14.3 				"/>
				<polyline class="st2" points="48.4,14.3 49.2,14.7 49.5,15.2 48.7,14.6 48.6,14.6 48.4,14.3 				"/>
				<polyline class="st3" points="48.4,14.3 49.2,14.7 48.4,14.3 				"/>
				<polyline class="st3" points="50.9,16.7 51.1,16.8 50.9,16.7 				"/>
				<path class="st2" d="M51.1,16.8l0.2,0.1c0.2,0.1,0.4,0.3,0.7,0.4l0.3,0.2l0.1,0.1c-0.1-0.1-0.1-0.1-0.2-0.2l-0.4-0.2
					C51.5,17.1,51.1,16.9,51.1,16.8"/>
				<polyline class="st3" points="51.1,16.8 51.3,16.9 51.1,16.8 				"/>
				<path class="st3" d="M51.3,16.9c0.2,0.1,0.4,0.3,0.7,0.4l0.3,0.2l0.1,0.1l-0.1-0.1L52,17.3C51.7,17.2,51.5,17,51.3,16.9"/>
				<polyline class="st2" points="50.3,15.9 50.8,16.2 50.6,16.2 50.3,15.9 				"/>
				<path class="st2" d="M48.6,14.6L48.6,14.6c0.6,0.4,1.2,0.9,1.7,1.3C49.7,15.4,49.2,15,48.6,14.6"/>
				<polyline class="st3" points="48.6,14.6 48.7,14.6 48.6,14.6 48.7,14.6 48.6,14.6 				"/>
				<polyline class="st4" points="48.6,14.6 48.7,14.6 48.6,14.6 				"/>
				<path class="st2" d="M60.3,8.2c0.5,0.4,0.9,0.8,1.4,1.2c-0.5-0.4-1.1-0.8-1.6-1.2L60.3,8.2"/>
				<path class="st2" d="M61.1,8.4c0.4,0.5,0.8,1,1.1,1.4c-0.5-0.5-1-1-1.6-1.5L61.1,8.4"/>
				<path class="st2" d="M63,7.6c1.5,0.8,2.8,1.6,3.8,2.8c-0.6-0.5-1.2-0.9-1.9-1.4L65,9C64.3,8.5,63.7,8.1,63,7.6"/>
				<path class="st2" d="M63,7.6c0.7,0.5,1.3,1,2,1.5L64.9,9C64.3,8.5,63.6,8,63,7.6"/>
				<path class="st3" d="M63,7.6c0.7,0.5,1.3,1,2,1.5C64.3,8.5,63.7,8.1,63,7.6"/>
				<polyline class="st2" points="61.6,8.6 62,9 61.1,8.4 61.6,8.6 				"/>
				<polyline class="st2" points="57,6.9 57.7,7.2 57,6.9 				"/>
				<path class="st5" d="M34.8,2.9l-0.6,0l-0.8,0.2c1.1,0.5,2.2,1.1,3.6,1.5l-0.4-0.3c1.5,0.4,2.5,1,3.7,1.5
					C38.6,4.8,36.4,4,34.8,2.9"/>
				<polyline class="st2" points="42.7,5.9 43.1,6 42.7,5.9 				"/>
				<polyline class="st2" points="37,4.7 37.6,4.8 37,4.7 				"/>
				<polyline class="st2" points="42,5.6 42.7,5.9 42,5.6 				"/>
				<path class="st2" d="M56.8,8.3l0.6,0.3l0.5,0.5C57.6,8.9,57.2,8.6,56.8,8.3L56.8,8.3"/>
				<polyline class="st2" points="56.8,8.2 57.4,8.6 56.8,8.3 56.8,8.2 				"/>
				<path class="st2" d="M56.8,7.5l0.5,0.4c0.4,0.3,0.7,0.7,1.1,1c-0.5-0.3-1-0.6-1.5-0.9L56.8,7.5"/>
				<polyline class="st2" points="56.9,7.4 57.3,7.9 56.8,7.5 56.9,7.4 				"/>
				<path class="st2" d="M56.8,7.3c0.5,0.3,0.9,0.7,1.3,1.1l-0.8-0.5l-0.5-0.4L56.8,7.3"/>
				<path class="st5" d="M56.8,8.4c0.4,0.2,0.8,0.5,1.2,0.8l-0.5-0.5c1.1,0.6,2.5,1.2,3.5,2c-0.6-0.2-1.2-0.4-1.9-0.7
					c-1-0.4-2.1-0.9-3.1-1.3L56.8,8.4"/>
				<path class="st6" d="M56.8,8.4c0.4,0.2,0.8,0.5,1.2,0.8C57.6,8.9,57.2,8.6,56.8,8.4"/>
				<path class="st2" d="M55.3,8.5c1.5,0.8,3.2,1.6,4,2.7c-0.1,0-0.2-0.1-0.3-0.1c-1-0.4-1.8-1-2.7-1.5C55.9,9.3,55.5,9,55,8.8
					c-0.2-0.1-0.4-0.2-0.7-0.3c-0.2-0.1-0.5-0.2-0.8-0.3l-0.2-0.1c0.5,0.4,1,0.9,1.6,1.2c0.6,0.4,1.2,0.8,1.7,1.2l-2.2-1.4
					c-0.7-0.5-1.4-1-2.1-1.5C53.4,7.8,54.4,8.2,55.3,8.5"/>
				<path class="st2" d="M57.3,10.7c0.6,0.6,1.2,1.1,1.7,1.7l-0.8-0.6C57.9,11.5,57.6,11.1,57.3,10.7"/>
				<polyline class="st2" points="61.3,14.3 61.6,14.5 61.6,14.6 61.3,14.3 				"/>
				<path class="st2" d="M59.9,13l0.4,0.4c0.4,0.3,0.7,0.6,1,0.9l0.2,0.2C61,14,60.5,13.5,59.9,13 M60.3,13.4c0.4,0.3,0.7,0.6,1,0.9
					C61,14,60.7,13.7,60.3,13.4"/>
				<path class="st2" d="M58.2,11.9l0.8,0.6c0.4,0.3,0.9,0.6,1.3,1c0.4,0.3,0.7,0.6,1,0.9l0.3,0.3l-0.1-0.1c0.4,0.6,0.8,1.2,1.2,1.7
					c-0.6-0.4-1.2-0.9-1.8-1.3C60.3,13.9,59.2,12.9,58.2,11.9"/>
				<polyline class="st3" points="58.2,11.9 59,12.4 58.2,11.9 				"/>
				<polyline class="st3" points="61.3,14.3 61.6,14.6 61.3,14.3 				"/>
				<path class="st3" d="M60.3,13.4c0.4,0.3,0.7,0.6,1,0.9C61,14,60.7,13.7,60.3,13.4"/>
				<path class="st3" d="M60.3,13.4c0.4,0.3,0.7,0.6,1,0.9C61,14,60.7,13.7,60.3,13.4"/>
				<path class="st2" d="M61.3,15.6c0.4,0.3,0.9,0.7,1.2,1c0.3,0.3,0.6,0.7,0.9,1.2c-0.8-0.5-1.4-0.8-2.1-1.2l0.4-0.1L61.3,15.6"/>
				<polyline class="st2" points="79.5,34 78.7,35.2 78.8,34.7 79.5,34 				"/>
				<path class="st7" d="M48.1,47.5c-1.2-0.7-2.3-1.5-3.2-2.3c-0.5-0.4-0.9-0.8-1.4-1.2c-0.4-0.4-0.8-0.9-1.2-1.3
					c1.1,0.1,2.3,0.1,3.3,0.1c3.6,0.2,7.3,1,7.4,2.7c0,0.2,0,0.5-0.2,0.8C51.3,46.5,49.6,47.1,48.1,47.5"/>
				<path class="st2" d="M61.6,45.3l-0.5-0.1c0.8-0.3,0.8-0.8,2.2-1.2C63.2,44.6,62.4,44.9,61.6,45.3"/>
				<path class="st8" d="M57.4,46.6c-1-0.6-2.2-0.6-3.5-0.5c-0.3,0-0.6,0.1-0.9,0.1c0.1-0.3,0.2-0.5,0.2-0.8
					c-0.1-1.7-3.8-2.5-7.4-2.7c2.7,0,5.5-0.2,8.2-0.4c0.9-0.1,1.8-0.2,2.7-0.3c2.6-0.3,5.3-0.8,7.8-1.5l-0.4-0.4
					c-0.6,0.1-1.3,0.2-1.9,0.3c-0.6,0.1-1.2,0.2-1.8,0.3l-0.6,0.1c-1.1,0.2-2.2,0.3-3.3,0.4c-1.1,0.1-2.1,0.1-3-0.1
					c1.4-0.4,2.9-0.7,4.4-0.9c1-0.1,2-0.2,3-0.3c2.5-0.2,5-0.4,7.4-0.4c0.5,0,1,0,1.5,0c0.5,0,1.2-0.2,1.9-0.5
					c0.7-0.3,1.3-0.7,2-1.2c-0.6,0.4-1.2,0.8-1.9,1.2l0,0.5c0.5-0.1,1.1-0.3,1.6-0.5c0.5-0.2,1.1-0.4,1.7-0.6
					c-0.2,0.2-0.5,0.3-0.7,0.5c-0.9,0.5-1.8,1.1-2.8,1.5c-0.8,0.3-1.7,0.5-2.6,0.6l-0.2,0c-0.6,0.1-1,0.2-1.5,0.4l0,0
					c-1.4,0.4-2.9,1-4.5,1.5c0.7,0,1.3-0.1,2-0.2c0.4,0.1,0.5,0.2,0.6,0.3c0.3,0.6-1.9,1.7-3.5,2.2l-0.3-0.1
					c0.8-0.4,1.5-0.8,1.7-1.3c-1.4,0.3-1.4,0.8-2.2,1.2l-0.6-0.5c-0.6-0.1-1.1-0.2-1.7-0.2c0.7-0.9-2-0.3-1.8-1.1l-2.7-0.2L53,44.1
					C55.1,44.7,57.3,45.3,57.4,46.6"/>
				<path class="st9" d="M53.2,45.4c-0.1-1.7-3.8-2.5-7.4-2.7C49.3,42.9,53,43.7,53.2,45.4"/>
				<path class="st10" d="M61.1,45.2c0.8-0.3,0.8-0.8,2.2-1.2C61.9,44.4,61.9,44.9,61.1,45.2"/>
				<path class="st2" d="M76.8,37.3c-0.6,0.5-1.2,0.9-1.8,1.2c-0.2,0.2-0.5,0.3-0.7,0.5c-0.9,0.5-1.8,1.1-2.8,1.5l-0.1,0.1
					c0.9-0.3,1.7-0.7,2.6-1.2c-0.8,0.6-1.7,1.2-2.7,1.6c1.3-0.1,2.5-1,3.8-1.9C75.7,38.6,76.3,38,76.8,37.3 M74.3,39
					c-0.9,0.5-1.8,1.1-2.8,1.5C72.5,40.1,73.4,39.5,74.3,39"/>
				<path class="st3" d="M74.3,39c-0.9,0.5-1.8,1.1-2.8,1.5C72.5,40.1,73.4,39.5,74.3,39"/>
				<polyline class="st2" points="61.3,45.5 61.1,45.2 61.6,45.3 61.3,45.5 				"/>
				<polyline class="st2" points="49.9,37.9 49.8,37.6 49.9,37.9 				"/>
				<path class="st11" d="M63.5,50.2c-1.8-0.4-2.1-1.2-2.2-2.1c0-0.9,0.3-1.8-0.1-2.6l0.3-0.2l0.3,0.1c1.6-0.4,3.8-1.6,3.5-2.2
					c-0.1-0.1-0.3-0.2-0.6-0.3c-0.7,0.1-1.3,0.1-2,0.2c1.6-0.5,3-1.1,4.5-1.5c0.5-0.1,0.9-0.2,1.5-0.4l0.2,0
					c0.9-0.1,1.8-0.3,2.6-0.6l-0.1,0.1c-0.8,0.3-1.6,0.5-2.5,0.6l0,0l0,0c0.8,0.1,1.7,0,2.6-0.4c0.9-0.3,1.7-0.9,2.5-1.4
					c-0.8,0.6-1.7,1.2-2.7,1.6c1.3-0.1,2.5-1,3.8-1.9c-0.1,0.2-0.1,0.3-0.2,0.5c0.7-0.1,1.4-0.3,2.1-0.6c-1,0.8-2.2,1.3-3.3,1.8
					c-0.1,0.2-0.2,0.4-0.4,0.6c-0.1,0.2-0.3,0.4-0.4,0.5c0.4,0,0.8,0,1.3,0c0.5,0,1-0.1,1.5-0.2c1.1-0.2,2.3-0.6,3.5-1.6
					c-1.3,1.1-2.8,1.7-4.4,2.3c-1.5,0.6-3.1,1-5.1,1.2c-0.5,0.1-0.9,0.2-1.4,0.3l-0.1,0.5l-0.8-0.1c0.3,0.2,0.7,0.3,1.2,0.4
					c0.2,0,0.4,0.1,0.7,0.1c0.2,0,0.6,0,0.9,0c0.8,0.1,1.5,0.1,2.1,0.2c-0.6,0.1-1.3,0.1-1.9,0.1l-0.8,0.1c-0.2,0-0.4,0-0.6,0
					c0.1,0.2,0.3,0.3,0.5,0.4c0.2,0.1,0.7,0.1,1,0.1c0.4,0.1,0.8,0.1,1.1,0.2c-0.4,0-0.7,0-1,0c-0.3,0-0.5,0-0.8-0.1
					c-0.2,0-0.4-0.1-0.5-0.2c-0.3-0.1-0.6-0.3-0.9-0.4c-0.6-0.3-1.2-0.4-2.1-0.2l-0.1,0l-0.1,0c-3.6,0.8-3.3,2.6-1.4,3.7l-0.8-0.1
					C62.5,49.2,63.8,49.6,63.5,50.2"/>
				<path class="st12" d="M65.3,43.2c-0.1-0.1-0.3-0.2-0.6-0.3c-0.7,0.1-1.3,0.1-2,0.2c0.7,0,1.3-0.1,2-0.2
					C65.1,43,65.3,43.1,65.3,43.2"/>
				<path class="st12" d="M62.8,43.1c1.6-0.5,3-1.1,4.5-1.5C65.8,41.9,64.3,42.6,62.8,43.1"/>
				<path class="st13" d="M73.9,39.5c-0.8,0.6-1.7,1.2-2.7,1.6C72.3,40.7,73.1,40.1,73.9,39.5"/>
				<polyline class="st13" points="71.4,40.6 71.5,40.5 71.4,40.6 				"/>
				<path class="st11" d="M76.3,34.5l0-0.6l-0.1-0.8l-0.3,0.7l0.3-0.7l-0.3-0.3l-0.4,0.7c-0.1,0.2-0.3,0.5-0.5,0.7
					c0.2-0.3,0.3-0.6,0.4-0.9c-0.2,0.4-0.6,0.8-0.9,1.1c0.2-0.2,0.3-0.5,0.5-0.7l0.4-0.8L75,32.9l-0.3,0.5c-0.5,1.3-1.4,2.5-2.7,3
					c0.4-0.4,0.8-0.8,1.2-1.3c0.4-0.5,0.7-1,0.9-1.6c0.2-0.6,0.3-1.2,0.5-1.8l0-0.5c-0.3,0.8-0.5,1.6-1,2.3c-0.4,0.7-1,1.2-1.7,1.3
					c0.1-0.1,0.1-0.2,0.2-0.2c0.6-0.8,1.2-1.5,1.5-2.3c0.4-0.8,0.8-1.7,1-2.8l0-0.2c-0.6,1-1.3,2.5-1.9,3.2l1.1-2
					c0.2-0.4,0.4-0.7,0.6-1.1c0.2-0.4,0.3-0.8,0.4-1.2l0-0.2c0.2-1.6,0.1-3.2-0.2-4.7l0,0.1c0-0.6-0.1-1.1-0.2-1.7
					c0.1,0.6,0,1.1,0,1.7l0-0.1c0,0.3,0,0.7,0,1c0-0.3,0-0.7,0-1l0,0.1c0.1-0.5,0.1-1.1,0-1.7c-0.3-1.8-1.4-3.3-2.8-4.5
					c-1.2-1-2.2-2.1-3.3-3.2l1.4,2.2c-1.5-0.4-2.9-1.6-4.1-2.2c1.7,1.6,3,3.2,4.7,4.6c-1.7-1.4-3-3-4.7-4.6l-0.4-0.2
					c1.1,1.7,2.9,3.3,4.1,4.9c-1-0.9-1.7-1.9-2.9-2.8l0.2,0.4l0.5,0.4l-0.5-0.4c-1.1-0.9-1.9-1.9-2.8-2.7c-1.5-0.1-3.1-0.3-4.4-0.9
					L59,12.4c0.4,0.3,0.9,0.6,1.3,1L59.9,13c0.6,0.5,1.1,1,1.7,1.5c0.4,0.6,0.8,1.2,1.2,1.7c-0.6-0.4-1.2-0.9-1.8-1.3l0.4,0.6
					c0.4,0.3,0.9,0.7,1.2,1c0.3,0.3,0.6,0.7,0.9,1.2c-0.8-0.5-1.4-0.8-2.1-1.2c-0.5,0-1-0.1-1.5-0.1l-0.2,0.8c0.2,0.5,0.5,1,0.9,1.4
					c0.2,0.2,0.4,0.5,0.7,0.7c0.3,0.2,0.7,0.5,1,0.8l0.3,0.2l0.3-0.7l0.2,0.7l1.1,0.1l0.8,0.7c0.7-0.1,1.4,0.2,2,0.7
					c0.3,0.2,0.6,0.5,0.9,0.7c0.3,0.2,0.4,0.3,0.5,0.4c0-0.1,0-0.2-0.1-0.4c0.3-0.2,0.5-0.1,0.6,0c0.2,0.2,0.1,0.5,0.1,0.6
					c-0.1,0.2-0.2,0.3-0.3,0.4l0,0l0,0l0,0L68.5,24l0.2,1l0,0.2c0,0.2-0.1,0.4-0.2,0.7l-0.2,0.4l0.2-0.4c0-0.1,0-0.3,0.1-0.4
					l-0.2,0.4c0-0.2,0.1-0.5,0.1-0.7c-0.1,0.5-0.2,1-0.4,1.4L68,27.1L68,27c-0.1,0.2-0.2,0.4-0.4,0.6c-0.1,0.2-0.2,0.4-0.3,0.6
					c-0.1,0.1-0.2,0.2-0.3,0.3c0,0.1,0.1,0.3,0.1,0.4c0-0.1-0.1-0.3-0.1-0.4l-0.1-0.2c-0.1,0.2-0.2,0.3-0.2,0.5l-0.2-0.1
					c-0.2,0.2-0.3,0.4-0.4,0.6l0,0c0,0.1,0,0.3,0,0.4c0-0.2,0-0.3-0.1-0.4L65.5,29c0,0.1,0.1,0.5-0.1,0.6c0,0-0.1,0-0.1,0l0.1,0.1
					c-0.1,0.1-0.1,0.1-0.2,0.2c0,0.1-0.1,0.3-0.1,0.4c0,0.1,0,0.1-0.1,0.2l-0.4,0.3l0.3,0.1c0.1,0,0.2,0,0.3,0.1
					c0,0-0.2-0.1-0.3-0.1l-0.3-0.1c-2.3,1.6-4.5,3.1-6.2,4.7c1.4-0.5,2.7-1.1,3.7-1.8c0.6-0.3,1.3-0.6,1.9-0.9
					c0.6-0.2,1.1-0.5,1.7-0.7c0.1-0.1,0.3-0.1,0.5-0.1l0.2-0.1c-0.1,0.3-0.3,0.6-0.5,0.9l-0.1,0.2l0,0c0,0.1-0.2,0.3-0.3,0.4
					c0.1-0.1,0.2-0.3,0.2-0.4c-2.8,0.9-5,2.4-7.9,2.9l0.5-0.3c-1.7,0.6-3.5,1.1-5.2,1.6l-1.9,1.5l1.7-0.1l-0.9,0.3
					c-0.1,0.1-0.7,0.3-0.7,0.4c-0.1,0.2,0.7,0.3,4.2-0.2l1.8-0.3c-2,0.7-3.7,1.3-5.2,2.2l1.5,0.3c1.4-0.4,2.9-0.7,4.4-0.9
					c1-0.1,2-0.2,3-0.3c2.5-0.2,5-0.4,7.4-0.4c0.5,0,1,0,1.5,0c0.5,0,1.2-0.2,1.9-0.5c0.7-0.3,1.3-0.7,2-1.2l0.2-0.2
					c-0.3,0.1-0.5,0.2-0.8,0.3c0.4-0.2,0.7-0.4,1.1-0.6c-0.6,0.3-1.3,0.4-2,0.5c0.7-0.3,1.6-0.5,2.3-1c0.1-0.1,0.1-0.2,0.2-0.4
					c-0.5,0.4-1.1,0.7-1.8,0.9c0.7-0.3,1.3-0.7,1.9-1.2c0.1-0.2,0.1-0.4,0.1-0.5C75.3,35.4,75.9,35,76.3,34.5 M71.1,19.1
					c-1.1-1.2-2-2.5-3.6-3.8C69.2,16.6,70,18,71.1,19.1c0.1,0.2,0.3,0.3,0.4,0.5c0.1,0.1,0.2,0.2,0.3,0.3c-0.1-0.1-0.2-0.2-0.3-0.3
					C71.4,19.5,71.3,19.3,71.1,19.1l0.2-0.1c0.4,0.4,0.8,0.8,1.1,1.2c-0.3-0.4-0.7-0.9-1.1-1.2L71.1,19.1 M74.4,26.8
					c-0.1-1.3,0.3-2.3,0.2-3.5l0,0.1c0-0.2,0-0.4,0-0.6c0,0.2,0,0.4,0,0.6l0-0.1C74.8,24.5,74.4,25.5,74.4,26.8 M74.5,28.1l0,0.1
					c0,0.4-0.1,0.7-0.2,1c0.1-0.3,0.1-0.7,0.2-1L74.5,28.1c0.2-1.3,0.5-2.3,0.4-3.7C75,25.8,74.7,26.8,74.5,28.1 M72.2,19.7
					c0.2,0.1,0.4,0.2,0.5,0.4C72.5,19.9,72.3,19.8,72.2,19.7 M59.9,37.8c-0.9,0.3-1.8,0.6-2.7,0.9C58.1,38.4,59,38.1,59.9,37.8
					 M59.9,37.8c-0.9,0.3-1.8,0.6-2.7,0.9C58.1,38.4,59,38.1,59.9,37.8 M59.9,37.8l0.4-0.1l0.4-0.2l0.4-0.1l0.4-0.2l0,0l0.4-0.1
					l0.4-0.2l0.4-0.1l0.4-0.2l0.4-0.2l0.3-0.1l0.4-0.2l0.4-0.2l0.4-0.2l0.3-0.2l0.4-0.2l0.2-0.2c-1.5,0.6-2.7,1.2-3.9,1.9l-0.1,0.1
					L61.5,37L61,37.2l-0.1,0.1l-0.4,0.2l-0.2,0.1L59.9,37.8 M52.8,38.4c0.2,0,0.4,0,0.6,0c0.1,0,0.3,0,0.4-0.1l0.4,0l0.4-0.1
					l0.5-0.1l0.2-0.1c0.2-0.1,0.5-0.1,0.7-0.2l0,0l0.4-0.2l-0.4,0.2l0.4-0.2l-0.4,0.2l0,0c0.1-0.1,0.3-0.1,0.4-0.2
					c-0.2,0.1-0.3,0.1-0.5,0.2l-0.3,0.1l-0.5,0.1L55,38l-0.5,0.1l-0.3,0l-0.3,0.1C53.5,38.2,53.2,38.3,52.8,38.4 M62.8,19.7l0.1-0.1
					l-0.3-0.4L62.8,19.7"/>
				<path class="st1" d="M59.9,37.8c0.5-0.2,1-0.4,1.6-0.6l-0.4,0.2l-0.4,0.1l-0.4,0.2L59.9,37.8"/>
				<polyline class="st1" points="60.3,37.6 60.5,37.4 60.9,37.3 61,37.2 60.3,37.6 				"/>
				<path class="st1" d="M61.5,37.2c1.6-0.6,3-1.3,4.2-2.2l-0.2,0.2l-0.4,0.2l-0.3,0.2l-0.4,0.2L64.1,36l-0.4,0.2l-0.3,0.1L63,36.5
					l-0.4,0.2l-0.4,0.1L61.8,37L61.5,37.2"/>
				<polyline class="st1" points="61.5,37 61.6,36.9 61.7,36.9 61.5,37 				"/>
				<polyline class="st14" points="68.6,23.7 68.6,23.7 68.6,23.7 68.6,23.7 				"/>
				<path class="st13" d="M65.1,30.9c0,0-0.2-0.1-0.3-0.1l-0.3-0.1l0.3,0.1C64.9,30.8,65,30.8,65.1,30.9"/>
				<polyline class="st13" points="59.9,13 60.3,13.4 59.9,13 				"/>
				<path class="st13" d="M61,15c0.6,0.4,1.2,0.8,1.8,1.3C62.2,15.8,61.6,15.4,61,15"/>
				<path class="st13" d="M63.4,17.8c-0.8-0.5-1.4-0.8-2.1-1.2C62,17,62.6,17.3,63.4,17.8"/>
				<polyline class="st15" points="59.9,37.8 60.3,37.6 60.7,37.5 61.1,37.3 61.4,37.2 61.1,37.3 60.7,37.5 60.3,37.6 59.9,37.8 
									"/>
				<polyline class="st15" points="60.3,37.6 60.5,37.4 60.9,37.3 61,37.2 60.9,37.3 60.5,37.4 60.3,37.6 				"/>
				<polyline class="st15" points="61.5,37.2 61.8,37 62.2,36.8 62.6,36.7 63,36.5 63.4,36.3 63.7,36.2 64.1,36 64.4,35.8 
					64.8,35.6 65.1,35.4 65.4,35.2 65.7,35 65.4,35.2 65.1,35.4 64.8,35.6 64.4,35.8 64.1,36 63.7,36.2 63.4,36.3 63,36.5 
					62.6,36.7 62.2,36.8 61.8,37 61.5,37.2 				"/>
				<polyline class="st15" points="61.5,37 61.6,36.9 61.7,36.9 61.6,36.9 61.5,37 				"/>
				<path class="st15" d="M57.2,38.7c0.9-0.3,1.8-0.6,2.7-0.9C59,38.1,58.1,38.4,57.2,38.7"/>
				<path class="st15" d="M57.2,38.7c0.9-0.3,1.8-0.6,2.7-0.9C59,38.1,58.1,38.4,57.2,38.7"/>
				<path class="st12" d="M73.6,37.9c-0.7,0.4-1.3,0.9-2,1.2c-0.7,0.3-1.3,0.5-1.9,0.5c-0.5,0-1,0-1.5,0c-2.4,0.1-4.9,0.2-7.4,0.4
					c2.5-0.2,5-0.4,7.4-0.4c0.5,0,1,0,1.5,0c0.5,0,1.2-0.2,1.9-0.5C72.3,38.7,72.9,38.3,73.6,37.9"/>
				<path class="st12" d="M53.5,41.1c1.4-0.4,2.9-0.7,4.4-0.9C56.4,40.5,54.9,40.8,53.5,41.1"/>
				<path class="st1" d="M54.2,38.2l-0.4,0c0.5-0.1,1.1-0.2,1.6-0.4L55.2,38l-0.5,0.1L54.2,38.2"/>
				<polyline class="st1" points="53.9,38.2 54.2,38.1 54.5,38.1 53.9,38.2 				"/>
				<path class="st1" d="M55,38l0.2,0l0.5-0.1l0.3-0.1C55.7,37.8,55.3,37.9,55,38"/>
				<polyline class="st1" points="56.1,37.7 56.1,37.7 56.1,37.7 56.1,37.7 				"/>
				<polyline class="st2" points="50.2,37.9 50.4,37.9 50.2,37.9 				"/>
				<path class="st7" d="M51.1,38.5c-1.3,0-2.7-0.1-4-0.2c-0.7-0.1-1.3-0.1-2-0.2c-0.6,0-1.3-0.1-1.9-0.1l1.5-0.7l-0.2,0.1
					c0.3,0,0.8,0,1.3,0c0.2,0,0.5,0,0.8,0c0.8,0,1.6-0.1,2.3,0l0.9,0.3l0,0l0.1,0.3l-0.6,0.3l0.9-0.3l0.2-0.1L53,37L51.1,38.5"/>
				<path class="st16" d="M45.9,37.3c-0.5,0-0.9,0-1.3,0C44.9,37.3,45.4,37.3,45.9,37.3c0.2,0,0.5,0,0.8,0
					C46.4,37.3,46.1,37.3,45.9,37.3"/>
				<polyline class="st16" points="44.6,37.3 44.8,37.2 44.6,37.3 				"/>
				<polyline class="st17" points="49.9,37.9 49.8,37.6 49.8,37.6 49.9,37.9 				"/>
				<polyline class="st16" points="51.1,38.5 53,37 51.1,38.5 				"/>
				<path class="st7" d="M51,41.7c-1.6,0.1-3.7-0.1-5.5-0.3c1.4-1,3.8-1.9,5.6-3l1.7-0.1l-0.9,0.3c-0.1,0.1-0.7,0.3-0.7,0.4
					c-0.1,0.2,0.7,0.3,4.2-0.2l1.8-0.3c-2,0.7-3.7,1.3-5.2,2.2l1.5,0.3l-0.9,0.2c-0.3,0.1-0.7,0.2-1.2,0.3
					C51.3,41.7,51.1,41.7,51,41.7"/>
				<path class="st16" d="M52,40.9c1.4-0.9,3.2-1.5,5.2-2.2C55.2,39.3,53.4,40,52,40.9"/>
				<path class="st16" d="M51.2,39.2c0-0.1,0.6-0.3,0.7-0.4l0.9-0.3l-0.9,0.3C51.8,38.8,51.2,39,51.2,39.2"/>
				<path class="st18" d="M56.7,42c-0.9,0.1-1.8,0.2-2.7,0.3c-2.7,0.3-5.5,0.4-8.2,0.4c-0.8-0.1-1.7-0.1-2.5-0.1l-0.8,0
					c-0.9-1.2-1.6-2.5-2.1-3.8c1.1-0.3,2.1-0.6,3-0.9c0.6,0,1.3,0.1,1.9,0.1c0.6,0.1,1.3,0.1,2,0.2c1.3,0.1,2.6,0.2,4,0.2
					c-1.8,1-4.3,1.9-5.6,3c1.7,0.2,3.8,0.4,5.5,0.3l0,0c0.2,0,0.3,0,0.5-0.1c0.4-0.1,0.9-0.2,1.2-0.3l0.9-0.2c1,0.1,2,0.2,3,0.1
					c1.1-0.1,2.2-0.2,3.3-0.4l0.6-0.1c0.6-0.1,1.2-0.2,1.8-0.3c0.6-0.1,1.3-0.2,1.9-0.3l0.4,0.4C61.9,41.2,59.3,41.6,56.7,42"/>
				<path class="st13" d="M56.7,42c2.6-0.3,5.3-0.8,7.8-1.5C61.9,41.2,59.3,41.6,56.7,42"/>
				<path class="st13" d="M53.9,42.3c-2.7,0.3-5.5,0.4-8.2,0.4C48.5,42.7,51.2,42.6,53.9,42.3"/>
				<path class="st13" d="M62.2,40.4c-0.6,0.1-1.2,0.2-1.8,0.3l-0.6,0.1c-1.1,0.2-2.2,0.3-3.3,0.4c1.1-0.1,2.2-0.2,3.3-0.4l0.6-0.1
					C61,40.6,61.6,40.5,62.2,40.4"/>
				<path class="st19" d="M51,41.7L51,41.7c0.2,0,0.3,0,0.5-0.1C51.3,41.7,51.1,41.7,51,41.7"/>
				<path class="st19" d="M45.5,41.4c1.4-1,3.8-1.9,5.6-3C49.3,39.5,46.9,40.4,45.5,41.4"/>
				<path class="st2" d="M45.8,42.7c-1.1,0-2.2,0-3.3-0.1l0.8,0C44.1,42.6,44.9,42.6,45.8,42.7"/>
				<path class="st17" d="M45.8,42.7c-1.1,0-2.2,0-3.3-0.1C43.5,42.7,44.7,42.7,45.8,42.7"/>
			</g>
		</g>
	</g>
</g>
<g>
	<g>
		<g>
			<g class="st0">
				<path class="st1" d="M28.7,78.9c-0.4-1.2-0.6-2.4-0.6-3.6l-0.9-0.9l2,1c3.8,1.4,8.6,2.7,11.6,4.5c-0.9-0.3-2-0.5-3.1-0.7
					c-0.4-0.1-0.7-0.1-1-0.2c-0.7-0.1-1.3-0.3-1.8-0.4l0.3,0l-2.3,0.3l-2.2-0.5l2.2,0.5L28.7,78.9"/>
				<path class="st1" d="M78.8,71L78.8,71c-0.1,0-0.2-0.1-0.4-0.1c-0.1-0.2-0.3-0.4-0.5-0.6c-0.2-0.2-0.3-0.3-0.5-0.6
					c-0.5-0.6-1-1.1-1.5-1.5c-0.6-0.5-1.2-1.1-1.9-1.6c-0.8-0.7-1.6-1.4-2.4-2.2c-0.3-0.3-0.7-0.6-1-0.9c0.9,0.4,1.7,0.8,2.5,1.3
					l0.2,0.2c0.7,0.7,1.4,1.4,1.9,1.8c0.5,0.5,1.1,1,1.5,1.5c0.5,0.5,0.9,1.1,1.3,1.6C78.4,70.2,78.6,70.6,78.8,71"/>
				<path class="st2" d="M69.3,65.3c-0.9-0.5-1.7-1-2.6-1.6c-0.9-0.5-1.7-1-2.9-1.6l0.3-0.4c0.3,0.2,0.6,0.4,0.9,0.5
					c0.3,0.1,0.5,0.3,0.8,0.5c0.5,0.3,1.1,0.6,1.6,1c0.3,0.2,0.5,0.4,0.8,0.7L68,64.2C68.4,64.6,68.9,64.9,69.3,65.3"/>
				<polyline class="st2" points="66.1,62.2 64.2,61.3 64,61 66.1,62.2 				"/>
				<path class="st2" d="M87.9,70.5c0,0.3,0,0.5,0,0.8c0-0.3,0-0.6-0.1-1L87.9,70.5"/>
				<polyline class="st2" points="74.3,47.6 75.1,48.4 74.3,47.6 				"/>
				<polyline class="st2" points="75.1,48.4 75.2,48.5 75.1,48.4 				"/>
				<polyline class="st2" points="55.7,53.6 56.2,54.1 55.7,53.6 				"/>
				<polyline class="st2" points="69.6,45.8 69.9,46.1 69.6,45.8 				"/>
				<path class="st2" d="M63.6,77c-0.5-0.1-1-0.3-1.5-0.5C62.6,76.7,63.1,76.9,63.6,77"/>
				<path class="st2" d="M87.9,71.3c-0.1,0.5-0.2,1-0.3,1.5C87.7,72.3,87.8,71.8,87.9,71.3"/>
				<polyline class="st2" points="56.8,55.3 57.5,55.8 56.9,55.4 56.8,55.3 				"/>
				<path class="st2" d="M54.8,52.9c0.3,0.2,0.6,0.4,0.9,0.7l-0.6-0.4L54.8,52.9"/>
				<path class="st2" d="M61.3,58L60,57.6l-0.2-0.2l0.2,0.2l-0.2-0.2l0,0C60.3,57.6,60.8,57.8,61.3,58"/>
				<path class="st2" d="M55.4,54.1c0.5,0.4,0.9,0.7,1.3,1.1l0.7,0.5l-0.7-0.4c1.3,1.1,2.7,2.2,4.2,3.4l0.3-0.1
					c-0.7-0.5-1.4-0.9-2.1-1.4l0.7,0.3l-0.2-0.2l-0.4-0.3l0.4,0.2c-0.7-0.5-1.3-1.1-2-1.6l0.8,0.8l-1-0.9l0.2,0.1l-0.9-0.8
					C56.4,54.7,55.9,54.4,55.4,54.1 M57.6,55.7l-0.2-0.1L57.6,55.7"/>
				<polyline class="st3" points="56.9,55.4 57.5,55.8 56.9,55.4 				"/>
				<polyline class="st3" points="59.8,57.4 60,57.6 59.8,57.4 				"/>
				<path class="st2" d="M53,52.2l0.6,0.3l0.8,0.4c0.4,0.2,0.7,0.5,1,0.8l1.1,0.8l0.4,0.4c-0.5-0.3-1-0.5-1.5-0.8
					c-0.4-0.3-0.7-0.6-1.1-1C53.9,52.9,53.4,52.5,53,52.2"/>
				<polyline class="st2" points="59.4,57.1 59.8,57.4 59.8,57.4 59.4,57.1 				"/>
				<polyline class="st3" points="59.4,57.1 59.8,57.4 59.4,57.1 				"/>
				<polyline class="st2" points="52.7,52.1 53.2,52.3 53.6,52.5 53,52.2 52.7,52.1 				"/>
				<polyline class="st2" points="53.1,52.2 53.2,52.3 53.1,52.2 				"/>
				<path class="st2" d="M53.4,52.4c0.4,0.2,1,0.4,1.3,0.6l-0.7-0.2L53.4,52.4"/>
				<polyline class="st3" points="59.8,57.4 60,57.6 59.8,57.4 				"/>
				<polyline class="st2" points="53.1,52.2 53.4,52.4 53.1,52.2 				"/>
				<polyline class="st2" points="53.2,52.3 53.4,52.4 54.1,52.7 54.4,52.9 53.6,52.5 54.4,52.9 53.6,52.5 53.2,52.3 				"/>
				<polyline class="st3" points="53.1,52.2 53.4,52.4 53.2,52.3 53.1,52.2 				"/>
				<polyline class="st3" points="53.4,52.4 54.1,52.7 53.4,52.4 				"/>
				<polyline class="st3" points="53.6,52.5 54.4,52.9 53.6,52.5 				"/>
				<path class="st2" d="M54.1,52.7l0.7,0.2l0.3,0.3C54.7,53,54.4,52.9,54.1,52.7"/>
				<polyline class="st3" points="54.8,52.9 55.1,53.2 54.8,52.9 				"/>
				<polyline class="st3" points="54.1,52.7 54.8,52.9 54.1,52.7 				"/>
				<path class="st2" d="M54.1,52.7c0.4,0.2,0.7,0.3,1,0.5l0.4,0.5c-0.3-0.2-0.7-0.5-1-0.7l-0.1,0L54.1,52.7"/>
				<path class="st3" d="M54.1,52.7c0.4,0.2,0.7,0.3,1,0.5C54.7,53,54.4,52.9,54.1,52.7"/>
				<polyline class="st3" points="57.3,55.6 57.6,55.7 57.3,55.6 				"/>
				<polyline class="st2" points="57.6,55.7 57.8,55.8 58.6,56.5 57.6,55.7 				"/>
				<polyline class="st3" points="57.6,55.7 57.8,55.8 57.6,55.7 				"/>
				<polyline class="st3" points="57.8,55.8 58.6,56.5 57.8,55.8 				"/>
				<polyline class="st2" points="56.5,54.5 57.2,55 56.9,54.9 56.5,54.5 				"/>
				<path class="st2" d="M54.4,52.9l0.1,0c0.3,0.2,0.6,0.5,1,0.7l1.1,0.8l-1.1-0.8C55.1,53.4,54.8,53.2,54.4,52.9"/>
				<polyline class="st3" points="54.4,52.9 54.5,53 54.4,52.9 54.5,53 54.4,52.9 				"/>
				<polyline class="st4" points="54.4,52.9 54.5,53 54.4,52.9 				"/>
				<path class="st2" d="M69.2,49.3c0.6,0.6,1.1,1.1,1.7,1.7c-0.6-0.6-1.3-1.2-2-1.8L69.2,49.3"/>
				<path class="st2" d="M70.2,49.7c0.5,0.6,0.9,1.3,1.3,1.9c-0.6-0.7-1.2-1.4-1.9-2.2L70.2,49.7"/>
				<path class="st2" d="M72.5,49.4c0.4,0.3,0.8,0.6,1.3,0.9c0.4,0.3,0.8,0.7,1.2,1c0.8,0.7,1.5,1.4,2,2.1c-0.7-0.7-1.5-1.4-2.3-2
					l0.1,0.1l-1.2-1.1L72.5,49.4"/>
				<polyline class="st2" points="72.5,49.4 73.6,50.5 74.8,51.5 74.7,51.4 73.6,50.4 72.5,49.4 				"/>
				<polyline class="st3" points="72.5,49.4 73.6,50.5 74.8,51.5 73.6,50.5 72.5,49.4 				"/>
				<polyline class="st2" points="70.8,50.1 71.3,50.7 70.2,49.7 70.8,50.1 				"/>
				<polyline class="st2" points="65.1,46.9 65.9,47.4 65.1,46.9 				"/>
				<path class="st5" d="M34.1,42.1l-0.7,0.3l-1,0.6c1.7,0,3.4,0.1,5.3,0.1l-0.6-0.2c2.1,0,3.6,0.6,5.3,0.9
					c-1.2-0.4-2.6-0.8-4.1-1.1C36.9,42.4,35.4,42.3,34.1,42.1"/>
				<polyline class="st2" points="45.6,43.7 46.2,43.8 45.6,43.7 				"/>
				<polyline class="st2" points="37.7,43 38.6,43.1 37.7,43 				"/>
				<polyline class="st2" points="44.8,43.4 45.6,43.7 44.8,43.4 				"/>
				<path class="st2" d="M64.8,48.2l0.8,0.5l0.6,0.7C65.7,49.1,65.2,48.7,64.8,48.2L64.8,48.2"/>
				<polyline class="st2" points="64.8,48.1 65.5,48.8 64.8,48.2 64.8,48.1 				"/>
				<path class="st2" d="M64.9,47.4l0.6,0.5c0.5,0.5,0.9,0.9,1.3,1.4c-0.6-0.5-1.2-1-1.8-1.4L64.9,47.4"/>
				<polyline class="st2" points="64.9,47.4 65.4,48 64.9,47.4 64.9,47.4 				"/>
				<path class="st2" d="M64.8,47.2c0.6,0.5,1.1,1,1.6,1.5l-1-0.7l-0.6-0.6L64.8,47.2"/>
				<path class="st5" d="M64.7,48.3c0.5,0.4,1,0.8,1.5,1.2l-0.6-0.7c1.4,1,3.1,2,4.3,3.2c-0.8-0.4-1.6-0.9-2.3-1.4
					c-1.3-0.8-2.6-1.7-3.9-2.4L64.7,48.3"/>
				<path class="st6" d="M64.7,48.3c0.5,0.4,1,0.8,1.5,1.2C65.7,49.1,65.2,48.7,64.7,48.3"/>
				<path class="st2" d="M62.8,48c1.9,1.3,4,2.7,5.1,4.2c-0.1-0.1-0.3-0.2-0.4-0.3c-2.6-1.6-4.1-3.4-7-4.7L60.3,47
					c1.2,1,3.2,2.4,4.3,3.5c-1.9-1.5-3.7-2.9-5.6-4.3C60.3,46.8,61.6,47.3,62.8,48"/>
				<path class="st2" d="M65.3,50.9c0.7,0.8,1.4,1.6,2.1,2.4l-1-0.9C66.1,52,65.7,51.5,65.3,50.9"/>
				<polyline class="st2" points="70.4,56.2 70.7,56.5 70.8,56.7 70.4,56.2 				"/>
				<path class="st2" d="M68.6,54.3l0.5,0.6c0.5,0.5,0.9,0.9,1.4,1.4l0.3,0.3C70.1,55.8,69.3,55.1,68.6,54.3 M69.1,54.9
					c0.5,0.5,0.9,0.9,1.4,1.4C70,55.8,69.5,55.3,69.1,54.9"/>
				<path class="st2" d="M66.4,52.5l1,0.9c0.6,0.5,1.1,1,1.6,1.5c0.5,0.5,0.9,0.9,1.4,1.4l0.4,0.4l-0.1-0.1c0.6,0.8,1.1,1.5,1.6,2.3
					c-0.8-0.7-1.6-1.4-2.4-2c-0.4-0.7-1.1-1.4-1.7-2.2C67.7,53.9,67,53.2,66.4,52.5"/>
				<polyline class="st3" points="66.4,52.5 67.4,53.4 66.4,52.5 				"/>
				<polyline class="st3" points="70.4,56.2 70.8,56.7 70.4,56.2 				"/>
				<path class="st3" d="M69.1,54.9c0.5,0.5,0.9,0.9,1.4,1.4C70,55.8,69.5,55.3,69.1,54.9"/>
				<path class="st3" d="M69.1,54.9c0.5,0.5,0.9,0.9,1.4,1.4C70,55.8,69.5,55.3,69.1,54.9"/>
				<path class="st2" d="M70.5,57.6c1.1,1,2.1,2.1,2.7,3.1c-0.9-0.7-1.8-1.4-2.7-2l0.5,0L70.5,57.6"/>
				<path class="st2" d="M80.9,86.3c-0.5,0.1-1.1,0.2-1.6,0.3l0.4-0.3C80.1,86.3,80.5,86.4,80.9,86.3"/>
				<path class="st7" d="M37.2,89.5c-2.7-2.2-4.7-4.2-6.3-6.4l4.4,1c2.4,0.6,4.6,1.5,6.4,2.3c1.7,0.8,2.9,1.7,2.7,2.5
					c0,0.2-0.2,0.5-0.5,0.7C41.6,89.6,39.1,89.6,37.2,89.5"/>
				<path class="st2" d="M55.7,90.8l-0.6-0.2c1.1-0.2,1.3-0.7,3.2-0.7C57.9,90.4,56.8,90.6,55.7,90.8"/>
				<path class="st8" d="M49.8,91.2c-1.2-0.8-2.8-1.1-4.6-1.3c-0.4,0-0.9-0.1-1.3-0.1c0.3-0.2,0.4-0.5,0.5-0.7
					c0.1-0.8-1-1.7-2.7-2.5c-1.8-0.8-4-1.7-6.4-2.3l5.4,1.2c1.9,0.3,3.7,0.6,5.6,0.8c1.2,0.1,2.5,0.3,3.7,0.4
					c3.6,0.2,7.2,0.3,10.9,0.1l-0.5-0.4l-2.6,0c-0.8,0-1.7,0-2.5-0.1l-0.8,0c-1.5-0.1-3.1-0.1-4.5-0.3c-1.4-0.2-2.8-0.4-4.1-0.8
					c2,0,4.1,0.1,6.1,0.2c1.4,0.1,2.7,0.2,4.1,0.3c4,0.4,8,0.7,11.6,1.1c1.3,0.1,3.2-0.1,5-0.5c-0.9,0.2-1.7,0.4-2.6,0.5L69.9,87
					c1.3,0.1,2.6,0.1,3.8,0.1l-1,0.2c-1.2,0.2-2.4,0.4-3.5,0.5c-1.1,0.1-2.1,0.2-3.2,0.3c-0.7,0-1.3,0.1-2,0.1l0,0
					c-2,0.2-4.1,0.5-6.3,0.7c0.9,0.1,1.8,0.2,2.7,0.2c0.4,0.1,0.7,0.3,0.7,0.4c0.2,0.6-2.9,1.4-5.1,1.4l-0.3-0.1
					c1.1-0.2,2.2-0.4,2.5-0.9c-1.9,0-2,0.5-3.2,0.7L54.5,90l-2.1-0.6c1.1-0.7-2.6-0.7-2.2-1.4c-1.2-0.3-2.4-0.5-3.6-0.8l-2.1,0.5
					C47.1,88.8,50,89.9,49.8,91.2"/>
				<path class="st9" d="M44.4,89c0.1-0.8-1-1.7-2.7-2.5c-1.8-0.8-4-1.7-6.4-2.3c2.4,0.6,4.6,1.5,6.4,2.3
					C43.4,87.3,44.5,88.2,44.4,89"/>
				<path class="st10" d="M55.1,90.6c1.1-0.2,1.3-0.7,3.2-0.7C56.4,90,56.2,90.4,55.1,90.6"/>
				<path class="st2" d="M76.1,87c-0.8,0.1-1.6,0.1-2.4,0.1l-1,0.2c-1.2,0.2-2.4,0.4-3.5,0.5l-0.1,0.1c1-0.1,2.1-0.1,3.1-0.3
					c-1.1,0.3-2.2,0.5-3.3,0.7c1.3,0.1,3-0.2,4.6-0.5C74.3,87.5,75.2,87.3,76.1,87 M72.8,87.3c-1.2,0.2-2.4,0.4-3.5,0.5
					C70.4,87.7,71.6,87.5,72.8,87.3"/>
				<path class="st3" d="M72.8,87.3c-1.2,0.2-2.4,0.4-3.5,0.5C70.4,87.7,71.6,87.5,72.8,87.3"/>
				<polyline class="st2" points="55.3,90.9 55.1,90.6 55.7,90.8 55.3,90.9 				"/>
				<polyline class="st2" points="42,80.8 41.9,80.4 42,80.8 				"/>
				<path class="st11" d="M56.9,96c-2.2-0.7-2.4-1.6-2.3-2.5c0.2-0.9,0.8-1.7,0.6-2.6l0.5-0.1l0.3,0.1c2.2-0.1,5.3-0.8,5.1-1.4
					c0-0.1-0.3-0.3-0.7-0.4c-0.9-0.1-1.8-0.1-2.7-0.2c2.2-0.2,4.3-0.5,6.3-0.7c0.7-0.1,1.3-0.1,2-0.1c1.1,0,2.1-0.1,3.2-0.3
					l-0.1,0.1c-1,0.1-1.9,0.2-2.9,0.3c1.6,0.3,3.9,0,6-0.5c-1.1,0.3-2.2,0.5-3.3,0.7c1.3,0.1,3-0.2,4.6-0.5L73,88.2
					c0.7,0.2,1.5,0.3,2.2,0.4c-1.3,0.2-2.6,0.3-3.9,0.3c-0.4,0.3-0.8,0.5-1.2,0.8c1.5,0.6,3.4,1.2,6.3,1c-1.9,0.2-3.6,0.1-5.4,0.1
					c-1.8-0.1-3.8-0.1-6.1,0l-0.3,0.5l-1-0.2c1.2,0.8,3.8,0.9,4.9,1.5c-1.1-0.1-2.1-0.2-3.2-0.4c0.2,0.5,1.8,0.8,2.4,1.1
					c-2.7-0.3-3.2-2-6-1.8l-0.1,0l-0.2,0c-2.5,0.1-3.7,0.5-4.1,1.2c-0.4,0.6,0.1,1.5,1.2,2.1l-1-0.2C55.8,94.8,57.4,95.5,56.9,96"/>
				<path class="st12" d="M61.2,89.5c0-0.1-0.3-0.3-0.7-0.4c-0.9-0.1-1.8-0.1-2.7-0.2c0.9,0.1,1.8,0.2,2.7,0.2
					C60.9,89.2,61.1,89.4,61.2,89.5"/>
				<path class="st12" d="M57.8,88.9c2.2-0.2,4.3-0.5,6.3-0.7C62.1,88.4,60,88.7,57.8,88.9"/>
				<path class="st13" d="M72.2,87.6c-1.1,0.3-2.2,0.5-3.3,0.7C70,88.1,71.1,87.9,72.2,87.6"/>
				<polyline class="st13" points="69.1,87.9 69.3,87.8 69.1,87.9 				"/>
				<path class="st11" d="M77.8,84.4l0.5-0.3l0.6-0.6L78,83.8l0.9-0.3l0-0.4c-0.7,0.2-1.5,0.3-2.2,0.4c0.4-0.1,0.8-0.2,1.2-0.3
					c-0.6,0.1-1.3,0.2-1.9,0.2c0.8-0.2,1.5-0.4,2.3-0.6l-0.1-0.2l-0.8,0.1c-1.8,0.5-3.6,1.2-5.3,1.3c0.7-0.3,1.5-0.5,2.2-0.8
					c1.6-0.5,3.1-1,4.7-1.8l0.5-0.4c-2.1,0.8-4.6,1.6-6.3,1.4c0.2-0.1,0.3-0.1,0.4-0.2c1.4-0.5,2.7-0.7,4-1.1
					c1.3-0.4,2.5-0.8,3.8-1.7l0.2-0.1c-1.5,0.6-3.6,1.3-5.2,1.4c0.6-0.1,1.1-0.3,1.7-0.4c0.5-0.1,1-0.3,1.6-0.5
					c1.1-0.3,2.2-0.8,3.1-1.4l0.2-0.2c1.1-1.1,1.9-2.4,2.2-3.7c0.3-1.4,0.3-2.8,0-4.2c0.1,1.2,0,2.4-0.3,3.5
					c0.3-1.1,0.4-2.3,0.3-3.5c-0.2-1.1-0.5-2.2-0.9-3.3c-0.4-1-0.8-2.1-1.3-3c-1-2-2.4-3.8-3.7-5.5c0.6,1,1.1,2,1.7,3.1
					c-1.8-1.3-3.4-3-5-4.2c1.1,1.2,2,2.4,2.8,3.5c0.9,1.2,1.6,2.4,2.3,3.6c-0.7-1.3-1.5-2.4-2.3-3.6c-0.8-1.2-1.7-2.4-2.8-3.5
					L75.5,57c0.7,1.1,1.6,2.3,2.4,3.5c0.9,1.2,1.7,2.4,2.1,3.5c-0.9-1.4-1.6-2.8-3.1-4.3l0.3,0.6l0.6,0.7l-0.6-0.7
					c-1.3-1.4-2.3-2.7-3.4-4c-1.8-0.6-3.8-1.3-5.6-2.4l-0.8-0.6c0.6,0.5,1.1,1,1.6,1.5l-0.5-0.6c0.7,0.8,1.5,1.5,2.2,2.2
					c0.6,0.8,1.1,1.5,1.6,2.3c-0.8-0.7-1.6-1.4-2.4-2l0.5,0.8c1.1,1,2.1,2.1,2.7,3.1c-0.9-0.7-1.8-1.4-2.7-2
					c-0.6-0.2-1.3-0.4-1.9-0.6L68.3,59c0.5,1.2,1.7,2.6,3.4,4.1l0.3,0.3l0.4-0.6l0.2,0.8l1.2,0.4l0.8,0.9c0.4,0.1,0.8,0.3,1.1,0.5
					c0.3,0.2,0.6,0.4,0.8,0.8c0.5,0.6,0.9,1.4,1.2,2.1l-0.1-0.7c0.5,0.1,0.8,0.5,1,0.9c0.2,0.3,0.3,0.7,0.4,1
					c0.1,0.3,0.1,0.5,0.1,0.7c0,0.3-0.1,0.6-0.2,0.9l0,0.1l0,0l0,0c0.1,0.4,0.1,0.8,0,1.2c-0.1,0.2-0.2,0.4-0.3,0.5
					c-0.1,0.1-0.2,0.2-0.3,0.2c0.1-0.1,0.2-0.2,0.3-0.2c0.1-0.1,0.1-0.2,0.2-0.4c-0.1,0.1-0.2,0.2-0.3,0.3c0.1-0.2,0.2-0.4,0.3-0.6
					c-0.2,0.4-0.5,0.8-0.8,1.1c-0.1,0.1-0.2,0.2-0.3,0.3c0,0,0-0.1,0-0.1c-0.2,0.1-0.4,0.2-0.6,0.2c-0.3,0.2-0.7,0.2-1,0.3
					c-0.1,0.1-0.2,0.3-0.3,0.4c0.1-0.1,0.2-0.3,0.2-0.4c0-0.1,0.1-0.1,0.1-0.2c-0.2,0.1-0.5,0.2-0.7,0.3L75,73.7c-0.1,0-0.2,0-0.2,0
					c-0.1,0,0,0-0.1,0l-0.4,0.1c-0.5,0.2-1,0.4-1.5,0.5l-0.1,0c-0.6,0.3-1.2,0.6-1.8,0.8c0.5-0.3,1.1-0.6,1.6-0.9L72.2,74
					c-1,0.4-2.1,1-3.3,1.3c-0.3,0.1-0.6,0.1-0.9,0.2l0.3,0c-0.6,0.1-1.1,0.3-1.7,0.4c-1,0.4-1.9,0.7-2.9,1l0.9,0.3L63.6,77
					c-3.6,1.2-7.1,2.2-9.9,3.4c2-0.2,4-0.5,5.6-1c2.5-0.5,4.8-0.9,7.2-1.3l0.8-0.1c-0.8,0.4-1.7,0.8-2.6,1.2l0.1,0l-0.6,0.4l0.5-0.4
					c-4.2,0.5-7.5,1.5-11.7,1.4l0.7-0.2c-2.5,0.2-4.9,0.3-7.3,0.3c-1,0.3-1.9,0.6-2.9,0.9l2.3,0.4l-1.3,0.1c-0.2,0.1-1,0.1-1.1,0.2
					c-0.1,0.1,0.9,0.5,5.6,0.9c0.8,0,1.7,0.1,2.5,0.1c-2.8,0.2-5.3,0.4-7.5,0.9l1.9,0.6c2,0,4.1,0.1,6.1,0.2
					c1.4,0.1,2.7,0.2,4.1,0.3c4,0.4,8,0.7,11.6,1.1c1.3,0.1,3.2-0.1,5-0.5l0.3-0.1l-1,0l1.4-0.2c-0.8,0-1.5-0.1-2.3-0.2
					c1,0,1.9,0,2.9-0.1l0.4-0.2c-0.8,0.1-1.6,0.1-2.4,0.2c0.9-0.1,1.8-0.2,2.7-0.3l0.5-0.4C76.1,84.6,76.9,84.5,77.8,84.4
					 M81.7,65.5c-0.8-2-1.7-3.9-3.6-6.1C80.1,61.5,80.9,63.4,81.7,65.5c0.1,0.3,0.2,0.6,0.3,0.8l0.2,0.5l-0.2-0.5
					C82,66,81.9,65.7,81.7,65.5l0.2,0c0.4,0.7,0.7,1.4,0.9,2.1c-0.3-0.7-0.6-1.4-0.9-2.1L81.7,65.5 M83.5,76.7
					c0.5-0.9,1-1.6,1.3-2.4c0.3-0.8,0.5-1.6,0.4-2.6c0.1,1-0.1,1.9-0.4,2.6C84.5,75.1,84,75.8,83.5,76.7 M82.5,78.1l-0.1,0.1
					c-0.4,0.3-0.7,0.6-1.2,0.9c0.4-0.3,0.8-0.6,1.2-0.9L82.5,78.1c1.3-1.1,2.4-2.3,2.7-4.1C84.9,75.8,83.8,76.9,82.5,78.1
					 M82.7,66.8c0.2,0.2,0.3,0.5,0.5,0.7C83.1,67.2,82.9,67,82.7,66.8 M55.3,83.1c-1.3,0.1-2.6,0.2-3.8,0.3
					C52.8,83.3,54.1,83.2,55.3,83.1 M55.3,83.1c-1.3,0.1-2.6,0.2-3.8,0.3C52.8,83.3,54.1,83.2,55.3,83.1 M55.3,83.1l0.6,0l0.6-0.1
					l0.6,0l0.5-0.1l0.1,0l0.6,0l0.6-0.1l0.6-0.1l0.6-0.1l0.6-0.1l0.4-0.1l0.6-0.1l0.6-0.1l0.6-0.1l0.4-0.1l0.5-0.1l0.4-0.2
					c-2.1,0.3-4,0.8-5.8,1.1l-0.2,0l-0.2,0l-0.7,0.1l-0.2,0l-0.6,0.1L56,83L55.3,83.1 M45.8,82.1c0.3,0,0.5,0.1,0.8,0.1
					c0.2,0,0.4,0,0.5,0l0.6,0.1l0.6,0l0.7,0l0.4,0c0.3,0,0.6,0,1-0.1l0,0l0.6-0.1l-0.6,0.1l0.6-0.1l-0.6,0.1l0,0
					c0.2,0,0.4,0,0.6-0.1c-0.2,0-0.5,0.1-0.8,0.1l-0.4,0l-0.7,0l-0.2,0c-0.2,0-0.5,0-0.7,0l-0.4,0l-0.4,0
					C46.7,82.1,46.2,82.1,45.8,82.1 M72.3,62.7l0.1-0.1l-0.3-0.5L72.3,62.7"/>
				<path class="st1" d="M55.3,83.1c0.8-0.1,1.5-0.2,2.3-0.3l-0.5,0.1l-0.6,0L55.9,83L55.3,83.1"/>
				<polyline class="st1" points="56,83 56.4,82.9 56.9,82.8 57.1,82.8 56,83 				"/>
				<path class="st1" d="M57.7,82.8c2.3-0.3,4.5-0.7,6.3-1.4l-0.4,0.2L63,81.8l-0.4,0.1L62.1,82l-0.6,0.1l-0.6,0.1l-0.4,0.1L60,82.5
					l-0.6,0.1l-0.6,0.1l-0.6,0.1L57.7,82.8"/>
				<polyline class="st1" points="57.8,82.6 57.9,82.6 58.1,82.6 57.8,82.6 				"/>
				<polyline class="st14" points="78.8,71.1 78.8,71.1 78.8,71 78.8,71.1 				"/>
				<polyline class="st13" points="64.5,77.3 63.6,77 64.5,77.3 				"/>
				<polyline class="st13" points="68.6,54.3 69.1,54.9 68.6,54.3 				"/>
				<path class="st13" d="M70,56.9c0.8,0.7,1.6,1.3,2.4,2C71.6,58.2,70.8,57.5,70,56.9"/>
				<path class="st13" d="M73.1,60.8c-0.9-0.7-1.8-1.4-2.7-2C71.4,59.4,72.3,60.1,73.1,60.8"/>
				<polyline class="st15" points="55.3,83.1 55.9,83 56.5,82.9 57.1,82.9 57.6,82.8 57.1,82.9 56.5,82.9 55.9,83 55.3,83.1 				"/>
				<polyline class="st15" points="56,83 56.4,82.9 56.9,82.8 57.1,82.8 56.9,82.8 56.4,82.9 56,83 				"/>
				<polyline class="st15" points="57.7,82.8 58.2,82.8 58.8,82.7 59.4,82.6 60,82.5 60.5,82.4 60.9,82.3 61.5,82.2 62.1,82 
					62.6,81.9 63,81.8 63.6,81.6 64,81.4 63.6,81.6 63,81.8 62.6,81.9 62.1,82 61.5,82.2 60.9,82.3 60.5,82.4 60,82.5 59.4,82.6 
					58.8,82.7 58.2,82.8 57.7,82.8 				"/>
				<polyline class="st15" points="57.8,82.6 57.9,82.6 58.1,82.6 57.9,82.6 57.8,82.6 				"/>
				<path class="st15" d="M51.5,83.4c1.3-0.1,2.6-0.2,3.8-0.3C54.1,83.2,52.8,83.3,51.5,83.4"/>
				<path class="st15" d="M51.5,83.4c1.3-0.1,2.6-0.2,3.8-0.3C54.1,83.2,52.8,83.3,51.5,83.4"/>
				<path class="st12" d="M72.8,85.9c-1.8,0.4-3.7,0.6-5,0.5c-3.7-0.3-7.6-0.7-11.6-1.1c4,0.4,8,0.7,11.6,1.1
					C69,86.6,70.9,86.4,72.8,85.9"/>
				<path class="st12" d="M45.9,84.9c2,0,4.1,0.1,6.1,0.2C49.9,85,47.9,84.9,45.9,84.9"/>
				<path class="st1" d="M47.6,82.3l-0.6-0.1c0.7,0.1,1.5,0.1,2.2,0.1l-0.4,0l-0.7,0L47.6,82.3"/>
				<polyline class="st1" points="47.2,82.1 47.6,82.1 48,82.2 47.2,82.1 				"/>
				<path class="st1" d="M48.7,82.2l0.2,0l0.7,0l0.4,0C49.7,82.2,49.2,82.2,48.7,82.2"/>
				<polyline class="st1" points="50.2,82.2 50.3,82.2 50.3,82.2 50.2,82.2 				"/>
				<polyline class="st2" points="42.4,80.9 42.7,80.9 42.4,80.9 				"/>
				<path class="st7" d="M43.5,81.7c-0.9-0.2-1.8-0.4-2.6-0.6l-2.6-0.8c-1.7-0.5-3.5-1.1-5.3-1.5l2.3-0.3l-0.3,0
					c0.5,0.1,1.1,0.3,1.8,0.4c0.3,0.1,0.7,0.1,1,0.2c1.1,0.2,2.2,0.4,3.1,0.7l1.1,0.6l0,0l0.1,0.3L41.1,81l1.3,0l0.3,0
					c1.2,0,2.4-0.1,3.6-0.2C45.4,81.1,44.4,81.4,43.5,81.7"/>
				<path class="st16" d="M36.7,78.9c-0.7-0.1-1.3-0.3-1.8-0.4C35.4,78.7,36,78.8,36.7,78.9c0.3,0.1,0.7,0.1,1,0.2
					C37.4,79.1,37,79,36.7,78.9"/>
				<polyline class="st16" points="34.9,78.5 35.2,78.5 34.9,78.5 				"/>
				<polyline class="st17" points="42,80.8 41.9,80.5 41.9,80.4 42,80.8 				"/>
				<path class="st16" d="M43.5,81.7c1-0.3,1.9-0.6,2.9-0.9C45.4,81.1,44.4,81.4,43.5,81.7"/>
				<path class="st7" d="M42.4,84.8c-2.2-0.3-4.9-1.3-7.2-2c2.1-0.6,5.6-0.6,8.3-1.1l2.3,0.4l-1.3,0.1c-0.2,0.1-1,0.1-1.1,0.2
					c-0.1,0.1,0.9,0.5,5.6,0.9c0.8,0,1.7,0.1,2.5,0.1c-2.8,0.2-5.3,0.4-7.5,0.9l1.9,0.6l-1.2,0c-0.5,0-1,0-1.7-0.1
					C42.8,84.8,42.6,84.8,42.4,84.8"/>
				<path class="st16" d="M44,84.3c2.2-0.5,4.7-0.6,7.5-0.9C48.7,83.6,46.2,83.8,44,84.3"/>
				<path class="st16" d="M43.4,82.4c0.1-0.1,0.9-0.1,1.1-0.2l1.3-0.1l-1.3,0.1C44.2,82.2,43.5,82.3,43.4,82.4"/>
				<path class="st18" d="M50,86.5c-1.2-0.1-2.5-0.2-3.7-0.4c-1.9-0.2-3.7-0.5-5.6-0.8l-5.4-1.2c-1.1-0.3-2.2-0.6-3.3-0.8l-1.1-0.2
					c-0.9-1.4-1.7-2.8-2.2-4.2l4.3-0.2c1.8,0.4,3.5,1,5.3,1.5l2.6,0.8c0.9,0.2,1.7,0.4,2.6,0.6c-2.7,0.5-6.2,0.5-8.3,1.1
					c2.3,0.7,5,1.7,7.2,2l0,0c0.2,0,0.4,0.1,0.6,0.1c0.6,0.1,1.2,0.1,1.7,0.1l1.2,0c1.3,0.4,2.6,0.7,4.1,0.8c1.4,0.2,3,0.3,4.5,0.3
					l0.8,0c0.8,0,1.7,0,2.5,0.1l2.6,0l0.5,0.4C57.2,86.9,53.6,86.8,50,86.5"/>
				<path class="st13" d="M50,86.5c3.6,0.2,7.2,0.3,10.9,0.1C57.2,86.9,53.6,86.8,50,86.5"/>
				<path class="st13" d="M46.2,86.2c-1.9-0.2-3.7-0.5-5.6-0.8l-5.4-1.2l5.4,1.2C42.5,85.7,44.4,85.9,46.2,86.2"/>
				<path class="st13" d="M57.8,86.1c-0.8,0-1.7,0-2.5-0.1l-0.8,0c-1.5-0.1-3.1-0.1-4.5-0.3c1.4,0.2,3,0.3,4.5,0.3l0.8,0
					C56.1,86.1,56.9,86.1,57.8,86.1"/>
				<path class="st19" d="M42.4,84.8L42.4,84.8c0.2,0,0.4,0.1,0.6,0.1C42.8,84.8,42.6,84.8,42.4,84.8"/>
				<path class="st19" d="M35.2,82.8c2.1-0.6,5.6-0.6,8.3-1.1C40.8,82.2,37.3,82.2,35.2,82.8"/>
				<path class="st2" d="M35.2,84.1l-4.4-1l1.1,0.2C33.1,83.5,34.2,83.8,35.2,84.1"/>
				<polyline class="st17" points="35.2,84.1 30.9,83.1 35.2,84.1 				"/>
			</g>
		</g>
	</g>
</g>
<g>
	<g>
		<g>
			<g class="st0">
				<path class="st1" d="M16.4,95.8c-1.1,0.2-2.3,0.6-3.5,0.9c-0.2,0.3-0.5,0.7-0.7,1.1c0.1-0.8,0.3-1.6,0.6-2.3
					c0.5-1.9,1.6-3.6,2.8-4.6l-0.7,1.2c0.6-0.7,1.3-1.3,2.1-1.7c-0.2,0.3-0.4,0.7-0.5,1c0,0.1-0.1,0.2-0.1,0.4
					c-0.1,0.2-0.2,0.4-0.3,0.6L16,92.3l0.1,0.3l0.5-0.9c-0.1,0.4-0.1,0.7-0.2,1.1c-0.3,0.4-0.5,0.9-0.7,1.4c0.2-0.5,0.4-1,0.7-1.4
					C16.2,93.8,16.2,94.9,16.4,95.8"/>
				<path class="st1" d="M22.3,72.2L22.3,72.2L22.1,72c-0.1-0.8-0.1-1.6-0.4-2.4c-0.2-0.9-0.1-1.8,0.1-2.6c0-0.2,0.1-0.3,0.2-0.5
					l0.5,1.3l0,0.1C22.1,69.3,22.7,70.8,22.3,72.2"/>
				<path class="st2" d="M19.9,66c-0.1-0.9-0.1-1.7-0.2-2.6l0.4,0.1c0,0.5,0.1,1-0.1,1.5c0,0.1-0.1,0.3-0.2,0.4l0.1-0.1L19.9,66"/>
				<polyline class="st2" points="20.7,64.3 20.6,63.5 20.7,63.4 20.7,64.3 				"/>
				<polyline class="st2" points="30.7,75.1 30.5,75.3 30.7,75.1 30.7,75.1 				"/>
				<polyline class="st2" points="37,67.9 36.7,68.2 37,67.9 				"/>
				<polyline class="st2" points="36.7,68.2 36.6,68.2 36.7,68.2 				"/>
				<polyline class="st2" points="24.2,59.6 23.9,59.8 24.2,59.6 				"/>
				<polyline class="st2" points="36.3,65.9 36.2,66 36.3,65.9 				"/>
				<polyline class="st2" points="16.5,80.8 15.8,81.2 16.5,80.8 				"/>
				<polyline class="st2" points="30.5,75.3 30,75.6 30.5,75.3 				"/>
				<polyline class="st2" points="23,60 22.7,60.3 22.9,60 23,60 				"/>
				<polyline class="st2" points="24.6,59.2 24.2,59.6 24.4,59.3 24.6,59.2 				"/>
				<polyline class="st2" points="22.1,62.1 22,61.4 22,61.4 22,61.4 22,61.4 22.1,61.4 22.1,62.1 				"/>
				<path class="st2" d="M23.6,59.5L23,60l-0.2,0.3l0.2-0.3c-0.6,0.6-1.1,1.2-1.6,1.9l0.2,0.2l0.4-1l0,0.3l0.1-0.1l0.1-0.2l0,0.2
					l0.7-0.9l-0.4,0.3l0.5-0.4l0,0.1l0.5-0.4L23.6,59.5 M22.8,60.4l0-0.1L22.8,60.4"/>
				<polyline class="st3" points="22.9,60 22.7,60.3 22.9,60 				"/>
				<polyline class="st3" points="22,61.4 22,61.4 22,61.4 				"/>
				<polyline class="st2" points="24.9,58.4 24.7,58.7 24.5,59 23.5,59.9 23.3,60.1 23.6,59.5 24.9,58.4 				"/>
				<polyline class="st2" points="22.1,61.2 22.1,61.4 22,61.4 22.1,61.2 				"/>
				<polyline class="st3" points="22.1,61.2 22.1,61.4 22.1,61.2 				"/>
				<polyline class="st2" points="24.9,58.3 24.9,58.5 24.7,58.7 24.9,58.4 24.9,58.3 				"/>
				<polyline class="st2" points="24.9,58.5 24.9,58.5 24.9,58.5 				"/>
				<polyline class="st2" points="24.8,58.6 24.6,59.2 24.7,58.9 24.8,58.6 				"/>
				<polyline class="st3" points="22,61.4 22,61.4 22,61.4 				"/>
				<polyline class="st2" points="24.9,58.5 24.8,58.6 24.9,58.5 				"/>
				<polyline class="st2" points="24.9,58.5 24.8,58.6 24.7,58.9 24.5,59 24.7,58.7 24.5,59 24.7,58.7 24.9,58.5 				"/>
				<polyline class="st3" points="24.9,58.5 24.8,58.6 24.9,58.5 24.9,58.5 				"/>
				<polyline class="st3" points="24.8,58.6 24.7,58.9 24.8,58.6 				"/>
				<polyline class="st3" points="24.7,58.7 24.5,59 24.7,58.7 				"/>
				<polyline class="st2" points="24.7,58.9 24.6,59.2 24.4,59.3 24.7,58.9 				"/>
				<polyline class="st3" points="24.6,59.2 24.4,59.3 24.6,59.2 				"/>
				<polyline class="st3" points="24.7,58.9 24.6,59.2 24.7,58.9 				"/>
				<polyline class="st2" points="24.7,58.9 24.4,59.3 24.1,59.5 24.5,59.1 24.5,59 24.7,58.9 				"/>
				<polyline class="st3" points="24.7,58.9 24.4,59.3 24.7,58.9 				"/>
				<polyline class="st3" points="22.9,60.3 22.8,60.4 22.9,60.3 				"/>
				<polyline class="st2" points="22.8,60.4 22.8,60.5 22.4,60.8 22.8,60.4 				"/>
				<polyline class="st3" points="22.8,60.4 22.8,60.5 22.8,60.4 				"/>
				<polyline class="st3" points="22.8,60.5 22.4,60.8 22.8,60.5 				"/>
				<polyline class="st2" points="23.5,59.9 23.3,60.2 23.3,60.1 23.5,59.9 				"/>
				<polyline class="st2" points="24.5,59 24.5,59.1 23.5,59.9 24.5,59 				"/>
				<polyline class="st3" points="24.5,59 24.5,59.1 24.5,59 24.5,59.1 24.5,59 				"/>
				<polyline class="st4" points="24.5,59 24.5,59.1 24.5,59 				"/>
				<polyline class="st2" points="33.1,65.7 32.4,66.3 33.1,65.5 33.1,65.7 				"/>
				<polyline class="st2" points="33.2,66.1 32.2,66.6 33.2,65.8 33.2,66.1 				"/>
				<path class="st2" d="M34.6,67.1c-0.2,0.7-0.5,1.5-1.1,1.9l0.5-1l0,0.1L34.6,67.1"/>
				<polyline class="st2" points="34.6,67.1 33.9,68.1 34,68 34.6,67.1 				"/>
				<polyline class="st3" points="34.6,67.1 33.9,68.1 34.6,67.1 				"/>
				<polyline class="st2" points="33.2,66.3 32.9,66.5 33.2,66.1 33.2,66.3 				"/>
				<polyline class="st2" points="33.5,64.1 33.3,64.4 33.5,64.1 				"/>
				<path class="st5" d="M34.4,52.9l-0.1-0.3l-0.3-0.5c-0.5,0.4-0.9,0.9-1.2,1.6l0.2-0.2c-0.2,0.7-0.8,1.2-1.1,1.8
					C32.9,54.6,33.4,53.4,34.4,52.9"/>
				<polyline class="st2" points="32.3,56.5 32.2,56.8 32.3,56.5 				"/>
				<polyline class="st2" points="32.9,53.7 32.8,54 32.9,53.7 				"/>
				<polyline class="st2" points="32.5,56.3 32.3,56.5 32.5,56.3 				"/>
				<polyline class="st2" points="32.2,63.8 32,64.1 31.6,64.4 32.1,63.8 32.2,63.8 				"/>
				<polyline class="st2" points="32.3,63.9 32,64.1 32.2,63.8 32.3,63.9 				"/>
				<polyline class="st2" points="32.9,63.9 32.7,64.1 32,64.6 32.5,63.9 32.9,63.9 				"/>
				<polyline class="st2" points="33,63.9 32.7,64.1 32.9,63.9 33,63.9 				"/>
				<polyline class="st2" points="33.1,63.9 32.4,64.5 32.7,64.1 33,63.9 33.1,63.9 				"/>
				<path class="st5" d="M32.1,63.8l-0.4,0.6l0.4-0.2c-0.3,0.6-0.5,1.2-0.9,1.8c0-0.3,0-0.7,0.1-1c0.1-0.5,0.3-1.1,0.5-1.6
					L32.1,63.8"/>
				<polyline class="st6" points="32.1,63.8 31.6,64.4 32.1,63.8 				"/>
				<path class="st2" d="M31.7,63c-0.5,0.7-0.8,1.6-1.6,2c0-0.1,0-0.1,0-0.2c0.3-1.1,1.3-1.7,1.5-2.8l0-0.1
					c-0.6,0.4-1.1,1.2-1.7,1.6c0.6-0.8,1.3-1.4,1.9-2.1L31.7,63"/>
				<polyline class="st2" points="30,64 28.8,64.9 29.1,64.4 30,64 				"/>
				<polyline class="st2" points="27.8,66.2 27.7,66.3 27.7,66.4 27.8,66.2 				"/>
				<path class="st2" d="M28.5,65.4l-0.2,0.2c-0.2,0.2-0.3,0.4-0.5,0.6l-0.1,0.1C28,66,28.3,65.7,28.5,65.4 M28.3,65.6
					c-0.2,0.2-0.3,0.4-0.5,0.6C28,66,28.2,65.8,28.3,65.6"/>
				<path class="st2" d="M29.1,64.4l-0.3,0.4l-0.5,0.7c-0.2,0.2-0.3,0.4-0.5,0.6l-0.2,0.2l0.1,0l-1.1,0.8l0.4-1.1
					C27.8,65.6,28.4,64.9,29.1,64.4"/>
				<polyline class="st3" points="29.1,64.4 28.8,64.9 29.1,64.4 				"/>
				<polyline class="st3" points="27.8,66.2 27.7,66.4 27.8,66.2 				"/>
				<path class="st3" d="M28.3,65.6c-0.2,0.2-0.3,0.4-0.5,0.6C28,66,28.2,65.8,28.3,65.6"/>
				<path class="st3" d="M28.3,65.6c-0.2,0.2-0.3,0.4-0.5,0.6C28,66,28.2,65.8,28.3,65.6"/>
				<path class="st2" d="M26.7,66.2c-0.3,0.5-0.6,1-1.1,1.3l0.2-1.3l0.2,0.2L26.7,66.2"/>
				<polyline class="st2" points="31.3,80.7 30.7,81 30.7,80.8 31.3,80.7 				"/>
				<path class="st7" d="M26.1,95.1c-1.1,0.2-2.2,0.4-3.3,0.5l-0.4,0.7c-0.6-0.3-1.3-0.6-2.1-0.7c0.1-0.2,0.3-0.4,0.5-0.6l0,0
					l0.1-0.2l0.3-0.6c1-1.5,2.8-2.7,4.3-2c0.2,0.1,0.4,0.2,0.7,0.4C26,93.3,26.1,94.3,26.1,95.1"/>
				<path class="st2" d="M28,88.7l-0.3,0.1c0-0.4-0.5-0.7-0.3-1.3C27.9,87.8,28,88.3,28,88.7"/>
				<path class="st8" d="M27.8,90.9c-0.8,0.2-1.2,0.6-1.4,1.2c-0.1,0.1-0.1,0.3-0.1,0.4c-0.2-0.2-0.4-0.3-0.7-0.4
					c-1.6-0.7-3.3,0.5-4.3,2c0.6-1.2,1.2-2.5,1.7-3.7l0.5-1.3c0.5-1.2,1-2.4,1.4-3.7l-0.5,0c-0.2,0.3-0.3,0.6-0.4,0.8
					c-0.1,0.3-0.2,0.6-0.4,0.8l-0.1,0.3c-0.2,0.5-0.4,1-0.7,1.5c-0.3,0.5-0.6,0.9-1,1.2c0.1-0.8,0.3-1.5,0.6-2.2
					c0.2-0.5,0.4-0.9,0.7-1.3c0.8-1.3,1.9-2.4,3.2-3.2c0.4-0.3,0.8-0.9,1.1-1.5L27,82.8l0.4,0.3l1.4-0.8l-0.2,0.3l-0.7,1l-0.6,0.9
					c-0.1,0.2-0.2,0.4-0.3,0.6l0,0c-0.3,0.7-0.3,1.4-0.4,2.2l0.6-0.8c0.2-0.1,0.4-0.1,0.5-0.1c0.6,0.2,0.8,1.4,0.6,2.2L28,88.7
					c-0.1-0.5-0.1-0.9-0.5-1.2c-0.2,0.6,0.2,0.9,0.3,1.3l-0.6,0l-0.8,0.5c-0.6-0.7-0.9,0.6-1.5,0.3l-1,1l0.4,0.9
					C25.4,91,26.6,90.3,27.8,90.9"/>
				<path class="st9" d="M25.6,92.1c-1.6-0.7-3.3,0.5-4.3,2C22.2,92.6,24,91.4,25.6,92.1"/>
				<path class="st10" d="M27.8,88.8c0-0.4-0.5-0.7-0.3-1.3C27.3,88.2,27.7,88.4,27.8,88.8"/>
				<path class="st2" d="M29.6,81.7l-0.8,0.5l-0.2,0.3l-0.7,1l0.1,0.1l0.7-0.8l-0.5,1.1c0.5-0.3,0.7-0.8,1-1.3L29.6,81.7 M28.6,82.5
					l-0.7,1L28.6,82.5"/>
				<polyline class="st3" points="28.6,82.5 27.8,83.5 28.6,82.5 				"/>
				<polyline class="st2" points="28.1,88.9 27.8,88.8 28,88.7 28.1,88.9 				"/>
				<polyline class="st2" points="17.9,90.3 17.5,90.2 17.9,90.3 				"/>
				<path class="st11" d="M32.9,90.2c-1.9,0.8-3.3-0.8-4.9-1.3l0-0.2l0.1-0.1c0.1-0.8,0-2-0.6-2.2c-0.1,0-0.3,0-0.5,0.1l-0.6,0.8
					c0.1-0.8,0.2-1.6,0.4-2.2c0.1-0.2,0.2-0.4,0.3-0.6l0.6-0.9l0.1,0.1l-0.5,0.9c0.7-0.3,1-1,1.3-1.7l-0.5,1.1
					c0.5-0.3,0.7-0.8,1-1.3l0.2,0.2l1.2-0.3l-1.1,1l0.3,0.6c1-0.1,2.1-0.3,3.1-0.9c-1.2,0.8-2.6,1.2-3.5,2.6l0.4,0.3l-0.4,0.2
					c0.9-0.1,1.6-0.7,2.5-0.7l-1.1,0.7c0.5,0.1,1.1-0.2,1.6-0.2c-0.9,0.5-2.5,0.1-2.9,1l0,0l0,0.1c-0.6,1.6,1.1,2.3,2.6,2.1
					l-0.4,0.2C31.7,90.1,32.6,89.9,32.9,90.2"/>
				<path class="st12" d="M27.6,86.5c-0.1,0-0.3,0-0.5,0.1l-0.6,0.8l0.6-0.8C27.2,86.4,27.4,86.4,27.6,86.5"/>
				<path class="st12" d="M26.5,87.3c0.1-0.8,0.2-1.6,0.4-2.2C26.6,85.7,26.6,86.5,26.5,87.3"/>
				<polyline class="st13" points="28.7,82.7 28.2,83.8 28.7,82.7 				"/>
				<polyline class="st13" points="27.9,83.6 27.8,83.5 27.9,83.6 				"/>
				<path class="st11" d="M28.2,80.3l0-0.2L28,79.7l-0.2,0.3l0.2-0.3l-0.4-0.2L26.8,80l0.3-0.4l-0.7,0.4l0.6-0.7l-0.2-0.1l-0.3,0.2
					c-0.4,0.6-0.7,1.2-1.1,1.7c0-0.3,0.1-0.6,0.2-0.8c0.2-0.6,0.5-1.1,0.8-1.7l0-0.2c-0.6,0.7-1,1.5-1.8,1.8c0-0.1,0-0.1,0.1-0.2
					c0.4-1.1,1.5-1.5,1.8-2.6l0-0.1c-0.6,0.4-1.2,1.1-1.8,1.4c0.7-0.7,1.4-1.3,2.2-1.9l0-0.1c0.6-0.9,1.1-1.8,1.6-2.7l-1,1l1-1
					c0.9-1.4,1.7-2.7,2.7-4l-1.3,0.9c-0.3-0.9,0.1-1.7,0.1-2.4c-0.6,1-1.5,1.8-2,2.8c0.5-1,1.4-1.8,2-2.8l0-0.2
					c-1,0.7-1.6,1.7-2.5,2.5c0.3-0.6,0.9-1,1.2-1.7l-0.3,0.2l-0.1,0.3l0.1-0.3c0.3-0.7,0.7-1.1,1.2-1.6c-0.5-0.8-0.9-1.7-0.8-2.5
					l0.1-0.4l-0.5,0.7l0.2-0.2c-0.3,0.3-0.5,0.6-0.8,1l-1.1,0.8l0.4-1.1l-0.4,0.2c-0.3,0.5-0.6,1-1.1,1.3l0.2-1.3l-0.4-0.9l-0.8-0.1
					c-0.8,0.3-1.3,0.8-1.5,1.7l0,0.1l0.7,0.2l-0.6,0.1l0.4,0.6l-0.2,0.4c0.4,0.4,0.4,0.7,0.3,1.1c-0.1,0.4-0.3,0.7-0.5,1l0.3-0.2
					c0.3,0.3,0.3,0.5,0.2,0.7c-0.1,0.3-0.4,0.6-0.6,0.8l-0.6,0.5l0,0.1l0,0l0,0L21.9,73l-0.4,0.4l-0.3,0.2l0.3-0.2l0.2-0.3l-0.4,0.2
					l0.4-0.4l-0.9,0.8L20.5,74l0-0.1L20,74.2l-0.8,0.8L19,75.6l0-0.6l0-0.3l-0.5,0.9l-0.2-0.1c-0.3,0.3-0.6,0.8-0.8,1.3l0,0
					l-0.1,0.9l0-0.8L17,76.8c-0.1,0.5-0.1,1.1-0.3,1.6c0,0.1-0.1,0.2-0.2,0.4l0.1-0.1l-0.2,0.8c0,0.5,0.1,1,0.1,1.4l0.5-0.2
					l-0.5,0.2c0.2,1.7,0.7,3.4,1.6,4.8c0-0.8,0-1.6-0.2-2.4c0-1.1,0.1-2,0.5-2.9l0.1-0.3l0.3,1.3l0,0l0.2,0.4l-0.2-0.3
					c-0.6,1.6-0.1,3.2-0.6,4.6l-0.1-0.3l-0.2,2.9l0.8,1.4l0.4-0.8l0,0.5c0.1,0.1,0.1,0.4,0.2,0.5c0.1,0.1,0.4-0.2,1.1-1.8l0.3-0.9
					c0,1.1,0,2.1,0.4,3.1l0.6-0.5c0.1-0.8,0.3-1.5,0.6-2.2c0.2-0.5,0.4-0.9,0.7-1.3c0.8-1.3,1.9-2.4,3.2-3.2
					c0.4-0.3,0.8-0.9,1.1-1.5l0-0.1L27.1,82l0.4-0.4l-1,0.4l1-0.7l0-0.2l-0.8,0.6l0.7-0.7l-0.1-0.3L28.2,80.3 M27.7,71.8
					c0.6-0.7,1.4-1.2,1.8-2.1C29.1,70.6,28.3,71.1,27.7,71.8l-0.2,0.3l-0.1,0.2l0.1-0.2L27.7,71.8l0.1,0.1l-0.4,0.8l0.4-0.8
					L27.7,71.8 M26.5,76.2c0.3-0.7,1.2-0.9,1.4-1.6C27.7,75.2,26.8,75.5,26.5,76.2 M26.3,76.8L26.3,76.8L26,77.3L26.3,76.8
					L26.3,76.8c0.4-0.6,0.9-0.9,1.3-1.5C27.2,75.9,26.7,76.2,26.3,76.8 M27.8,72.5l0,0.4L27.8,72.5 M20.8,86l-0.1,1.5L20.8,86
					 M20.8,86l-0.1,1.5L20.8,86 M20.8,86l0-0.2l0-0.2l0-0.2l0-0.2l0,0l0-0.2l0-0.2l0-0.2l0-0.2l0-0.2l0-0.2l0-0.2l0-0.2l0-0.2l0-0.2
					l0-0.2l-0.1-0.2c-0.2,0.8-0.1,1.6,0,2.4l0,0.1l0,0.1l0,0.3l0,0.1l0,0.2l0,0.1L20.8,86 M19.1,89.2c0-0.1,0.1-0.2,0.1-0.3l0.1-0.2
					l0.1-0.2l0-0.2l0.1-0.3l0-0.1c0-0.1,0-0.2,0-0.4l0,0l0-0.2l0,0.2l0-0.2l0,0.2l0,0c0-0.1,0-0.2,0-0.2c0,0.1,0,0.2,0,0.3l0,0.2
					l-0.1,0.3l0,0.1l-0.1,0.2l-0.1,0.1l0,0.2C19.2,88.9,19.1,89.1,19.1,89.2 M23.6,67.2l0.1,0l0.2-0.2L23.6,67.2"/>
				<polyline class="st1" points="20.8,86 20.8,85.1 20.8,85.4 20.8,85.6 20.8,85.8 20.8,86 				"/>
				<polyline class="st1" points="20.7,85.7 20.7,85.6 20.7,85.4 20.7,85.3 20.7,85.7 				"/>
				<path class="st1" d="M20.8,85.1c0.1-0.9,0.1-1.8-0.1-2.6l0.1,0.2l0,0.2l0,0.2l0,0.2l0,0.2l0,0.2l0,0.2l0,0.2l0,0.2l0,0.2l0,0.2
					L20.8,85.1"/>
				<polyline class="st1" points="20.7,85 20.7,84.9 20.7,84.9 20.7,85 				"/>
				<polyline class="st14" points="22.3,72.2 22.3,72.2 22.3,72.2 22.3,72.2 				"/>
				<polyline class="st13" points="17,80.6 16.5,80.8 17,80.6 				"/>
				<polyline class="st13" points="28.5,65.4 28.3,65.6 28.5,65.4 				"/>
				<polyline class="st13" points="27.1,66 26.7,67.1 27.1,66 				"/>
				<polyline class="st13" points="25.6,67.5 25.7,66.2 25.6,67.5 				"/>
				<polyline class="st15" points="20.8,86 20.8,85.8 20.8,85.6 20.8,85.4 20.8,85.1 20.8,85.4 20.8,85.6 20.8,85.8 20.8,86 				"/>
				<polyline class="st15" points="20.7,85.7 20.7,85.6 20.7,85.4 20.7,85.3 20.7,85.4 20.7,85.6 20.7,85.7 				"/>
				<polyline class="st15" points="20.8,85.1 20.8,84.9 20.8,84.7 20.9,84.4 20.9,84.2 20.9,84 20.9,83.8 20.9,83.6 20.8,83.3 
					20.8,83.1 20.8,82.9 20.8,82.7 20.7,82.5 20.8,82.7 20.8,82.9 20.8,83.1 20.8,83.3 20.9,83.6 20.9,83.8 20.9,84 20.9,84.2 
					20.9,84.4 20.8,84.7 20.8,84.9 20.8,85.1 				"/>
				<polyline class="st15" points="20.7,85 20.7,84.9 20.7,84.9 20.7,84.9 20.7,85 				"/>
				<polyline class="st15" points="20.7,87.5 20.8,86 20.7,87.5 				"/>
				<polyline class="st15" points="20.7,87.5 20.8,86 20.7,87.5 				"/>
				<path class="st12" d="M27.4,81.9c-0.3,0.6-0.7,1.2-1.1,1.5c-1.3,0.8-2.4,1.9-3.2,3.2c0.8-1.3,1.9-2.4,3.2-3.2
					C26.7,83.1,27,82.5,27.4,81.9"/>
				<path class="st12" d="M21.8,90.1c0.1-0.8,0.3-1.5,0.6-2.2C22,88.6,21.9,89.4,21.8,90.1"/>
				<path class="st1" d="M19.4,88.6l-0.1,0.2c0.1-0.3,0.1-0.5,0.2-0.8l0,0.1l-0.1,0.3L19.4,88.6"/>
				<polyline class="st1" points="19.2,88.7 19.3,88.5 19.3,88.4 19.2,88.7 				"/>
				<path class="st1" d="M19.4,88.1L19.4,88.1l0.1-0.4l0-0.2C19.5,87.8,19.4,88,19.4,88.1"/>
				<polyline class="st1" points="19.5,87.6 19.5,87.6 19.5,87.6 19.5,87.6 				"/>
				<polyline class="st2" points="18,90.2 18,90.1 18,90.2 				"/>
				<path class="st7" d="M18.7,90c-0.6,1-1.5,1.9-2.1,2.9l0.5-0.8c-0.2,0.2-0.4,0.5-0.6,0.8c0-0.4,0.1-0.7,0.2-1.1l-0.5,0.9L16,92.3
					l0.1,0.1c0.1-0.2,0.2-0.4,0.3-0.6c0-0.1,0.1-0.2,0.1-0.4c0.2-0.4,0.3-0.8,0.5-1l0.5-0.2l0,0l0.3,0.1l0.2,0.4l0-0.5l0-0.1
					l-0.1-1.5L18.7,90"/>
				<path class="st16" d="M16.3,91.9c-0.1,0.2-0.2,0.4-0.3,0.6C16.1,92.3,16.2,92.1,16.3,91.9c0-0.1,0.1-0.2,0.1-0.4
					C16.4,91.6,16.4,91.7,16.3,91.9"/>
				<polyline class="st16" points="16,92.5 16,92.3 16,92.5 				"/>
				<polyline class="st17" points="17.9,90.3 17.6,90.2 17.5,90.2 17.9,90.3 				"/>
				<polyline class="st16" points="18.7,90 17.9,88.6 18.7,90 				"/>
				<path class="st7" d="M21.6,91.5c-0.3,0.8-1,1.6-1.6,2.3c-0.7-1-0.9-2.5-1.3-3.7l0.4-0.8l0,0.5c0.1,0.1,0.1,0.4,0.2,0.5
					c0.1,0.1,0.4-0.2,1.1-1.8l0.3-0.9c0,1.1,0,2.1,0.4,3.1l0.6-0.5l0,0.5c0,0.2,0,0.4-0.1,0.6C21.7,91.3,21.6,91.4,21.6,91.5"/>
				<path class="st16" d="M21.1,90.7c-0.4-1-0.5-2-0.4-3.1C20.7,88.6,20.7,89.7,21.1,90.7"/>
				<path class="st16" d="M19.3,90.3c-0.1-0.1-0.1-0.4-0.2-0.5l0-0.5l0,0.5C19.2,89.9,19.2,90.2,19.3,90.3"/>
				<path class="st18" d="M23.5,89.2l-0.5,1.3c-0.5,1.2-1.1,2.5-1.7,3.7c-0.1,0.2-0.3,0.4-0.4,0.5l-0.1,0.2l0,0
					c-0.1,0.1-0.2,0.2-0.3,0.3c-0.1,0.1-0.1,0.2-0.1,0.3c-1.2-0.2-2.5-0.1-3.9,0.3c-0.2-0.9-0.2-2,0-3c0.2-0.3,0.4-0.5,0.6-0.8
					l-0.5,0.8c0.6-1,1.5-1.8,2.1-2.9c0.4,1.2,0.6,2.7,1.3,3.7c0.6-0.7,1.3-1.5,1.6-2.3l0,0c0-0.1,0.1-0.1,0.1-0.2
					c0.1-0.2,0.1-0.4,0.1-0.6l0-0.5c0.4-0.3,0.7-0.8,1-1.2c0.3-0.5,0.5-1,0.7-1.5l0.1-0.3l0.4-0.8c0.1-0.3,0.3-0.6,0.4-0.8l0.5,0
					C24.4,86.7,24,88,23.5,89.2"/>
				<path class="st13" d="M23.5,89.2c0.5-1.2,1-2.4,1.4-3.7C24.4,86.7,24,88,23.5,89.2"/>
				<path class="st13" d="M22.9,90.4c-0.5,1.2-1.1,2.5-1.7,3.7C21.8,92.9,22.4,91.7,22.9,90.4"/>
				<path class="st13" d="M23.9,86.3l-0.4,0.8l-0.1,0.3c-0.2,0.5-0.4,1-0.7,1.5c0.3-0.5,0.5-1,0.7-1.5l0.1-0.3
					C23.7,86.9,23.8,86.6,23.9,86.3"/>
				<path class="st19" d="M21.6,91.5L21.6,91.5c0-0.1,0.1-0.1,0.1-0.2C21.7,91.3,21.6,91.4,21.6,91.5"/>
				<path class="st19" d="M20,93.7c-0.7-1-0.9-2.5-1.3-3.7C19.1,91.2,19.3,92.7,20,93.7"/>
				<path class="st2" d="M21.2,94.1l-0.3,0.6l-0.1,0.2l0,0c-0.2,0.2-0.3,0.4-0.5,0.6c0-0.1,0.1-0.2,0.1-0.3c0.1-0.1,0.2-0.2,0.3-0.3
					l0,0l0.1-0.2C21,94.5,21.1,94.3,21.2,94.1"/>
				<path class="st17" d="M21.2,94.1l-0.3,0.6l-0.1,0.2l0,0c-0.2,0.2-0.3,0.4-0.5,0.6c0.1-0.2,0.3-0.4,0.5-0.6l0,0l0.1-0.2
					L21.2,94.1"/>
			</g>
		</g>
	</g>
</g>
</svg>
