<svg id="Layer_1" enable-background="new 0 0 512 512" height="512" viewBox="0 0 512 512" width="512" xmlns="http://www.w3.org/2000/svg"><g><g><circle cx="256" cy="256" fill="#07e5ca" r="256" style="fill: #403af4;"/></g><path d="m505.656 312.844-164.146-164.146c-15.13-18.686-159.923-11.511-159.923-11.511l-19.644 256.777 117.002 117.001c111.535-9.909 202.498-91.334 226.711-198.121z" fill="#00b59b" style="fill: #2e2aa8;"/><g><path d="m294.539 393.964h-132.597v-275.928h115.471c45.469 0 82.46 36.992 82.46 82.46v2.043c0 15.719-4.421 30.425-12.085 42.939 2.191 1.809 4.301 3.738 6.325 5.785 15.612 15.788 24.21 36.71 24.21 58.914.001 46.201-37.585 83.787-83.784 83.787zm-74.597-58h74.596c14.218 0 25.786-11.567 25.786-25.786 0-14.061-11.439-25.627-25.498-25.784l-6.783-.076c-3.481.45-7.028.682-10.63.682h-57.471zm0-108.964h57.471c13.487 0 24.46-10.973 24.46-24.46v-2.043c0-13.488-10.973-24.46-24.46-24.46h-57.471z" fill="#f8fffb"/></g><g><path d="m354.11 251.26c-2.02-2.04-4.13-3.97-6.32-5.78 7.66-12.52 12.08-27.22 12.08-42.94v-2.04c0-45.47-36.99-82.46-82.46-82.46h-21.41v58h21.41c13.49 0 24.46 10.97 24.46 24.46v2.04c0 13.49-10.97 24.46-24.46 24.46h-21.41v58h21.41c3.61 0 7.15-.23 10.63-.68l6.79.07c14.06.16 25.49 11.73 25.49 25.79 0 14.22-11.56 25.78-25.78 25.78h-38.54v58h38.54c46.2 0 83.78-37.58 83.78-83.78 0-22.21-8.59-43.13-24.21-58.92z" fill="#d8d8d8"/></g></g></svg>