<?xml version="1.0" encoding="utf-8"?>
<!-- Generator: Adobe Illustrator 23.0.1, SVG Export Plug-In . SVG Version: 6.00 Build 0)  -->
<svg version="1.1" id="Layer_1" xmlns="http://www.w3.org/2000/svg" xmlns:xlink="http://www.w3.org/1999/xlink" x="0px" y="0px"
	 viewBox="0 0 100 100" style="enable-background:new 0 0 100 100;" xml:space="preserve">
<style type="text/css">
	.st0{opacity:0.8;}
	.st1{fill:#DD9699;}
	.st2{fill:#CF6A6E;}
	.st3{fill:#C54C50;}
	.st4{fill:#C3464B;}
	.st5{fill:#E2A6A8;}
	.st6{fill:#CA5A5E;}
	.st7{fill:#CB6063;}
	.st8{fill:#D88689;}
	.st9{fill:#C54D51;}
	.st10{fill:#C75256;}
	.st11{opacity:0.8;fill:#DD9699;}
	.st12{fill:#CD6467;}
	.st13{fill:#C8565A;}
	.st14{fill:#D06D70;}
	.st15{fill:#C9575B;}
	.st16{fill:#C65155;}
	.st17{fill:#C44A4E;}
	.st18{fill:#D27478;}
	.st19{fill:#C54B4F;}
</style>
<g>
	<g>
		<g>
			<g class="st0">
				<path class="st1" d="M85.1,14.8c1.1,1.1,1.7,2.3,1.8,3.6c0.2,0.1,0.3,0.3,0.3,0.4c0.1,0.1,0.2,0.3,0.3,0.5
					c-0.2-0.2-0.4-0.3-0.7-0.5c-0.4-0.1-0.9-0.3-1.6-0.4c-0.5-0.1-0.9-0.1-1.4-0.2c-0.5,0-0.9-0.1-1.4-0.1c-0.9-0.1-1.9-0.1-2.9-0.2
					c-1.9-0.1-4-0.1-5.9-0.1c-4,0.1-7.9,0.2-11,0.1c1.8-0.2,3.9-0.4,6-0.7c0.7-0.1,1.3-0.2,2-0.2c1.3-0.1,2.4-0.2,3.3-0.3l-0.5,0.1
					c1.3-0.4,2.7-0.7,4-1c1.4-0.1,2.7-0.1,4.1-0.1c-1.4,0-2.7,0-4.1,0.1C80,15.4,82.5,15,85.1,14.8"/>
				<path class="st1" d="M19.9,67.7l-0.1-0.1l0.8,0.1l0.3,0.1l0.1,0l0.1,0.1l0.3,0.1l0.9,0.4l1.4,0.6c0.9,0.4,1.8,0.8,2.7,1.1
					c1.8,0.7,3.6,1.5,5.3,2.1l1,0.4l0.5,0.2c0.1,0,0.1,0,0.2,0.1l0.1,0c0,0,0.6,0.2,1.1,0.3l1.3,0.5c0.9,0.3,1.8,0.6,2.7,1
					c1.8,0.7,3.7,1.4,5.5,2.2c0.8,0.3,1.5,0.5,2.3,0.8L44,77.2l-2.9-0.7l-0.5-0.2c-1.3-0.5-2.6-1-3.9-1.5c-0.6-0.2-1.3-0.5-1.9-0.7
					l-0.9-0.3l-0.5-0.2c-0.1,0-0.1,0-0.2-0.1c-2.2-1-4.4-1.9-6.5-2.8c-1.1-0.5-2.2-1-3.3-1.5c-0.6-0.3-1.2-0.5-1.7-0.8
					c-0.2-0.1-0.4-0.2-0.6-0.3L20.6,68L19.9,67.7"/>
				<path class="st2" d="M46.6,75.3c1.8,0.4,3.7,0.7,5.7,1c1,0.1,1.9,0.2,2.9,0.3c0.5,0,1,0,1.5,0.1l0.7,0l0.2,0l0.3,0l0.9,0
					l-0.1,0.4l-1-0.1l-0.5,0c-0.3,0-0.6,0-0.8,0c-0.6,0-1.1-0.1-1.7-0.1c-1.2-0.1-2.3-0.2-3.5-0.5c-0.6-0.1-1.3-0.3-1.9-0.5l0.4,0.2
					C48.7,75.9,47.7,75.7,46.6,75.3"/>
				<path class="st2" d="M54.8,77.5c0.6,0,1.2,0,1.8,0l0.9,0l0.3,0l0.5,0c0.3,0,0.7,0,1,0.1l0.5,0.1c0.1,0,0.2,0.1,0.2,0.1l-0.3,0
					l-0.5-0.1c-0.4-0.1-0.8-0.1-1.1-0.1l-1.2,0C56.1,77.6,55.4,77.6,54.8,77.5"/>
				<path class="st2" d="M14.8,75c-0.4-0.3-0.7-0.5-1-0.8c0.4,0.3,0.9,0.6,1.3,0.9L14.8,75"/>
				<path class="st2" d="M56.4,94.5c-0.7-0.1-1.5-0.3-2.2-0.4C55,94.2,55.7,94.3,56.4,94.5"/>
				<polyline class="st2" points="54.2,94 53.9,94 54.2,94 				"/>
				<polyline class="st2" points="81,79.3 79.8,79.3 81,79.3 				"/>
				<polyline class="st2" points="65.5,94.1 64.9,94 65.5,94.1 				"/>
				<path class="st2" d="M23,35.1l1.5-0.6c0.5-0.2,1-0.4,1.3-0.5c-0.3,0.1-0.8,0.3-1.3,0.5L23,35.1"/>
				<path class="st2" d="M13.8,74.2c-0.7-0.6-1.3-1.2-1.9-1.8C12.5,73,13.1,73.6,13.8,74.2"/>
				<path class="st2" d="M77.7,78.8c-0.6,0-1.1,0.1-1.7,0.1l1.5-0.1L77.7,78.8"/>
				<path class="st2" d="M83.9,79l-0.6,0L83,79c-0.1,0-0.3,0-0.5,0c-0.2,0-0.3,0-0.5,0.1c-0.2,0-0.4,0.1-0.4,0.1L81,79.3l0.4,0
					l0.2,0c0.1,0,0.1,0,0.3,0c0.2,0,0.5-0.1,0.7-0.1l0.4,0l0.2,0L83.9,79"/>
				<path class="st2" d="M66.5,79.3c0.4-0.1,0.8-0.1,1.2-0.2L68,79l0.4-0.1c0.4-0.1,0.8-0.2,1.2-0.2l0.9,0l-0.9,0l0.9,0l0,0.1
					c-0.5,0-1,0-1.4,0.1l-1.2,0.2C67.5,79.2,67,79.2,66.5,79.3"/>
				<path class="st2" d="M80.9,78.7c-1.1,0.1-2.1,0.1-3.2,0.1c-0.6,0-1.1,0.1-1.7,0.1l1.5-0.1c-1.6,0-3.2,0-4.9-0.1
					c-0.4,0-0.8-0.1-1.3-0.1l-0.3,0l-0.5,0c-0.4,0-0.8-0.1-1.2,0L68,78.5l-0.6,0c-0.4,0-0.8,0-1.2,0l-0.4,0.3c0.7,0,1.4,0,2.2-0.1
					l0.1,0l0.3,0l0.6-0.1c0.4-0.1,0.8,0,1.1,0l1.5,0l-0.7,0.1c-0.1,0-0.3,0-0.6,0l-0.7,0l0.9,0l1.1,0l-1.1,0l1.3,0.1l1.2,0.1
					c0.8,0,1.6,0,2.4,0c-0.7,0-1.3-0.1-2-0.2c0.8,0.1,1.6,0.1,2.4,0.1L75.5,79c0.7,0.1,1.5,0.1,2.2,0.1C78.8,79,79.8,78.9,80.9,78.7
					 M76,79l0.5-0.1L76,79"/>
				<polyline class="st3" points="77.4,78.8 76,78.9 77.4,78.8 				"/>
				<polyline class="st3" points="70.6,78.7 69.7,78.7 70.6,78.7 				"/>
				<path class="st2" d="M88,78.4l-1.3,0.1l-1.9,0.2l-1.4,0.1l-0.4,0l-0.6,0.1L81.7,79c-0.2,0-0.2,0-0.4,0c-0.9,0.1-1.7,0.1-2.6,0.2
					l-1,0c1.1-0.1,2.1-0.3,3.2-0.4l0.4,0l0.2,0l0.1,0l0.2,0c0.2,0,0.5-0.1,0.7-0.1l0.4,0c0.1,0,0.2,0,0.2,0l1.6,0L88,78.4"/>
				<polyline class="st2" points="71.6,78.8 70.6,78.8 70.6,78.7 71.6,78.8 				"/>
				<polyline class="st3" points="71.6,78.8 70.6,78.8 71.6,78.8 				"/>
				<polyline class="st2" points="88.5,78.3 87.4,78.5 86.6,78.6 88,78.4 88.5,78.3 				"/>
				<polyline class="st2" points="87.7,78.5 87.4,78.5 87.7,78.5 				"/>
				<polyline class="st2" points="87,78.6 83.9,79 85.5,78.7 87,78.6 				"/>
				<polyline class="st3" points="70.6,78.7 69.7,78.7 70.6,78.7 				"/>
				<polyline class="st2" points="87.7,78.5 87,78.6 87.7,78.5 				"/>
				<polyline class="st2" points="87.4,78.5 87,78.6 85.5,78.7 84.7,78.7 86.6,78.6 84.7,78.7 86.6,78.6 87.4,78.5 				"/>
				<polyline class="st3" points="87.7,78.5 87,78.6 87.4,78.5 87.7,78.5 				"/>
				<polyline class="st3" points="87,78.6 85.5,78.7 87,78.6 				"/>
				<polyline class="st3" points="86.6,78.6 84.7,78.7 86.6,78.6 				"/>
				<polyline class="st2" points="85.5,78.7 83.9,79 83.1,79 85.5,78.7 				"/>
				<polyline class="st3" points="83.9,79 83.1,79 83.9,79 				"/>
				<polyline class="st3" points="85.5,78.7 83.9,79 85.5,78.7 				"/>
				<path class="st2" d="M85.5,78.7L83.1,79l-0.2,0l-0.3,0c-0.2,0-0.4,0-0.6,0c-0.5,0.1-0.6,0-0.8,0c0.2,0,0.3,0,0.8-0.1
					c0.2,0,0.4-0.1,0.6-0.1l0.3,0l0.2,0l1.4-0.1l0.3,0L85.5,78.7"/>
				<polyline class="st3" points="85.5,78.7 83.1,79 85.5,78.7 				"/>
				<polyline class="st3" points="76.5,78.9 76,79 76.5,78.9 				"/>
				<path class="st2" d="M76,79L75.5,79c-0.7,0-1.3-0.1-2-0.2C74.4,78.9,75.2,78.9,76,79"/>
				<polyline class="st3" points="76,79 75.5,79 76,79 				"/>
				<path class="st3" d="M75.5,79c-0.7,0-1.3-0.1-2-0.2C74.2,78.9,74.8,79,75.5,79"/>
				<polyline class="st2" points="78.7,79.2 77.3,79.2 77.7,79.1 78.7,79.2 				"/>
				<path class="st2" d="M84.7,78.7l-0.3,0l-1.4,0l-0.2,0l-0.3,0c-0.2,0-0.4,0-0.6,0.1C81.5,79,81.4,79,81.2,79
					c-0.8,0.1-1.7,0.1-2.5,0.1c0.9,0,1.7-0.1,2.6-0.2c0.1,0,0.2,0,0.4,0l0.6-0.1l0.6-0.1l0.4,0L84.7,78.7"/>
				<polyline class="st3" points="84.7,78.7 84.5,78.8 84.7,78.7 84.5,78.8 84.7,78.7 				"/>
				<polyline class="st4" points="84.7,78.7 84.5,78.8 84.7,78.7 				"/>
				<path class="st2" d="M62.7,90.8c-1.5-0.2-3-0.6-4.5-1c1.7,0.4,3.4,0.7,5.1,0.9L62.7,90.8"/>
				<path class="st2" d="M60.6,90.9c-0.7-0.2-1.4-0.4-2.1-0.7c-0.3-0.1-0.7-0.2-1-0.4c-0.2-0.1-0.5-0.2-0.7-0.3
					c0.4,0.1,0.6,0.2,1,0.3c0.4,0.1,0.9,0.3,1.3,0.4c0.9,0.2,1.8,0.5,2.7,0.6C61.4,90.9,61,90.9,60.6,90.9"/>
				<path class="st2" d="M57.1,92c-0.1,0-0.3,0-0.4-0.1l-0.7-0.1c-0.5-0.1-1-0.1-1.6-0.2c-1-0.1-2-0.3-3-0.5
					c-1.9-0.4-3.7-0.9-5.3-1.5c1.9,0.5,3.7,1,5.6,1.3l-0.3,0c1,0.2,2,0.4,3,0.6l1.5,0.2l0.7,0.1C56.8,91.9,57,91.9,57.1,92"/>
				<path class="st2" d="M57.1,92c-0.1,0-0.3-0.1-0.4-0.1L56,91.8l-1.5-0.2c-1-0.2-2-0.4-3-0.6l0.3,0c0.9,0.2,1.9,0.4,2.9,0.5
					l1.4,0.2l0.4,0l0.2,0l0.1,0C56.9,91.9,57,91.9,57.1,92"/>
				<path class="st3" d="M57.1,92c-0.1,0-0.3-0.1-0.4-0.1L56,91.8l-1.5-0.2c-1-0.2-2-0.4-3-0.6c1,0.2,2,0.4,3,0.6l1.5,0.2l0.7,0.1
					C56.8,91.9,57,91.9,57.1,92"/>
				<path class="st2" d="M59.3,90.8c-0.5-0.1-1-0.3-1.5-0.5c0.9,0.2,1.8,0.4,2.7,0.6L59.3,90.8"/>
				<path class="st2" d="M71.4,90.5l-0.4,0l-0.3,0c-0.2,0-0.5,0-0.7,0c0.2,0,0.5,0,0.7,0l0.3,0L71.4,90.5"/>
				<path class="st5" d="M127,73l1.2-0.8l1.6-1.2c-2.9,1.1-5.8,2.3-9.1,3.9l1.1-0.3c-3.5,1.8-6.4,2.4-9.6,3.6
					c1.2-0.3,2.4-0.7,3.7-1.1c1.3-0.4,2.6-0.8,3.9-1.3C122.3,74.7,124.8,73.7,127,73"/>
				<polyline class="st2" points="106.8,80.6 105.7,80.9 106.8,80.6 				"/>
				<polyline class="st2" points="120.7,74.9 119.1,75.6 120.7,74.9 				"/>
				<polyline class="st2" points="108.4,80.2 106.8,80.6 108.4,80.2 				"/>
				<path class="st2" d="M70.8,89.2c-0.3,0-0.5,0-0.8,0l-0.8,0.1c-0.6,0-1.2-0.1-1.8-0.1c0.6,0,1.2,0,1.8,0l0.8,0
					C70.3,89,70.5,89.1,70.8,89.2L70.8,89.2"/>
				<path class="st2" d="M70.8,89.3c-0.2,0-0.5-0.1-0.8-0.1l-0.8,0l0.8-0.1c0.3,0,0.5,0,0.8,0L70.8,89.3"/>
				<path class="st2" d="M71.4,89.9c-0.5,0-0.9-0.1-1.3-0.2l-1.7-0.1c-0.6,0-1.2-0.1-1.8-0.1c0.7,0,1.5,0,2.2,0c0.8,0,1.3-0.1,2,0
					C70.9,89.7,71.2,89.8,71.4,89.9"/>
				<path class="st2" d="M71.4,90c-0.5-0.1-0.9-0.2-1.3-0.2C70.5,89.8,70.8,89.9,71.4,90L71.4,90"/>
				<path class="st2" d="M71.7,90.1c-0.7-0.1-1.3-0.2-1.8-0.2l-2-0.1c0.8,0,1.7-0.1,2.3-0.1c0.4,0.1,0.8,0.2,1.3,0.2L71.7,90.1"/>
				<path class="st5" d="M70.8,89.1c-0.3,0-0.5-0.1-0.8-0.1l-0.8,0c-0.6,0-1.2,0-1.8,0c0.6,0.1,1.2,0.1,1.8,0.1
					c-3.2,0.3-7.1,0.2-10.2-0.6c1.7,0.2,3.4,0.3,5.1,0.3c1.5,0,2.9,0,4.4-0.2l1.1-0.1c0.3-0.1,0.7-0.1,1,0c0.7,0,1.4,0,2.2,0
					C72.1,88.8,71.4,88.9,70.8,89.1"/>
				<path class="st6" d="M70.8,89.1c-0.3,0-0.5-0.1-0.8-0.1l-0.8,0c-0.6,0-1.2,0-1.8,0c0.6,0,1.2,0,1.8,0l0.8,0
					C70.3,89,70.5,89.1,70.8,89.1"/>
				<path class="st2" d="M74.2,88.4c-1.1,0-2.2,0-3.3-0.1l-0.8,0c-0.3,0-0.5,0-0.8,0c-0.6,0-1.1,0.1-1.6,0.1c-2.2,0-4.2-0.2-5.7-0.6
					c0.3,0,0.6,0,0.9,0c1.5,0.1,2.8,0.1,4.1,0.1c0.7,0,1.3,0,1.9,0l0.9,0c0.3,0,0.6,0,0.9,0.1c2.5,0.2,5.1,0.2,8-0.2
					c0.2,0,0.3,0,0.5-0.1c-1.5,0-3.3,0-5.2,0c-0.9,0-1.9-0.1-2.7-0.2c-0.4,0-0.9-0.1-1.3-0.1c-0.4,0-0.8,0-1.2,0l0.9,0
					c0.3,0,0.6,0,0.9,0.1c0.6,0,1.1,0.1,1.7,0.1c1.1,0.1,2.2,0.1,3.3,0.1c2.2,0,4.3,0,6.5-0.2C79.6,87.8,76.9,88.2,74.2,88.4"/>
				<path class="st2" d="M67.3,87.4c-2-0.2-3.9-0.5-5.8-1c0.8,0.1,1.6,0.2,2.4,0.3C65.1,87,66.2,87.2,67.3,87.4"/>
				<polyline class="st2" points="53.8,84.9 53,84.7 52.8,84.6 53.8,84.9 				"/>
				<path class="st2" d="M58.9,85.9c-0.4-0.1-0.9-0.3-1.5-0.4c-1.3-0.2-2.4-0.4-3.6-0.7L53,84.7c0.9,0.2,1.9,0.4,2.8,0.6
					c0.5,0.1,0.9,0.2,1.5,0.3C57.9,85.6,58.4,85.8,58.9,85.9 M57.4,85.6c-1.3-0.2-2.4-0.4-3.6-0.7C55,85.1,56.1,85.4,57.4,85.6"/>
				<path class="st2" d="M64,86.7c-0.8-0.1-1.6-0.2-2.4-0.3c-0.7-0.1-1.3-0.2-2-0.4l-1-0.2c-0.3-0.1-0.8-0.2-1.2-0.2
					c-1.3-0.2-2.4-0.4-3.6-0.7l-1.1-0.2l0.3,0.1c-1.7-0.5-3.3-1.1-4.9-1.8c1.9,0.5,3.8,0.9,5.8,1.2c0.7,0.2,1.5,0.5,2.3,0.7
					c0.4,0.1,0.8,0.2,1.3,0.3c0.3,0,0.5,0.1,0.8,0.2l0.6,0.2C60.6,86,62.4,86.4,64,86.7"/>
				<path class="st3" d="M64,86.7c-0.8-0.1-1.6-0.2-2.4-0.3C62.4,86.5,63.2,86.7,64,86.7"/>
				<polyline class="st3" points="53.8,84.9 52.8,84.6 53.8,84.9 				"/>
				<path class="st3" d="M57.4,85.6c-1.3-0.2-2.4-0.4-3.6-0.7C55,85.1,56.1,85.4,57.4,85.6"/>
				<path class="st3" d="M57.4,85.6c-1.3-0.2-2.4-0.4-3.6-0.7C55,85.1,56.1,85.4,57.4,85.6"/>
				<path class="st2" d="M52.4,83.5c-2.9-0.6-5.4-1.5-7.3-2.5c2,0.6,4.1,1.1,6.2,1.4l-0.8,0.1C51,82.9,51.7,83.2,52.4,83.5"/>
				<path class="st2" d="M-0.8,50.6c0.1-0.5,0.2-1.1,0.4-1.6c0.1-0.5,0.3-0.9,0.4-1.4L0,48.6C-0.3,49.2-0.6,49.9-0.8,50.6"/>
				<path class="st7" d="M65,7.3c6,0.8,10.8,2.1,14.6,3.8c-2.9,0-5.7,0.2-8.6,0.4c-9.2,0.6-18.5,1.2-18.7-0.5c0-0.2,0.1-0.5,0.5-0.9
					C57,9.2,61.2,8.1,65,7.3"/>
				<path class="st2" d="M30.9,15.7l1.2-0.3c-1,0.5-1.5,0.9-2.2,1.3c-0.3,0.2-0.7,0.5-1.2,0.8c-0.5,0.3-1.1,0.6-1.9,1
					c0.2-0.4,0.7-0.8,1.4-1.3C29,16.7,30,16.2,30.9,15.7"/>
				<path class="st8" d="M41.8,11.7c2.5,0.1,5.5-0.4,8.7-1c0.8-0.2,1.6-0.3,2.3-0.5c-0.4,0.3-0.5,0.6-0.5,0.9
					c0.2,1.7,9.5,1,18.7,0.5c-7,0.6-14,1.7-20.9,3.1c-2.3,0.5-4.6,1-6.9,1.5c-3.3,0.8-6.6,1.8-9.9,3c-1.6,0.6-3.2,1.4-4.7,2.1
					c-1.5,0.8-3.1,1.5-4.6,2.4l1,0c1.5-0.7,3-1.4,4.4-2.1c1.4-0.7,2.9-1.3,4.4-1.9c0.5-0.2,0.9-0.3,1.4-0.5c2.8-1,5.6-1.7,8.3-2.3
					c2.7-0.6,5.3-1,7.7-1.3c-3.7,1-7.5,1.9-11.3,3c-2.5,0.7-5,1.5-7.4,2.4c-3.6,1.4-7.1,2.9-10.5,4.4c-1.7,0.8-3.2,1.6-4.8,2.4
					c-1.6,0.8-3.1,1.7-4.5,2.8c-0.5,0.4-1,0.8-1.6,1.3c-0.2,0.2-0.5,0.5-0.8,0.7c-0.3,0.3-0.6,0.6-0.8,0.8c-1.1,1.2-2.3,2.6-3.3,4.2
					c0.9-1.5,2-2.9,3.1-4.2l0.1-0.8c-1.8,1.5-3.6,3.2-5.1,5.4c0.3-0.6,0.7-1.2,1.1-1.7c0.7-1,1.4-2,2.2-2.8c0.4-0.4,0.8-0.9,1.2-1.3
					c0.4-0.4,0.8-0.8,1.1-1.1c0.3-0.3,0.7-0.7,1.1-1.1c0.4-0.4,0.8-0.7,1.2-1.1c0.8-0.7,1.7-1.3,2.5-1.9c0.2-0.2,0.6-0.4,0.9-0.6
					l0.8-0.5l1.5-0.9l0,0c3.2-2.1,6.5-4.1,10.2-6.1c-1.5,0.6-3,1.3-4.6,2c-0.8,0.3-1.2,0.3-1.4,0.2c-0.3-0.2,0.8-1.1,2.4-2.2
					c1.6-1.1,3.7-2.3,5.7-3.2l0.6-0.1c-1,0.5-1.9,1.1-2.7,1.6c-0.7,0.5-1.2,0.9-1.4,1.3c0.8-0.4,1.4-0.7,1.9-1
					c0.5-0.3,0.9-0.5,1.2-0.8c0.7-0.5,1.2-0.9,2.2-1.3l1.4,0.1c1.4-0.3,2.8-0.6,4.2-0.8c-0.9,0.7,0.4,0.5,1.8,0.2
					c1.4-0.2,3-0.5,2.8-0.1c2.3-0.4,4.5-0.7,6.8-1.1l3.5-1.5C47.4,12.5,41.8,13,41.8,11.7"/>
				<path class="st9" d="M52.2,11c0.2,1.7,9.5,1,18.7,0.5C61.8,12.1,52.5,12.7,52.2,11"/>
				<path class="st10" d="M32.2,15.4c-1,0.5-1.5,0.9-2.2,1.3c-0.3,0.2-0.7,0.5-1.2,0.8c-0.5,0.3-1.1,0.6-1.9,1
					c0.8-0.4,1.4-0.7,1.9-1c0.5-0.3,0.9-0.5,1.2-0.8C30.7,16.3,31.2,15.9,32.2,15.4"/>
				<path class="st2" d="M2.2,42.3c0.3-0.7,0.6-1.3,1-2c0.4-0.7,0.8-1.4,1.2-2.1c0.3-0.6,0.7-1.2,1.1-1.7c0.7-1,1.4-2,2.2-2.8
					c0.4-0.4,0.8-0.9,1.2-1.3c0.4-0.4,0.8-0.8,1.1-1.1L10,31c-0.6,0.6-1.3,1.3-2,2c-0.7,0.7-1.4,1.5-2,2.3c0.7-0.9,1.4-1.8,2.1-2.7
					c0.4-0.4,0.7-0.8,1.1-1.2l1-1.1C8.4,31.7,6.1,34,4.4,37c-0.5,0.9-0.9,1.8-1.3,2.7C2.7,40.6,2.5,41.4,2.2,42.3 M5.5,36.5
					c0.7-1,1.4-2,2.2-2.8c0.4-0.4,0.8-0.9,1.2-1.3c0.4-0.4,0.8-0.8,1.1-1.1c-0.3,0.3-0.7,0.7-1.1,1.1c-0.4,0.4-0.8,0.8-1.2,1.3
					C6.9,34.5,6.1,35.4,5.5,36.5"/>
				<path class="st3" d="M5.5,36.5c0.7-1,1.4-2,2.2-2.8c0.4-0.4,0.8-0.9,1.2-1.3c0.4-0.4,0.8-0.8,1.1-1.1c-0.3,0.3-0.7,0.7-1.1,1.1
					c-0.4,0.4-0.8,0.8-1.2,1.3C6.9,34.5,6.1,35.4,5.5,36.5"/>
				<polyline class="st2" points="31.8,15.2 32.2,15.4 30.9,15.7 31.8,15.2 				"/>
				<polyline class="st2" points="60.1,17.5 60.4,17.8 60.1,17.5 				"/>
				<path class="st11" d="M26.5,12c2.2-0.6,3.5-0.7,4.2-0.5c0.8,0.1,1,0.5,1,1c0,0.9-0.8,2.2,0,2.8l-0.8,0.4l-0.6,0.1
					c-2,0.9-4.1,2.1-5.7,3.2c-1.6,1.1-2.7,2-2.4,2.2c0.1,0.1,0.6,0,1.4-0.2c1.5-0.7,3-1.3,4.6-2c-3.7,2-7,3.9-10.2,6.1l-1.5,1
					l-0.8,0.5c-0.3,0.2-0.7,0.4-0.9,0.6c-0.9,0.6-1.7,1.2-2.5,1.9c-0.4,0.3-0.8,0.7-1.2,1.1c-0.4,0.3-0.8,0.8-1.1,1.1L10,31
					c1.3-1.4,2.8-2.7,4.4-3.8c-1.4,0.8-3,2-4.4,3.4c-0.3,0.3-0.6,0.6-0.9,1c-0.3,0.4-0.7,0.7-1,1.1c-0.7,0.8-1.3,1.6-2,2.5
					c0.7-0.9,1.4-1.8,2.1-2.7c0.4-0.4,0.7-0.8,1.1-1.2l1-1.1C8.4,31.7,6.1,34,4.4,37c0.1-0.3,0.2-0.7,0.3-1c-1,1-2,2.2-2.8,3.5
					c1.3-2.7,3-4.9,4.7-6.7C7,32,7.4,31.3,7.9,30.5c-1.2,0.7-2.5,1.5-4,2.8c-0.8,0.7-1.6,1.5-2.4,2.6c-0.4,0.5-0.8,1.1-1.2,1.8
					c-0.2,0.3-0.4,0.7-0.6,1c-0.2,0.3-0.3,0.6-0.5,0.9c0.2-0.4,0.4-0.8,0.6-1.3c0.2-0.5,0.5-0.9,0.8-1.4c0.5-0.9,1.1-1.7,1.7-2.4
					c1.2-1.5,2.4-2.7,3.7-3.9c0.3-0.3,0.6-0.6,1-0.8c0.3-0.3,0.6-0.4,0.9-0.7c0.7-0.6,1.5-1.3,2.3-1.9c0.8-0.6,1.7-1.3,2.6-1.9
					c0.2-0.2,0.5-0.3,0.7-0.5c0.3-0.2,0.7-0.4,0.8-0.5c0.4-0.3,0.9-0.5,1.3-0.8l0.2-0.7l1.6-0.7c-1.1,0.2-2.6,0.8-4.1,1.4
					c-0.5,0.3-1,0.5-1.5,0.8c-0.4,0.2-0.8,0.4-1.2,0.6c-0.8,0.4-1.5,0.8-2,1c0.9-0.7,1.8-1.3,2.8-1.9l1.6-0.9
					c0.5-0.2,0.8-0.4,1.3-0.6c-0.1-0.1-0.4-0.1-0.7,0c-0.2,0-0.3,0.1-0.5,0.1l-0.1,0l-0.2,0.1c-0.2,0.1-0.3,0.1-0.5,0.2
					c-1,0.4-2,1-2.6,1.2c0.6-0.4,1.1-0.7,1.7-0.9c0.3-0.1,0.5-0.2,0.8-0.3c0.2-0.1,0.3-0.2,0.5-0.2c0.2-0.1,0.3-0.1,0.4-0.1
					c0.8-0.2,1.4-0.3,2.1-0.5c0.7-0.1,1.4-0.3,2.2-0.6c1-0.4,1.9-0.8,3-1.4l0.2-0.1l0.3-0.2c4.1-2.2,6-3.5,6.3-4.4
					c0.3-0.9-0.9-1.2-2.9-1l1.7-0.6c0.7-0.4,1.1-0.7,1.3-0.9c0.2-0.2,0.1-0.3-0.1-0.4C26.8,12.4,26.2,12.4,26.5,12"/>
				<path class="st12" d="M22.2,21.3c0.1,0.1,0.6,0,1.4-0.2c1.5-0.7,3-1.3,4.6-2c-1.5,0.6-3,1.3-4.6,2
					C22.8,21.3,22.3,21.4,22.2,21.3"/>
				<path class="st12" d="M28.1,19.1c-3.7,2-7,3.9-10.2,6.1C21.1,23,24.4,21.1,28.1,19.1"/>
				<path class="st13" d="M6,35.2c0.7-0.9,1.4-1.8,2.1-2.7c0.4-0.4,0.7-0.8,1.1-1.2l1-1.1l-1,1.1c-0.4,0.4-0.7,0.8-1.1,1.2
					C7.4,33.4,6.7,34.3,6,35.2"/>
				<polyline class="st13" points="10,31 9.9,31.2 10,31 				"/>
				<path class="st11" d="M2.8,47.2l-0.1,1.2c0,0.5,0,1,0.1,1.6c0.1-0.6,0.2-1.2,0.4-1.8c-0.1,0.6-0.3,1.1-0.4,1.8l0.4,0.4
					c0.3-1.4,0.8-2.7,1.2-4c-0.2,0.7-0.4,1.5-0.6,2.3c0.4-1.1,0.8-2.2,1.3-3.3c-0.5,1.4-0.9,2.8-1.2,4.2l0.2,0
					c0.1-0.5,0.3-0.9,0.4-1.4C4.9,46.4,5.4,44.7,6,43c0.6-1.6,1.3-3.3,2.3-4.5c-0.7,1.3-1.3,2.7-1.7,4.1c-0.5,1.5-0.9,3-1.3,4.5
					c-0.3,1.5-0.7,3.1-0.7,4.8c0,0.4,0.1,0.8,0.1,1.1c0-2.2,0.6-4.4,1.2-6.4c0.6-2,1.4-3.8,2.3-5.1c-0.1,0.3-0.2,0.6-0.3,0.8
					c-0.9,2.4-1.5,4.5-2.1,6.7c-0.6,2.1-0.8,4.3-0.4,6.8c0,0.6,0.1,1.2,0.2,1.8l0.1,0.5c0-0.7,0-1.4,0-2.3c-0.1-1.3-0.1-2.7,0.1-4
					c0.2-1.3,0.6-2.5,0.9-3.5c-0.8,2.6-1.2,4.9-0.9,7.6c-0.1,1.6,0,3.1,0.5,4.7l0,0l0,0.4c0,0.2,0.1,0.4,0.1,0.6
					c0.4,1.6,1.3,3,2.3,4l0-0.1c2.1,3.5,5,6.1,8.2,7.9c-1.9-1.2-3.6-2.7-5-4.3c1.4,1.7,3.1,3.1,5,4.3c0.6,0.3,1.2,0.6,1.7,0.9
					c0.5,0.3,1.1,0.6,1.6,0.9c1.1,0.6,2.2,1.3,3.2,1.9c2.2,1.3,4.3,2.5,6.4,3.8c2.7,1.3,5.3,2.6,8,3.9l-5.4-3.3
					c1.9,0.5,3.9,1.3,5.9,2c1,0.4,1.9,0.8,2.9,1.1c1,0.3,1.9,0.6,2.8,0.8c-2.5-0.9-4.7-2.1-6.8-3.2c-2.2-1.1-4.3-2.2-6.5-3.2
					c-0.5-0.3-1.1-0.6-1.7-1c0.6,0.3,1.1,0.7,1.7,1c2.2,1,4.3,2.1,6.5,3.2c2.2,1.1,4.3,2.3,6.8,3.2l1.1,0.3
					c-1.1-0.5-2.3-1.1-3.5-1.7c-1.2-0.6-2.4-1.3-3.6-1.9c-2.4-1.3-5-2.6-7-3.7c3,1.4,5.5,2.9,9.1,4.5l-1-0.6l-1.6-0.7l1.6,0.7
					c0.8,0.4,1.6,0.7,2.4,1.1c0.8,0.3,1.5,0.6,2.3,1c1.5,0.6,3,1.2,4.4,1.7C50,86,51.9,86,53.8,86c1,0,1.9,0,2.9,0
					c0.4,0,1.1,0,1.6,0.1l1.4,0.2c0.6,0.1,1.3,0.2,1.9,0.2c-0.7-0.1-1.3-0.2-2-0.4l-1-0.2c-0.3-0.1-0.8-0.2-1.2-0.2
					c0.5,0.1,1.1,0.3,1.5,0.4c-0.4-0.1-1-0.3-1.6-0.4c-0.5-0.1-1-0.2-1.5-0.3c-0.9-0.2-1.9-0.4-2.8-0.6c-1.7-0.5-3.3-1.1-4.9-1.8
					c1.9,0.5,3.8,0.9,5.8,1.2c-0.5-0.2-1-0.4-1.5-0.6c-2.9-0.6-5.4-1.5-7.3-2.5c2,0.6,4.1,1.1,6.2,1.4c1.2,0,2.5,0,3.7-0.1l-0.4-0.9
					c-2.1-0.9-5.4-1.9-9.4-3.2c-0.2-0.1-0.5-0.2-0.7-0.2c0,0.3,0,0.5,0,0.8c-0.4-0.3-0.6-0.6-0.9-0.9L41,77.5l-2.3-1.1
					c-1.5-0.1-3.2-0.7-5-1.4c-0.4-0.2-0.9-0.4-1-0.4c-1.3-0.7-2.7-1.5-4-2.2l1.4,1c-1-0.1-2-0.5-3-1.1c-1.5-0.8-3-1.8-4.3-2.6
					l-0.7-0.5c-0.2-0.2-0.4-0.3-0.8-0.6l-0.6-0.3l-0.3-0.2l-0.5-0.4c-0.1,0-0.1-0.1-0.2-0.1l0.1,0l-0.1-0.1
					c-1.1-0.6-2.1-1.3-2.9-2.1c-0.4-0.5-0.8-1-1.2-1.5c-0.2-0.3-0.3-0.6-0.5-0.9c0.2,0.3,0.3,0.6,0.5,0.9c0.2,0.3,0.5,0.6,0.8,1
					c-0.2-0.3-0.4-0.6-0.5-0.9c0.4,0.5,0.9,1,1.4,1.5c-1-1-1.7-2.1-2.4-3.3c-0.2-0.3-0.3-0.6-0.5-0.8l-1.1-1.2
					c0-0.1-0.1-0.1-0.1-0.1l0.1,0.1c-0.1-0.3,0-0.4,0-0.6c0.1-0.1,0.1-0.2,0.2-0.4l-0.5-1.7c-0.1-0.4-0.1-0.7-0.1-1
					c0-0.1-0.1-0.3-0.1-0.4l0-0.2l0-0.1l0-0.2l0-0.5l-0.3-1.4l0.1,0.4l0,0.1l0.1,0.3l0.1,0.6l0.1,0.7c0,0.1,0,0.1,0,0.2
					c0,0.1,0.1,0.2,0.1,0.3c0.1,0.2,0.1,0.4,0.2,0.6c-0.1-0.2-0.1-0.4-0.1-0.6l0-0.3l0-0.9L13,54l0-0.3c0-0.2,0-0.4,0-0.6l0.3,0.1
					c0-0.6,0.1-1.3,0.2-2c0.1-0.5,0.2-1,0.3-1.5c0.1-0.5,0.3-1.1,0.4-1.6l0.1-0.2c0.1-0.6,0.3-1.2,0.4-1.8l0.2-0.9l0.2-0.8L14.8,45
					l-0.2,0.8c-0.1,0.5-0.2,1.1-0.3,1.6l0.5-0.1c0.1-0.5,0.3-1,0.4-1.5c0.1-0.5,0.3-0.9,0.4-1.4c0.2-0.6,0.5-1.4,1.1-2.1
					c0.3-0.4,0.6-0.8,1-1.2l-0.3,0.3c0.3-0.4,0.7-0.8,1-1.2l1.3-1.4c0.5-0.6,1-1.2,1.5-1.8l0.4-0.4c0.1-0.1,0.2-0.2,0.2-0.2
					c0,0,0-0.1,0-0.1c0.4-0.3,0.9-0.7,1.3-1l-0.9,0.4l-0.4,0.2l-0.2,0.1c0,0,0,0-0.1,0c0,0,0,0,0.1,0l0.2-0.1l0.4-0.2l0.9-0.4
					c0.7-0.6,1.5-1.2,2.2-1.8c0.6-0.5,1.4-1.1,2.1-1.6c1.4-1,2.8-2,4.2-3c0.7-0.5,1.3-0.9,2-1.4c0.6-0.4,1.2-0.8,1.8-1.2
					c1.2-0.8,2.3-1.5,3.4-2.2c-1.7,0.7-3.4,1.5-4.9,2.3c-0.4,0.2-0.7,0.4-1.1,0.6c-0.4,0.2-0.8,0.5-1.1,0.7
					c-0.7,0.5-1.5,0.9-2.1,1.4c-2,1.3-4.1,2.6-5.9,3.9c-1,0.7-1.9,1.3-2.9,2c-0.8,0.6-1.5,1.2-2.2,1.9c-0.3,0.3-0.6,0.6-0.9,1
					c0.4-0.7,0.8-1.3,1.3-1.9c0.2-0.3,0.5-0.6,0.7-0.9l0.4-0.4c0.1-0.1,0.3-0.3,0.3-0.4l-0.1,0.1c0-0.1,0.4-0.5,0.8-0.9l-0.4,0.4
					L20.4,34c-0.1,0.1-0.1,0.1-0.1,0.1c0.4-0.3,0.8-0.6,1.3-0.8c0.4-0.3,0.9-0.6,1.3-0.9c0.9-0.6,1.5-1.1,2.4-1.6
					c1.6-1,3.2-2,4.8-2.9c0.8-0.5,1.6-0.9,2.4-1.4c0.8-0.4,1.5-0.8,2.3-1.2c1.6-0.8,3.3-1.4,5.2-2l-1.2,0.6c4.2-1.6,8.8-3,13.3-4.2
					c1.6-0.8,3.3-1.5,5-2.3c-1.5,0.2-2.9,0.5-4.4,0.7l2.4-0.7c0.3-0.2,1.7-0.5,1.9-0.7c0.1-0.1-0.4-0.1-2,0.1
					c-1.6,0.2-4.3,0.7-8.8,1.8c-1.5,0.4-3.1,0.8-4.6,1.2c5-1.7,9.6-3.1,13.4-4.6l-3.7,0.3c-3.7,1-7.5,1.9-11.3,3
					c-2.5,0.7-5,1.5-7.4,2.4c-3.6,1.4-7.1,2.9-10.5,4.4c-1.7,0.8-3.2,1.6-4.8,2.4c-1.6,0.8-3.1,1.7-4.5,2.8c-0.5,0.4-1,0.8-1.6,1.3
					c-0.2,0.2-0.5,0.5-0.8,0.7c-0.3,0.3-0.6,0.6-0.8,0.8c-1.1,1.2-2.3,2.6-3.3,4.2c-0.1,0.2-0.2,0.4-0.3,0.6c0.4-0.5,0.8-1,1.2-1.5
					c-0.6,0.7-1.1,1.5-1.6,2.4c0.9-1.2,1.9-2.3,2.9-3.3c-1.3,1.3-2.4,2.8-3.3,4.5C5,40.7,5,40.9,4.9,41.2c0.7-1.4,1.5-2.8,2.5-4
					c-0.5,0.7-1,1.4-1.5,2.2c-0.2,0.4-0.4,0.8-0.6,1.2c-0.2,0.4-0.4,0.8-0.5,1.2L4.6,43C3.9,44.4,3.3,45.8,2.8,47.2 M27,76.9
					c1.2,0.8,2.4,1.5,3.5,2.3c2.4,1.3,4.9,2.7,8.1,4.2c-3.2-1.5-5.7-2.8-8.1-4.2C29.4,78.4,28.2,77.7,27,76.9L25.6,76l-1-0.6l1,0.6
					L27,76.9l-0.3,0l-3.9-2.2l3.9,2.2L27,76.9 M8.1,63.9c0.3,0.4,0.6,0.7,0.9,1.1l0,0l0,0c0.8,1.3,1.5,2.5,2.4,3.6
					c0.9,1.1,1.9,2.1,3.2,3.1c-1.4-0.9-2.4-2-3.2-3.1c-0.9-1.1-1.6-2.3-2.4-3.6l0,0l0,0C8.7,64.6,8.4,64.2,8.1,63.9 M6.7,61
					l-0.1-0.3l-0.1-0.3l0,0l0-0.1C6.2,59.5,6,58.8,5.9,58c0.1,0.8,0.4,1.6,0.7,2.3l0,0.1l0,0l0.1,0.3L6.7,61C7,62.6,7.7,64,8.8,65.2
					l0,0c0.7,1.2,1.5,2.5,2.6,3.7c-1.1-1.2-1.9-2.4-2.6-3.7l0,0C7.7,64,7,62.6,6.7,61 M24.1,75.7L22.6,75L24.1,75.7 M34.8,22.5
					c2.1-1,4.4-1.8,6.7-2.6C39.2,20.6,37,21.5,34.8,22.5 M34.8,22.5c2.1-1,4.4-1.8,6.7-2.6C39.2,20.6,37,21.5,34.8,22.5 M34.8,22.5
					l-1,0.4l-1,0.5l-1,0.5L31,24.4l-0.1,0.1L30,25l-1,0.6l-1,0.5l-0.9,0.6l-0.9,0.6l-0.7,0.4l-0.9,0.6l-0.9,0.6l-0.9,0.6l-0.6,0.5
					l-0.9,0.7l-0.6,0.6c0.9-0.6,1.7-1.2,2.5-1.8c0.8-0.5,1.6-1.1,2.4-1.6c1.6-1,3.1-2,4.6-2.9l0.3-0.2l0.3-0.2l1.1-0.7l0.3-0.2
					l0.9-0.5l0.5-0.3C34.1,22.9,34.4,22.7,34.8,22.5 M52.6,18.1c-0.5,0.1-1,0.2-1.5,0.3c-0.3,0.1-0.7,0.1-1,0.2L49,18.9l-1.1,0.3
					l-1.4,0.4l-0.6,0.2c-0.6,0.2-1.2,0.4-1.7,0.6l0,0l-1,0.4l1-0.4l-1,0.4l1-0.4l0,0c-0.4,0.1-0.7,0.2-1.1,0.4
					c0.4-0.2,0.9-0.3,1.4-0.5l0.8-0.2l1.3-0.4l0.4-0.1c0.4-0.1,0.8-0.2,1.3-0.3L49,19l0.8-0.2C50.8,18.6,51.7,18.4,52.6,18.1
					 M44.5,78.8l0,0.1l0.9,0.5L44.5,78.8"/>
				<path class="st1" d="M34.8,22.5c-1.3,0.6-2.6,1.2-3.8,1.9l0.9-0.5l1-0.5l1-0.5L34.8,22.5"/>
				<path class="st1" d="M33.7,23.1l-0.5,0.3l-0.9,0.5L31.9,24C32.5,23.7,33.1,23.4,33.7,23.1"/>
				<path class="st1" d="M30.9,24.5c-1.9,1.1-3.8,2.2-5.5,3.3c-0.9,0.6-1.7,1.2-2.5,1.7c-0.7,0.6-1.5,1.2-2.2,1.8l0.6-0.6l0.9-0.7
					l0.6-0.5l0.9-0.6l0.9-0.6l0.9-0.6l0.7-0.4l0.9-0.6l0.9-0.6l1-0.5l1-0.6L30.9,24.5"/>
				<polyline class="st1" points="30.8,24.7 30.5,24.9 30.2,25.1 30.8,24.7 				"/>
				<path class="st14" d="M19.7,67.6L19.7,67.6l0.2,0.1C19.9,67.6,19.8,67.6,19.7,67.6"/>
				<path class="st13" d="M21.4,35.8C21.4,35.8,21.5,35.8,21.4,35.8l0.3-0.1l0.4-0.2l0.9-0.4l-0.9,0.4l-0.4,0.2L21.4,35.8
					C21.5,35.8,21.4,35.8,21.4,35.8"/>
				<path class="st13" d="M58.9,85.9c-0.4-0.1-0.9-0.3-1.5-0.4C57.9,85.6,58.5,85.8,58.9,85.9"/>
				<path class="st13" d="M53.9,84.1c-1.9-0.3-3.9-0.7-5.8-1.2C50,83.4,52,83.8,53.9,84.1"/>
				<path class="st13" d="M45.1,81c2,0.6,4.1,1.1,6.2,1.4C49.2,82.1,47.1,81.6,45.1,81"/>
				<polyline class="st15" points="34.8,22.5 33.8,22.9 32.9,23.4 31.9,23.9 31,24.4 31.9,23.9 32.9,23.4 33.8,22.9 34.8,22.5 				
					"/>
				<polyline class="st15" points="33.7,23.1 33.1,23.4 32.2,23.9 31.9,24 32.2,23.9 33.1,23.4 33.7,23.1 				"/>
				<polyline class="st15" points="30.9,24.5 30,25 29,25.5 28,26.1 27.1,26.7 26.2,27.3 25.5,27.7 24.6,28.3 23.7,28.9 22.8,29.6 
					22.2,30.1 21.3,30.8 20.7,31.3 21.3,30.8 22.2,30.1 22.8,29.6 23.7,28.9 24.6,28.3 25.5,27.7 26.2,27.3 27.1,26.7 28,26.1 
					29,25.5 30,25 30.9,24.5 				"/>
				<polyline class="st15" points="30.8,24.7 30.5,24.9 30.2,25.1 30.5,24.9 30.8,24.7 				"/>
				<path class="st15" d="M41.5,19.9c-2.3,0.8-4.5,1.6-6.7,2.6C37,21.5,39.2,20.6,41.5,19.9"/>
				<path class="st15" d="M41.5,19.9c-2.3,0.8-4.5,1.6-6.7,2.6C37,21.5,39.2,20.6,41.5,19.9"/>
				<path class="st12" d="M6.2,37.7c1-1.6,2.2-3.1,3.3-4.2c0.3-0.3,0.6-0.6,0.8-0.8c0.3-0.2,0.5-0.5,0.8-0.7c0.5-0.5,1.1-1,1.6-1.3
					c1.4-1,2.9-2,4.5-2.8c1.5-0.8,3.1-1.6,4.8-2.4c3.3-1.5,6.8-3.1,10.5-4.4c-3.6,1.4-7.1,2.9-10.5,4.4c-1.7,0.8-3.2,1.6-4.8,2.4
					c-1.6,0.8-3.1,1.7-4.5,2.8c-0.5,0.4-1,0.8-1.6,1.3c-0.2,0.2-0.5,0.5-0.8,0.7c-0.3,0.3-0.6,0.6-0.8,0.8
					C8.4,34.6,7.2,36.1,6.2,37.7"/>
				<path class="st12" d="M51.2,15.6c-3.7,1-7.5,1.9-11.3,3C43.7,17.5,47.5,16.5,51.2,15.6"/>
				<path class="st1" d="M49,18.9l1.1-0.2c-1.4,0.3-2.8,0.7-4.2,1.1l0.6-0.2l1.4-0.4L49,18.9"/>
				<path class="st1" d="M49.8,18.8L49,19l-0.7,0.2C48.8,19.1,49.3,18.9,49.8,18.8"/>
				<path class="st1" d="M47,19.5l-0.4,0.1L45.3,20l-0.8,0.2C45.3,20,46.2,19.7,47,19.5"/>
				<path class="st1" d="M44.2,20.3C44.2,20.3,44.2,20.3,44.2,20.3L44.2,20.3L44.2,20.3"/>
				<polyline class="st2" points="59.3,17.6 58.7,17.8 59.3,17.6 				"/>
				<path class="st7" d="M57,17.4c3.5-0.5,6.9-0.8,10.3-1.1c3.4-0.2,6.8-0.4,10.2-0.5c-1.4,0.3-2.7,0.6-4,1l0.5-0.1
					c-0.9,0-2.1,0.1-3.3,0.3c-0.6,0.1-1.3,0.1-2,0.2c-2,0.2-4.2,0.5-6,0.7l-2.3-0.1l0,0l-0.3-0.3l1.6-0.6l-2.4,0.6l-0.5,0.1
					c-2.3,0.6-4.5,1.2-6.7,1.9C53.7,18.9,55.3,18.1,57,17.4"/>
				<path class="st16" d="M70.6,17c1.3-0.1,2.4-0.2,3.3-0.3C73.1,16.7,71.9,16.8,70.6,17c-0.6,0.1-1.3,0.1-2,0.2
					C69.3,17.1,70,17,70.6,17"/>
				<polyline class="st16" points="74,16.7 73.4,16.8 74,16.7 				"/>
				<polyline class="st17" points="60.1,17.5 60.4,17.8 60.4,17.8 60.1,17.5 				"/>
				<path class="st16" d="M57,17.4c-1.7,0.7-3.3,1.5-5,2.3C53.7,18.9,55.3,18.1,57,17.4"/>
				<path class="st7" d="M57.6,14c4.2-0.7,9.6-1.1,14-1.3c-3.6,1.3-9.9,2.9-14.7,4.7c-1.5,0.2-2.9,0.5-4.4,0.7l2.4-0.7
					c0.3-0.2,1.7-0.5,1.9-0.7c0.1-0.1-0.4-0.1-2,0.1c-1.6,0.2-4.3,0.7-8.8,1.8c-1.5,0.4-3.1,0.8-4.6,1.2c5-1.7,9.6-3.1,13.4-4.6
					l-3.7,0.3l2.2-0.6c0.9-0.3,1.9-0.5,3-0.7C56.8,14.2,57.2,14.1,57.6,14"/>
				<path class="st16" d="M54.9,15.2c-3.7,1.5-8.4,2.9-13.4,4.6C46.5,18.1,51.1,16.7,54.9,15.2"/>
				<path class="st16" d="M56.9,16.7c-0.1,0.1-1.5,0.5-1.9,0.7l-2.4,0.7l2.4-0.7C55.3,17.3,56.7,16.9,56.9,16.7"/>
				<path class="st18" d="M43.1,16.1c2.3-0.6,4.6-1.1,6.9-1.5c6.9-1.4,13.9-2.4,20.9-3.1c2.2-0.1,4.3-0.2,6.4-0.3
					c0.7,0,1.4-0.1,2.1-0.1c2.3,1.1,4.3,2.4,5.6,3.7c-2.6,0.2-5.1,0.6-7.6,1c-3.4,0.1-6.8,0.3-10.2,0.5c-3.4,0.2-6.8,0.5-10.3,1.1
					c4.8-1.7,11.1-3.3,14.7-4.7c-4.5,0.2-9.9,0.6-14,1.3l0,0c-0.4,0.1-0.8,0.1-1.2,0.2c-1.2,0.2-2.2,0.5-3,0.7l-2.2,0.6
					c-2.4,0.2-5,0.7-7.7,1.3c-2.7,0.6-5.5,1.4-8.3,2.3c-0.5,0.2-0.9,0.3-1.4,0.5c-1.5,0.6-3,1.2-4.4,1.9c-1.5,0.7-3,1.4-4.4,2.1
					l-1,0c1.5-0.8,3-1.6,4.6-2.4c1.5-0.8,3.1-1.5,4.7-2.1C36.5,17.9,39.8,17,43.1,16.1"/>
				<path class="st13" d="M43.1,16.1c-3.3,0.8-6.6,1.8-9.9,3c-1.6,0.6-3.2,1.4-4.7,2.1c-1.5,0.8-3.1,1.5-4.6,2.4
					c1.5-0.8,3-1.6,4.6-2.4c1.5-0.8,3.1-1.5,4.7-2.1C36.5,17.9,39.8,17,43.1,16.1"/>
				<path class="st13" d="M50,14.6c6.9-1.4,13.9-2.4,20.9-3.1C63.9,12.1,56.9,13.2,50,14.6"/>
				<path class="st13" d="M29.4,21.5c1.4-0.7,2.9-1.3,4.4-1.9c0.5-0.2,0.9-0.3,1.4-0.5c2.8-1,5.6-1.7,8.3-2.3
					c-2.7,0.6-5.5,1.4-8.3,2.3c-0.5,0.2-0.9,0.3-1.4,0.5C32.3,20.2,30.8,20.9,29.4,21.5"/>
				<path class="st19" d="M57.6,14L57.6,14c-0.4,0.1-0.8,0.1-1.2,0.2C56.8,14.2,57.2,14.1,57.6,14"/>
				<path class="st19" d="M71.7,12.7c-3.6,1.3-9.9,2.9-14.7,4.7C61.8,15.7,68.1,14.1,71.7,12.7"/>
				<path class="st2" d="M71,11.5c2.8-0.2,5.7-0.4,8.6-0.4c-0.7,0-1.4,0.1-2.1,0.1C75.2,11.3,73.1,11.4,71,11.5"/>
				<path class="st17" d="M71,11.5c2.8-0.2,5.7-0.4,8.6-0.4C76.7,11.1,73.8,11.3,71,11.5"/>
			</g>
		</g>
	</g>
</g>
</svg>
