<svg id="Layer_1" data-name="Layer 1" xmlns="http://www.w3.org/2000/svg" viewBox="0 0 388.77 485.11"><title>leftSkew</title><path d="M796.25,587,699.8,248l-27.25-95.78c-3.58-12.57-17.83-21.64-30.75-17.46S620.5,152,624.33,165.48l96.46,339L748,600.31c3.58,12.57,17.83,21.64,30.76,17.46s21.29-17.28,17.46-30.75Z" transform="translate(-408.41 -133.7)" style="fill:#ba2a2f"/><path d="M686.25,587,589.8,248l-27.25-95.78c-3.58-12.57-17.83-21.64-30.75-17.46S510.5,152,514.33,165.48l96.46,339L638,600.31c3.58,12.57,17.83,21.64,30.76,17.46s21.29-17.28,17.46-30.75Z" transform="translate(-408.41 -133.7)" style="fill:#ba2a2f"/><path d="M581.25,587,484.8,248l-27.25-95.78c-3.58-12.57-17.83-21.64-30.75-17.46S405.5,152,409.33,165.48l96.46,339L533,600.31c3.58,12.57,17.83,21.64,30.76,17.46s21.29-17.28,17.46-30.75Z" transform="translate(-408.41 -133.7)" style="fill:#ba2a2f"/></svg>