<svg id="Layer_1" data-name="Layer 1" xmlns="http://www.w3.org/2000/svg" viewBox="0 0 388.63 484.44"><title>rightSkew</title><path d="M748,152.19,651.58,491.24,624.33,587c-3.57,12.57,4.38,27.77,17.47,30.75,13.3,3,26.92-4,30.75-17.46l96.45-339,27.25-95.78c3.57-12.57-4.37-27.77-17.46-30.75-13.31-3-26.93,4-30.76,17.46Z" transform="translate(-408.48 -134.03)" style="fill:#ba2a2f"/><path d="M638,152.19,541.58,491.24,514.33,587c-3.57,12.57,4.38,27.77,17.47,30.75,13.3,3,26.92-4,30.75-17.46l96.45-339,27.25-95.78c3.57-12.57-4.37-27.77-17.46-30.75-13.31-3-26.93,4-30.76,17.46Z" transform="translate(-408.48 -134.03)" style="fill:#ba2a2f"/><path d="M533,152.19,436.58,491.24,409.33,587c-3.57,12.57,4.38,27.77,17.47,30.75,13.3,3,26.92-4,30.75-17.46l96.45-339,27.25-95.78c3.57-12.57-4.37-27.77-17.46-30.75-13.31-3-26.93,4-30.76,17.46Z" transform="translate(-408.48 -134.03)" style="fill:#ba2a2f"/></svg>