<svg id="Layer_1" data-name="Layer 1" xmlns="http://www.w3.org/2000/svg" viewBox="0 0 267.87 502.12"><title>straightSkew</title><path d="M732.71,602.28l4-352.49,1.13-99.57c.15-13.08-11.6-25.6-25-25-13.67.62-24.84,11-25,25l-4,352.49-1.14,99.57c-.15,13.08,11.61,25.6,25,25,13.67-.62,24.84-11,25-25Z" transform="translate(-470 -125.19)" style="fill:#ba2a2f"/><path d="M625.64,602.29l-.55-352.5-.15-99.58c0-13.08-11.49-25.61-25-25s-25,11-25,25l.55,352.5.15,99.58c0,13.08,11.49,25.61,25,25s25-11,25-25Z" transform="translate(-470 -125.19)" style="fill:#ba2a2f"/><path d="M520,602.29l.45-352.5.13-99.58c0-13.08-11.51-25.61-25-25s-25,11-25,25l-.45,352.5L470,602.29c0,13.08,11.51,25.61,25,25s25-11,25-25Z" transform="translate(-470 -125.19)" style="fill:#ba2a2f"/></svg>