<?xml version="1.0" encoding="utf-8"?>
<!-- Generator: Adobe Illustrator 23.0.1, SVG Export Plug-In . SVG Version: 6.00 Build 0)  -->
<svg version="1.1" id="Layer_1" xmlns="http://www.w3.org/2000/svg" xmlns:xlink="http://www.w3.org/1999/xlink" x="0px" y="0px"
	 viewBox="0 0 100 100" style="enable-background:new 0 0 100 100;" xml:space="preserve">
<style type="text/css">
	.st0{opacity:0.8;}
	.st1{fill:#DD9699;}
	.st2{fill:#CF6A6E;}
	.st3{fill:#C54C50;}
	.st4{fill:#C3464B;}
	.st5{fill:#E2A6A8;}
	.st6{fill:#CA5A5E;}
	.st7{fill:#CB6063;}
	.st8{fill:#D88689;}
	.st9{fill:#C54D51;}
	.st10{fill:#C75256;}
	.st11{opacity:0.8;fill:#DD9699;}
	.st12{fill:#CD6467;}
	.st13{fill:#C8565A;}
	.st14{fill:#D06D70;}
	.st15{fill:#C9575B;}
	.st16{fill:#C65155;}
	.st17{fill:#C44A4E;}
	.st18{fill:#D27478;}
	.st19{fill:#C54B4F;}
</style>
<g>
	<g>
		<g>
			<g class="st0">
				<path class="st1" d="M9.5,9.1C9.1,8.1,8.8,6.9,8.6,5.7L7.9,5l1.5,0.6c2.7,0.7,6,0.9,8.2,2.1c-0.6-0.1-1.4-0.1-2.1-0.1
					c-0.2,0-0.5,0-0.7,0c-0.5,0-0.9,0-1.2,0l0.2-0.1l-1.5,0.7l-1.5,0l1.5,0L9.5,9.1"/>
				<path class="st1" d="M52.3,5.9L52.3,5.9l0.3-0.3c1.3-0.4,2.6-0.7,3.7-1.3c1.4-0.5,2.9-0.9,4.5-1.1c0.3,0,0.6-0.1,1-0.1l-1.9,1
					l-0.2,0c-1.4,0.2-2.6,0.5-3.8,0.9C54.7,5.4,53.5,5.7,52.3,5.9"/>
				<path class="st2" d="M61.2,0.9c0.7-0.3,1.5-0.5,2.2-0.7c0.8-0.3,1.5-0.5,2.3-0.8l0.1,0.4C64.9,0,64,0.5,63.1,0.6
					c-0.3,0-0.5,0-0.8,0l0.2,0.1L61.2,0.9"/>
				<polyline class="st2" points="64.6,0.8 66,0.2 66.2,0.3 64.6,0.8 				"/>
				<polyline class="st2" points="52.3,14.7 51.8,14.6 52.4,14.7 52.3,14.7 				"/>
				<polyline class="st2" points="68.3,17.1 67.6,16.9 68.3,17.1 				"/>
				<polyline class="st2" points="67.6,16.9 67.5,17 67.6,16.9 				"/>
				<polyline class="st2" points="74.8,1.4 74.3,1.2 74.8,1.4 				"/>
				<polyline class="st2" points="71.1,15.5 70.9,15.4 71.1,15.5 				"/>
				<polyline class="st2" points="33.6,3.4 32.5,2.8 33.6,3.4 				"/>
				<polyline class="st2" points="51.8,14.6 51,14.2 51.8,14.6 				"/>
				<polyline class="st2" points="73.3,0.5 72.6,0.5 73.2,0.5 73.3,0.5 				"/>
				<polyline class="st2" points="75.8,1.5 74.8,1.4 75.4,1.4 75.8,1.5 				"/>
				<polyline class="st2" points="69.3,0.8 70.2,0.4 70.4,0.4 70.2,0.4 70.4,0.4 70.5,0.5 69.3,0.8 				"/>
				<path class="st2" d="M74.7,0.8l-1.4-0.3l-0.7,0l0.6,0c-1.4-0.2-2.7-0.4-4.2-0.4l-0.1,0.3l1.9-0.2l-0.5,0.2l0.2,0l0.4,0l-0.4,0.1
					l2,0.2l-0.8-0.2l1,0.2l-0.2,0l1,0.2L74.7,0.8 M72.6,0.6l0.2,0L72.6,0.6"/>
				<polyline class="st3" points="73.2,0.5 72.6,0.5 73.2,0.5 				"/>
				<polyline class="st3" points="70.4,0.4 70.2,0.4 70.4,0.4 				"/>
				<polyline class="st2" points="77.3,1.4 76.8,1.3 76,1.3 73.8,1 73.4,0.9 74.7,0.8 77.3,1.4 				"/>
				<polyline class="st2" points="70.8,0.4 70.5,0.5 70.4,0.4 70.8,0.4 				"/>
				<polyline class="st3" points="70.8,0.4 70.5,0.5 70.8,0.4 				"/>
				<polyline class="st2" points="77.5,1.4 77.1,1.4 76.8,1.3 77.3,1.4 77.5,1.4 				"/>
				<polyline class="st2" points="77.2,1.4 77.1,1.4 77.2,1.4 				"/>
				<polyline class="st2" points="76.9,1.4 75.8,1.5 76.4,1.4 76.9,1.4 				"/>
				<polyline class="st3" points="70.4,0.4 70.2,0.4 70.4,0.4 				"/>
				<polyline class="st2" points="77.2,1.4 76.9,1.4 77.2,1.4 				"/>
				<polyline class="st2" points="77.1,1.4 76.9,1.4 76.4,1.4 76,1.3 76.8,1.3 76,1.3 76.8,1.3 77.1,1.4 				"/>
				<polyline class="st3" points="77.2,1.4 76.9,1.4 77.1,1.4 77.2,1.4 				"/>
				<polyline class="st3" points="76.9,1.4 76.4,1.4 76.9,1.4 				"/>
				<polyline class="st3" points="76.8,1.3 76,1.3 76.8,1.3 				"/>
				<polyline class="st2" points="76.4,1.4 75.8,1.5 75.4,1.4 76.4,1.4 				"/>
				<polyline class="st3" points="75.8,1.5 75.4,1.4 75.8,1.5 				"/>
				<polyline class="st3" points="76.4,1.4 75.8,1.5 76.4,1.4 				"/>
				<polyline class="st2" points="76.4,1.4 75.4,1.4 74.9,1.2 75.9,1.3 76,1.3 76.4,1.4 				"/>
				<polyline class="st3" points="76.4,1.4 75.4,1.4 76.4,1.4 				"/>
				<polyline class="st3" points="72.8,0.6 72.6,0.6 72.8,0.6 				"/>
				<polyline class="st2" points="72.6,0.6 72.4,0.6 71.6,0.4 72.6,0.6 				"/>
				<polyline class="st3" points="72.6,0.6 72.4,0.6 72.6,0.6 				"/>
				<polyline class="st3" points="72.4,0.6 71.6,0.4 72.4,0.6 				"/>
				<polyline class="st2" points="73.8,1 73.2,0.9 73.4,0.9 73.8,1 				"/>
				<polyline class="st2" points="76,1.3 75.9,1.3 73.8,1 76,1.3 				"/>
				<polyline class="st3" points="76,1.3 75.9,1.3 76,1.3 75.9,1.3 76,1.3 				"/>
				<polyline class="st4" points="76,1.3 75.9,1.3 76,1.3 				"/>
				<polyline class="st2" points="69.7,12.5 68.2,12.2 69.9,12.4 69.7,12.5 				"/>
				<polyline class="st2" points="69.1,12.8 67.6,12.2 69.4,12.6 69.1,12.8 				"/>
				<path class="st2" d="M68.2,14.5c-1.4,0.2-2.7,0.4-3.8,0c0.6,0,1.3,0,1.9-0.1l-0.1,0L68.2,14.5"/>
				<polyline class="st2" points="68.2,14.5 66.2,14.5 66.3,14.5 68.2,14.5 				"/>
				<polyline class="st3" points="68.2,14.5 66.2,14.5 68.2,14.5 				"/>
				<polyline class="st2" points="68.7,12.9 68.2,12.7 69.1,12.8 68.7,12.9 				"/>
				<polyline class="st2" points="72.7,12 72.1,12 72.7,12 				"/>
				<path class="st5" d="M91.9,8.6l0.2,0l0.2,0c0.2-0.1,0.7-0.1,1-0.3c-0.5,0-0.9-0.2-1.1-0.4c-0.7-0.4-1.5-0.5-2.4-0.6l0.4,0.2
					c-1.4,0-2.4-0.5-3.6-0.6c0.9,0.3,1.8,0.5,2.8,0.7C90.4,7.8,91.3,8,91.9,8.6"/>
				<polyline class="st2" points="84.6,7.3 84.2,7.3 84.6,7.3 				"/>
				<polyline class="st2" points="89.8,7.2 89.2,7.2 89.8,7.2 				"/>
				<polyline class="st2" points="85.2,7.5 84.6,7.3 85.2,7.5 				"/>
				<polyline class="st2" points="72.2,10.7 71.6,10.7 71,10.5 72.2,10.6 72.2,10.7 				"/>
				<polyline class="st2" points="72.3,10.8 71.6,10.7 72.2,10.7 72.3,10.8 				"/>
				<polyline class="st2" points="72.6,11.4 72,11.3 70.8,11 72.3,11.1 72.6,11.4 				"/>
				<polyline class="st2" points="72.6,11.5 72,11.3 72.6,11.4 72.6,11.5 				"/>
				<polyline class="st2" points="72.7,11.6 71.2,11.3 72,11.3 72.6,11.5 72.7,11.6 				"/>
				<path class="st5" d="M72.2,10.6L71,10.5l0.6,0.2c-1.1,0-2.4,0.2-3.5,0.2c0.6-0.2,1.1-0.3,1.7-0.4c1-0.2,2-0.3,3-0.4L72.2,10.6"
					/>
				<polyline class="st6" points="72.2,10.6 71,10.5 72.2,10.6 				"/>
				<path class="st2" d="M73.3,9.9c-1.5,0-3.2,0.1-4.4-0.4c0.1,0,0.2,0,0.3-0.1c2-0.4,3.6,0.3,5.6-0.1l0.2,0C74,9,72.3,9,71.3,8.7
					c1.6,0.1,3.2,0.4,4.7,0.6L73.3,9.9"/>
				<polyline class="st2" points="70.7,8.8 68.5,8.3 69.4,8.3 70.7,8.8 				"/>
				<polyline class="st2" points="65.7,8.1 65.4,8.1 65.3,8.1 65.7,8.1 				"/>
				<path class="st2" d="M67.5,8.3L67,8.2l-1.3-0.1l-0.3,0L67.5,8.3 M67,8.2l-1.3-0.1L67,8.2"/>
				<path class="st2" d="M69.4,8.3l-0.9,0l-1.5,0l-1.3-0.1l-0.4,0l0.1,0c-0.7-0.2-1.3-0.4-2-0.6c0.7,0,1.4-0.1,2.1-0.2
					C66.8,7.8,68.2,8,69.4,8.3"/>
				<polyline class="st3" points="69.4,8.3 68.5,8.3 69.4,8.3 				"/>
				<polyline class="st3" points="65.7,8.1 65.3,8.1 65.7,8.1 				"/>
				<polyline class="st3" points="67,8.2 65.7,8.1 67,8.2 				"/>
				<polyline class="st3" points="67,8.2 65.7,8.1 67,8.2 				"/>
				<path class="st2" d="M65,7.1c-1.1,0-2.1-0.1-2.9-0.4l2.3-0.4l-0.2,0.3C64.4,6.8,64.7,6.9,65,7.1"/>
				<polyline class="st2" points="43.2,17.2 42.3,16.8 42.6,16.7 43.2,17.2 				"/>
				<path class="st7" d="M16.3,17.8c-2-1.6-3.5-3.2-4.8-5l3,0.1c3.2,0.3,6.4,1.5,6.3,3.2c0,0.2-0.1,0.5-0.2,0.8
					C19,17.1,17.6,17.5,16.3,17.8"/>
				<path class="st2" d="M28,17.1l-0.4-0.2c0.7-0.2,0.8-0.7,2-0.8C29.4,16.6,28.7,16.8,28,17.1"/>
				<path class="st8" d="M24.3,17.7c-0.8-0.7-1.8-0.9-2.9-0.9c-0.3,0-0.5,0-0.8,0c0.1-0.3,0.2-0.5,0.2-0.8c0-1.7-3.1-2.9-6.3-3.2
					c2.4,0.1,4.9,0.1,7.3,0.1l2.4,0c2.4,0,4.7-0.1,7.1-0.2L31,12.4c-0.6,0-1.1-0.1-1.7-0.1c-0.6,0-1.1,0-1.6,0l-0.5,0c-1,0-2,0-3,0
					c-1-0.1-1.9-0.2-2.7-0.4c1.3-0.2,2.7-0.3,4.1-0.4c0.9,0,1.8,0,2.7,0.1c2.7,0.2,5.3,0.8,7.5,1.7c0.8,0.3,2,0.4,3.1,0.5l-1.7-0.1
					L37,14.2l2.2,1.1l-0.6-0.1l-2.1-0.3l-2-0.2c-0.4-0.1-0.8-0.1-1.2-0.1l0,0c-1.3,0-2.6,0.3-4,0.5l1.7,0.2c0.3,0.1,0.4,0.3,0.4,0.4
					c0.1,0.6-1.8,1.3-3.2,1.4L28,17.1c0.7-0.3,1.4-0.5,1.6-1c-1.2,0.1-1.3,0.6-2,0.8l-0.4-0.6l-1.4-0.5c0.7-0.8-1.7-0.6-1.5-1.3
					L22,14l-1.3,0.8C22.5,15.6,24.4,16.4,24.3,17.7"/>
				<path class="st9" d="M20.7,16.1c0-1.7-3.1-2.9-6.3-3.2C17.6,13.3,20.8,14.4,20.7,16.1"/>
				<path class="st10" d="M27.6,16.9c0.7-0.2,0.8-0.7,2-0.8C28.4,16.2,28.3,16.7,27.6,16.9"/>
				<path class="st2" d="M40.6,15.9l-1.4-0.6l-0.6-0.1l-2.1-0.3L36.4,15l1.9,0.4l-2.1-0.1c0.8,0.3,1.8,0.4,2.7,0.5L40.6,15.9
					 M38.6,15.2l-2.1-0.3L38.6,15.2"/>
				<polyline class="st3" points="38.6,15.2 36.5,14.9 38.6,15.2 				"/>
				<polyline class="st2" points="27.7,17.2 27.6,16.9 28,17.1 27.7,17.2 				"/>
				<polyline class="st2" points="18.4,8.4 18.3,8 18.4,8.4 				"/>
				<path class="st11" d="M28.8,22.2c-2.6-1.4-0.8-3.3-1.1-5l0.3-0.1l0.2,0.1c1.4-0.2,3.3-0.8,3.2-1.4c0-0.1-0.2-0.3-0.4-0.4
					l-1.7-0.2c1.4-0.2,2.7-0.5,4-0.5c0.4,0,0.8,0,1.2,0.1l2,0.2L36.4,15l-1.8-0.2c1,0.5,2.4,0.5,3.6,0.6l-2.1-0.1
					c0.8,0.3,1.8,0.4,2.7,0.5l-0.3,0.2l1.2,1l-2.2-0.7l-0.8,0.5c0.8,0.9,1.7,1.9,3.3,2.6c-2-0.8-3.6-2.1-6.4-2.3l-0.2,0.5l-0.6-0.3
					c0.7,0.8,2.2,1.2,2.8,2.1l-1.8-0.8c0.1,0.5,1,0.9,1.3,1.4c-1.5-0.7-1.7-2.3-3.4-2.3l-0.1,0l-0.1,0c-3,0-3,1.9-1.8,3.3l-0.6-0.2
					C28.1,21,29.1,21.7,28.8,22.2"/>
				<path class="st12" d="M31.4,15.7c0-0.1-0.2-0.3-0.4-0.4l-1.7-0.2l1.7,0.2C31.2,15.4,31.4,15.6,31.4,15.7"/>
				<path class="st12" d="M29.3,15.1c1.4-0.2,2.7-0.5,4-0.5C32,14.6,30.7,14.9,29.3,15.1"/>
				<polyline class="st13" points="38.2,15.4 36.2,15.3 38.2,15.4 				"/>
				<polyline class="st13" points="36.4,15 36.5,14.9 36.4,15 				"/>
				<path class="st11" d="M42.1,14.1l0.4-0.1l0.5-0.3l-0.6-0.1l0.6,0.1l0.1-0.4l-1.4-0.6l0.8,0.2l-1.2-0.6l1.5,0.4l0-0.2l-0.5-0.2
					c-1.2-0.2-2.5-0.2-3.5-0.5c0.5-0.1,1-0.1,1.5-0.1c1.1,0,2.2,0.1,3.3,0.2l0.4-0.1c-1.5-0.3-3.1-0.5-4.2-1.1c0.1,0,0.2,0,0.3,0
					c2,0,3.4,0.9,5.5,0.9l0.2,0c-1-0.4-2.6-0.8-3.5-1.3c1.6,0.4,3,0.9,4.5,1.4l0.2,0c2,0.2,3.8,0.4,5.5,0.5l-2.3-0.6l2.3,0.6
					c2.9,0.3,5.6,0.4,8.5,0.7l-2.3-0.7c1.3-0.6,2.9-0.7,4.2-1c-2.1-0.1-3.9-0.5-5.9-0.5c2,0,3.8,0.4,5.9,0.5l0.4-0.1
					c-1.8-0.6-4-0.7-5.7-1.1c1.2,0,2.2,0.4,3.6,0.3L60.7,10l-0.6,0l0.6,0c1.3,0,2.4,0.1,3.5,0.3c1.1-0.8,2.3-1.7,3.7-2l0.7-0.1
					l-1.5,0l0.5,0.1l-2.1-0.2c-0.7-0.2-1.3-0.4-2-0.6c0.7,0,1.4-0.1,2.1-0.2L65,7.1c-1.1,0-2.1-0.1-2.9-0.4l2.3-0.4l1.2-0.9
					l-0.3-0.8c-0.9-0.5-2.3-0.7-3.8-0.6l-0.3,0l0.2,0.7l-0.5-0.4L60,5l-0.9,0c-0.4,0.5-1,0.7-1.7,0.8c-0.6,0.1-1.3,0-2,0L56.1,6
					c-0.3,0.3-0.6,0.5-1,0.5c-0.6,0-1.2-0.2-1.7-0.2l-1.1-0.4l-0.1,0l0,0l0,0l-1.6-0.1l-0.9-0.3l-0.5-0.2l0.5,0.2l0.6,0.1l-0.5-0.3
					l0.9,0.2l-1.9-0.6l-0.7-0.1l0.2-0.1l-0.9-0.4l-1.8-0.5l-1.3,0.1l1.1-0.2l0.6-0.1l-1.9-0.2l0.1-0.2c-0.8-0.2-1.7-0.3-2.7-0.3
					l-0.1,0l-1.7,0.2l1.5-0.3l-0.1-0.5c-0.9,0-2,0.3-3,0.3c-0.3,0-0.5,0-0.8-0.1l0.2,0.1l-1.5,0.1c-0.8,0.2-1.6,0.4-2.4,0.7l0.7,0.4
					l-0.7-0.4c-2.8,0.9-5.4,1.9-7.2,3.3c1.4-0.3,2.8-0.6,3.9-1.1c1.8-0.5,3.5-0.7,5.4-0.7l0.6,0l-2.1,0.8l0.1,0l-0.5,0.3l0.4-0.3
					c-3.2,0-5.5,1.2-8.4,1.2l0.5-0.3l-5,0.9L19.5,9l1.6,0.1l-0.9,0.3c-0.1,0.1-0.6,0.2-0.7,0.4c-0.1,0.2,0.6,0.3,3.8,0.3L25,9.8
					c-1.9,0.4-3.5,0.9-4.9,1.6l1.3,0.4c1.3-0.2,2.7-0.3,4.1-0.4c0.9,0,1.8,0,2.7,0.1c2.7,0.2,5.3,0.8,7.5,1.7c0.8,0.3,2,0.4,3.1,0.5
					l0.2,0l-0.6-0.3l0.9,0.2L37.9,13l1.8,0.7l0.3-0.1l-1.5-0.5l1.7,0.5l0.4-0.2L42.1,14.1 M56.1,10.6c1.5,0.2,2.8,0.7,4.7,0.7
					C58.9,11.3,57.6,10.9,56.1,10.6l-0.6-0.1l-0.4,0l0.4,0L56.1,10.6L56,10.8l-1.6,0l1.6,0L56.1,10.6 M48,11.2
					c1.4,0,2.3,0.8,3.6,0.8C50.3,11.9,49.4,11.2,48,11.2 M46.8,11.2L46.8,11.2l-1.1-0.1L46.8,11.2L46.8,11.2
					c1.2,0.2,2.1,0.6,3.3,0.7C48.9,11.8,48,11.4,46.8,11.2 M55.1,11l-0.6,0.2L55.1,11 M27.6,9.3L25,9.8L27.6,9.3 M27.6,9.3L25,9.8
					L27.6,9.3 M27.6,9.3L28,9.3l0.4-0.1l0.4-0.1L29.2,9l0,0L29.6,9L30,8.9l0.4-0.1l0.4-0.1l0.4-0.1l0.3-0.1l0.4-0.1l0.4-0.1l0.4-0.1
					l0.3-0.1L33.3,8l0.3-0.2c-1.5,0.1-2.8,0.5-4.1,0.9l-0.1,0l-0.1,0L28.8,9l-0.1,0l-0.4,0.1l-0.2,0.1L27.6,9.3 M21.1,9.1
					c0.2,0,0.3,0,0.5,0c0.1,0,0.2,0,0.4,0l0.4,0L22.8,9L23.3,9l0.2-0.1c0.2,0,0.4-0.1,0.6-0.1l0,0l0.4-0.1l-0.4,0.1l0.4-0.1
					l-0.4,0.1l0,0c0.1,0,0.3-0.1,0.4-0.1c-0.2,0.1-0.3,0.1-0.5,0.1l-0.3,0l-0.5,0.1l-0.2,0l-0.5,0l-0.3,0l-0.3,0
					C21.8,9,21.4,9,21.1,9.1 M61.4,4.8l0,0.1l0.4,0.1L61.4,4.8"/>
				<path class="st1" d="M27.6,9.3c0.5-0.1,1-0.2,1.6-0.3l-0.4,0.1l-0.4,0.1L28,9.3L27.6,9.3"/>
				<polyline class="st1" points="28.1,9.2 28.3,9.1 28.7,9 28.8,9 28.1,9.2 				"/>
				<path class="st1" d="M29.2,9c1.6-0.3,3.1-0.6,4.4-1.1L33.3,8l-0.4,0.1l-0.3,0.1l-0.4,0.1l-0.4,0.1l-0.4,0.1l-0.3,0.1l-0.4,0.1
					l-0.4,0.1L30,8.9L29.6,9L29.2,9"/>
				<polyline class="st1" points="29.3,8.8 29.4,8.8 29.5,8.8 29.3,8.8 				"/>
				<polyline class="st14" points="52.2,5.9 52.2,5.8 52.3,5.9 52.2,5.9 				"/>
				<polyline class="st13" points="34.3,3.8 33.6,3.4 34.3,3.8 				"/>
				<polyline class="st13" points="67.5,8.3 67,8.2 67.5,8.3 				"/>
				<path class="st13" d="M65.6,7.4c-0.7,0.1-1.4,0.1-2.1,0.2C64.2,7.5,64.9,7.4,65.6,7.4"/>
				<polyline class="st13" points="62.1,6.7 64.4,6.3 62.1,6.7 				"/>
				<polyline class="st15" points="27.6,9.3 28,9.3 28.4,9.2 28.8,9.1 29.2,9 28.8,9.1 28.4,9.2 28,9.3 27.6,9.3 				"/>
				<polyline class="st15" points="28.1,9.2 28.3,9.1 28.7,9 28.8,9 28.7,9 28.3,9.1 28.1,9.2 				"/>
				<polyline class="st15" points="29.2,9 29.6,9 30,8.9 30.4,8.8 30.8,8.7 31.2,8.6 31.5,8.5 31.8,8.4 32.2,8.3 32.6,8.2 32.9,8.1 
					33.3,8 33.6,7.9 33.3,8 32.9,8.1 32.6,8.2 32.2,8.3 31.8,8.4 31.5,8.5 31.2,8.6 30.8,8.7 30.4,8.8 30,8.9 29.6,9 29.2,9 				"/>
				<polyline class="st15" points="29.3,8.8 29.4,8.8 29.5,8.8 29.4,8.8 29.3,8.8 				"/>
				<polyline class="st15" points="25,9.8 27.6,9.3 25,9.8 				"/>
				<polyline class="st15" points="25,9.8 27.6,9.3 25,9.8 				"/>
				<path class="st12" d="M38.8,13.9c-1.2-0.1-2.3-0.3-3.1-0.5c-2.2-0.9-4.8-1.5-7.5-1.7c2.7,0.2,5.3,0.8,7.5,1.7
					C36.5,13.6,37.6,13.8,38.8,13.9"/>
				<path class="st12" d="M21.4,11.9c1.3-0.2,2.7-0.3,4.1-0.4C24.1,11.5,22.7,11.7,21.4,11.9"/>
				<path class="st1" d="M22.4,9.1l-0.4,0c0.5,0,1-0.1,1.5-0.2L23.3,9L22.8,9L22.4,9.1"/>
				<polyline class="st1" points="22.1,9 22.4,8.9 22.7,8.9 22.1,9 				"/>
				<path class="st1" d="M23.1,8.9l0.2,0l0.5-0.1l0.3,0C23.8,8.8,23.4,8.9,23.1,8.9"/>
				<polyline class="st1" points="24.2,8.8 24.2,8.8 24.2,8.8 24.2,8.8 				"/>
				<polyline class="st2" points="18.7,8.4 18.9,8.4 18.7,8.4 				"/>
				<path class="st7" d="M19.5,9c-2.5-0.2-4.8-0.8-7.3-0.9l1.5-0.7l-0.2,0.1c0.3,0,0.7,0,1.2,0c0.2,0,0.5,0,0.7,0
					c0.7,0,1.5,0,2.1,0.1L18.3,8l0,0l0.1,0.3l-0.6,0.3l0.9-0.3l0.2-0.1l2.5-0.7L19.5,9"/>
				<path class="st16" d="M14.7,7.5c-0.5,0-0.9,0-1.2,0C13.8,7.5,14.3,7.5,14.7,7.5c0.2,0,0.5,0,0.7,0C15.2,7.5,14.9,7.5,14.7,7.5"
					/>
				<polyline class="st16" points="13.5,7.5 13.7,7.4 13.5,7.5 				"/>
				<polyline class="st17" points="18.4,8.4 18.3,8.1 18.3,8 18.4,8.4 				"/>
				<polyline class="st16" points="19.5,9 21.4,7.7 19.5,9 				"/>
				<path class="st7" d="M19.1,12.2c-1.5,0-3.3-0.3-4.9-0.6c1.3-1,3.5-1.8,5.3-2.7l1.6,0.1l-0.9,0.3c-0.1,0.1-0.6,0.2-0.7,0.4
					c-0.1,0.2,0.6,0.3,3.8,0.3L25,9.8c-1.9,0.4-3.5,0.9-4.9,1.6l1.3,0.4L20.6,12c-0.3,0.1-0.7,0.2-1.1,0.2
					C19.4,12.2,19.3,12.2,19.1,12.2"/>
				<path class="st16" d="M20.1,11.5c1.4-0.8,3.1-1.2,4.9-1.6C23.2,10.3,21.5,10.7,20.1,11.5"/>
				<path class="st16" d="M19.5,9.7c0.1-0.1,0.6-0.3,0.7-0.4l0.9-0.3l-0.9,0.3C20.1,9.4,19.6,9.6,19.5,9.7"/>
				<path class="st18" d="M24.2,13.1l-2.4,0c-2.4,0-4.9,0-7.3-0.1c-0.7-0.1-1.5-0.2-2.2-0.1c-0.2,0-0.5,0-0.7,0
					c-0.8-1.2-1.5-2.4-2-3.7l2.8-1c2.5,0.1,4.8,0.7,7.3,0.9c-1.8,0.9-4,1.6-5.3,2.7c1.6,0.3,3.4,0.6,4.9,0.6l0,0c0.1,0,0.3,0,0.4,0
					c0.4,0,0.8-0.1,1.1-0.2l0.8-0.2c0.8,0.2,1.8,0.4,2.7,0.4c1,0.1,2,0.1,3,0l0.5,0c0.5,0,1.1,0,1.6,0c0.6,0,1.1,0,1.7,0.1l0.3,0.4
					C28.9,13,26.5,13,24.2,13.1"/>
				<path class="st13" d="M24.2,13.1c2.4,0,4.7-0.1,7.1-0.2C28.9,13,26.5,13,24.2,13.1"/>
				<path class="st13" d="M21.7,13.1c-2.4,0-4.9,0-7.3-0.1C16.9,13,19.3,13.1,21.7,13.1"/>
				<path class="st13" d="M29.3,12.3c-0.6,0-1.1,0-1.6,0l-0.5,0c-1,0-2,0-3,0c1,0.1,2,0.1,3,0l0.5,0C28.1,12.3,28.7,12.3,29.3,12.3"
					/>
				<path class="st19" d="M19.1,12.2L19.1,12.2c0.1,0,0.3,0,0.4,0C19.4,12.2,19.3,12.2,19.1,12.2"/>
				<path class="st19" d="M14.2,11.7c1.3-1,3.5-1.8,5.3-2.7C17.8,9.9,15.5,10.6,14.2,11.7"/>
				<path class="st2" d="M14.4,13l-3-0.1c0.2,0,0.5,0,0.7,0C12.9,12.8,13.7,12.8,14.4,13"/>
				<polyline class="st17" points="14.4,13 11.5,12.8 14.4,13 				"/>
			</g>
		</g>
	</g>
</g>
<g>
	<g>
		<g>
			<g class="st0">
				<path class="st1" d="M8.7,81.1c-0.5-1.1-0.9-2.3-1.1-3.4l-0.9-0.8l1.8,0.6c3.3,0.7,7.5,1,10.2,2.2c-0.8-0.1-1.8-0.1-2.7-0.1
					c-0.3,0-0.6,0-0.9,0c-0.6,0-1.1,0-1.5,0l0.2-0.1l-1.8,0.7l-1.8,0l1.8,0L8.7,81.1"/>
				<path class="st1" d="M62.4,78.5L62.4,78.5l0.4-0.3c1.7-0.3,3.4-0.6,5-1.1c1.9-0.4,3.9-0.6,6-0.7c0.4,0,0.8,0,1.3,0l-2.6,0.8
					l-0.3,0C68.6,77.4,65.7,78.4,62.4,78.5"/>
				<path class="st2" d="M74.8,74.3c2-0.4,4.1-0.7,6.3-0.9l0,0.5c-1.2,0.1-2.5,0.3-3.8,0.3c-0.3,0-0.7,0-1,0l0.2,0.1L74.8,74.3"/>
				<polyline class="st2" points="79.3,74.6 81.2,74.3 81.5,74.4 79.3,74.6 				"/>
				<polyline class="st2" points="61.9,87.4 61.4,87.2 62,87.3 61.9,87.4 				"/>
				<polyline class="st2" points="80.8,91.3 80,91 80.8,91.3 				"/>
				<polyline class="st2" points="80,91 79.8,91 80,91 				"/>
				<polyline class="st2" points="92.7,77.5 92.1,77.2 92.7,77.5 				"/>
				<polyline class="st2" points="84.3,90.2 84.1,90.1 84.3,90.2 				"/>
				<polyline class="st2" points="39,75.9 37.7,75.3 39,75.9 				"/>
				<polyline class="st2" points="61.4,87.2 60.4,86.8 61.4,87.2 				"/>
				<polyline class="st2" points="91.1,76.2 90.2,76 91,76.2 91.1,76.2 				"/>
				<polyline class="st2" points="93.8,77.9 92.7,77.5 93.5,77.7 93.8,77.9 				"/>
				<polyline class="st2" points="85.5,75.5 87,75.3 87.2,75.4 87,75.3 87.2,75.4 87.2,75.4 85.5,75.5 				"/>
				<path class="st2" d="M92.8,76.9l-1.7-0.7L90.2,76l0.8,0.2c-1.7-0.6-3.6-1.1-5.6-1.4L85.1,75l2.7,0.3L87,75.3l0.3,0.1l0.5,0.1
					l-0.5,0c0.9,0.2,1.8,0.4,2.7,0.7l-1.1-0.4l1.3,0.4l-0.3,0l1.2,0.5L92.8,76.9 M90.2,76.1l0.3,0L90.2,76.1"/>
				<polyline class="st3" points="91,76.2 90.2,76 91,76.2 				"/>
				<polyline class="st3" points="87.2,75.4 87,75.3 87.2,75.4 				"/>
				<path class="st2" d="M95.8,78.3l-0.6-0.2l-0.9-0.3c-0.9-0.3-1.8-0.7-2.7-1l-0.5-0.2l1.7,0.3C93.8,77.3,94.8,77.8,95.8,78.3"/>
				<polyline class="st2" points="87.8,75.4 87.2,75.4 87.2,75.4 87.8,75.4 				"/>
				<polyline class="st3" points="87.8,75.4 87.2,75.4 87.8,75.4 				"/>
				<polyline class="st2" points="96,78.3 95.5,78.2 95.1,78.1 95.8,78.3 96,78.3 				"/>
				<polyline class="st2" points="95.6,78.3 95.5,78.2 95.6,78.3 				"/>
				<polyline class="st2" points="95.3,78.2 93.8,77.9 94.6,78 95.3,78.2 				"/>
				<polyline class="st3" points="87.2,75.4 87,75.3 87.2,75.4 				"/>
				<polyline class="st2" points="95.6,78.3 95.3,78.2 95.6,78.3 				"/>
				<polyline class="st2" points="95.5,78.2 95.3,78.2 94.6,78 94.2,77.8 95.1,78.1 94.2,77.8 95.1,78.1 95.5,78.2 				"/>
				<polyline class="st3" points="95.6,78.3 95.3,78.2 95.5,78.2 95.6,78.3 				"/>
				<polyline class="st3" points="95.3,78.2 94.6,78 95.3,78.2 				"/>
				<polyline class="st3" points="95.1,78.1 94.2,77.8 95.1,78.1 				"/>
				<polyline class="st2" points="94.6,78 93.8,77.9 93.5,77.7 94.6,78 				"/>
				<polyline class="st3" points="93.8,77.9 93.5,77.7 93.8,77.9 				"/>
				<polyline class="st3" points="94.6,78 93.8,77.9 94.6,78 				"/>
				<polyline class="st2" points="94.6,78 93.5,77.7 92.8,77.4 94.1,77.8 94.2,77.8 94.6,78 				"/>
				<polyline class="st3" points="94.6,78 93.5,77.7 94.6,78 				"/>
				<polyline class="st3" points="90.4,76.1 90.2,76.1 90.4,76.1 				"/>
				<polyline class="st2" points="90.2,76.1 89.9,76.1 88.8,75.7 90.2,76.1 				"/>
				<polyline class="st3" points="90.2,76.1 89.9,76.1 90.2,76.1 				"/>
				<polyline class="st3" points="89.9,76.1 88.8,75.7 89.9,76.1 				"/>
				<polyline class="st2" points="91.6,76.8 90.8,76.6 91.1,76.6 91.6,76.8 				"/>
				<path class="st2" d="M94.2,77.8l-0.1,0c-0.8-0.3-1.7-0.7-2.5-1C92.5,77.1,93.4,77.5,94.2,77.8"/>
				<polyline class="st3" points="94.2,77.8 94.1,77.8 94.2,77.8 94.1,77.8 94.2,77.8 				"/>
				<polyline class="st4" points="94.2,77.8 94.1,77.8 94.2,77.8 				"/>
				<polyline class="st2" points="83.3,87 81.5,86.5 83.6,86.9 83.3,87 				"/>
				<polyline class="st2" points="82.5,87.2 80.8,86.4 83,87.1 82.5,87.2 				"/>
				<path class="st2" d="M81.2,88.7c-1.7-0.1-3.2-0.1-4.6-0.5l2.3,0.2l-0.1,0L81.2,88.7"/>
				<polyline class="st2" points="81.2,88.7 78.7,88.4 78.9,88.4 81.2,88.7 				"/>
				<polyline class="st3" points="81.2,88.7 78.7,88.4 81.2,88.7 				"/>
				<polyline class="st2" points="82,87.2 81.4,87 82.5,87.2 82,87.2 				"/>
				<polyline class="st2" points="86.9,87.2 86.2,87 86.9,87.2 				"/>
				<path class="st5" d="M111.5,89.1l0.6,0l0.9-0.2c-1.2-0.6-2.5-1.2-4-1.5l0.4,0.3c-1.7-0.4-2.8-1-4.2-1.4
					C107.2,87.2,109.8,87.9,111.5,89.1"/>
				<polyline class="st2" points="102.6,86.2 102.2,86.1 102.6,86.2 				"/>
				<polyline class="st2" points="109,87.4 108.3,87.2 109,87.4 				"/>
				<polyline class="st2" points="103.3,86.5 102.6,86.2 103.3,86.5 				"/>
				<polyline class="st2" points="86.7,85.8 86,85.7 85.3,85.3 86.7,85.7 86.7,85.8 				"/>
				<polyline class="st2" points="86.7,85.9 86,85.7 86.7,85.8 86.7,85.9 				"/>
				<polyline class="st2" points="86.9,86.6 86.4,86.3 84.9,85.7 86.7,86.2 86.9,86.6 				"/>
				<polyline class="st2" points="86.9,86.6 86.4,86.3 86.9,86.6 86.9,86.6 				"/>
				<polyline class="st2" points="87.1,86.8 85.4,86.1 86.4,86.3 86.9,86.6 87.1,86.8 				"/>
				<path class="st5" d="M86.7,85.7l-1.4-0.4l0.7,0.3c-1.3-0.2-2.9-0.3-4.2-0.5c0.7-0.1,1.4-0.1,2.2-0.1c1.2,0,2.5,0.2,3.7,0.3
					L86.7,85.7"/>
				<polyline class="st6" points="86.7,85.7 85.3,85.3 86.7,85.7 				"/>
				<path class="st2" d="M88.2,85.2c-1.8-0.4-3.9-0.6-5.2-1.3c0.1,0,0.3,0,0.4,0c2.5,0.1,4.3,1,6.8,1.2l0.2,0
					c-1.2-0.6-3.1-1-4.3-1.5c2,0.5,3.8,1.1,5.5,1.8C90.5,85.3,89.4,85.3,88.2,85.2"/>
				<polyline class="st2" points="85.4,83.6 82.8,82.6 83.9,82.9 85.4,83.6 				"/>
				<polyline class="st2" points="79.3,82 79,81.9 78.8,81.9 79.3,82 				"/>
				<path class="st2" d="M81.6,82.5l-0.6-0.2L79.3,82l-0.4,0L81.6,82.5 M80.9,82.3L79.3,82L80.9,82.3"/>
				<path class="st2" d="M83.9,82.9l-1.1-0.2l-1.9-0.3L79.3,82l-0.5-0.1l0.1,0l-2.4-0.8l2.7,0.1C80.7,81.8,82.4,82.3,83.9,82.9"/>
				<polyline class="st3" points="83.9,82.9 82.8,82.6 83.9,82.9 				"/>
				<polyline class="st3" points="79.3,82 78.8,81.9 79.3,82 				"/>
				<polyline class="st3" points="80.9,82.3 79.3,82 80.9,82.3 				"/>
				<polyline class="st3" points="80.9,82.3 79.3,82 80.9,82.3 				"/>
				<path class="st2" d="M78.6,80.9c-1.4-0.1-2.6-0.3-3.6-0.7l3-0.2l-0.4,0.3L78.6,80.9"/>
				<polyline class="st2" points="50.8,89.7 49.7,89.3 50.1,89.2 50.8,89.7 				"/>
				<path class="st7" d="M17.2,89.8c-2.5-1.6-4.4-3.2-6-5l3.7,0.2c4,0.3,7.9,1.6,7.8,3.3c0,0.2-0.1,0.5-0.3,0.8
					C20.6,89.1,18.8,89.5,17.2,89.8"/>
				<path class="st2" d="M31.7,89.3l-0.5-0.2c0.9-0.2,1-0.7,2.5-0.7C33.4,88.9,32.5,89.1,31.7,89.3"/>
				<path class="st8" d="M27,89.8c-1-0.7-2.2-0.9-3.6-0.9c-0.3,0-0.7,0-1,0c0.2-0.3,0.3-0.5,0.3-0.8c0.1-1.7-3.9-2.9-7.8-3.3
					c3,0.1,6.1,0.2,9.1,0.2l3,0c2.9,0,5.9,0.2,8.8,0.1l-0.4-0.5c-0.7-0.1-1.4-0.1-2.1-0.1c-0.7,0-1.4-0.1-2.1-0.1l-0.6,0
					c-1.3-0.1-2.5-0.1-3.7-0.2c-1.2-0.1-2.3-0.2-3.4-0.4c1.6-0.2,3.4-0.3,5.1-0.3c1.1,0,2.3,0.1,3.4,0.2c3.4,0.4,6.6,1,9.3,2
					c1,0.3,2.5,0.5,3.9,0.6l-2.1-0.1l-0.3,0.4l2.8,1.1L45,87.7l-2.7-0.3l-2.5-0.3c-0.5-0.1-1-0.1-1.5-0.1h0c-1.6,0-3.2,0.2-5,0.3
					l2.1,0.3c0.3,0.2,0.5,0.3,0.5,0.5c0.1,0.7-2.3,1.2-4,1.3l-0.2-0.1c0.9-0.2,1.7-0.4,2-0.9c-1.5,0-1.6,0.5-2.5,0.7l-0.5-0.6
					L29,87.9c0.9-0.8-2.1-0.7-1.8-1.3l-2.9-0.5l-1.6,0.7C24.9,87.6,27.2,88.5,27,89.8"/>
				<path class="st9" d="M22.7,88.2c0.1-1.7-3.9-2.9-7.8-3.3C18.9,85.3,22.8,86.5,22.7,88.2"/>
				<path class="st10" d="M31.2,89.1c0.9-0.2,1-0.7,2.5-0.7C32.2,88.4,32,88.9,31.2,89.1"/>
				<path class="st2" d="M47.5,88.4l-1.7-0.6L45,87.7l-2.7-0.3l-0.1,0.1l2.3,0.4l-2.6-0.1c1,0.4,2.2,0.4,3.5,0.5L47.5,88.4 M45,87.7
					l-2.7-0.3L45,87.7"/>
				<polyline class="st3" points="45,87.7 42.3,87.4 45,87.7 				"/>
				<polyline class="st2" points="31.3,89.4 31.2,89.1 31.7,89.3 31.3,89.4 				"/>
				<polyline class="st2" points="19.9,80.4 19.8,80 19.9,80.4 				"/>
				<path class="st11" d="M32.5,94.5c-3.1-1.5-0.9-3.4-1.2-5l0.4-0.1l0.2,0.1c1.7-0.1,4.1-0.6,4-1.3c0-0.1-0.2-0.3-0.5-0.5l-2.1-0.3
					c1.8-0.1,3.4-0.4,5-0.3c0.5,0,1,0,1.5,0.1l2.5,0.3l-0.1,0.1L40,87.3c1.2,0.5,3,0.6,4.6,0.6l-2.6-0.1c1,0.4,2.2,0.4,3.5,0.5
					L45,88.6l1.5,1l-2.8-0.7l-1,0.5c1,0.9,2.2,1.9,4.2,2.6c-2.6-0.8-4.6-2.1-8.2-2.4l-0.3,0.4l-0.7-0.3c0.8,0.9,2.7,1.3,3.4,2.1
					l-2.2-0.8c0.1,0.6,1.2,1,1.6,1.4c-1.8-0.7-2.1-2.4-4.2-2.4l-0.1,0l-0.2,0c-3.8-0.1-3.8,1.8-2.3,3.2L33,93
					C31.7,93.3,32.9,94,32.5,94.5"/>
				<path class="st12" d="M35.9,88.1c0-0.1-0.2-0.3-0.5-0.5l-2.1-0.3l2.1,0.3C35.7,87.8,35.9,88,35.9,88.1"/>
				<path class="st12" d="M33.3,87.4c1.8-0.1,3.4-0.4,5-0.3C36.7,87,35.1,87.3,33.3,87.4"/>
				<polyline class="st13" points="44.5,87.9 41.9,87.8 44.5,87.9 				"/>
				<polyline class="st13" points="42.2,87.5 42.3,87.4 42.2,87.5 				"/>
				<path class="st11" d="M49.4,86.7l0.5-0.1l0.6-0.3l-0.7-0.1l0.7,0.1l0.1-0.4l-1.7-0.6l1,0.2l-1.5-0.6l1.8,0.4l0-0.3l-0.6-0.2
					c-1.5-0.2-3.1-0.2-4.4-0.5c0.6-0.1,1.3-0.1,1.9-0.1c1.3,0,2.7,0.1,4.1,0.2l0.5-0.1c-1.8-0.3-3.9-0.5-5.3-1.1c0.1,0,0.3,0,0.4,0
					c2.5,0,4.3,0.9,6.9,0.9l0.2,0c-1.2-0.4-3.2-0.8-4.4-1.3c2,0.4,3.8,0.9,5.6,1.4l0.2,0c2.4,0.2,4.7,0.4,6.9,0.6l-2.8-0.6l2.8,0.6
					c3.6,0.4,6.9,0.8,10.3,1.3l-2.7-0.9c1.7-0.5,3.7-0.4,5.3-0.6c-2.6-0.3-4.8-0.9-7.3-1.1c2.5,0.2,4.7,0.8,7.3,1.1l0.5-0.1
					c-2.1-0.8-4.8-1.1-6.9-1.7c1.5,0.1,2.7,0.6,4.4,0.6l-0.5-0.2l-0.7,0l0.7,0c1.6,0.1,2.9,0.4,4.3,0.6c1.5-0.7,3.2-1.3,4.9-1.4
					l0.9,0l-1.9-0.3l0.6,0.2L79,81.9l-2.4-0.8l2.7,0.1l-0.7-0.3c-1.4-0.1-2.6-0.3-3.6-0.7l3-0.2l1.7-0.7l-0.3-0.8
					c-1.1-0.7-2.8-1-4.9-1l-0.4,0l0.1,0.7l-0.6-0.5l-1.1,0.6l-1.1-0.1c-0.6,0.5-1.4,0.6-2.3,0.6c-0.9,0-1.8-0.1-2.6-0.2l0.7,0.2
					c-0.4,0.3-0.9,0.4-1.4,0.4c-0.7,0-1.5-0.2-2.2-0.3l-1.5-0.5c0,0-0.1,0-0.1,0l0.1,0l-0.1,0l-2.1-0.1L59.1,78l-0.6-0.3l0.6,0.3
					l0.7,0.2l-0.6-0.3l1.2,0.3L58,77.5l-0.9-0.2l0.2-0.1l-1.1-0.4l-2.3-0.6l-1.6,0.1l1.4-0.2l0.7-0.1L52,76l0.1-0.2
					c-1-0.2-2.2-0.3-3.4-0.3l-0.1,0l-2.1,0.2l1.8-0.3l-0.1-0.5c-1.2,0-2.4,0.3-3.7,0.3c-0.3,0-0.6,0-0.9-0.1l0.2,0.1l-1.8,0
					c-1,0.2-2,0.4-3,0.6l0.8,0.4L39,75.9c-3.5,0.8-6.7,1.7-9.1,3c1.7-0.2,3.5-0.5,5-0.9c2.2-0.4,4.4-0.6,6.7-0.6l0.8,0l-2.6,0.8
					l0.1,0l-0.6,0.3l0.5-0.3c-3.9,0-6.9,1-10.4,0.9l0.6-0.2c-2.1,0.2-4.2,0.5-6.3,0.8L21.3,81l2,0.1l-1.1,0.2
					c-0.2,0.1-0.8,0.2-0.9,0.3c-0.1,0.2,0.8,0.3,4.8,0.3l2.1-0.1c-2.4,0.4-4.5,0.8-6.2,1.6l1.6,0.4c1.6-0.2,3.4-0.3,5.1-0.3
					c1.1,0,2.3,0.1,3.4,0.2c3.4,0.4,6.6,1,9.3,2c1,0.3,2.5,0.5,3.9,0.6l0.2,0l-0.7-0.3l1.1,0.2l-1.7-0.8l2.2,0.7l0.4-0.1l-1.8-0.5
					l2.1,0.5l0.5-0.2L49.4,86.7 M66.9,83.5c1.8,0.3,3.4,0.9,5.8,1.1C70.4,84.4,68.8,83.9,66.9,83.5l-0.7-0.1l-0.5,0l0.5,0L66.9,83.5
					l-0.1,0.2l-2-0.1l2,0.1L66.9,83.5 M56.7,83.7c1.7,0.1,2.8,0.8,4.4,0.9C59.6,84.5,58.5,83.8,56.7,83.7 M55.3,83.7l-0.1,0
					l-1.2-0.1l1.2,0.1L55.3,83.7c1.5,0.2,2.6,0.6,4.1,0.8C57.8,84.3,56.7,83.9,55.3,83.7 M65.6,83.8l-0.7,0.2L65.6,83.8 M31.4,81.6
					l-3.2,0.4L31.4,81.6 M31.4,81.6l-3.2,0.4L31.4,81.6 M31.4,81.6l0.5,0l0.5-0.1l0.5,0l0.5-0.1l0,0l0.5,0l0.5-0.1l0.5,0l0.5-0.1
					l0.5-0.1l0.4,0l0.5-0.1l0.5-0.1l0.5-0.1l0.4-0.1l0.5-0.1l0.4-0.1c-1.9,0.1-3.5,0.5-5.1,0.8l-0.2,0l-0.1,0l-0.6,0.1l-0.1,0
					l-0.5,0.1L32,81.4L31.4,81.6 M23.3,81.1c0.2,0,0.4,0,0.7,0c0.2,0,0.3,0,0.5,0l0.5,0l0.5,0l0.6,0l0.3-0.1c0.3,0,0.5-0.1,0.8-0.1
					l0,0l0.5-0.1l-0.5,0.1l0.5-0.1l-0.5,0.1l0,0c0.2,0,0.3-0.1,0.5-0.1c-0.2,0-0.4,0.1-0.6,0.1l-0.3,0l-0.6,0l-0.2,0l-0.6,0l-0.3,0
					l-0.4,0C24.1,81,23.7,81.1,23.3,81.1 M74.3,78.2l0,0.2l0.5,0.1L74.3,78.2"/>
				<path class="st1" d="M31.4,81.6c0.6-0.1,1.3-0.2,2-0.2l-0.5,0.1l-0.5,0l-0.5,0.1L31.4,81.6"/>
				<polyline class="st1" points="32,81.4 32.3,81.4 32.8,81.3 32.9,81.3 32,81.4 				"/>
				<path class="st1" d="M33.4,81.3c2-0.2,3.9-0.5,5.5-1l-0.4,0.1L38,80.6l-0.4,0.1l-0.5,0.1l-0.5,0.1L36.2,81l-0.4,0l-0.5,0.1
					l-0.5,0.1l-0.5,0l-0.5,0.1L33.4,81.3"/>
				<polyline class="st1" points="33.5,81.2 33.6,81.1 33.8,81.1 33.5,81.2 				"/>
				<path class="st14" d="M62.3,78.5L62.3,78.5l0.1,0C62.4,78.5,62.3,78.5,62.3,78.5"/>
				<polyline class="st13" points="39.9,76.2 39,75.9 39.9,76.2 				"/>
				<polyline class="st13" points="81.6,82.5 80.9,82.3 81.6,82.5 				"/>
				<polyline class="st13" points="79.3,81.2 76.6,81.1 79.3,81.2 				"/>
				<polyline class="st13" points="75,80.2 77.9,80 75,80.2 				"/>
				<polyline class="st15" points="31.4,81.6 31.9,81.5 32.4,81.4 32.9,81.4 33.3,81.3 32.9,81.4 32.4,81.4 31.9,81.5 31.4,81.6 
									"/>
				<polyline class="st15" points="32,81.4 32.3,81.4 32.8,81.3 32.9,81.3 32.8,81.3 32.3,81.4 32,81.4 				"/>
				<polyline class="st15" points="33.4,81.3 33.9,81.3 34.4,81.2 34.9,81.2 35.3,81.1 35.8,81 36.2,81 36.7,80.9 37.2,80.8 
					37.7,80.7 38,80.6 38.5,80.5 38.9,80.3 38.5,80.5 38,80.6 37.7,80.7 37.2,80.8 36.7,80.9 36.2,81 35.8,81 35.3,81.1 34.9,81.2 
					34.4,81.2 33.9,81.3 33.4,81.3 				"/>
				<polyline class="st15" points="33.5,81.2 33.6,81.1 33.8,81.1 33.6,81.1 33.5,81.2 				"/>
				<polyline class="st15" points="28.2,81.9 31.4,81.6 28.2,81.9 				"/>
				<polyline class="st15" points="28.2,81.9 31.4,81.6 28.2,81.9 				"/>
				<path class="st12" d="M45.3,86.4c-1.5-0.1-3-0.3-3.9-0.6c-2.7-0.9-6-1.5-9.3-2c3.4,0.4,6.6,1,9.3,2
					C42.3,86.1,43.8,86.3,45.3,86.4"/>
				<path class="st12" d="M23.6,83.9c1.6-0.2,3.4-0.3,5.1-0.3C27,83.6,25.2,83.7,23.6,83.9"/>
				<path class="st1" d="M24.9,81.1l-0.5,0c0.6,0,1.3-0.1,1.9-0.2L26,81l-0.6,0L24.9,81.1"/>
				<polyline class="st1" points="24.5,81 24.9,81 25.2,81 24.5,81 				"/>
				<path class="st1" d="M25.8,81l0.2,0l0.6,0l0.3,0C26.6,80.9,26.2,80.9,25.8,81"/>
				<polyline class="st1" points="27.1,80.8 27.1,80.8 27.1,80.8 27.1,80.8 				"/>
				<polyline class="st2" points="20.3,80.4 20.6,80.4 20.3,80.4 				"/>
				<path class="st7" d="M21.3,81c-3.1-0.2-6-0.8-9.1-1l1.8-0.7l-0.2,0.1c0.4,0,0.9,0,1.5,0c0.3,0,0.6,0,0.9,0c0.9,0,1.9,0,2.7,0.1
					l1,0.4l0,0l0.1,0.3l-0.7,0.3l1.1-0.2l0.2,0l3.1-0.6L21.3,81"/>
				<path class="st16" d="M15.3,79.5c-0.6,0-1.1,0-1.5,0C14.2,79.5,14.7,79.5,15.3,79.5c0.3,0,0.6,0,0.9,0
					C15.9,79.5,15.6,79.5,15.3,79.5"/>
				<polyline class="st16" points="13.8,79.5 14,79.4 13.8,79.5 				"/>
				<polyline class="st17" points="19.9,80.4 19.8,80.1 19.8,80 19.9,80.4 				"/>
				<polyline class="st16" points="21.3,81 23.7,79.7 21.3,81 				"/>
				<path class="st7" d="M20.7,84.2c-1.8,0-4.2-0.3-6.1-0.6c1.6-1,4.4-1.7,6.7-2.6l2,0.1l-1.1,0.2c-0.2,0.1-0.8,0.2-0.9,0.3
					c-0.1,0.2,0.8,0.3,4.8,0.3l2.1-0.1c-2.4,0.4-4.5,0.8-6.2,1.6l1.6,0.4l-1,0.1c-0.4,0.1-0.8,0.1-1.4,0.2
					C21.1,84.2,20.9,84.2,20.7,84.2"/>
				<path class="st16" d="M22,83.5c1.7-0.7,3.8-1.2,6.2-1.6C25.8,82.3,23.7,82.8,22,83.5"/>
				<path class="st16" d="M21.3,81.7c0.1-0.1,0.7-0.3,0.9-0.3l1.1-0.2l-1.1,0.2C22,81.5,21.3,81.6,21.3,81.7"/>
				<path class="st18" d="M27,85.1l-3,0c-3,0-6.1-0.1-9.1-0.2c-0.9-0.1-1.8-0.2-2.8-0.2l-0.9,0c-1-1.2-1.8-2.4-2.5-3.7l3.4-1
					c3.1,0.1,6,0.7,9.1,1c-2.2,0.8-5.1,1.6-6.7,2.6c1.9,0.3,4.3,0.6,6.1,0.6l0,0c0.2,0,0.4,0,0.5,0c0.5,0,1-0.1,1.4-0.2l1-0.1
					c1.1,0.2,2.2,0.4,3.4,0.4c1.2,0.1,2.4,0.1,3.7,0.2l0.6,0c0.7,0,1.4,0.1,2.1,0.1c0.7,0,1.4,0.1,2.1,0.1l0.4,0.5
					C32.9,85.3,30,85.2,27,85.1"/>
				<path class="st13" d="M27,85.1c2.9,0,5.9,0.2,8.8,0.1C32.9,85.3,30,85.2,27,85.1"/>
				<path class="st13" d="M24,85.1c-3,0-6.1-0.1-9.1-0.2C17.9,85,21,85.1,24,85.1"/>
				<path class="st13" d="M33.4,84.6c-0.7,0-1.4-0.1-2.1-0.1l-0.6,0c-1.3-0.1-2.5-0.1-3.7-0.2c1.2,0.1,2.4,0.1,3.7,0.2l0.6,0
					C32,84.6,32.7,84.6,33.4,84.6"/>
				<path class="st19" d="M20.7,84.2L20.7,84.2c0.2,0,0.4,0,0.5,0C21.1,84.2,20.9,84.2,20.7,84.2"/>
				<path class="st19" d="M14.6,83.6c1.6-1,4.4-1.7,6.7-2.6C19.1,81.9,16.2,82.6,14.6,83.6"/>
				<path class="st2" d="M14.9,84.9l-3.7-0.2l0.9,0C13,84.7,14,84.8,14.9,84.9"/>
				<polyline class="st17" points="14.9,84.9 11.2,84.8 14.9,84.9 				"/>
			</g>
		</g>
	</g>
</g>
<g>
	<g>
		<g>
			<g class="st0">
				<path class="st1" d="M91.3,16.1c1,0.7,2,1.4,2.9,2.3l1.3,0.1c-0.8,0.2-1.6,0.5-2.3,0.7c-2,0.7-4.1,1.5-6.1,2.2
					c-2,0.7-3.8,1.2-5.4,1.5c0.8-0.4,1.8-0.9,2.7-1.3c0.3-0.2,0.6-0.3,0.9-0.5c0.6-0.3,1.1-0.6,1.5-0.8l-0.2,0.2l1.6-1.6l2-1l-2,1
					C89.2,18,90.2,17.1,91.3,16.1"/>
				<path class="st1" d="M43.4,54L43.4,54l-0.1,0.5c-1.2,1.6-2.4,3.2-3.3,4.8c-1.2,1.9-2.7,3.7-4.3,5.4c-0.3,0.3-0.7,0.7-1,1
					l1.4-2.7l0.2-0.2C39.2,59.9,40.8,56.8,43.4,54"/>
				<path class="st2" d="M36.6,67.1c-1.2,1.9-2.6,3.8-4,5.7l-0.3-0.3c0.8-1,1.6-2.2,2.5-3.3c0.3-0.3,0.5-0.6,0.8-0.8l-0.3,0.1
					L36.6,67.1"/>
				<polyline class="st2" points="32.9,70.6 31.7,72.4 31.5,72.5 32.9,70.6 				"/>
				<polyline class="st2" points="37.6,47.3 38.2,47 37.6,47.4 37.6,47.3 				"/>
				<polyline class="st2" points="19.3,60.7 20.2,60.2 19.3,60.7 				"/>
				<polyline class="st2" points="20.2,60.2 20.3,60 20.2,60.2 				"/>
				<polyline class="st2" points="21.5,80 22.2,79.6 21.5,80 				"/>
				<polyline class="st2" points="17.3,64.7 17.6,64.6 17.3,64.7 				"/>
				<polyline class="st2" points="64.9,38.4 66.5,38 64.9,38.4 				"/>
				<polyline class="st2" points="38.2,47 39.3,46.5 38.2,47 				"/>
				<polyline class="st2" points="23.6,79.3 24.3,78.7 23.7,79.2 23.6,79.3 				"/>
				<polyline class="st2" points="20.5,80.8 21.5,80 20.8,80.5 20.5,80.8 				"/>
				<polyline class="st2" points="27.8,75.1 27,76.4 26.7,76.6 27,76.4 26.7,76.6 26.7,76.6 27.8,75.1 				"/>
				<path class="st2" d="M22,80.4l1.6-1.1l0.8-0.7l-0.6,0.6c1.6-1.1,3.2-2.3,4.8-3.8l0-0.4l-2,2l0.5-0.7l-0.2,0.2L26.3,77l0.4-0.4
					l-2.2,1.8l1-0.6l-1.2,0.8l0.2-0.2l-1.1,0.7L22,80.4 M24.3,78.6l-0.2,0.2L24.3,78.6"/>
				<polyline class="st3" points="23.7,79.2 24.3,78.7 23.7,79.2 				"/>
				<polyline class="st3" points="26.7,76.6 27,76.4 26.7,76.6 				"/>
				<polyline class="st2" points="19,82.3 19.5,81.8 20.3,81.2 22.8,79.4 23.3,79.1 22,80.4 19,82.3 				"/>
				<polyline class="st2" points="26.3,77 26.7,76.6 26.7,76.6 26.3,77 				"/>
				<polyline class="st3" points="26.3,77 26.7,76.6 26.3,77 				"/>
				<polyline class="st2" points="18.7,82.5 19.1,82.1 19.5,81.8 19,82.3 18.7,82.5 				"/>
				<polyline class="st2" points="19,82.2 19.1,82.1 19,82.2 				"/>
				<polyline class="st2" points="19.3,81.9 20.5,80.8 19.9,81.4 19.3,81.9 				"/>
				<polyline class="st3" points="26.7,76.6 27,76.4 26.7,76.6 				"/>
				<polyline class="st2" points="19,82.2 19.3,81.9 19,82.2 				"/>
				<polyline class="st2" points="19.1,82.1 19.3,81.9 19.9,81.4 20.3,81.2 19.5,81.8 20.3,81.2 19.5,81.8 19.1,82.1 				"/>
				<polyline class="st3" points="19,82.2 19.3,81.9 19.1,82.1 19,82.2 				"/>
				<polyline class="st3" points="19.3,81.9 19.9,81.4 19.3,81.9 				"/>
				<polyline class="st3" points="19.5,81.8 20.3,81.2 19.5,81.8 				"/>
				<polyline class="st2" points="19.9,81.4 20.5,80.8 20.8,80.5 19.9,81.4 				"/>
				<polyline class="st3" points="20.5,80.8 20.8,80.5 20.5,80.8 				"/>
				<polyline class="st3" points="19.9,81.4 20.5,80.8 19.9,81.4 				"/>
				<polyline class="st2" points="19.9,81.4 20.8,80.5 21.5,80.2 20.4,81.1 20.3,81.2 19.9,81.4 				"/>
				<polyline class="st3" points="19.9,81.4 20.8,80.5 19.9,81.4 				"/>
				<polyline class="st3" points="24.1,78.8 24.3,78.6 24.1,78.8 				"/>
				<polyline class="st2" points="24.3,78.6 24.4,78.4 25.5,77.8 24.3,78.6 				"/>
				<polyline class="st3" points="24.3,78.6 24.4,78.4 24.3,78.6 				"/>
				<polyline class="st3" points="24.4,78.4 25.5,77.8 24.4,78.4 				"/>
				<polyline class="st2" points="22.8,79.4 23.5,78.8 23.3,79.1 22.8,79.4 				"/>
				<polyline class="st2" points="20.3,81.2 20.4,81.1 22.8,79.4 20.3,81.2 				"/>
				<polyline class="st3" points="20.3,81.2 20.4,81.1 20.3,81.2 20.4,81.1 20.3,81.2 				"/>
				<polyline class="st4" points="20.3,81.2 20.4,81.1 20.3,81.2 				"/>
				<polyline class="st2" points="20.5,65.9 22.4,64.6 20.4,66.1 20.5,65.9 				"/>
				<polyline class="st2" points="21.1,65 23,64 20.8,65.5 21.1,65 				"/>
				<path class="st2" d="M21,62.8c1.4-1.5,2.7-2.8,4.1-3.7L23,61l0.1-0.1L21,62.8"/>
				<polyline class="st2" points="21,62.8 23.1,60.8 23,61 21,62.8 				"/>
				<polyline class="st3" points="21,62.8 23.1,60.8 21,62.8 				"/>
				<polyline class="st2" points="21.4,64.5 22.1,64.1 21.1,65 21.4,64.5 				"/>
				<polyline class="st2" points="17.7,69.1 18.3,68.5 17.7,69.1 				"/>
				<path class="st5" d="M-0.5,91.9l-0.4,0.6l-0.4,1c1.3-0.9,2.6-1.9,4-3.2l-0.5,0.3c1.4-1.4,2.7-2.1,4-3.3
					C4.1,88.7,1.7,90.7-0.5,91.9"/>
				<polyline class="st2" points="7.8,84.7 8.2,84.3 7.8,84.7 				"/>
				<polyline class="st2" points="2.7,90.3 3.3,89.7 2.7,90.3 				"/>
				<polyline class="st2" points="7.1,85.3 7.8,84.7 7.1,85.3 				"/>
				<polyline class="st2" points="18.9,69.7 19.5,69.1 20.3,68.7 18.9,69.8 18.9,69.7 				"/>
				<polyline class="st2" points="18.8,69.7 19.5,69.1 18.9,69.7 18.8,69.7 				"/>
				<polyline class="st2" points="18.1,69.4 18.7,69 20.3,68.1 18.6,69.5 18.1,69.4 				"/>
				<polyline class="st2" points="18.1,69.4 18.7,69 18.1,69.4 18.1,69.4 				"/>
				<polyline class="st2" points="17.9,69.4 19.6,68.3 18.7,69 18.1,69.4 17.9,69.4 				"/>
				<path class="st5" d="M18.9,69.8l1.4-1.1l-0.8,0.4c1.2-1.1,2.4-2.4,3.7-3.5c-0.5,0.7-1,1.3-1.6,2c-1,1.1-2,2.1-3,3.2L18.9,69.8"
					/>
				<polyline class="st6" points="18.9,69.8 20.3,68.7 18.9,69.8 				"/>
				<path class="st2" d="M18.2,71.4c1.6-1.4,3.4-3.1,4.9-3.9c-0.1,0.1-0.2,0.2-0.3,0.4c-2,2.2-4,3.2-5.9,5.5l-0.2,0.2
					c1.3-0.8,3-2.3,4.3-3.1c-1.8,1.5-3.6,2.7-5.4,4L18.2,71.4"/>
				<polyline class="st2" points="21.6,69.8 24.3,68.2 23.3,69 21.6,69.8 				"/>
				<polyline class="st2" points="27.4,65.7 27.7,65.4 27.9,65.3 27.4,65.7 				"/>
				<path class="st2" d="M25.3,67.2l0.6-0.4l1.5-1.1l0.3-0.3L25.3,67.2 M25.9,66.8l1.5-1.1L25.9,66.8"/>
				<path class="st2" d="M23.3,69l1-0.8l1.6-1.4l1.5-1.1l0.5-0.4l-0.1,0.1l2.4-1.4L28,66.2C26.5,66.9,24.8,68.1,23.3,69"/>
				<polyline class="st3" points="23.3,69 24.3,68.2 23.3,69 				"/>
				<polyline class="st3" points="27.4,65.7 27.9,65.3 27.4,65.7 				"/>
				<polyline class="st3" points="25.9,66.8 27.4,65.7 25.9,66.8 				"/>
				<polyline class="st3" points="25.9,66.8 27.4,65.7 25.9,66.8 				"/>
				<path class="st2" d="M28.8,65.8c1.2-1.1,2.3-2,3.3-2.5L30,65.8l0.1-0.5L28.8,65.8"/>
				<polyline class="st2" points="45.5,36.6 46.8,36 46.5,36.4 45.5,36.6 				"/>
				<path class="st7" d="M78.3,13.1c3.4-0.1,6.2,0.4,8.7,1.2l-3.9,1.8c-4.3,1.8-8.9,3.3-9.7,1.8c-0.1-0.2-0.2-0.5-0.1-0.8
					C75.1,15.8,76.8,14.3,78.3,13.1"/>
				<path class="st2" d="M63.9,22.6l0.6-0.1c-0.7,0.7-0.6,1.2-2.1,2.2C62.3,24.1,63.1,23.4,63.9,22.6"/>
				<path class="st8" d="M68.1,19.2c1.4,0,2.8-0.7,4.2-1.5c0.3-0.2,0.7-0.4,1-0.6c-0.1,0.3,0,0.6,0.1,0.8c0.8,1.5,5.4,0.1,9.7-1.8
					c-3.2,1.6-6.3,3.3-9.4,5.1c-1,0.6-2,1.2-3,1.9c-1.4,0.9-2.9,1.9-4.3,2.8c-1.4,0.9-2.9,1.9-4.3,2.9l0.6,0.1l2.1-1.3
					c0.7-0.4,1.4-0.8,2-1.3l0.6-0.4c1.2-0.8,2.5-1.6,3.7-2.3c1.2-0.7,2.4-1.3,3.6-1.7c-1.5,1.2-3.2,2.3-4.8,3.4
					c-1.1,0.7-2.2,1.4-3.4,2c-3.5,1.8-6.9,3.6-10,5c-0.6,0.3-1.2,0.6-1.8,1c-0.6,0.4-1.4,0.9-2.1,1.4l2-1.5l-0.1-0.5
					c-1,0.4-2.2,0.8-3.2,1.3l0.7-0.5l2.6-1.7c0.8-0.5,1.6-1.1,2.4-1.7c0.5-0.3,1-0.7,1.5-1.1l0,0c1.5-1.2,3-2.5,4.7-3.8
					c-0.8,0.4-1.5,0.8-2.2,1.2c-0.4,0.1-0.7,0.1-0.8,0c-0.5-0.4,1.6-2.6,3.3-3.9l0.3-0.1c-0.7,0.7-1.5,1.5-1.5,2.1
					c1.5-1,1.4-1.5,2.1-2.2l0.8,0.2l1.9-0.7c-0.4,1.2,2.4-0.8,2.5-0.1l3.2-1.4l1.2-1.6C71.5,19.6,68.7,20.4,68.1,19.2"/>
				<path class="st9" d="M73.4,17.8c0.8,1.5,5.4,0.1,9.7-1.8C78.8,17.9,74.2,19.3,73.4,17.8"/>
				<path class="st10" d="M64.4,22.5c-0.7,0.7-0.6,1.2-2.1,2.2C63.8,23.7,63.7,23.2,64.4,22.5"/>
				<path class="st2" d="M49.3,34.9l2-0.9l0.7-0.5l2.6-1.7l0-0.2c-0.4,0.2-0.7,0.4-1.1,0.7L52.4,33l1.2-0.9c0.4-0.3,0.7-0.6,1.1-0.9
					c-0.5,0.2-1,0.5-1.6,0.9c-0.6,0.4-1.2,0.8-1.8,1.2L49.3,34.9 M52,33.6l2.6-1.7L52,33.6"/>
				<polyline class="st3" points="52,33.6 54.7,31.9 52,33.6 				"/>
				<polyline class="st2" points="64.2,22.3 64.4,22.5 63.9,22.6 64.2,22.3 				"/>
				<polyline class="st2" points="80.2,22.9 80.5,23.1 80.2,22.9 				"/>
				<path class="st11" d="M60.1,18.9c1.1-0.3,1.7-0.2,2.1,0c0.4,0.2,0.7,0.5,0.9,0.9c0.4,0.8,0.4,1.8,1,2.4l-0.3,0.3l-0.3,0.1
					c-1.7,1.2-3.8,3.4-3.3,3.9c0.1,0.1,0.4,0.1,0.8,0c0.7-0.4,1.5-0.8,2.2-1.2c-1.7,1.3-3.2,2.7-4.7,3.8c-0.5,0.4-1,0.7-1.5,1.1
					c-0.8,0.5-1.7,1.1-2.4,1.7l0-0.2c0.7-0.5,1.5-1,2.2-1.5c-0.7,0.3-1.5,0.7-2.3,1.3c-0.4,0.3-0.7,0.5-1.1,0.8
					c-0.4,0.3-0.8,0.6-1.1,0.9l1.2-0.9c0.4-0.3,0.7-0.6,1.1-0.9c-0.5,0.2-1,0.5-1.6,0.9c-0.6,0.4-1.2,0.8-1.8,1.2l0.2-0.5l-2,0.4
					c1-0.6,2.1-1.1,3.1-1.6c0.2-0.4,0.4-0.7,0.5-1.1c-0.3,0-0.7,0-1.1,0c-0.4,0-0.8,0.1-1.3,0.2c-0.9,0.2-2,0.4-3.1,1
					c1.5-0.7,2.9-1.2,4.3-1.8c0.3-0.1,0.7-0.2,1-0.4c0.3-0.1,0.8-0.4,1.2-0.6c0.8-0.4,1.7-0.9,2.6-1.6l0-0.5l0.9-0.3
					c-1.4-0.1-3.4,1.1-4.7,1c0.9-0.4,1.8-0.8,2.7-1.1c-0.5-0.3-1.8,0.2-2.5,0.2c2.3-0.9,3.5,0.2,5.7-1.3l0.1-0.1l0.2-0.1
					c1.9-1.4,2.7-2.4,2.6-3.1c-0.1-0.7-0.9-1.1-2.2-1.2l0.9-0.3C61.7,19.3,60,19.6,60.1,18.9"/>
				<path class="st12" d="M60.2,26.5c0.1,0.1,0.4,0.1,0.8,0c0.7-0.4,1.5-0.8,2.2-1.2c-0.8,0.4-1.5,0.8-2.2,1.2
					C60.6,26.6,60.4,26.6,60.2,26.5"/>
				<path class="st12" d="M63.3,25.3c-1.7,1.3-3.2,2.7-4.7,3.8C60.1,28,61.6,26.7,63.3,25.3"/>
				<path class="st13" d="M52.4,33l1.2-0.9c0.4-0.3,0.7-0.6,1.1-0.9c-0.4,0.3-0.7,0.6-1.1,0.9L52.4,33"/>
				<polyline class="st13" points="54.7,31.7 54.7,31.9 54.7,31.7 				"/>
				<path class="st11" d="M48.8,37.7l-0.4,0.5l-0.3,0.7l0.7-0.5l-0.7,0.5l0.2,0.4l1.9-0.9l-1,0.6l1.7-0.7L49,39.4l0.2,0.2l0.7-0.3
					c1.4-1,2.9-2.2,4.3-3c-0.5,0.5-1.1,1-1.6,1.5c-1.2,1-2.5,2-3.7,3.1l-0.4,0.5c1.8-1.2,3.7-2.7,5.3-3.2c-0.1,0.1-0.2,0.2-0.3,0.3
					c-2.2,1.9-4.3,2.6-6.5,4.7l-0.2,0.2c1.3-0.7,3.3-1.9,4.6-2.5c-2,1.2-3.9,2.3-5.8,3.4l-0.2,0.2c-2.2,1.8-4.2,3.4-6.2,5.1l2.8-1.8
					l-2.8,1.8c-3.2,2.6-6.2,5.1-9.4,7.7l2.9-1.6c-1,1.8-2.7,3.4-3.8,4.9c2.3-2,4.5-3.4,6.6-5.3c-2.1,1.9-4.3,3.4-6.6,5.3l-0.4,0.5
					c2.2-1.3,4.6-3.3,6.7-4.6c-1.3,1.1-2.6,1.8-4,3.3l0.5-0.3l0.6-0.6l-0.6,0.6c-1.3,1.3-2.6,2.2-3.9,3.2c-0.7,1.7-1.5,3.6-2.8,5.1
					l-0.7,0.7l1.6-1.4l-0.6,0.4l2.4-1.9l2.4-1.4L28,66.2l0.8-0.4c1.2-1.1,2.3-2,3.3-2.5L30,65.8l-0.8,1.9l0.8,0.4
					c1.3-0.5,2.9-1.6,4.5-3.3l0.3-0.3L34,64l0.8-0.2l0.5-1.3l0.9-0.8c0.2-0.8,0.7-1.6,1.4-2.3c0.7-0.7,1.5-1.4,2.2-2l-0.8,0.4
					c0.1-0.5,0.4-1,0.8-1.4c0.6-0.6,1.4-1.1,2-1.6l1.5-0.9l0.1-0.1l0,0.1l0.1,0l1.8-1.6l1.1-0.7l0.7-0.3l-0.7,0.3l-0.7,0.5l0.7-0.3
					l-1.2,0.8l2.5-1.5l0.8-0.6l-0.2,0.2l1.2-0.6c0.8-0.5,1.6-1,2.3-1.5l1.2-1.3l-0.9,1.2l-0.5,0.6l2.1-1.7l0.1,0.3
					c0.9-0.6,2-1.4,3-2.3l0.1-0.1l1.6-1.6l-1.3,1.5l0.4,0.3c0.9-0.9,1.8-1.9,2.9-2.8c0.3-0.2,0.5-0.4,0.9-0.6
					c-0.1,0-0.2,0.1-0.3,0.1c0.6-0.5,1.3-1.1,1.8-1.5c0.7-0.8,1.4-1.7,2.1-2.5L64,38.6l0.9-0.3c1.2-1.5,2.4-2.9,3.5-4.2
					c0.5-0.7,1-1.3,1.5-2c0.5-0.7,1-1.4,1.4-2c-0.8,0.7-1.5,1.3-2.3,2c-0.7,0.6-1.3,1.3-1.8,1.9c-1.7,1.7-3.5,3.3-5.4,4.9l-0.7,0.5
					c0.6-0.8,1.1-1.6,1.7-2.4l-0.1,0.1l0.3-0.6L62.8,37c1.7-1.3,3-2.6,4.4-3.9c0.7-0.6,1.3-1.2,2.1-1.8c0.4-0.3,0.8-0.6,1.2-0.9
					c0.4-0.3,0.8-0.6,1.2-0.9l-0.5,0.6c1.9-1.5,3.7-3.1,5.6-4.6l1.6-2.5l-2,1.1l1-0.9c0.1-0.2,0.7-0.7,0.7-0.8
					c0-0.2-0.9,0.2-4.9,2.6l-2,1.4c2.1-1.8,3.9-3.4,5.2-5.1L74.7,22c-1.5,1.2-3.2,2.3-4.8,3.4c-1.1,0.7-2.2,1.4-3.4,2
					c-3.5,1.8-6.9,3.6-10,5c-0.6,0.3-1.2,0.6-1.8,1c-0.6,0.4-1.4,0.9-2.1,1.4l-0.2,0.2l0.8-0.4l-1.1,0.7l2.1-0.7l-2.5,1.1l-0.3,0.4
					l2-1l-2.2,1.2l-0.3,0.5L48.8,37.7 M36.2,54.2c-1.7,1.3-3.5,2.2-5.5,4C32.7,56.4,34.4,55.5,36.2,54.2l0.7-0.5l0.4-0.4l-0.4,0.4
					L36.2,54.2l0-0.2l1.7-1.5L36.2,54L36.2,54.2 M44.5,45.8c-1.5,1.3-2.9,1.7-4.3,3C41.6,47.4,43,47.1,44.5,45.8 M45.8,44.6l0.1-0.1
					l1.1-0.9l-1.1,0.9L45.8,44.6c-1.4,1-2.6,1.6-3.9,2.7C43.2,46.2,44.4,45.6,45.8,44.6 M37.1,52.9l0.5-0.7L37.1,52.9 M68.5,28.9
					l2.9-2.4L68.5,28.9 M68.5,28.9l2.9-2.4L68.5,28.9 M68.5,28.9L68,29.2l-0.4,0.4l-0.4,0.3l-0.4,0.4l0,0l-0.4,0.3l-0.4,0.4
					l-0.4,0.3L65,31.8l-0.4,0.4l-0.3,0.3l-0.4,0.4l-0.4,0.4l-0.4,0.4L62.9,34l-0.4,0.4l-0.2,0.4c1.6-1.4,2.9-2.7,4.2-4l0.1-0.1
					l0.1-0.1l0.5-0.5l0.1-0.1l0.4-0.4l0.2-0.2L68.5,28.9 M76.6,24.1c-0.2,0.1-0.4,0.2-0.6,0.4c-0.1,0.1-0.3,0.2-0.4,0.3L75,25.1
					l-0.5,0.3L74,25.9l-0.3,0.2c-0.2,0.2-0.5,0.4-0.7,0.6l0,0l-0.4,0.4l0.4-0.4l-0.4,0.4l0.4-0.4l0,0c-0.1,0.1-0.3,0.3-0.4,0.4
					c0.2-0.2,0.4-0.3,0.6-0.5l0.3-0.2l0.6-0.4l0.2-0.1l0.5-0.4l0.3-0.2l0.3-0.2C75.8,24.7,76.2,24.4,76.6,24.1 M34,64l-0.1-0.1
					l-0.5,0.3L34,64"/>
				<path class="st1" d="M68.5,28.9c-0.6,0.5-1.2,0.9-1.7,1.4l0.4-0.4l0.4-0.3l0.4-0.4L68.5,28.9"/>
				<polyline class="st1" points="67.9,29.4 67.7,29.6 67.3,30 67.2,30.1 67.9,29.4 				"/>
				<path class="st1" d="M66.7,30.3c-1.7,1.4-3.2,2.9-4.4,4.4l0.2-0.4l0.4-0.4l0.3-0.3l0.4-0.4l0.4-0.4l0.4-0.4l0.3-0.3l0.4-0.4
					l0.4-0.4l0.4-0.3l0.4-0.4L66.7,30.3"/>
				<polyline class="st1" points="66.7,30.5 66.6,30.7 66.4,30.8 66.7,30.5 				"/>
				<polyline class="st14" points="43.5,53.9 43.5,54 43.4,54 43.5,53.9 				"/>
				<polyline class="st13" points="64,38.6 64.9,38.4 64,38.6 				"/>
				<polyline class="st13" points="25.3,67.2 25.9,66.8 25.3,67.2 				"/>
				<polyline class="st13" points="28,66.2 30.2,64 28,66.2 				"/>
				<polyline class="st13" points="32.1,63.2 30,65.8 32.1,63.2 				"/>
				<polyline class="st15" points="68.5,28.9 68,29.2 67.6,29.6 67.1,29.9 66.7,30.3 67.1,29.9 67.6,29.6 68,29.2 68.5,28.9 				"/>
				<polyline class="st15" points="67.9,29.4 67.7,29.6 67.3,30 67.2,30.1 67.3,30 67.7,29.6 67.9,29.4 				"/>
				<polyline class="st15" points="66.7,30.3 66.3,30.7 65.9,31.1 65.4,31.4 65,31.8 64.6,32.2 64.3,32.5 63.9,32.9 63.5,33.3 
					63.2,33.7 62.9,34 62.5,34.4 62.3,34.8 62.5,34.4 62.9,34 63.2,33.7 63.5,33.3 63.9,32.9 64.3,32.5 64.6,32.2 65,31.8 
					65.4,31.4 65.9,31.1 66.3,30.7 66.7,30.3 				"/>
				<polyline class="st15" points="66.7,30.5 66.6,30.7 66.4,30.8 66.6,30.7 66.7,30.5 				"/>
				<polyline class="st15" points="71.3,26.4 68.5,28.9 71.3,26.4 				"/>
				<polyline class="st15" points="71.3,26.4 68.5,28.9 71.3,26.4 				"/>
				<path class="st12" d="M52.6,34.8c0.7-0.5,1.4-1,2.1-1.4c0.6-0.4,1.2-0.8,1.8-1c3.1-1.4,6.5-3.1,10-5c-3.5,1.8-6.9,3.6-10,5
					c-0.6,0.3-1.2,0.6-1.8,1C54.1,33.7,53.3,34.3,52.6,34.8"/>
				<path class="st12" d="M74.7,22c-1.5,1.2-3.2,2.3-4.8,3.4C71.6,24.3,73.2,23.1,74.7,22"/>
				<path class="st1" d="M75,25.1l0.5-0.3c-0.6,0.4-1.2,0.8-1.8,1.3l0.3-0.2l0.6-0.4L75,25.1"/>
				<polyline class="st1" points="75.4,25 75.1,25.2 74.7,25.4 75.4,25 				"/>
				<path class="st1" d="M74.2,25.8L74,25.9l-0.6,0.4l-0.3,0.2C73.5,26.3,73.8,26.1,74.2,25.8"/>
				<polyline class="st1" points="73,26.7 73,26.7 73,26.7 73,26.7 				"/>
				<polyline class="st2" points="79.8,23 79.6,23.2 79.8,23 				"/>
				<path class="st7" d="M78.5,23.1c1.6-0.8,3.2-1.5,4.8-2.1c1.6-0.6,3.2-1.2,4.8-2l-1.6,1.6l0.2-0.2c-0.4,0.2-1,0.5-1.5,0.8
					c-0.3,0.1-0.6,0.3-0.9,0.5c-0.9,0.5-1.8,1-2.7,1.3l-1.2,0.2l0,0l-0.3-0.2l0.6-0.7l-1,0.8l-0.2,0.2l-2.7,2.3L78.5,23.1"/>
				<path class="st16" d="M85.2,21.1c0.6-0.3,1.1-0.6,1.5-0.8C86.3,20.5,85.8,20.8,85.2,21.1c-0.3,0.1-0.6,0.3-0.9,0.5
					C84.6,21.4,84.9,21.2,85.2,21.1"/>
				<polyline class="st16" points="86.8,20.3 86.6,20.5 86.8,20.3 				"/>
				<polyline class="st17" points="80.2,22.9 80.5,23.1 80.5,23.1 80.2,22.9 				"/>
				<polyline class="st16" points="78.5,23.1 76.9,25.6 78.5,23.1 				"/>
				<path class="st7" d="M77.4,20c1.9-1.1,4.4-2.1,6.5-2.9c-1.2,1.7-3.7,4-5.4,6l-2,1.1l1-0.9c0.1-0.2,0.7-0.7,0.7-0.8
					c0-0.2-0.9,0.2-4.9,2.6l-2,1.4c2.1-1.8,3.9-3.4,5.2-5.1L74.7,22l0.9-0.7c0.3-0.3,0.8-0.6,1.3-0.9C77.1,20.2,77.3,20.1,77.4,20"
					/>
				<path class="st16" d="M76.5,21.4c-1.3,1.7-3.2,3.3-5.2,5.1C73.4,24.7,75.2,23,76.5,21.4"/>
				<path class="st16" d="M78.2,22.5c0,0.1-0.6,0.6-0.7,0.8l-1,0.9l1-0.9C77.6,23.1,78.2,22.6,78.2,22.5"/>
				<path class="st18" d="M70.7,23.1c1-0.6,2-1.3,3-1.9c3.1-1.8,6.2-3.6,9.4-5.1c1-0.4,2-0.8,2.9-1.3c0.3-0.2,0.6-0.3,0.9-0.5
					c1.6,0.5,3,1.1,4.3,1.9c-1,1-2.1,1.9-3.1,2.8c-1.6,0.8-3.3,1.4-4.8,2c-1.6,0.6-3.2,1.3-4.8,2.1c1.8-2,4.2-4.3,5.4-6
					c-2.1,0.8-4.7,1.8-6.5,2.9l0,0c-0.2,0.1-0.4,0.2-0.5,0.3c-0.5,0.3-0.9,0.6-1.3,0.9L74.7,22c-1.2,0.4-2.4,1-3.6,1.7
					c-1.2,0.7-2.4,1.5-3.7,2.3l-0.6,0.4c-0.7,0.4-1.4,0.8-2,1.3l-2.1,1.3l-0.6-0.1c1.4-1,2.8-2,4.3-2.9C67.8,24.9,69.2,24,70.7,23.1
					"/>
				<path class="st13" d="M70.7,23.1c-1.4,0.9-2.9,1.9-4.3,2.8c-1.4,0.9-2.9,1.9-4.3,2.9c1.4-1,2.8-2,4.3-2.9
					C67.8,24.9,69.2,24,70.7,23.1"/>
				<path class="st13" d="M73.7,21.2c3.1-1.8,6.2-3.6,9.4-5.1C79.9,17.6,76.8,19.4,73.7,21.2"/>
				<path class="st13" d="M64.8,27.6c0.7-0.4,1.4-0.8,2-1.3l0.6-0.4c1.2-0.8,2.5-1.6,3.7-2.3c-1.2,0.7-2.4,1.5-3.7,2.3l-0.6,0.4
					C66.2,26.7,65.5,27.2,64.8,27.6"/>
				<path class="st19" d="M77.4,20L77.4,20c-0.2,0.1-0.4,0.2-0.5,0.3C77.1,20.2,77.3,20.1,77.4,20"/>
				<path class="st19" d="M84,17.1c-1.2,1.7-3.7,4-5.4,6C80.3,21.1,82.8,18.8,84,17.1"/>
				<path class="st2" d="M83.1,16.1l3.9-1.8c-0.3,0.2-0.6,0.3-0.9,0.5C85.1,15.2,84.1,15.7,83.1,16.1"/>
				<polyline class="st17" points="83.1,16.1 87,14.2 83.1,16.1 				"/>
			</g>
		</g>
	</g>
</g>
</svg>
