<?xml version="1.0" encoding="utf-8"?>
<!-- Generator: Adobe Illustrator 23.0.1, SVG Export Plug-In . SVG Version: 6.00 Build 0)  -->
<svg version="1.1" id="Layer_1" xmlns="http://www.w3.org/2000/svg" xmlns:xlink="http://www.w3.org/1999/xlink" x="0px" y="0px"
	 viewBox="0 0 100 100" style="enable-background:new 0 0 100 100;" xml:space="preserve">
<style type="text/css">
	.st0{opacity:0.8;}
	.st1{fill:#DD9699;}
	.st2{fill:#CF6A6E;}
	.st3{fill:#C54C50;}
	.st4{fill:#C3464B;}
	.st5{fill:#E2A6A8;}
	.st6{fill:#CA5A5E;}
	.st7{fill:#CB6063;}
	.st8{fill:#D88689;}
	.st9{fill:#C54D51;}
	.st10{fill:#C75256;}
	.st11{opacity:0.8;fill:#DD9699;}
	.st12{fill:#CD6467;}
	.st13{fill:#C8565A;}
	.st14{fill:#D06D70;}
	.st15{fill:#C9575B;}
	.st16{fill:#C65155;}
	.st17{fill:#C44A4E;}
	.st18{fill:#D27478;}
	.st19{fill:#C54B4F;}
</style>
<g>
	<g>
		<g>
			<g class="st0">
				<path class="st1" d="M52,24.6c-0.6-0.4-0.6-0.6-0.6-0.5c0,0,0.1,0.2,0.1,0.5c0-0.8-0.3-0.6,0.4-0.1c0.4,0.3,0.9,0.6,1.8,0.8
					l0.7,0.2l0.7,0.2c0.4,0.1,0.2,0,0.2,0.1l-0.1,0L54,28.5c-1.8,1.6-3.8,3.5-5.6,4.3c0.5-0.5,1-1.1,1.5-1.7
					c0.2-0.2,0.3-0.4,0.5-0.6c0.3-0.4,0.6-0.7,0.8-1l0,0.2l0.4-1.7l0.8-1l0.4-0.5l0.3-1.2l0-0.1l0,0.1l-0.3,1.2l-0.4,0.5l-0.8,1
					l0.4-1.2l0.6-1.5c-0.1-0.2-0.1-0.3-0.2-0.4c0-0.1-0.1-0.1-0.1-0.2C52.2,24.7,52.3,24.7,52,24.6"/>
				<path class="st1" d="M27.4,63.6L27.4,63.6l0.1,0.4c-0.6,1.4-1.3,2.7-1.7,4.1c-0.6,1.6-1.5,3.1-2.6,4.6c-0.2,0.3-0.4,0.6-0.7,0.9
					l0.7-2.2l0.1-0.2C25.1,68.6,25.8,66,27.4,63.6"/>
				<path class="st2" d="M24.5,74.7c-0.7,1.6-1.6,3.2-2.4,4.8l-0.4-0.3c0.5-0.9,1-1.8,1.6-2.7c0.2-0.2,0.4-0.5,0.6-0.7l-0.2,0.1
					L24.5,74.7"/>
				<polyline class="st2" points="21.9,77.5 21.2,79 21,79.1 21.9,77.5 				"/>
				<polyline class="st2" points="20.5,58 20.8,57.8 20.5,58.2 20.5,58 				"/>
				<polyline class="st2" points="7.6,68.8 8.3,68.3 7.6,68.8 				"/>
				<polyline class="st2" points="8.3,68.3 8.3,68.3 8.3,68.3 				"/>
				<polyline class="st2" points="13.6,85 14.1,84.7 13.6,85 				"/>
				<polyline class="st2" points="6.7,72 6.9,71.9 6.7,72 				"/>
				<polyline class="st2" points="41.3,48.9 42.5,48.3 41.3,48.9 				"/>
				<polyline class="st2" points="20.8,57.8 21.7,57.3 20.8,57.8 				"/>
				<polyline class="st2" points="15.3,84.5 15.9,84 15.4,84.5 15.3,84.5 				"/>
				<polyline class="st2" points="12.8,85.6 13.6,85 13.1,85.4 12.8,85.6 				"/>
				<polyline class="st2" points="18.2,81.2 17.8,82.2 17.6,82.4 17.8,82.2 17.6,82.4 17.6,82.4 18.2,81.2 				"/>
				<path class="st2" d="M14.1,85.3l1.2-0.8l0.6-0.5l-0.5,0.5c1.2-0.8,2.4-1.8,3.5-3l-0.1-0.3l-1.4,1.6l0.3-0.6l-0.2,0.1l-0.3,0.3
					l0.2-0.3l-1.7,1.4l0.8-0.5l-0.9,0.6l0.1-0.2L15,84.3L14.1,85.3 M15.8,83.9l-0.1,0.2L15.8,83.9"/>
				<polyline class="st3" points="15.4,84.5 15.9,84 15.4,84.5 				"/>
				<polyline class="st3" points="17.6,82.4 17.8,82.2 17.6,82.4 				"/>
				<polyline class="st2" points="11.8,86.8 12.2,86.4 12.7,85.9 14.6,84.5 15,84.3 14.1,85.3 11.8,86.8 				"/>
				<polyline class="st2" points="17.3,82.7 17.6,82.4 17.6,82.4 17.3,82.7 				"/>
				<polyline class="st3" points="17.3,82.7 17.6,82.4 17.3,82.7 				"/>
				<polyline class="st2" points="11.6,86.9 11.9,86.6 12.2,86.4 11.8,86.8 11.6,86.9 				"/>
				<polyline class="st2" points="11.8,86.7 11.9,86.6 11.8,86.7 				"/>
				<polyline class="st2" points="12,86.5 12.8,85.6 12.4,86.1 12,86.5 				"/>
				<polyline class="st3" points="17.6,82.4 17.8,82.2 17.6,82.4 				"/>
				<polyline class="st2" points="11.8,86.7 12,86.5 11.8,86.7 				"/>
				<polyline class="st2" points="11.9,86.6 12,86.5 12.4,86.1 12.7,85.9 12.2,86.4 12.7,85.9 12.2,86.4 11.9,86.6 				"/>
				<polyline class="st3" points="11.8,86.7 12,86.5 11.9,86.6 11.8,86.7 				"/>
				<polyline class="st3" points="12,86.5 12.4,86.1 12,86.5 				"/>
				<polyline class="st3" points="12.2,86.4 12.7,85.9 12.2,86.4 				"/>
				<polyline class="st2" points="12.4,86.1 12.8,85.6 13.1,85.4 12.4,86.1 				"/>
				<polyline class="st3" points="12.8,85.6 13.1,85.4 12.8,85.6 				"/>
				<polyline class="st3" points="12.4,86.1 12.8,85.6 12.4,86.1 				"/>
				<polyline class="st2" points="12.4,86.1 13.1,85.4 13.7,85.2 12.8,85.8 12.7,85.9 12.4,86.1 				"/>
				<polyline class="st3" points="12.4,86.1 13.1,85.4 12.4,86.1 				"/>
				<polyline class="st3" points="15.7,84.1 15.8,83.9 15.7,84.1 				"/>
				<polyline class="st2" points="15.8,83.9 15.9,83.8 16.7,83.3 15.8,83.9 				"/>
				<polyline class="st3" points="15.8,83.9 15.9,83.8 15.8,83.9 				"/>
				<polyline class="st3" points="15.9,83.8 16.7,83.3 15.9,83.8 				"/>
				<polyline class="st2" points="14.6,84.5 15.1,84.1 15,84.3 14.6,84.5 				"/>
				<polyline class="st2" points="12.7,85.9 12.8,85.8 14.6,84.5 12.7,85.9 				"/>
				<polyline class="st3" points="12.7,85.9 12.8,85.8 12.7,85.9 12.8,85.8 12.7,85.9 				"/>
				<polyline class="st4" points="12.7,85.9 12.8,85.8 12.7,85.9 				"/>
				<polyline class="st2" points="9.8,73.1 11.2,72.1 9.8,73.3 9.8,73.1 				"/>
				<polyline class="st2" points="10.1,72.4 11.6,71.7 9.9,72.8 10.1,72.4 				"/>
				<path class="st2" d="M9.5,70.5c0.9-1.2,1.7-2.2,2.8-2.9L11,69.1L11,69L9.5,70.5"/>
				<polyline class="st2" points="9.5,70.5 11,69 11,69.1 9.5,70.5 				"/>
				<polyline class="st3" points="9.5,70.5 11,69 9.5,70.5 				"/>
				<polyline class="st2" points="10.3,72 10.8,71.7 10.1,72.4 10.3,72 				"/>
				<polyline class="st2" points="7.9,75.6 8.4,75.1 7.9,75.6 				"/>
				<path class="st5" d="M-3.5,93.8l-0.2,0.5l-0.1,0.9c0.9-0.8,1.9-1.5,2.8-2.5l-0.4,0.2c1-1.1,1.9-1.7,2.8-2.6
					c-0.8,0.5-1.5,1.3-2.4,1.9C-1.8,92.8-2.6,93.4-3.5,93.8"/>
				<polyline class="st2" points="2.3,88.2 2.6,87.9 2.3,88.2 				"/>
				<polyline class="st2" points="-1,92.7 -0.5,92.2 -1,92.7 				"/>
				<polyline class="st2" points="1.9,88.6 2.3,88.2 1.9,88.6 				"/>
				<polyline class="st2" points="9.2,76.2 9.6,75.8 10.2,75.4 9.2,76.3 9.2,76.2 				"/>
				<polyline class="st2" points="9.1,76.2 9.6,75.8 9.2,76.2 9.1,76.2 				"/>
				<polyline class="st2" points="8.4,76 8.9,75.6 10.1,75 8.9,76 8.4,76 				"/>
				<polyline class="st2" points="8.4,75.9 8.9,75.6 8.4,76 8.4,75.9 				"/>
				<polyline class="st2" points="8.2,75.9 9.5,75.1 8.9,75.6 8.4,75.9 8.2,75.9 				"/>
				<path class="st5" d="M9.2,76.3l1-0.8l-0.6,0.3c0.8-0.8,1.6-1.9,2.5-2.7c-0.3,0.6-0.6,1.1-1,1.6c-0.6,0.9-1.3,1.7-2,2.5L9.2,76.3
					"/>
				<polyline class="st6" points="9.2,76.3 10.2,75.4 9.2,76.3 				"/>
				<path class="st2" d="M8.9,77.6c1.2-1.1,2.3-2.5,3.6-3c-0.1,0.1-0.1,0.2-0.2,0.3c-1.3,1.8-2.9,2.5-4.2,4.3L8,79.3
					c1-0.6,2.3-1.7,3.2-2.3c-1.3,1.1-2.6,2.1-4,3.1L8.9,77.6"/>
				<polyline class="st2" points="11.6,76.4 13.7,75.2 12.9,75.9 11.6,76.4 				"/>
				<polyline class="st2" points="15.9,73.2 16.2,73 16.3,72.9 15.9,73.2 				"/>
				<path class="st2" d="M14.4,74.4l0.4-0.3l1.1-0.9l0.2-0.2L14.4,74.4 M14.8,74.1l1.1-0.9L14.8,74.1"/>
				<path class="st2" d="M12.9,75.9l0.7-0.6l1.2-1.1l1.1-0.9l0.3-0.3L16.2,73l1.9-1.1l-1.5,1.8C15.4,74.2,14.1,75.2,12.9,75.9"/>
				<polyline class="st3" points="12.9,75.9 13.7,75.2 12.9,75.9 				"/>
				<polyline class="st3" points="15.9,73.2 16.3,72.9 15.9,73.2 				"/>
				<polyline class="st3" points="14.8,74.1 15.9,73.2 14.8,74.1 				"/>
				<polyline class="st3" points="14.8,74.1 15.9,73.2 14.8,74.1 				"/>
				<path class="st2" d="M17.2,73.3c0.8-0.8,1.6-1.6,2.4-2l-1.4,2.1L18.2,73L17.2,73.3"/>
				<polyline class="st2" points="24.2,49 25.1,48.5 25,48.8 24.2,49 				"/>
				<path class="st7" d="M41.2,25.5c2.6-0.7,4.9-1,7.2-1l-2.1,2.4c-2.4,2.5-5.4,4.5-6.7,3.4c-0.2-0.2-0.3-0.4-0.5-0.7
					C39.9,28.3,40.6,26.8,41.2,25.5"/>
				<path class="st2" d="M34,35.9l0.4-0.2c-0.3,0.7,0.1,1.1-0.7,2.2C33.5,37.4,33.8,36.6,34,35.9"/>
				<path class="st8" d="M35.9,32.3c1.1-0.3,1.9-1,2.6-2c0.2-0.2,0.3-0.5,0.5-0.7c0.1,0.3,0.3,0.5,0.5,0.7c1.3,1.1,4.4-0.9,6.7-3.4
					c-1.7,2-3.3,4-5,6.1L39.7,35c-1.5,2-3,4.1-4.4,6.2l0.5,0c0.4-0.5,0.8-0.9,1.1-1.4c0.4-0.5,0.7-0.9,1.1-1.4l0.3-0.4
					c0.6-0.9,1.3-1.7,1.9-2.5c0.7-0.8,1.4-1.5,2.1-2c-0.7,1.3-1.5,2.4-2.4,3.6c-0.6,0.8-1.2,1.5-1.8,2.3c-1.9,2.2-4.1,4-6.2,5.4
					c-0.7,0.5-1.6,1.4-2.4,2.4l1.1-1.4l-0.2-0.4l-2.3,1.3l0.5-0.5l1.6-1.7l1.4-1.6c0.3-0.3,0.6-0.7,0.8-1l0,0
					c0.8-1.1,1.4-2.4,2.2-3.7l-1.3,1.3c-0.3,0.1-0.5,0.2-0.6,0.1c-0.6-0.3,0.2-2.3,0.9-3.6l0.2-0.1c-0.2,0.7-0.5,1.5-0.2,1.9
					c0.7-1.1,0.4-1.4,0.7-2.2l0.7,0l1.3-0.9c0.2,1.1,1.5-1.1,2-0.5l2-1.7l0.2-1.5C38.8,32.1,36.9,33.2,35.9,32.3"/>
				<path class="st9" d="M39.5,30.3c1.3,1.1,4.4-0.9,6.7-3.4C43.9,29.4,40.8,31.3,39.5,30.3"/>
				<path class="st10" d="M34.4,35.7c-0.3,0.7,0.1,1.1-0.7,2.2C34.5,36.8,34.2,36.4,34.4,35.7"/>
				<path class="st2" d="M26.9,47.4l1.4-0.8l0.5-0.5l1.6-1.7l0-0.1l-1.5,1.4l1.4-1.8c-0.8,0.5-1.4,1.3-2.2,2.1L26.9,47.4 M28.7,46.2
					l1.6-1.7L28.7,46.2"/>
				<polyline class="st3" points="28.7,46.2 30.3,44.5 28.7,46.2 				"/>
				<polyline class="st2" points="34.1,35.6 34.4,35.7 34,35.9 34.1,35.6 				"/>
				<polyline class="st2" points="47.2,33.1 47.5,33.2 47.2,33.1 				"/>
				<path class="st11" d="M29.4,33.5c2.7-1.4,3.2,1.3,4.7,2.1L34,35.9L33.8,36c-0.7,1.3-1.5,3.3-0.9,3.6c0.1,0.1,0.3,0,0.6-0.1
					l1.3-1.3c-0.7,1.3-1.4,2.6-2.2,3.7c-0.3,0.4-0.5,0.7-0.8,1l-1.4,1.6l0-0.1l1.3-1.4c-1,0.6-1.9,1.7-2.8,2.8l1.4-1.8
					c-0.8,0.5-1.4,1.3-2.2,2.1l0-0.4L26.4,46l2-1.5l0.1-1c-1.2,0.2-2.6,0.4-4.2,1.3c2-1.3,4-1.9,6-4.2l-0.2-0.4l0.6-0.3
					C29.6,40,28.3,41,27.3,41L29,40c-0.5-0.2-1.4,0.3-1.9,0.3c1.5-0.8,2.9,0,4-1.5l0-0.1l0.1-0.1c1.9-2.6,0.4-3.7-1.5-3.5l0.6-0.4
					C30.8,33.6,29.6,34,29.4,33.5"/>
				<path class="st12" d="M32.9,39.6c0.1,0.1,0.3,0,0.6-0.1l1.3-1.3l-1.3,1.3C33.2,39.6,33,39.7,32.9,39.6"/>
				<path class="st12" d="M34.8,38.2c-0.7,1.3-1.4,2.6-2.2,3.7C33.4,40.8,34.1,39.5,34.8,38.2"/>
				<polyline class="st13" points="28.8,45.7 30.2,43.9 28.8,45.7 				"/>
				<polyline class="st13" points="30.3,44.3 30.3,44.5 30.3,44.3 				"/>
				<path class="st11" d="M27.4,49.8l-0.2,0.4l-0.1,0.6l0.5-0.5l-0.5,0.5l0.3,0.3l1.3-0.9l-0.6,0.6l1.2-0.7l-1.2,1.1l0.2,0.1
					l0.5-0.3c0.9-0.9,1.7-2,2.6-2.8c-0.3,0.5-0.6,0.9-0.9,1.4c-0.7,0.9-1.5,1.8-2.2,2.8l-0.2,0.4c1.2-1.1,2.4-2.4,3.6-3
					c-0.1,0.1-0.1,0.2-0.2,0.3c-1.3,1.8-2.9,2.5-4.2,4.2l-0.1,0.1c1-0.6,2.3-1.7,3.2-2.3c-1.3,1.1-2.7,2.1-4,3.1l-0.1,0.2
					c-1.4,1.6-2.7,3-4,4.4l2-1.6l-2,1.6c-2.1,2.2-4.1,4.3-6.3,6.3l2.1-1.3c-0.5,1.5-1.6,2.8-2.2,4c1.6-1.6,3.2-2.8,4.6-4.3
					c-1.4,1.6-3,2.8-4.6,4.3l-0.2,0.4c1.7-1,3.3-2.7,4.9-3.8c-0.9,0.9-1.9,1.5-2.8,2.7l0.4-0.2l0.4-0.5l-0.4,0.5
					c-0.9,1-1.8,1.8-2.7,2.6c-0.2,1.4-0.6,3-1.4,4.2l-0.4,0.6l1.2-1.1l-0.4,0.3l1.7-1.5l1.9-1.1l-1.5,1.8l0.7-0.3
					c0.8-0.8,1.6-1.6,2.4-2l-1.4,2.1L17.9,75l0.8,0.3C19.8,75,21,74,22,72.6l0.2-0.3L21.5,72l0.7-0.1l0.1-1.1l0.6-0.7
					c-0.1-0.7,0.2-1.3,0.7-1.9c0.4-0.6,1-1.2,1.5-1.7l-0.6,0.4c-0.1-0.5,0.1-0.8,0.3-1.2c0.4-0.5,1-0.9,1.4-1.3l1.1-0.7l0.1-0.1
					l0,0.1l0,0l1.2-1.3l0.8-0.6l0.5-0.3l-0.5,0.3L29,62l0.6-0.2l-0.8,0.7l1.8-1.3l0.6-0.5l-0.1,0.2l0.9-0.5l1.6-1.3l0.7-1.2l-0.5,1
					l-0.3,0.6l1.4-1.6l0.1,0.2c0.6-0.6,1.3-1.4,2-2.2l0.1-0.1l0.9-1.6l-0.7,1.4l0.4,0.2c0.6-0.8,1-1.9,1.6-2.7
					c0.2-0.2,0.3-0.4,0.5-0.6l-0.2,0.1l0.9-1.3c0.4-0.8,0.7-1.7,1-2.5l-0.7,0.4l0.7-0.4c1.1-2.9,1.9-5.7,1.9-8.1
					c-0.6,1.4-1.3,2.7-1.6,4c-0.8,1.8-1.7,3.4-2.9,5l-0.4,0.5l0.7-2.3L39,48.2l0.1-0.6l0,0.5c2-2.7,2.6-5.4,4.4-7.9l-0.1,0.6
					c0.8-1.6,1.7-3.2,2.5-4.8l0.2-2.4l-1.1,1.3l0.4-0.9c0-0.2,0.2-0.7,0.2-0.8c-0.1-0.2-0.6,0.3-2.7,3c-0.3,0.5-0.7,1-1,1.5
					c0.9-1.8,1.6-3.5,1.9-5.1l-1.2,0.8c-0.7,1.3-1.5,2.4-2.4,3.6c-0.6,0.8-1.2,1.5-1.8,2.3c-1.9,2.2-4.1,4-6.2,5.4
					c-0.7,0.5-1.6,1.4-2.4,2.4l-0.1,0.2l0.6-0.4l-0.7,0.6l1.5-0.7L29.2,48l-0.1,0.3l1.3-1L29,48.5l-0.1,0.5L27.4,49.8 M21,63.8
					c-1.2,1.1-2.5,1.8-3.9,3.3C18.5,65.6,19.8,64.9,21,63.8l0.5-0.4l0.3-0.3l-0.3,0.3L21,63.8L21,63.6l1.1-1.3L21,63.6L21,63.8
					 M26,56.6c-0.9,1.2-2.1,1.5-2.9,2.6C24,58.1,25.1,57.8,26,56.6 M26.8,55.6L26.8,55.6l0.8-0.9L26.8,55.6L26.8,55.6
					C25.9,56.5,25,57,24.1,58C25,57,25.9,56.5,26.8,55.6 M21.5,62.7l0.3-0.6L21.5,62.7 M40.5,40.2l1.2-2.5L40.5,40.2 M40.5,40.2
					l1.2-2.5L40.5,40.2 M40.5,40.2l-0.2,0.4L40.1,41l-0.2,0.4l-0.2,0.4l0,0l-0.2,0.4l-0.2,0.4l-0.2,0.4l-0.2,0.4l-0.2,0.4L38.6,44
					l-0.2,0.4l-0.2,0.4l-0.2,0.4L38,45.5l-0.2,0.4l-0.1,0.3c0.8-1.4,1.4-2.7,1.9-4l0.1-0.1l0-0.1l0.2-0.5l0-0.1l0.2-0.4l0.1-0.2
					L40.5,40.2 M44.9,34.9c-0.1,0.1-0.2,0.3-0.3,0.4l-0.2,0.3L44,35.9l-0.2,0.4l-0.3,0.4L43.4,37c-0.1,0.2-0.2,0.4-0.3,0.6l0,0
					L42.9,38l0.2-0.4L42.9,38l0.2-0.4l0,0c-0.1,0.1-0.1,0.3-0.2,0.4c0.1-0.2,0.1-0.3,0.2-0.5l0.2-0.3l0.3-0.4l0.1-0.1l0.3-0.4
					l0.2-0.2l0.2-0.3C44.5,35.5,44.7,35.2,44.9,34.9 M21.5,72l-0.1-0.1L21,72.2L21.5,72"/>
				<path class="st1" d="M40.5,40.2c-0.2,0.5-0.5,1-0.7,1.5l0.2-0.4l0.2-0.4l0.2-0.4L40.5,40.2"/>
				<polyline class="st1" points="40.3,40.7 40.2,40.9 40,41.3 40,41.4 40.3,40.7 				"/>
				<path class="st1" d="M39.7,41.8c-0.7,1.5-1.5,3-1.9,4.5l0.1-0.3l0.2-0.4l0.1-0.3l0.2-0.4l0.2-0.4l0.2-0.4l0.1-0.3l0.2-0.4
					l0.2-0.4l0.2-0.4l0.2-0.4L39.7,41.8"/>
				<polyline class="st1" points="39.8,41.9 39.7,42 39.7,42.2 39.8,41.9 				"/>
				<polyline class="st14" points="27.4,63.5 27.4,63.6 27.4,63.6 27.4,63.5 				"/>
				<polyline class="st13" points="40.6,49.3 41.3,48.9 40.6,49.3 				"/>
				<polyline class="st13" points="14.4,74.4 14.8,74.1 14.4,74.4 				"/>
				<polyline class="st13" points="16.5,73.6 18,71.9 16.5,73.6 				"/>
				<polyline class="st13" points="19.6,71.3 18.2,73.4 19.6,71.3 				"/>
				<polyline class="st15" points="40.5,40.2 40.2,40.6 40.1,41 39.9,41.4 39.7,41.7 39.9,41.4 40.1,41 40.2,40.6 40.5,40.2 				"/>
				<polyline class="st15" points="40.3,40.7 40.2,40.9 40,41.3 40,41.4 40,41.3 40.2,40.9 40.3,40.7 				"/>
				<polyline class="st15" points="39.7,41.8 39.5,42.1 39.3,42.5 39.1,42.9 38.9,43.3 38.8,43.7 38.6,44 38.5,44.4 38.3,44.8 
					38.1,45.2 38,45.5 37.8,45.9 37.8,46.2 37.8,45.9 38,45.5 38.1,45.2 38.3,44.8 38.5,44.4 38.6,44 38.8,43.7 38.9,43.3 
					39.1,42.9 39.3,42.5 39.5,42.1 39.7,41.8 				"/>
				<polyline class="st15" points="39.8,41.9 39.7,42 39.7,42.2 39.7,42 39.8,41.9 				"/>
				<polyline class="st15" points="41.7,37.7 40.5,40.2 41.7,37.7 				"/>
				<polyline class="st15" points="41.7,37.7 40.5,40.2 41.7,37.7 				"/>
				<path class="st12" d="M29.6,47.1c0.8-1,1.7-1.9,2.4-2.4c2.1-1.4,4.3-3.2,6.2-5.4c-1.9,2.2-4.1,4-6.2,5.4
					C31.3,45.2,30.5,46.1,29.6,47.1"/>
				<path class="st12" d="M42.5,33.4c-0.7,1.3-1.5,2.4-2.4,3.6C40.9,35.9,41.8,34.7,42.5,33.4"/>
				<path class="st1" d="M44,35.9l0.3-0.3C44,36,43.7,36.5,43.4,37l0.1-0.2l0.3-0.4L44,35.9"/>
				<polyline class="st1" points="44.3,35.8 44.1,36 44,36.3 44.3,35.8 				"/>
				<path class="st1" d="M43.7,36.7l-0.1,0.1l-0.3,0.4l-0.2,0.3C43.3,37.2,43.5,37,43.7,36.7"/>
				<polyline class="st1" points="43.1,37.6 43.1,37.6 43.1,37.6 43.1,37.6 				"/>
				<polyline class="st2" points="47,33.3 46.9,33.5 47,33.3 				"/>
				<path class="st7" d="M46,33.6c1.8-1.9,3.8-3.6,5.5-5.5l-0.4,1.7l0-0.2c-0.2,0.3-0.5,0.6-0.8,1c-0.1,0.2-0.3,0.4-0.5,0.6
					c-0.5,0.6-1,1.2-1.5,1.7l-0.8,0.4l0,0l-0.3-0.1l0.1-0.7L47,33.3l-0.1,0.2L45.8,36L46,33.6"/>
				<path class="st16" d="M50.3,30.5c0.3-0.4,0.6-0.7,0.8-1C50.9,29.8,50.6,30.1,50.3,30.5c-0.1,0.2-0.3,0.4-0.5,0.6
					C50,30.9,50.2,30.7,50.3,30.5"/>
				<polyline class="st16" points="51.1,29.5 51.1,29.7 51.1,29.5 				"/>
				<polyline class="st17" points="47.2,33.1 47.5,33.2 47.5,33.2 47.2,33.1 				"/>
				<polyline class="st16" points="46,33.6 45.8,36 46,33.6 				"/>
				<path class="st7" d="M43.7,31.3c1-1.2,2.5-2.6,3.7-3.8c-0.1,1.7-0.9,4.1-1.4,6.1l-1.1,1.3l0.4-0.9c0-0.2,0.2-0.7,0.2-0.8
					c-0.1-0.2-0.6,0.3-2.7,3c-0.3,0.5-0.7,1-1,1.5c0.9-1.8,1.6-3.5,1.9-5.1l-1.2,0.8l0.4-0.8c0.1-0.3,0.3-0.7,0.6-1
					C43.5,31.5,43.6,31.4,43.7,31.3"/>
				<path class="st16" d="M43.6,32.6c-0.3,1.6-1.1,3.3-1.9,5.1C42.5,35.9,43.3,34.2,43.6,32.6"/>
				<path class="st16" d="M45.4,33.2c0.1,0.1-0.2,0.6-0.2,0.8l-0.4,0.9l0.4-0.9C45.3,33.8,45.5,33.3,45.4,33.2"/>
				<path class="st18" d="M39.7,35l1.6-2.1c1.6-2,3.3-4.1,5-6.1c0.6-0.6,1.1-1.1,1.6-1.8c0.2-0.2,0.3-0.4,0.5-0.6
					c0.3,0,0.5,0,0.7,0.1l-0.1,0.2c0.5-0.3,1.1-0.5,1.7-0.5c0.3,0,0.5,0,0.8,0.1c0.1,0,0.3,0.1,0.4,0.1c0.1,0,0.3,0.2,0.2,0.1
					c0.3,0.2,0.3,0.1,0.3,0.2c0,0,0.1,0.1,0.1,0.2c0.1,0.1,0.1,0.3,0.2,0.4l-0.6,1.5l-0.4,1.2c-1.7,2-3.7,3.6-5.5,5.5
					c0.5-2,1.4-4.4,1.4-6.1c-1.2,1.1-2.7,2.5-3.7,3.8l0,0c-0.1,0.1-0.2,0.2-0.3,0.4c-0.3,0.4-0.5,0.7-0.6,1l-0.4,0.8
					c-0.8,0.6-1.5,1.3-2.1,2c-0.7,0.8-1.3,1.6-1.9,2.5l-0.3,0.4c-0.3,0.5-0.7,0.9-1.1,1.4c-0.4,0.5-0.7,1-1.1,1.4l-0.5,0
					C36.7,39.1,38.2,37.1,39.7,35"/>
				<path class="st13" d="M39.7,35c-1.5,2-3,4.1-4.4,6.2C36.7,39.1,38.2,37.1,39.7,35"/>
				<path class="st13" d="M41.3,33c1.6-2,3.3-4.1,5-6.1C44.6,28.9,42.9,30.9,41.3,33"/>
				<path class="st13" d="M37,39.8c0.4-0.5,0.7-0.9,1.1-1.4l0.3-0.4c0.6-0.9,1.3-1.7,1.9-2.5c-0.7,0.8-1.3,1.6-1.9,2.5l-0.3,0.4
					C37.7,38.9,37.4,39.3,37,39.8"/>
				<path class="st19" d="M43.7,31.3L43.7,31.3c-0.1,0.1-0.2,0.2-0.3,0.4C43.5,31.5,43.6,31.4,43.7,31.3"/>
				<path class="st19" d="M47.4,27.5c-0.1,1.7-0.9,4.1-1.4,6.1C46.5,31.6,47.3,29.2,47.4,27.5"/>
				<path class="st2" d="M46.2,26.9l2.1-2.4c-0.2,0.2-0.3,0.4-0.5,0.6C47.4,25.8,46.8,26.3,46.2,26.9"/>
				<polyline class="st17" points="46.2,26.9 48.3,24.5 46.2,26.9 				"/>
			</g>
		</g>
	</g>
</g>
<g>
	<g>
		<g>
			<g class="st0">
				<path class="st1" d="M53.1,19.2c0.6-1,1.2-2.1,1.9-3.2c-0.1-0.5-0.1-0.9-0.2-1.4c0.2,0.4,0.4,0.7,0.6,1.1
					c0.2,0.4,0.4,0.8,0.5,1.2c0.4,0.9,0.8,1.7,1,2.3l0.1,0.2l0.1,0.3l0.3,0.6l0.5,1.1c0.6,1.5,1.1,3,1.3,4.3c-0.3-0.6-0.7-1.4-1.1-2
					c-0.1-0.2-0.3-0.4-0.4-0.7c-0.3-0.4-0.5-0.8-0.7-1.1l0.2,0.1l-1.5-1l-0.4-0.6l-0.4-0.6l0.4,0.6l0.4,0.6
					c-0.5-0.4-0.8-0.5-1.2-0.9L53.1,19.2"/>
				<path class="st1" d="M78.7,57.6L78.7,57.6l0.4,0.1c1,1.2,1.9,2.4,2.9,3.4c1.1,1.3,2.1,2.8,2.9,4.5c0,0,0,0,0,0
					c0,0.1,0,0.1,0.1,0.2c-0.1,0-0.2,0-0.3-0.1l-0.1,0.1c-0.1,0-0.2-0.2-0.3-0.2L83.7,65l-0.1-0.2C82.2,62,80.2,60.1,78.7,57.6"/>
				<path class="st2" d="M87,64.6c0,0,0.1,0,0.1,0l0.1,0l0,0c0,0,0,0,0.2,0.1c0.5,0.7,1,1.4,1.4,2.1c0.2,0.4,0.4,0.7,0.5,1.1
					c0.2,0.5,0.1,0.2,0.2,0.4c0.4,0.6,0.9,1.3,1.3,1.9l-0.4,0.2c-0.2-0.4-0.5-0.7-0.7-1.1l-0.4-0.6l-0.2-0.3c0,0,0-0.1,0-0.1
					c0,0,0,0.1,0,0l-0.3-0.7c-0.4-1-0.9-1.9-1.6-2.9c0.1,0.2,0.3,0.5,0.4,0.7C86.8,64.3,87.1,64.7,87,64.6C87,64.6,87,64.6,87,64.6"
					/>
				<polyline class="st2" points="89.2,69.5 90,70.6 90,70.8 89.2,69.5 				"/>
				<polyline class="st2" points="70.7,61.3 70.6,60.9 70.8,61.4 70.7,61.3 				"/>
				<polyline class="st2" points="74.2,76.9 74.1,76.1 74.2,76.9 				"/>
				<polyline class="st2" points="74.1,76.1 74.1,76 74.1,76.1 				"/>
				<polyline class="st2" points="91.3,79.6 91.3,79 91.3,79.6 				"/>
				<polyline class="st2" points="76.6,79.6 76.6,79.3 76.6,79.6 				"/>
				<polyline class="st2" points="71.3,38.6 71.3,37.3 71.3,38.6 				"/>
				<polyline class="st2" points="70.6,60.9 70.6,60 70.6,60.9 				"/>
				<polyline class="st2" points="91.7,77.9 91.5,77.2 91.7,77.8 91.7,77.9 				"/>
				<polyline class="st2" points="91.4,80.5 91.3,79.6 91.4,80.2 91.4,80.5 				"/>
				<polyline class="st2" points="90.2,73.9 90.9,74.8 91,75 90.9,74.8 91,75 90.9,75 90.2,73.9 				"/>
				<path class="st2" d="M91.8,79.3l-0.1-1.4l-0.2-0.7l0.2,0.6c-0.2-1.4-0.4-2.8-0.9-4.3l-0.3-0.1c0.2,0.6,0.5,1.3,0.7,1.9l-0.4-0.5
					l0,0.2l0.1,0.4L90.9,75l0.4,2.1l0-0.9l0.1,1.1l-0.1-0.2l0,1L91.8,79.3 M91.4,77.2l0.1,0.2L91.4,77.2"/>
				<polyline class="st3" points="91.7,77.8 91.5,77.2 91.7,77.8 				"/>
				<polyline class="st3" points="91,75 90.9,74.8 91,75 				"/>
				<polyline class="st2" points="92,81.9 91.9,81.4 91.7,80.7 91.4,78.5 91.4,78 91.8,79.3 92,81.9 				"/>
				<polyline class="st2" points="91.1,75.4 90.9,75 91,75 91.1,75.4 				"/>
				<polyline class="st3" points="91.1,75.4 90.9,75 91.1,75.4 				"/>
				<polyline class="st2" points="92.1,82.1 91.9,81.7 91.9,81.4 92,81.9 92.1,82.1 				"/>
				<polyline class="st2" points="91.9,81.8 91.9,81.7 91.9,81.8 				"/>
				<polyline class="st2" points="91.8,81.6 91.4,80.5 91.7,81 91.8,81.6 				"/>
				<polyline class="st3" points="91,75 90.9,74.8 91,75 				"/>
				<polyline class="st2" points="91.9,81.8 91.8,81.6 91.9,81.8 				"/>
				<polyline class="st2" points="91.9,81.7 91.8,81.6 91.7,81 91.7,80.7 91.9,81.4 91.7,80.7 91.9,81.4 91.9,81.7 				"/>
				<polyline class="st3" points="91.9,81.8 91.8,81.6 91.9,81.7 91.9,81.8 				"/>
				<polyline class="st3" points="91.8,81.6 91.7,81 91.8,81.6 				"/>
				<polyline class="st3" points="91.9,81.4 91.7,80.7 91.9,81.4 				"/>
				<polyline class="st2" points="91.7,81 91.4,80.5 91.4,80.2 91.7,81 				"/>
				<polyline class="st3" points="91.4,80.5 91.4,80.2 91.4,80.5 				"/>
				<polyline class="st3" points="91.7,81 91.4,80.5 91.7,81 				"/>
				<polyline class="st2" points="91.7,81 91.4,80.2 91.5,79.6 91.6,80.6 91.7,80.7 91.7,81 				"/>
				<polyline class="st3" points="91.7,81 91.4,80.2 91.7,81 				"/>
				<polyline class="st3" points="91.5,77.4 91.4,77.2 91.5,77.4 				"/>
				<polyline class="st2" points="91.4,77.2 91.3,77.1 91.3,76.2 91.4,77.2 				"/>
				<polyline class="st3" points="91.4,77.2 91.3,77.1 91.4,77.2 				"/>
				<polyline class="st3" points="91.3,77.1 91.3,76.2 91.3,77.1 				"/>
				<polyline class="st2" points="91.4,78.5 91.2,77.9 91.4,78 91.4,78.5 				"/>
				<polyline class="st2" points="91.7,80.7 91.6,80.6 91.4,78.5 91.7,80.7 				"/>
				<polyline class="st3" points="91.7,80.7 91.6,80.6 91.7,80.7 91.6,80.6 91.7,80.7 				"/>
				<polyline class="st4" points="91.7,80.7 91.6,80.6 91.7,80.7 				"/>
				<polyline class="st2" points="79.1,77.3 78.9,75.6 79.2,77.5 79.1,77.3 				"/>
				<polyline class="st2" points="78.6,76.7 78.7,75 78.9,77.1 78.6,76.7 				"/>
				<path class="st2" d="M76.7,76.2c-0.3-0.7-0.6-1.4-0.8-2.1l-0.1-0.5l-0.1-0.2l0,0l0,0l0,0l0,0c-0.1,0,0.9-0.3,0.5-0.2l0,0l0,0
					l0-0.1c0,0,0,0,0.1,0c0.2-0.1,0.3-0.2,0.5-0.2c-0.1,0.1-0.3,0.2-0.5,0.3c0,0,0,0.1,0,0.1l0,0l0,0l0,0l0,0
					c-0.6,0.2-0.2,0.1-0.3,0.1l0,0l0,0l0,0l0,0.1l0.1,0.2l0.2,0.5l0-0.1L76.7,76.2"/>
				<polyline class="st2" points="76.7,76.2 76.1,74.1 76.2,74.2 76.7,76.2 				"/>
				<polyline class="st3" points="76.7,76.2 76.1,74.1 76.7,76.2 				"/>
				<polyline class="st2" points="78.4,76.3 78.4,75.7 78.6,76.7 78.4,76.3 				"/>
				<polyline class="st2" points="80.4,80.3 80.2,79.6 80.4,80.3 				"/>
				<path class="st5" d="M91.9,98.4c0.1,0.2,0.2,0.3,0.4,0.4c0.2,0.1,0.4,0.2,0.5,0.2c0.1-0.1,0.1-0.4,0-0.6c-0.1-0.3-0.2-0.6-0.2-1
					c-0.1-0.6-0.3-1.1-0.5-1.7l0,0.5c-0.6-1.3-0.7-2.4-1.2-3.6c0.4,1.6,1.1,3.5,1.1,5.2C91.9,97.9,91.9,98.1,91.9,98.4"/>
				<polyline class="st2" points="89.2,90.8 89,90.5 89.2,90.8 				"/>
				<polyline class="st2" points="92,95.6 91.7,95.1 92,95.6 				"/>
				<polyline class="st2" points="89.4,91.5 89.2,90.8 89.4,91.5 				"/>
				<polyline class="st2" points="81.5,79.5 81.3,78.9 81.3,78.2 81.6,79.4 81.5,79.5 				"/>
				<polyline class="st2" points="81.4,79.5 81.3,78.9 81.5,79.5 81.4,79.5 				"/>
				<polyline class="st2" points="80.9,80 80.9,79.4 80.9,78.1 81.2,79.6 80.9,80 				"/>
				<polyline class="st2" points="80.9,80 80.9,79.4 80.9,80 80.9,80 				"/>
				<polyline class="st2" points="80.8,80.2 80.7,78.6 80.9,79.4 80.9,80 80.8,80.2 				"/>
				<path class="st5" d="M81.6,79.4l-0.3-1.3l0,0.7c-0.4-1.1-0.9-2.4-1.1-3.6c0.3,0.5,0.6,1.1,0.9,1.7c0.4,1,0.8,2,1.2,2.9
					L81.6,79.4"/>
				<polyline class="st6" points="81.6,79.4 81.3,78.2 81.6,79.4 				"/>
				<path class="st2" d="M82.7,80.3c-0.4-1.5-1-3.2-0.9-4.5c0,0.1,0.1,0.2,0.1,0.3c0.9,2,0.8,3.7,1.7,5.7l0.1,0.2
					c-0.1-1.1-0.5-2.8-0.5-3.9c0.4,1.7,0.6,3.3,0.8,4.9L82.7,80.3"/>
				<polyline class="st2" points="82.9,77.4 82.9,75.1 83.1,76 82.9,77.4 				"/>
				<polyline class="st2" points="82.3,72.2 82.2,71.9 82.2,71.8 82.3,72.2 				"/>
				<path class="st2" d="M82.6,74.1l-0.1-0.5l-0.2-1.3l-0.1-0.3L82.6,74.1 M82.5,73.5l-0.2-1.3L82.5,73.5"/>
				<path class="st2" d="M83.1,76l-0.2-0.9l-0.4-1.5l-0.2-1.3l-0.1-0.4l0,0.1l0-1c0,0,0-0.2,0-0.3c0-0.1,0-0.3-0.1-0.4
					c-0.1-0.3-0.1-0.6-0.3-0.9c0.2,0.3,0.3,0.6,0.5,0.9c0.1,0.2,0.1,0.3,0.2,0.5c0,0.1,0,0.1,0,0.1l0,0.1l0.4,1
					C82.9,73.2,83,74.6,83.1,76"/>
				<polyline class="st3" points="83.1,76 82.9,75.1 83.1,76 				"/>
				<polyline class="st3" points="82.3,72.2 82.2,71.8 82.3,72.2 				"/>
				<polyline class="st3" points="82.5,73.5 82.3,72.2 82.5,73.5 				"/>
				<polyline class="st3" points="82.5,73.5 82.3,72.2 82.5,73.5 				"/>
				<path class="st2" d="M83.1,71.3c-0.1-0.3-0.2-0.5-0.2-0.8c-0.1-0.5-0.3-1-0.5-1.4c-0.1-0.2-0.3-0.5-0.3-0.6L82,68.2
					c0-0.2,0-0.3,0-0.5c0.1,0.1,0.1,0.2,0.2,0.3l0.1,0.1c0,0,0,0,0.1,0.1c0,0,0.1,0.2,0.2,0.2c0.3,0.4,0.5,0.7,0.7,1.1
					c0.1,0.2,0.2,0.4,0.3,0.6l0,0.1l0,0l0.1,0.1l-0.2-0.1c0,0-0.1,0-0.1,0c0,0-0.1-0.1-0.1-0.1L83.1,71.3"/>
				<polyline class="st2" points="64.2,54.2 64.1,53.2 64.4,53.4 64.2,54.2 				"/>
				<path class="st7" d="M49.7,30c0.3-2.6,0.8-4.8,1.4-6.9c0.6,0.9,1.1,1.8,1.6,2.7c1.5,3,2.2,6.5,0.8,7.3c-0.2,0.1-0.5,0.2-0.8,0.2
					C51.9,32,50.7,30.9,49.7,30"/>
				<path class="st2" d="M56.6,40.1l0-0.5c0.5,0.5,1,0.4,1.7,1.4C57.7,41.2,57.1,40.6,56.6,40.1"/>
				<path class="st8" d="M54.1,37.1c0.2-1.1-0.2-2.1-0.8-3.1c-0.1-0.2-0.3-0.5-0.5-0.7c0.3,0,0.6-0.1,0.8-0.2
					c1.5-0.8,0.8-4.3-0.8-7.3c1.3,2.2,2.6,4.4,3.9,6.6l1.3,2.2c1.3,2.1,2.6,4.3,3.9,6.4l0.2-0.5c-0.3-0.5-0.5-1.1-0.8-1.6
					c-0.3-0.5-0.6-1-0.9-1.5l-0.3-0.5c-0.5-0.9-1.1-1.8-1.5-2.8c-0.5-0.9-0.8-1.8-1.1-2.7c0.9,1.1,1.7,2.3,2.5,3.5
					c0.5,0.8,0.9,1.7,1.3,2.6c1.2,2.6,2,5.3,2.4,7.8c0.1,0.9,0.6,2,1.1,3.2L64.1,47l-0.5,0l0.2,2.6L63.6,49l-0.8-2.1L62,44.9
					c-0.2-0.4-0.3-0.8-0.6-1.2l0,0c-0.7-1.2-1.6-2.2-2.5-3.4l0.7,1.7c0,0.3,0,0.5-0.2,0.6c-0.5,0.4-2-1.1-2.9-2.2l0-0.2
					c0.6,0.5,1.1,1,1.6,1c-0.7-1.1-1.1-0.9-1.7-1.4l0.3-0.7l-0.3-1.5c1.1,0.2-0.4-1.8,0.3-2L56,33.1l-1.3-0.8
					C55,34.4,55.2,36.5,54.1,37.1"/>
				<path class="st9" d="M53.6,33.1c1.5-0.8,0.8-4.3-0.8-7.3C54.4,28.7,55,32.2,53.6,33.1"/>
				<path class="st10" d="M56.5,39.7c0.5,0.5,1,0.4,1.7,1.4C57.5,40,57.1,40.2,56.5,39.7"/>
				<path class="st2" d="M64,51.2l-0.2-1.6L63.6,49l-0.8-2.1l-0.1,0l0.6,1.9l-1-1.9c0.1,0.9,0.6,1.8,1,2.8L64,51.2 M63.6,49
					l-0.8-2.1L63.6,49"/>
				<polyline class="st3" points="63.6,49 62.8,46.9 63.6,49 				"/>
				<polyline class="st2" points="56.3,39.9 56.5,39.7 56.6,40.1 56.3,39.9 				"/>
				<polyline class="st2" points="59,26.9 59.2,26.7 59,26.9 				"/>
				<path class="st11" d="M52.5,43.4c-0.1-3,2.5-2.4,3.8-3.5l0.2,0.2l0,0.2c0.9,1.2,2.4,2.6,2.9,2.2c0.1-0.1,0.2-0.3,0.2-0.6
					L59,40.3c0.9,1.2,1.8,2.3,2.5,3.4c0.2,0.4,0.4,0.8,0.6,1.2l0.8,1.9l-0.1,0l-0.7-1.7c0.1,1.2,0.7,2.4,1.3,3.6l-1-1.9
					c0.1,0.9,0.6,1.8,1,2.8l-0.4-0.2L62.5,51L62,48.6l-0.8-0.5c-0.3,1.1-0.8,2.5-0.6,4.3c-0.3-2.3,0-4.3-1.2-7.1l-0.5,0l0-0.7
					c-0.4,1,0,2.6-0.4,3.5l-0.2-2c-0.4,0.4-0.3,1.4-0.6,1.9c-0.1-1.7,1.2-2.7,0.3-4.2l0-0.1l-0.1-0.1c-1.6-2.8-3.2-1.8-3.7,0L54,43
					C53.2,42.2,53.1,43.4,52.5,43.4"/>
				<path class="st12" d="M59.5,42.6c0.1-0.1,0.2-0.3,0.2-0.6L59,40.3l0.7,1.7C59.6,42.3,59.6,42.5,59.5,42.6"/>
				<path class="st12" d="M59,40.3c0.9,1.2,1.8,2.3,2.5,3.4C60.8,42.6,59.9,41.5,59,40.3"/>
				<polyline class="st13" points="63.2,48.7 62.2,46.8 63.2,48.7 				"/>
				<polyline class="st13" points="62.6,46.8 62.8,46.9 62.6,46.8 				"/>
				<path class="st11" d="M66.3,51.7l0.3,0.3l0.5,0.3l-0.2-0.6l0.2,0.6l0.4-0.1l-0.2-1.5l0.3,0.8l-0.1-1.4l0.4,1.5l0.2-0.1L68,51
					c-0.4-1.2-1.1-2.4-1.4-3.5c0.3,0.4,0.6,0.9,0.9,1.4c0.5,1,1,2.1,1.6,3.1l0.3,0.3c-0.5-1.5-1.2-3.2-1.2-4.5
					c0.1,0.1,0.1,0.2,0.2,0.3c1,1.9,1,3.6,2,5.6l0.1,0.2c-0.1-1.1-0.6-2.8-0.7-3.9c0.4,1.7,0.7,3.3,1,4.9l0.1,0.2
					c0.8,1.9,1.5,3.7,2.2,5.5L72.6,58l0.5,2.4c1,2.9,1.9,5.6,2.7,8.4l-0.2-2.5c0.9,0.9,1.5,2.1,2.2,3.3c0.1,0.2,0.2,0.4,0.4,0.6
					c-0.1-0.2-0.1-0.4-0.2-0.7c-0.6-1.9-0.9-3.6-1.6-5.4c0.7,1.8,1,3.5,1.6,5.4c0.1,0.2,0.1,0.4,0.2,0.7c0.1,0.1,0.2,0.2,0.3,0.3
					c-0.1-0.4-0.1-0.8-0.2-1.2c-0.2-1.6-0.8-3.4-1-4.9c0.4,1.2,0.5,2.3,1.1,3.7l0-0.5l-0.2-0.6l0.2,0.6c0.2,0.5,0.4,0.9,0.5,1.3
					c0.1,0.4,0.2,0.7,0.3,1.1c0.2,0.3,0.3,0.6,0.4,1c1.1,0.9,2.3,2,2.9,3.3l0.3,0.7l-0.4-1.5l0.1,0.5l-0.4-2.2l0-1c0,0,0-0.2,0-0.3
					c0-0.1,0-0.3-0.1-0.4c-0.1-0.3-0.1-0.6-0.3-0.9c0.2,0.3,0.3,0.6,0.5,0.9c0.1,0.2,0.1,0.3,0.2,0.5c0,0.1,0,0.1,0,0.1l0,0.1l0.4,1
					l0.1-0.7c-0.1-0.3-0.2-0.5-0.2-0.8c-0.1-0.5-0.3-1-0.5-1.4c-0.1-0.2-0.3-0.5-0.3-0.6L82,68.2c0-0.2,0-0.3,0-0.5
					c0.1,0.1,0.1,0.2,0.2,0.3l0.1,0.1c0,0,0,0,0.1,0.1c0,0,0.1,0.2,0.2,0.2c0.3,0.4,0.5,0.7,0.7,1.1c0.1,0.2,0.2,0.4,0.3,0.6l0,0.1
					l0,0l0.1,0.1l1.2,1l0.7-0.5c0.1-0.2,0.1-0.5,0.1-0.8c0-0.1,0-0.3,0-0.4c0-0.1,0-0.2,0-0.2c0,0.1,0-0.1,0-0.2L85.6,69
					c-0.1-0.4-0.3-0.9-0.6-1.4c-0.1-0.2-0.3-0.5-0.4-0.7l-0.2-0.3l0-0.1c-0.1-0.1-0.1-0.3-0.2-0.4l0-0.1l0,0l-0.6,0.3l-0.1,0.1l0,0
					c0.1-0.1,0.3-0.2,0.4-0.4l-0.9-0.6l-0.3-0.9c-0.6-0.3-1.1-0.8-1.4-1.5c-0.3-0.7-0.6-1.4-0.9-2.1l0.1,0.7
					c-0.4-0.2-0.7-0.5-0.9-0.9c-0.3-0.6-0.4-1.3-0.6-1.9l-0.2-1.3l-0.1-0.1l0.1,0l0,0L78,55.8l-0.2-1l0-0.6l0,0.6l0.2,0.6l0-0.6
					l0.3,1l-0.4-2.2L77.7,53l0.1,0.2l-0.1-1l-0.5-2L76.5,49l0.7,0.9l0.4,0.5l-0.9-1.9l0.3,0c-0.3-0.8-0.7-1.8-1.1-2.7l-0.1-0.1
					l-1-1.5l1,1.2l0.3-0.3c-0.5-0.9-1.3-1.7-1.8-2.7c-0.1-0.2-0.2-0.5-0.3-0.7l0,0.2l-0.8-1.4c-0.6-0.7-1.2-1.3-1.8-2l0,0.8l0-0.8
					c-2.2-2.3-4.5-4.1-6.7-5.1c1,1.1,2,2.3,3,3.1c1.3,1.4,2.5,3,3.4,4.7l0.3,0.6l-1.8-1.5l0.1,0.1l-0.5-0.3l0.5,0.2
					c-1.7-2.9-3.9-4.6-5.5-7.2l0.5,0.3l-3.5-4.2l-2.1-1l0.8,1.5l-0.7-0.7c-0.1-0.1-0.5-0.5-0.7-0.4c-0.2,0,0.1,0.7,1.8,3.7l1,1.5
					c-1.4-1.5-2.7-2.8-4.1-3.7l0.4,1.4c0.9,1.1,1.7,2.3,2.5,3.5c0.5,0.8,0.9,1.7,1.3,2.6c1.2,2.6,2,5.3,2.4,7.8
					c0.1,0.9,0.6,2,1.1,3.2l0.1,0.2l-0.1-0.7l0.3,0.9l0-1.7l0.3,2l0.2,0.2l-0.3-1.6l0.5,1.8l0.4,0.3L66.3,51.7 M76.1,63.4
					c0.4,1.6,0.5,3,1.2,4.9C76.5,66.4,76.4,64.9,76.1,63.4l-0.1-0.6l-0.1-0.4l0.1,0.4L76.1,63.4l-0.2,0l-0.6-1.6l0.6,1.6L76.1,63.4
					 M71.9,55.8c0.6,1.3,0.4,2.5,1,3.7C72.3,58.3,72.5,57.1,71.9,55.8 M71.3,54.7L71.3,54.7l-0.5-1.1L71.3,54.7L71.3,54.7
					c0.4,1.2,0.5,2.2,1,3.4C71.8,56.9,71.7,55.9,71.3,54.7 M75.3,62.5L74.9,62L75.3,62.5 M63.1,35.9l-1.8-2.1L63.1,35.9 M63.1,35.9
					l-1.8-2.1L63.1,35.9 M63.1,35.9l0.3,0.3l0.3,0.3l0.3,0.3l0.3,0.3l0,0l0.2,0.3l0.3,0.3l0.3,0.3l0.3,0.3l0.3,0.3l0.2,0.2l0.3,0.3
					l0.3,0.3l0.3,0.3l0.2,0.2l0.3,0.3l0.3,0.2c-0.9-1.3-1.9-2.4-2.9-3.4l-0.1-0.1l-0.1-0.1L64,36.8l-0.1-0.1l-0.3-0.3l-0.2-0.2
					L63.1,35.9 M59.8,29.8c0.1,0.2,0.2,0.3,0.3,0.5l0.2,0.3l0.2,0.4l0.3,0.3l0.3,0.4l0.2,0.2c0.1,0.2,0.3,0.3,0.5,0.5l0,0l0.3,0.3
					l-0.3-0.3l0.3,0.3l-0.3-0.3l0,0c0.1,0.1,0.2,0.2,0.3,0.3c-0.1-0.1-0.3-0.3-0.4-0.4l-0.2-0.2l-0.3-0.4L61,31.5l-0.3-0.4l-0.1-0.2
					l-0.2-0.2C60.2,30.3,60,30,59.8,29.8 M83.5,66.5l-0.1,0.1l0,0.3L83.5,66.5"/>
				<polyline class="st1" points="63.1,35.9 64.1,37.2 63.9,36.9 63.6,36.5 63.3,36.2 63.1,35.9 				"/>
				<polyline class="st1" points="63.4,36.3 63.6,36.4 63.9,36.7 64,36.8 63.4,36.3 				"/>
				<path class="st1" d="M64.2,37.2c1.1,1.3,2.2,2.6,3.3,3.5l-0.3-0.2l-0.3-0.3L66.6,40l-0.3-0.3L66,39.4l-0.3-0.3l-0.2-0.2
					l-0.3-0.3L65,38.2l-0.3-0.3l-0.3-0.3L64.2,37.2"/>
				<polyline class="st1" points="64.3,37.2 64.4,37.3 64.5,37.4 64.3,37.2 				"/>
				<polyline class="st14" points="78.7,57.5 78.7,57.5 78.7,57.6 78.7,57.5 				"/>
				<polyline class="st13" points="71.4,39.4 71.3,38.6 71.4,39.4 				"/>
				<polyline class="st13" points="82.6,74.1 82.5,73.5 82.6,74.1 				"/>
				<path class="st13" d="M83,71.9l-0.4-1l0-0.1c0-0.1,0,0,0-0.1c-0.1-0.2-0.1-0.3-0.2-0.5c-0.1-0.3-0.3-0.6-0.5-0.9
					c0.2,0.3,0.3,0.6,0.5,0.9c0.1,0.2,0.1,0.3,0.2,0.5c0,0.1,0,0.1,0,0.1l0,0.1L83,71.9"/>
				<path class="st13" d="M81.9,67.7c0.1,0.1,0.1,0.2,0.2,0.3l0.1,0.1c0,0,0,0,0.1,0.1c0,0,0.1,0.2,0.2,0.2c0.3,0.4,0.5,0.7,0.7,1.1
					c0.1,0.2,0.2,0.4,0.3,0.6l0,0.1l0,0l0.1,0.1l-0.1-0.1l0,0l0-0.1c-0.1-0.2-0.2-0.4-0.3-0.6c-0.2-0.4-0.4-0.8-0.7-1.1
					c-0.1-0.1-0.2-0.2-0.2-0.2c0,0-0.1-0.1-0.1-0.1l-0.1-0.1C82.1,68,82,67.9,81.9,67.7"/>
				<polyline class="st15" points="63.1,35.9 63.3,36.2 63.6,36.5 63.9,36.9 64.1,37.2 63.9,36.9 63.6,36.5 63.3,36.2 63.1,35.9 
									"/>
				<polyline class="st15" points="63.4,36.3 63.6,36.4 63.9,36.7 64,36.8 63.9,36.7 63.6,36.4 63.4,36.3 				"/>
				<polyline class="st15" points="64.2,37.2 64.4,37.5 64.7,37.9 65,38.2 65.2,38.5 65.5,38.8 65.7,39.1 66,39.4 66.3,39.7 
					66.6,40 66.9,40.2 67.2,40.6 67.4,40.8 67.2,40.6 66.9,40.2 66.6,40 66.3,39.7 66,39.4 65.7,39.1 65.5,38.8 65.2,38.5 65,38.2 
					64.7,37.9 64.4,37.5 64.2,37.2 				"/>
				<polyline class="st15" points="64.3,37.2 64.4,37.3 64.5,37.4 64.4,37.3 64.3,37.2 				"/>
				<polyline class="st15" points="61.2,33.8 63.1,35.9 61.2,33.8 				"/>
				<polyline class="st15" points="61.2,33.8 63.1,35.9 61.2,33.8 				"/>
				<path class="st12" d="M64.9,48.5c-0.5-1.1-1-2.3-1.1-3.2c-0.3-2.5-1.2-5.2-2.4-7.8c1.2,2.6,2,5.3,2.4,7.8
					C63.9,46.2,64.3,47.4,64.9,48.5"/>
				<path class="st12" d="M57.6,31.5c0.9,1.1,1.7,2.3,2.5,3.5C59.3,33.8,58.5,32.6,57.6,31.5"/>
				<path class="st1" d="M60.5,31l-0.2-0.4c0.3,0.4,0.6,0.9,1,1.3l-0.2-0.2l-0.3-0.4L60.5,31"/>
				<polyline class="st1" points="60.4,30.6 60.6,30.9 60.8,31.1 60.4,30.6 				"/>
				<path class="st1" d="M61,31.5l0.1,0.1l0.3,0.4l0.2,0.2C61.4,32.1,61.2,31.8,61,31.5"/>
				<polyline class="st1" points="61.7,32.4 61.7,32.4 61.7,32.4 61.7,32.4 				"/>
				<polyline class="st2" points="59.1,27.2 59.2,27.4 59.1,27.2 				"/>
				<path class="st7" d="M59,28.3c-1.2-2.4-2.1-4.8-3.5-7.2l1.5,1l-0.2-0.1c0.2,0.3,0.4,0.7,0.7,1.1c0.1,0.2,0.3,0.4,0.4,0.6
					c0.4,0.7,0.9,1.4,1.1,2l0.1,0.9l0,0L59,26.9l-0.6-0.4l0.7,0.7l0.2,0.2l1.9,1.9L59,28.3"/>
				<path class="st16" d="M57.5,23.1c-0.3-0.4-0.5-0.8-0.7-1.1C57,22.3,57.2,22.6,57.5,23.1c0.1,0.2,0.3,0.4,0.4,0.6
					C57.8,23.5,57.7,23.3,57.5,23.1"/>
				<polyline class="st16" points="56.8,21.9 57,22.1 56.8,21.9 				"/>
				<polyline class="st17" points="59,26.9 59.2,26.7 59.2,26.7 59,26.9 				"/>
				<polyline class="st16" points="59,28.3 61.2,29.3 59,28.3 				"/>
				<path class="st7" d="M56,29.6c-0.8-1.3-1.6-3.2-2.2-4.7c1.6,0.6,3.5,2.2,5.2,3.4l0.8,1.5l-0.7-0.7c-0.1-0.1-0.5-0.5-0.7-0.4
					c-0.2,0,0.1,0.7,1.8,3.7l1,1.5c-1.4-1.5-2.7-2.8-4.1-3.7l0.4,1.4L57,30.8c-0.3-0.2-0.5-0.5-0.7-0.9C56.2,29.8,56.1,29.7,56,29.6
					"/>
				<path class="st16" d="M57.2,30.1c1.4,0.9,2.7,2.2,4.1,3.7C59.9,32.3,58.6,31,57.2,30.1"/>
				<path class="st16" d="M58.4,28.6c0.1,0,0.5,0.4,0.7,0.4l0.7,0.7l-0.7-0.7C58.9,29,58.6,28.6,58.4,28.6"/>
				<path class="st18" d="M58,34.6l-1.3-2.2c-1.3-2.2-2.6-4.5-3.9-6.6c-0.3-0.7-0.7-1.4-1.2-2l-0.5-0.6c0.5-1.4,1.2-2.6,1.9-3.9
					l1.3,1c0.4,0.3,0.7,0.5,1.2,0.9c1.4,2.3,2.3,4.8,3.5,7.2c-1.7-1.2-3.6-2.8-5.2-3.4c0.7,1.5,1.4,3.4,2.2,4.7l0,0
					c0.1,0.1,0.2,0.3,0.2,0.4c0.2,0.4,0.5,0.7,0.7,0.9l0.6,0.6c0.2,0.9,0.6,1.8,1.1,2.7c0.5,0.9,1,1.8,1.5,2.8l0.3,0.5
					c0.3,0.5,0.6,1,0.9,1.5c0.3,0.5,0.6,1.1,0.8,1.6L61.9,41C60.6,38.9,59.3,36.8,58,34.6"/>
				<path class="st13" d="M58,34.6c1.3,2.1,2.6,4.3,3.9,6.4C60.6,38.9,59.3,36.8,58,34.6"/>
				<path class="st13" d="M56.7,32.4c-1.3-2.2-2.6-4.5-3.9-6.6C54.1,27.9,55.4,30.2,56.7,32.4"/>
				<path class="st13" d="M61.3,38.9c-0.3-0.5-0.6-1-0.9-1.5l-0.3-0.5c-0.5-0.9-1.1-1.8-1.5-2.8c0.5,0.9,1,1.8,1.5,2.8l0.3,0.5
					C60.7,37.9,61,38.4,61.3,38.9"/>
				<path class="st19" d="M56,29.6L56,29.6c0.1,0.1,0.2,0.3,0.2,0.4C56.2,29.8,56.1,29.7,56,29.6"/>
				<path class="st19" d="M53.8,24.9c1.6,0.6,3.5,2.2,5.2,3.4C57.3,27.1,55.4,25.4,53.8,24.9"/>
				<path class="st2" d="M52.8,25.8c-0.5-0.9-1.1-1.7-1.6-2.7l0.5,0.6C52.1,24.4,52.5,25,52.8,25.8"/>
				<path class="st17" d="M52.8,25.8c-0.5-0.9-1.1-1.7-1.6-2.7C51.8,24,52.3,24.8,52.8,25.8"/>
			</g>
		</g>
	</g>
</g>
<g>
	<g>
		<g>
			<g class="st0">
				<path class="st1" d="M24.1,57.6c-0.5-1-1-2.1-1.4-3.2L22,53.8l1.4,0.4c2.4,0.3,5.3,0.1,7,0.9c-0.5,0-1.1,0.1-1.7,0.2
					c-0.2,0-0.4,0.1-0.6,0.1c-0.4,0.1-0.7,0.1-1,0.1l0.1-0.1l-1.1,0.9L25,56.4l1.2-0.2L24.1,57.6"/>
				<path class="st1" d="M57.4,47.6L57.4,47.6l0.2-0.3c1-0.5,2-1.1,2.9-1.8c1.1-0.7,2.4-1.2,3.7-1.5c0.3-0.1,0.5-0.1,0.8-0.2
					L63.6,45l-0.2,0C61.1,45.6,59.5,47,57.4,47.6"/>
				<path class="st2" d="M64.3,41.7c1.2-0.6,2.4-1.2,3.7-1.7l0.1,0.4c-0.7,0.2-1.4,0.6-2.2,0.8c-0.2,0-0.4,0.1-0.7,0.1l0.2,0.1
					L64.3,41.7"/>
				<polyline class="st2" points="67.2,41.4 68.3,40.8 68.5,40.9 67.2,41.4 				"/>
				<polyline class="st2" points="59.1,56.3 58.7,56.2 59.1,56.2 59.1,56.3 				"/>
				<polyline class="st2" points="71.9,57.4 71.3,57.3 71.9,57.4 				"/>
				<polyline class="st2" points="71.3,57.3 71.3,57.3 71.3,57.3 				"/>
				<polyline class="st2" points="75.7,41.8 75.3,41.6 75.7,41.8 				"/>
				<polyline class="st2" points="74,55.8 73.8,55.7 74,55.8 				"/>
				<polyline class="st2" points="42,48.5 41,48.1 42,48.5 				"/>
				<polyline class="st2" points="58.7,56.2 58,56 58.7,56.2 				"/>
				<polyline class="st2" points="74.5,41 73.9,40.9 74.4,40.9 74.5,41 				"/>
				<polyline class="st2" points="76.5,41.9 75.7,41.8 76.2,41.8 76.5,41.9 				"/>
				<polyline class="st2" points="71.1,41.3 71.9,40.9 72.1,40.9 71.9,40.9 72.1,40.9 72.1,41 71.1,41.3 				"/>
				<path class="st2" d="M75.6,41.2L74.5,41l-0.6,0l0.5,0c-1.1-0.2-2.3-0.3-3.5-0.3l-0.1,0.3l1.6-0.2l-0.4,0.2l0.2,0l0.3,0L72.1,41
					l1.7,0.1L73,40.9l0.9,0.2l-0.2,0l0.8,0.2L75.6,41.2 M73.9,41l0.2,0L73.9,41"/>
				<polyline class="st3" points="74.4,40.9 73.9,40.9 74.4,40.9 				"/>
				<polyline class="st3" points="72.1,40.9 71.9,40.9 72.1,40.9 				"/>
				<polyline class="st2" points="77.7,41.7 77.3,41.7 76.7,41.7 74.9,41.4 74.5,41.3 75.6,41.2 77.7,41.7 				"/>
				<polyline class="st2" points="72.4,40.9 72.1,41 72.1,40.9 72.4,40.9 				"/>
				<polyline class="st3" points="72.4,40.9 72.1,41 72.4,40.9 				"/>
				<polyline class="st2" points="77.8,41.7 77.5,41.8 77.3,41.7 77.7,41.7 77.8,41.7 				"/>
				<polyline class="st2" points="77.6,41.8 77.5,41.8 77.6,41.8 				"/>
				<polyline class="st2" points="77.4,41.8 76.5,41.9 77,41.8 77.4,41.8 				"/>
				<polyline class="st3" points="72.1,40.9 71.9,40.9 72.1,40.9 				"/>
				<polyline class="st2" points="77.6,41.8 77.4,41.8 77.6,41.8 				"/>
				<polyline class="st2" points="77.5,41.8 77.4,41.8 77,41.8 76.7,41.7 77.3,41.7 76.7,41.7 77.3,41.7 77.5,41.8 				"/>
				<polyline class="st3" points="77.6,41.8 77.4,41.8 77.5,41.8 77.6,41.8 				"/>
				<polyline class="st3" points="77.4,41.8 77,41.8 77.4,41.8 				"/>
				<polyline class="st3" points="77.3,41.7 76.7,41.7 77.3,41.7 				"/>
				<polyline class="st2" points="77,41.8 76.5,41.9 76.2,41.8 77,41.8 				"/>
				<polyline class="st3" points="76.5,41.9 76.2,41.8 76.5,41.9 				"/>
				<polyline class="st3" points="77,41.8 76.5,41.9 77,41.8 				"/>
				<polyline class="st2" points="77,41.8 76.2,41.8 75.8,41.6 76.6,41.7 76.7,41.7 77,41.8 				"/>
				<polyline class="st3" points="77,41.8 76.2,41.8 77,41.8 				"/>
				<polyline class="st3" points="74.1,41 73.9,41 74.1,41 				"/>
				<polyline class="st2" points="73.9,41 73.7,41.1 73,40.9 73.9,41 				"/>
				<polyline class="st3" points="73.9,41 73.7,41.1 73.9,41 				"/>
				<polyline class="st3" points="73.7,41.1 73,40.9 73.7,41.1 				"/>
				<polyline class="st2" points="74.9,41.4 74.4,41.4 74.5,41.3 74.9,41.4 				"/>
				<polyline class="st2" points="76.7,41.7 76.6,41.7 74.9,41.4 76.7,41.7 				"/>
				<polyline class="st3" points="76.7,41.7 76.6,41.7 76.7,41.7 76.6,41.7 76.7,41.7 				"/>
				<polyline class="st4" points="76.7,41.7 76.6,41.7 76.7,41.7 				"/>
				<polyline class="st2" points="72.6,52.9 71.3,52.6 72.7,52.8 72.6,52.9 				"/>
				<polyline class="st2" points="72.1,53.2 70.8,52.7 72.4,53 72.1,53.2 				"/>
				<path class="st2" d="M71.6,54.9c-1.1,0.2-2.1,0.4-3.1,0.1l1.5-0.1l-0.1,0L71.6,54.9"/>
				<polyline class="st2" points="71.6,54.9 70,54.9 70,54.9 71.6,54.9 				"/>
				<polyline class="st3" points="71.6,54.9 70,54.9 71.6,54.9 				"/>
				<polyline class="st2" points="71.8,53.3 71.4,53.1 72.1,53.2 71.8,53.3 				"/>
				<polyline class="st2" points="74.9,52.4 74.4,52.4 74.9,52.4 				"/>
				<path class="st5" d="M90.3,47l0.4-0.2l0.5-0.5c-0.9-0.1-1.8-0.2-2.9,0l0.4,0.1c-1.1,0.2-2,0-2.9,0C87.1,46.6,88.9,46.5,90.3,47"
					/>
				<polyline class="st2" points="84.2,47.2 83.8,47.2 84.2,47.2 				"/>
				<polyline class="st2" points="88.3,46.2 87.8,46.3 88.3,46.2 				"/>
				<polyline class="st2" points="84.7,47.2 84.2,47.2 84.7,47.2 				"/>
				<polyline class="st2" points="74.5,51.1 74,51.1 73.4,50.9 74.4,51 74.5,51.1 				"/>
				<polyline class="st2" points="74.5,51.2 74,51.1 74.5,51.1 74.5,51.2 				"/>
				<polyline class="st2" points="74.8,51.8 74.4,51.7 73.3,51.4 74.5,51.4 74.8,51.8 				"/>
				<polyline class="st2" points="74.8,51.8 74.4,51.7 74.8,51.8 74.8,51.8 				"/>
				<polyline class="st2" points="74.9,51.9 73.7,51.7 74.4,51.7 74.8,51.8 74.9,51.9 				"/>
				<path class="st5" d="M74.4,51l-1-0.1l0.5,0.2c-0.9,0.1-1.9,0.2-2.8,0.2c0.4-0.2,0.9-0.3,1.3-0.4c0.8-0.2,1.6-0.3,2.4-0.4
					L74.4,51"/>
				<polyline class="st6" points="74.4,51 73.4,50.9 74.4,51 				"/>
				<path class="st2" d="M75.2,50.2c-1.2,0-2.6,0.2-3.6-0.3c0.1,0,0.2,0,0.2-0.1c1.6-0.4,2.9,0.2,4.5-0.2l0.1,0
					c-0.9-0.3-2.2-0.3-3.1-0.6c1.3,0.1,2.6,0.3,3.9,0.5L75.2,50.2"/>
				<polyline class="st2" points="73.1,49.3 71.2,48.7 71.9,48.7 73.1,49.3 				"/>
				<polyline class="st2" points="68.9,48.6 68.6,48.6 68.6,48.6 68.9,48.6 				"/>
				<path class="st2" d="M70.4,48.7L70,48.7l-1.1-0.1l-0.2,0L70.4,48.7 M70,48.7l-1.1-0.1L70,48.7"/>
				<path class="st2" d="M71.9,48.7l-0.7,0l-1.2,0l-1.1-0.1l-0.3,0l0.1,0L67,48.1l1.7-0.2C69.7,48.2,70.9,48.4,71.9,48.7"/>
				<polyline class="st3" points="71.9,48.7 71.2,48.7 71.9,48.7 				"/>
				<polyline class="st3" points="68.9,48.6 68.6,48.6 68.9,48.6 				"/>
				<polyline class="st3" points="70,48.7 68.9,48.6 70,48.7 				"/>
				<polyline class="st3" points="70,48.7 68.9,48.6 70,48.7 				"/>
				<path class="st2" d="M68.2,47.6c-0.9,0.1-1.7,0-2.4-0.2l1.8-0.6l-0.2,0.3L68.2,47.6"/>
				<polyline class="st2" points="52.6,60.2 51.8,60 52,59.8 52.6,60.2 				"/>
				<path class="st7" d="M31,65.3c-1-0.6-1.7-1.3-2.5-2c-0.7-0.7-1.5-1.5-2.1-2.3l2.3-0.3c2.6-0.1,5.4,0.5,5.6,2.2
					c0,0.2,0,0.5-0.1,0.8C33.1,64.1,32,64.7,31,65.3"/>
				<path class="st2" d="M40.5,62.8l-0.4-0.1c0.5-0.3,0.5-0.8,1.4-1C41.5,62.1,41,62.4,40.5,62.8"/>
				<path class="st8" d="M37.5,63.9c-0.8-0.5-1.7-0.6-2.6-0.4c-0.2,0-0.4,0.1-0.7,0.2c0.1-0.3,0.1-0.5,0.1-0.8
					c-0.3-1.7-3-2.3-5.6-2.2c1.9-0.3,3.9-0.6,5.9-0.9l2-0.4c1.9-0.4,3.8-0.8,5.6-1.3l-0.3-0.4c-0.5,0.1-0.9,0.1-1.4,0.2
					c-0.4,0.1-0.9,0.2-1.3,0.2l-0.4,0.1c-0.8,0.2-1.6,0.3-2.4,0.4c-0.8,0.1-1.5,0.1-2.2,0c1-0.4,2.1-0.7,3.2-0.9
					c0.7-0.1,1.4-0.2,2.2-0.3c2.2-0.1,4.4-0.1,6.3,0.4c0.7,0.1,1.7,0.1,2.6,0L47.1,58L47,58.5l2,0.6l-0.5,0l-1.8,0.1l-1.6,0.1
					c-0.3,0-0.7,0.1-1,0.1l0,0c-1,0.2-2,0.7-3.1,1.1c0.5,0,0.9,0,1.4,0c0.3,0.1,0.4,0.2,0.4,0.4c0.1,0.3-0.2,0.7-0.6,1
					c-0.5,0.3-1.1,0.7-1.6,0.9l-0.2-0.1c0.5-0.4,1-0.7,1.1-1.2c-0.9,0.2-0.9,0.7-1.4,1l-0.4-0.5l-1.2-0.3c0.4-0.9-1.5-0.3-1.5-1
					l-2-0.1l-0.9,0.9C35.7,62.1,37.4,62.7,37.5,63.9"/>
				<path class="st9" d="M34.4,62.9c-0.3-1.7-3-2.3-5.6-2.2C31.3,60.6,34.1,61.2,34.4,62.9"/>
				<path class="st10" d="M40.1,62.6c0.5-0.3,0.5-0.8,1.4-1C40.6,61.8,40.6,62.3,40.1,62.6"/>
				<path class="st2" d="M50.2,59.4L49,59.1l-0.5,0l-1.8,0.1l-0.1,0.1l1.6,0.1l-1.6,0.3c0.7,0.2,1.5,0.1,2.3,0L50.2,59.4 M48.5,59.1
					l-1.8,0.1L48.5,59.1"/>
				<polyline class="st3" points="48.5,59.1 46.8,59.2 48.5,59.1 				"/>
				<polyline class="st2" points="40.3,62.9 40.1,62.6 40.5,62.8 40.3,62.9 				"/>
				<polyline class="st2" points="31.2,55.6 31.1,55.3 31.2,55.6 				"/>
				<path class="st11" d="M42.2,67.6c-2.4-0.9-1.4-3.1-2-4.7l0.2-0.1l0.2,0.1c0.5-0.2,1.2-0.5,1.6-0.9c0.5-0.4,0.7-0.7,0.6-1
					c-0.1-0.1-0.2-0.3-0.4-0.4c-0.5,0-0.9,0-1.4,0c1.1-0.4,2.1-0.9,3.1-1.1c0.3-0.1,0.6-0.1,1-0.1l1.6-0.1l-0.1,0.1l-1.4,0.1
					c0.9,0.3,2,0.1,3-0.1l-1.6,0.3c0.7,0.2,1.5,0.1,2.3,0L48.7,60l1.2,0.8l-1.9-0.3l-0.5,0.6c0.8,0.7,1.8,1.5,3.2,1.9
					c-1.8-0.4-3.3-1.3-5.6-1.1l-0.1,0.5l-0.5-0.2c0.7,0.7,2,0.8,2.6,1.5l-1.6-0.5c0.2,0.5,1,0.7,1.3,1.1c-1.3-0.4-1.8-2-3.2-1.7
					l-0.1,0l-0.1,0c-2.4,0.5-2.1,2.3-0.7,3.5l-0.5-0.1C41.4,66.6,42.4,67.1,42.2,67.6"/>
				<path class="st12" d="M42.9,60.9c-0.1-0.1-0.2-0.3-0.4-0.4c-0.5,0-0.9,0-1.4,0c0.5,0,0.9,0,1.4,0C42.7,60.7,42.9,60.8,42.9,60.9
					"/>
				<path class="st12" d="M41.1,60.6c1.1-0.4,2.1-0.9,3.1-1.1C43.2,59.7,42.2,60.2,41.1,60.6"/>
				<polyline class="st13" points="48.3,59.4 46.6,59.7 48.3,59.4 				"/>
				<polyline class="st13" points="46.7,59.3 46.8,59.2 46.7,59.3 				"/>
				<path class="st11" d="M51,57.4l0.3-0.2l0.3-0.4l-0.5,0l0.5,0l0-0.4l-1.2-0.3l0.7,0L50,55.9l1.2,0.1l-0.1-0.2l-0.4-0.1
					c-1,0-2,0.3-2.9,0.2c0.4-0.2,0.8-0.3,1.2-0.4c0.8-0.2,1.7-0.3,2.6-0.5l0.3-0.2c-1.2,0-2.6,0.1-3.6-0.3c0.1,0,0.2,0,0.2-0.1
					c1.6-0.4,2.9,0.2,4.5-0.2l0.1,0c-0.9-0.3-2.2-0.3-3.1-0.6c1.3,0.1,2.6,0.3,3.9,0.5l0.2,0c1.6-0.2,3-0.2,4.5-0.4l-1.9-0.2
					l1.9,0.2c2.3-0.1,4.5-0.2,6.8-0.2L63.6,53c1-0.7,2.2-0.9,3.2-1.3c-1.7,0-3.2-0.2-4.8-0.1c1.6-0.2,3.1,0.1,4.8,0.1l0.3-0.1
					c-1.5-0.5-3.3-0.4-4.7-0.7c1-0.1,1.8,0.2,2.9,0L65,50.8l-0.5,0.1l0.5-0.1c1-0.1,2,0,2.9,0.1c0.8-0.8,1.7-1.7,2.8-2l0.5-0.1
					l-1.2,0l0.4,0.1l-1.8-0.2L67,48.1l1.7-0.2l-0.5-0.2c-0.9,0.1-1.7,0-2.4-0.2l1.8-0.6l0.9-0.9l-0.3-0.8c-0.8-0.5-2-0.6-3.3-0.3
					l-0.2,0.1l0.2,0.7l-0.5-0.4l-0.6,0.7L63.1,46c-0.3,0.5-0.8,0.8-1.3,0.9c-0.5,0.1-1.2,0.1-1.7,0.2l0.5,0.1
					c-0.2,0.4-0.4,0.5-0.8,0.6c-0.5,0.1-1,0-1.5,0l-1-0.2l-0.1,0l0,0l0,0L56,47.7l-0.8-0.1l-0.4-0.2l0.4,0.2l0.5,0l-0.5-0.2l0.8,0.1
					l-1.7-0.3l-0.6,0l0.1-0.1l-0.8-0.2l-1.6-0.2l-1,0.4l0.8-0.4l0.4-0.2l-1.6,0.2l0-0.3c-0.7,0-1.4,0.1-2.2,0.2l-0.1,0l-1.3,0.5
					l1.1-0.6l-0.2-0.4c-0.7,0.2-1.5,0.7-2.3,0.8c-0.2,0-0.4,0.1-0.6,0.1l0.2,0.1l-1.1,0.3c-0.6,0.3-1.2,0.7-1.8,1.1l0.6,0.2L42,48.5
					c-1,0.7-2,1.4-2.8,2.1c-0.8,0.7-1.5,1.5-2.1,2.3c1-0.5,2-1,2.8-1.6c1.3-0.8,2.6-1.3,4.1-1.6l0.5-0.1L43,50.7l0.1,0l-0.3,0.4
					l0.2-0.4c-1.2,0.3-2.3,0.8-3.3,1.3c-1,0.5-1.9,1-3,1.2l0.3-0.3l-3.7,1.6l-1.2,1.6l1.2-0.1l-0.6,0.4c-0.1,0.1-0.5,0.3-0.5,0.4
					c0,0.2,0.5,0.2,3.1-0.3l1.3-0.4c-1.4,0.7-2.6,1.4-3.6,2.3l1.1,0.2c1-0.4,2.1-0.7,3.2-0.9c0.7-0.1,1.4-0.2,2.2-0.3
					c2.2-0.1,4.4-0.1,6.3,0.4c0.7,0.1,1.7,0.1,2.6,0l0.2,0L48,57.6l0.7,0l-1.3-0.5l1.6,0.4l0.2-0.2L48,57.1l1.4,0.1l0.3-0.3L51,57.4
					 M61.4,51.8c1.2,0.1,2.4,0.4,3.9,0.3C63.8,52.2,62.6,51.9,61.4,51.8l-0.5,0l-0.3,0l0.3,0L61.4,51.8l0,0.2l-1.3,0.1l1.3-0.1
					L61.4,51.8 M55,53.5c1.1-0.2,2,0.4,3,0.2C57,53.8,56.1,53.3,55,53.5 M54.1,53.7L54.1,53.7l-0.9,0.1L54.1,53.7L54.1,53.7
					c1,0,1.8,0.2,2.7,0.1C55.8,53.9,55,53.7,54.1,53.7 M60.6,52.2l-0.4,0.3L60.6,52.2 M38.5,55.2l-1.9,0.9L38.5,55.2 M38.5,55.2
					l-1.9,0.9L38.5,55.2 M38.5,55.2l0.3-0.1l0.3-0.2l0.3-0.1l0.3-0.1l0,0l0.3-0.1l0.3-0.2l0.3-0.1l0.3-0.2l0.3-0.2l0.2-0.1l0.3-0.2
					l0.3-0.2l0.3-0.2l0.2-0.2l0.3-0.2l0.2-0.2c-1.2,0.4-2.1,1-3,1.6l-0.1,0.1l-0.1,0.1l-0.3,0.2l-0.1,0L39,54.9L38.9,55L38.5,55.2
					 M33.4,55.9c0.1,0,0.3,0,0.4-0.1l0.3-0.1l0.3-0.1l0.3-0.1l0.4-0.1l0.2-0.1c0.2-0.1,0.3-0.1,0.5-0.2l0,0L36,55l-0.3,0.2L36,55
					l-0.3,0.2l0,0c0.1-0.1,0.2-0.1,0.3-0.2c-0.1,0.1-0.2,0.1-0.4,0.2l-0.2,0.1l-0.4,0.1l-0.1,0l-0.4,0.1l-0.2,0l-0.2,0.1
					C33.9,55.8,33.6,55.8,33.4,55.9 M64.9,45.6l0,0.1l0.3,0.1L64.9,45.6"/>
				<polyline class="st1" points="38.5,55.2 39.7,54.7 39.4,54.9 39.1,55 38.8,55.1 38.5,55.2 				"/>
				<polyline class="st1" points="38.9,55 39,54.9 39.3,54.8 39.4,54.7 38.9,55 				"/>
				<path class="st1" d="M39.7,54.7c1.1-0.5,2.3-1.1,3.2-1.8l-0.2,0.2l-0.3,0.2l-0.2,0.2L42,53.6l-0.3,0.2l-0.3,0.2L41.2,54
					l-0.3,0.2l-0.3,0.2l-0.3,0.1L40,54.6L39.7,54.7"/>
				<polyline class="st1" points="39.8,54.5 39.8,54.5 39.9,54.4 39.8,54.5 				"/>
				<polyline class="st14" points="57.3,47.6 57.3,47.6 57.4,47.6 57.3,47.6 				"/>
				<polyline class="st13" points="42.6,48.7 42,48.5 42.6,48.7 				"/>
				<polyline class="st13" points="70.4,48.7 70,48.7 70.4,48.7 				"/>
				<polyline class="st13" points="68.7,47.9 67,48.1 68.7,47.9 				"/>
				<polyline class="st13" points="65.8,47.4 67.6,46.8 65.8,47.4 				"/>
				<polyline class="st15" points="38.5,55.2 38.8,55.1 39.1,55 39.4,54.9 39.7,54.7 39.4,54.9 39.1,55 38.8,55.1 38.5,55.2 				"/>
				<polyline class="st15" points="38.9,55 39,54.9 39.3,54.8 39.4,54.7 39.3,54.8 39,54.9 38.9,55 				"/>
				<polyline class="st15" points="39.7,54.7 40,54.6 40.3,54.4 40.6,54.3 40.9,54.2 41.2,54 41.4,53.9 41.7,53.7 42,53.6 
					42.3,53.4 42.5,53.2 42.8,53.1 43,52.9 42.8,53.1 42.5,53.2 42.3,53.4 42,53.6 41.7,53.7 41.4,53.9 41.2,54 40.9,54.2 
					40.6,54.3 40.3,54.4 40,54.6 39.7,54.7 				"/>
				<polyline class="st15" points="39.8,54.5 39.8,54.5 39.9,54.4 39.8,54.5 39.8,54.5 				"/>
				<polyline class="st15" points="36.6,56.1 38.5,55.2 36.6,56.1 				"/>
				<polyline class="st15" points="36.6,56.1 38.5,55.2 36.6,56.1 				"/>
				<path class="st12" d="M48.4,57.8c-1,0.1-1.9,0.2-2.6,0c-1.9-0.5-4.1-0.6-6.3-0.4c2.2-0.1,4.4-0.1,6.3,0.4
					C46.5,58,47.4,57.9,48.4,57.8"/>
				<path class="st12" d="M34.1,58.6c1-0.4,2.1-0.7,3.2-0.9C36.2,57.9,35.1,58.2,34.1,58.6"/>
				<path class="st1" d="M34.4,55.7l-0.3,0.1c0.4-0.1,0.8-0.2,1.2-0.4l-0.2,0.1l-0.4,0.1L34.4,55.7"/>
				<polyline class="st1" points="34.2,55.7 34.4,55.6 34.6,55.6 34.2,55.7 				"/>
				<path class="st1" d="M34.9,55.5l0.1,0l0.4-0.1l0.2-0.1C35.4,55.3,35.2,55.4,34.9,55.5"/>
				<polyline class="st1" points="35.7,55.2 35.7,55.2 35.7,55.2 35.7,55.2 				"/>
				<polyline class="st2" points="31.4,55.6 31.6,55.5 31.4,55.6 				"/>
				<path class="st7" d="M32.2,56.1c-2,0.2-3.9-0.1-6,0.2l1.1-0.9l-0.1,0.1c0.3,0,0.6-0.1,1-0.1c0.2,0,0.4-0.1,0.6-0.1
					c0.6-0.1,1.2-0.2,1.7-0.2l0.7,0.3l0,0l0.1,0.3L30.8,56l0.6-0.4l0.1-0.1l1.8-1L32.2,56.1"/>
				<path class="st16" d="M28.2,55.3c-0.4,0.1-0.7,0.1-1,0.1C27.4,55.4,27.8,55.4,28.2,55.3c0.2,0,0.4-0.1,0.6-0.1
					C28.5,55.2,28.3,55.3,28.2,55.3"/>
				<polyline class="st16" points="27.2,55.5 27.3,55.3 27.2,55.5 				"/>
				<polyline class="st17" points="31.2,55.6 31.1,55.3 31.1,55.3 31.2,55.6 				"/>
				<polyline class="st16" points="32.2,56.1 33.4,54.5 32.2,56.1 				"/>
				<path class="st7" d="M32.4,59.3c-1.2,0.2-2.7,0.2-4,0.1c0.9-1.2,2.5-2.3,3.8-3.4l1.2-0.1l-0.6,0.4c-0.1,0.1-0.5,0.3-0.5,0.4
					c0,0.2,0.5,0.2,3.1-0.3l1.3-0.4c-1.4,0.7-2.6,1.4-3.6,2.3l1.1,0.2l-0.6,0.3c-0.2,0.1-0.5,0.2-0.8,0.3
					C32.6,59.3,32.5,59.3,32.4,59.3"/>
				<path class="st16" d="M33.1,58.5c1-1,2.2-1.7,3.6-2.3C35.2,56.8,34,57.5,33.1,58.5"/>
				<path class="st16" d="M32.3,56.8c0-0.1,0.4-0.3,0.5-0.4l0.6-0.4l-0.6,0.4C32.7,56.4,32.3,56.6,32.3,56.8"/>
				<path class="st18" d="M36.6,59.4l-2,0.4c-2,0.3-3.9,0.7-5.9,0.9c-0.6,0-1.2,0-1.8,0.1c-0.2,0-0.4,0.1-0.6,0.1
					c-0.8-1.1-1.6-2.1-2.3-3.4l2.1-1.4c2.1-0.2,4,0,6-0.2c-1.2,1.1-2.9,2.2-3.8,3.4c1.3,0.1,2.8,0.1,4-0.1l0,0
					c0.1,0,0.2-0.1,0.3-0.1c0.3-0.1,0.6-0.2,0.8-0.3l0.6-0.3c0.7,0.1,1.5,0.1,2.2,0c0.8-0.1,1.6-0.2,2.4-0.4l0.4-0.1
					c0.4-0.1,0.9-0.2,1.3-0.2c0.5-0.1,0.9-0.1,1.4-0.2l0.3,0.4C40.3,58.6,38.5,59,36.6,59.4"/>
				<path class="st13" d="M36.6,59.4c1.9-0.4,3.8-0.8,5.6-1.3C40.3,58.6,38.5,59,36.6,59.4"/>
				<path class="st13" d="M34.6,59.8c-2,0.3-3.9,0.7-5.9,0.9C30.7,60.4,32.7,60.1,34.6,59.8"/>
				<path class="st13" d="M40.5,57.9c-0.4,0.1-0.9,0.2-1.3,0.2l-0.4,0.1c-0.8,0.2-1.6,0.3-2.4,0.4c0.8-0.1,1.6-0.2,2.4-0.4l0.4-0.1
					C39.6,58.1,40,58,40.5,57.9"/>
				<path class="st19" d="M32.4,59.3L32.4,59.3c0.1,0,0.2-0.1,0.3-0.1C32.6,59.3,32.5,59.3,32.4,59.3"/>
				<path class="st19" d="M28.4,59.5c0.9-1.2,2.5-2.3,3.8-3.4C30.9,57.2,29.3,58.3,28.4,59.5"/>
				<path class="st2" d="M28.7,60.7L26.4,61c0.2,0,0.4-0.1,0.6-0.1C27.6,60.8,28.1,60.7,28.7,60.7"/>
				<polyline class="st17" points="28.7,60.7 26.4,61 28.7,60.7 				"/>
			</g>
		</g>
	</g>
</g>
<g>
	<g>
		<g>
			<g class="st0">
				<path class="st1" d="M84.7,87.6l-0.3,0.1l0.1-1.1c-1-0.1-2.1-0.2-3.2-0.4l-0.8,0.1l0.7-0.5l0,0l-0.1,2.4
					c0.1-0.4,0.3-0.8,0.4-1.2l0.2-0.6c0.1-0.1,0.1-0.2,0.2-0.3c0.2-0.2,0.4-1,0.8-1.5c0,0.3,0.1,0.7,0.1,1c0,0.1,0,0.1,0.1,0.2
					c0,0.1,0,0.1,0,0.1c0,0.1,0,0.1,0,0.2l-0.1,0c0.1,0.1,0.2,0.1,0.4,0.2l0.4,0.3l0.1,0.7l-0.1-0.7L84.7,87.6"/>
				<path class="st1" d="M76.8,69.7L76.8,69.7l-0.3,0c-0.5-0.5-1-1-1.6-1.4c-0.6-0.6-1-1.2-1.3-1.9c0-0.1-0.1-0.3-0.1-0.4l1.1,0.6
					l0,0.1C75,67.9,76.3,68.6,76.8,69.7"/>
				<path class="st2" d="M71.4,66.6c-0.6-0.6-1-1.2-1.5-1.8l0.4-0.1c0.2,0.4,0.6,0.7,0.7,1.1c0,0.1,0.1,0.2,0.1,0.4l0.1-0.1
					L71.4,66.6"/>
				<polyline class="st2" points="71.2,65 70.7,64.5 70.8,64.4 71.2,65 				"/>
				<polyline class="st2" points="85.3,67.2 85.2,67.4 85.2,67.2 85.3,67.2 				"/>
				<polyline class="st2" points="86.9,59.2 86.7,59.6 86.9,59.2 				"/>
				<polyline class="st2" points="86.7,59.6 86.8,59.6 86.7,59.6 				"/>
				<polyline class="st2" points="72,60 71.8,60.3 72,60 				"/>
				<polyline class="st2" points="85.4,58.2 85.3,58.4 85.4,58.2 				"/>
				<polyline class="st2" points="76.8,78.6 76.3,79.2 76.8,78.6 				"/>
				<polyline class="st2" points="85.2,67.4 84.9,67.9 85.2,67.4 				"/>
				<polyline class="st2" points="71.1,60.9 71.1,61.2 71.1,60.9 71.1,60.9 				"/>
				<polyline class="st2" points="72.1,59.5 72,60 72,59.7 72.1,59.5 				"/>
				<polyline class="st2" points="71.3,62.7 70.9,62.4 71,62.3 70.9,62.4 71,62.3 71,62.3 71.3,62.7 				"/>
				<path class="st2" d="M71.4,60.2l-0.3,0.7l0,0.3l0-0.3c-0.2,0.7-0.4,1.4-0.4,2.1l0.3,0l-0.1-0.9l0.2,0.2l0-0.1l0-0.2l0.1,0.2
					l0.2-1L71,61.7l0.2-0.5l0,0.1l0.2-0.5L71.4,60.2 M71.2,61.2L71.2,61.2L71.2,61.2"/>
				<polyline class="st3" points="71.1,60.9 71.1,61.2 71.1,60.9 				"/>
				<polyline class="st3" points="71,62.3 70.9,62.4 71,62.3 				"/>
				<polyline class="st2" points="72,58.8 72,59.1 71.9,59.4 71.6,60.5 71.4,60.8 71.4,60.2 72,58.8 				"/>
				<polyline class="st2" points="71,62.1 71,62.3 71,62.3 71,62.1 				"/>
				<polyline class="st3" points="71,62.1 71,62.3 71,62.1 				"/>
				<polyline class="st2" points="72,58.7 72,58.9 72,59.1 72,58.8 72,58.7 				"/>
				<polyline class="st2" points="72,58.9 72,58.9 72,58.9 				"/>
				<polyline class="st2" points="72,59 72.1,59.5 72,59.2 72,59 				"/>
				<polyline class="st3" points="71,62.3 70.9,62.4 71,62.3 				"/>
				<polyline class="st2" points="72,58.9 72,59 72,58.9 				"/>
				<polyline class="st2" points="72,58.9 72,59 72,59.2 71.9,59.4 72,59.1 71.9,59.4 72,59.1 72,58.9 				"/>
				<polyline class="st3" points="72,58.9 72,59 72,58.9 72,58.9 				"/>
				<polyline class="st3" points="72,59 72,59.2 72,59 				"/>
				<polyline class="st3" points="72,59.1 71.9,59.4 72,59.1 				"/>
				<polyline class="st2" points="72,59.2 72.1,59.5 72,59.7 72,59.2 				"/>
				<polyline class="st3" points="72.1,59.5 72,59.7 72.1,59.5 				"/>
				<polyline class="st3" points="72,59.2 72.1,59.5 72,59.2 				"/>
				<polyline class="st2" points="72,59.2 72,59.7 71.8,60 71.9,59.5 71.9,59.4 72,59.2 				"/>
				<polyline class="st3" points="72,59.2 72,59.7 72,59.2 				"/>
				<polyline class="st3" points="71.1,61.1 71.2,61.2 71.1,61.1 				"/>
				<polyline class="st2" points="71.2,61.2 71.2,61.3 71,61.7 71.2,61.2 				"/>
				<polyline class="st3" points="71.2,61.2 71.2,61.3 71.2,61.2 				"/>
				<polyline class="st3" points="71.2,61.3 71,61.7 71.2,61.3 				"/>
				<polyline class="st2" points="71.6,60.5 71.5,60.8 71.4,60.8 71.6,60.5 				"/>
				<polyline class="st2" points="71.9,59.4 71.9,59.5 71.6,60.5 71.9,59.4 				"/>
				<polyline class="st3" points="71.9,59.4 71.9,59.5 71.9,59.4 71.9,59.5 71.9,59.4 				"/>
				<polyline class="st4" points="71.9,59.4 71.9,59.5 71.9,59.4 				"/>
				<polyline class="st2" points="82.5,59.7 82.2,60.5 82.4,59.6 82.5,59.7 				"/>
				<polyline class="st2" points="82.8,59.9 82.2,60.8 82.6,59.8 82.8,59.9 				"/>
				<path class="st2" d="M84.4,59.9c0.2,0.6,0.3,1.2,0,1.8l-0.1-0.9l0,0L84.4,59.9"/>
				<polyline class="st2" points="84.4,59.9 84.4,60.9 84.4,60.8 84.4,59.9 				"/>
				<polyline class="st3" points="84.4,59.9 84.4,60.9 84.4,59.9 				"/>
				<polyline class="st2" points="82.9,60.1 82.7,60.4 82.8,59.9 82.9,60.1 				"/>
				<polyline class="st2" points="82.1,58.3 82.1,58.6 82.1,58.3 				"/>
				<path class="st5" d="M77.3,50.1L77,49.9l-0.5-0.1c-0.1,0.6-0.2,1.2-0.1,1.7l0.1-0.2c0.2,0.6-0.1,1.2,0,1.8
					C76.9,52.1,76.8,51.1,77.3,50.1"/>
				<polyline class="st2" points="77.4,53.8 77.4,54 77.4,53.8 				"/>
				<polyline class="st2" points="76.5,51.5 76.5,51.8 76.5,51.5 				"/>
				<polyline class="st2" points="77.4,53.5 77.4,53.8 77.4,53.5 				"/>
				<polyline class="st2" points="80.8,58.9 80.8,59.2 80.6,59.5 80.8,58.9 80.8,58.9 				"/>
				<polyline class="st2" points="80.9,58.8 80.8,59.2 80.8,58.9 80.9,58.8 				"/>
				<polyline class="st2" points="81.5,58.5 81.4,58.8 81.1,59.5 81.2,58.7 81.5,58.5 				"/>
				<polyline class="st2" points="81.6,58.5 81.4,58.8 81.5,58.5 81.6,58.5 				"/>
				<polyline class="st2" points="81.7,58.4 81.4,59.2 81.4,58.8 81.6,58.5 81.7,58.4 				"/>
				<path class="st5" d="M80.8,58.9l-0.1,0.6l0.2-0.4c0,0.5,0.2,1.1,0.1,1.7c-0.2-0.2-0.3-0.5-0.4-0.7c-0.2-0.4-0.2-0.9-0.3-1.4
					L80.8,58.9"/>
				<polyline class="st6" points="80.8,58.9 80.6,59.5 80.8,58.9 				"/>
				<path class="st2" d="M80,58.6c-0.1,0.7,0.1,1.5-0.4,2.2l-0.1-0.1c-0.3-0.9,0.3-1.8,0-2.7l0-0.1c-0.3,0.6-0.4,1.4-0.6,2
					c0.1-0.8,0.4-1.6,0.6-2.4L80,58.6"/>
				<polyline class="st2" points="79,60.1 78.4,61.3 78.5,60.8 79,60.1 				"/>
				<polyline class="st2" points="78.2,62.7 78.2,62.8 78.2,62.9 78.2,62.7 				"/>
				<path class="st2" d="M78.4,61.7L78.4,62l-0.1,0.7l0,0.1L78.4,61.7 M78.4,62l-0.1,0.7L78.4,62"/>
				<path class="st2" d="M78.5,60.8l-0.1,0.5L78.4,62l-0.1,0.7l0,0.2l0-0.1l-0.5,1.1l-0.2-1C77.9,62.3,78.2,61.5,78.5,60.8"/>
				<polyline class="st3" points="78.5,60.8 78.4,61.3 78.5,60.8 				"/>
				<polyline class="st3" points="78.2,62.7 78.2,62.9 78.2,62.7 				"/>
				<polyline class="st3" points="78.4,62 78.2,62.7 78.4,62 				"/>
				<polyline class="st3" points="78.4,62 78.2,62.7 78.4,62 				"/>
				<path class="st2" d="M77.3,63.3c0,0.5,0,1-0.3,1.5l-0.5-1l0.3,0L77.3,63.3"/>
				<polyline class="st2" points="88.7,70.5 88.5,71 88.3,70.9 88.7,70.5 				"/>
				<path class="st7" d="M92.7,82.6c-0.2,0.3-0.5,0.4-0.7,0.8c-0.2,0.3-0.5,0.6-0.7,0.8c-0.9,0.9-1.9,1.4-3,2l-0.1-1.4l0-0.1
					c-0.1-1.6,0.7-3.3,2.4-3.7c0.2-0.1,0.5-0.1,0.8-0.1C91.6,81.6,92.2,82.1,92.7,82.6"/>
				<path class="st2" d="M90.6,77.5l-0.1,0.2c-0.3-0.3-0.8-0.2-1-0.7C90,77,90.3,77.2,90.6,77.5"/>
				<path class="st8" d="M91.7,79c-0.6,0.5-0.6,1.1-0.5,1.5c0,0.1,0.1,0.2,0.1,0.4c-0.3,0-0.5,0-0.8,0.1c-1.6,0.4-2.4,2.1-2.4,3.7
					c-0.2-1.2-0.4-2.3-0.7-3.4l-0.3-1.1c-0.3-1.1-0.6-2.1-1-3.1l-0.4,0.3c0,0.3,0.1,0.5,0.2,0.8c0.1,0.2,0.1,0.5,0.2,0.7l0.1,0.2
					c0.1,0.5,0.2,0.9,0.3,1.3c0,0.4,0,0.9-0.1,1.3c-0.4-0.5-0.6-1.1-0.8-1.7c-0.1-0.4-0.2-0.8-0.2-1.2c-0.1-1.3,0.2-2.6,0.7-3.8
					c0.2-0.4,0.2-1,0.1-1.6l0.1,0.8l0.5,0l0.7-1.3l0,0.3l0,1.1l0,1c0,0.2,0,0.4,0.1,0.6l0,0c0.2,0.6,0.6,1.1,1,1.7l0-0.8
					c0.1-0.2,0.2-0.3,0.4-0.3c0.6-0.2,1.4,0.5,1.8,1.1l-0.1,0.1C90.3,77.2,90,77,89.5,77c0.2,0.5,0.7,0.4,1,0.7L90,78
					c-0.1,0.3-0.2,0.5-0.3,0.8c-0.9-0.1-0.4,0.9-1.1,1L88.4,81l0.9,0.4C89.8,80.4,90.4,79.3,91.7,79"/>
				<path class="st9" d="M90.5,81c-1.6,0.4-2.4,2.1-2.4,3.7C88.1,83.1,88.9,81.4,90.5,81"/>
				<path class="st10" d="M90.5,77.7c-0.3-0.3-0.8-0.2-1-0.7C89.7,77.5,90.2,77.4,90.5,77.7"/>
				<path class="st2" d="M87.9,72.1l-0.4,0.8l0,0.3l0,1.1l0.1,0l0.1-1l0.2,0.9c0.2-0.5,0.1-0.9,0.1-1.4L87.9,72.1 M87.5,73.1l0,1.1
					L87.5,73.1"/>
				<polyline class="st3" points="87.5,73.1 87.5,74.2 87.5,73.1 				"/>
				<polyline class="st2" points="90.8,77.6 90.5,77.7 90.6,77.5 90.8,77.6 				"/>
				<polyline class="st2" points="83.3,84 82.9,84.1 83.3,84 				"/>
				<path class="st11" d="M95.5,75.8c-1,1.6-3.1,1.2-4.7,1.8l-0.1-0.1l0.1-0.1c-0.3-0.6-1.2-1.3-1.8-1.1c-0.1,0.1-0.3,0.2-0.4,0.3
					l0,0.8c-0.4-0.6-0.8-1.1-1-1.7c-0.1-0.2-0.1-0.4-0.1-0.6l0-1l0.1,0l0,0.9c0.3-0.6,0.2-1.2,0.1-1.8l0.2,0.9
					c0.2-0.5,0.1-0.9,0.1-1.4l0.3,0.1l0.8-0.8l-0.4,1.2l0.6,0.2c0.7-0.6,1.6-1.3,2-2.3c-0.5,1.2-1.5,2.2-1.4,3.6l0.5,0l-0.2,0.4
					c0.7-0.5,0.9-1.3,1.6-1.8l-0.5,1c0.5-0.2,0.8-0.7,1.2-1c-0.5,0.9-2,1.4-1.8,2.2l0,0l0,0.1c0.4,1.4,2.2,0.9,3.4-0.1L94,76
					C94.4,76.4,95,75.8,95.5,75.8"/>
				<path class="st12" d="M88.9,76.3c-0.1,0.1-0.3,0.2-0.4,0.3l0,0.8l0-0.8C88.7,76.4,88.8,76.3,88.9,76.3"/>
				<path class="st12" d="M88.5,77.4c-0.4-0.6-0.8-1.1-1-1.7C87.7,76.3,88.2,76.8,88.5,77.4"/>
				<polyline class="st13" points="87.7,73.3 87.9,74.2 87.7,73.3 				"/>
				<polyline class="st13" points="87.6,74.2 87.5,74.2 87.6,74.2 				"/>
				<path class="st11" d="M86,71.9l-0.1-0.1l-0.4-0.1l0,0.3l0-0.3l-0.4,0.1l-0.3,0.8l0-0.4l-0.4,0.7l0.1-0.8l-0.2,0.1l-0.1,0.3
					c0,0.6,0.1,1.2,0,1.7c-0.1-0.2-0.2-0.4-0.3-0.7c-0.1-0.5-0.2-1-0.3-1.5l-0.1-0.1c-0.1,0.7,0,1.5-0.5,2.2l0-0.1
					c-0.3-0.9,0.4-1.8,0.1-2.7l0-0.1c-0.3,0.6-0.4,1.4-0.7,1.9c0.2-0.8,0.5-1.6,0.7-2.4l0-0.1c-0.1-0.9-0.1-1.8-0.1-2.6L82.5,69
					l0.3-1.2c0-1.4,0-2.7,0.1-4.1L82.3,65c-0.7-0.5-0.8-1.2-1.1-1.7c0,1-0.4,2-0.3,2.9c-0.1-0.9,0.2-1.9,0.3-2.9l-0.1-0.2
					c-0.5,1-0.5,2-0.8,3c0-0.6,0.3-1.1,0.1-1.8l-0.1,0.2l0,0.3l0-0.3c-0.1-0.6,0-1.2,0.2-1.7c-0.8-0.3-1.6-0.7-1.9-1.3l-0.1-0.3
					L78.4,62l0.1-0.3l-0.2,1.1l-0.5,1.1l-0.2-1l-0.2,0.4c0,0.5,0,1-0.3,1.5l-0.5-1l-0.8-0.4l-0.8,0.4c-0.5,0.6-0.7,1.3-0.5,2l0,0.1
					l0.7-0.3L74.8,66l0.6,0.2l0,0.4c0.5,0.1,0.7,0.3,0.8,0.6c0.1,0.3,0.1,0.7,0.1,1l0.2-0.3c0.3,0,0.5,0.2,0.6,0.3
					c0.1,0.3-0.1,0.6-0.1,0.9l-0.3,0.7l0,0l0,0l0,0l0.1,0.8L76.7,71l-0.2,0.3l0.2-0.3l0.1-0.3L76.5,71l0.1-0.5l-0.4,1l-0.1,0.3
					l-0.1-0.1l-0.3,0.5l-0.3,1l0.3,0.5l-0.3-0.4l-0.2-0.2l0.1,0.9l-0.3,0c0,0.4,0,0.8,0.1,1.3l0,0l0.4,0.7l-0.5-0.5l-0.4,0.2
					c0.2,0.4,0.5,0.7,0.7,1.2c0,0.1,0,0.2,0,0.3l0.1-0.1l0.2,0.6c0.3,0.3,0.6,0.6,0.9,0.9l0.3-0.4l-0.3,0.4c1.2,1,2.5,1.8,4.1,2.2
					c-0.5-0.5-0.9-1-1.5-1.4c-0.7-0.6-1.1-1.4-1.3-2.1L77.9,77l1,0.7l0,0l0.4,0.1L79,77.7c0.4,1.4,1.8,2.1,2.2,3.3l-0.3-0.2l1.4,2
					l1.5,0.5l-0.1-0.7L84,83c0.1,0,0.3,0.2,0.4,0.2c0.2,0,0.2-0.4-0.1-1.8L84,80.7c0.6,0.7,1.2,1.4,2.1,1.8l0.2-0.7
					c-0.4-0.5-0.6-1.1-0.8-1.7c-0.1-0.4-0.2-0.8-0.2-1.2c-0.1-1.3,0.2-2.6,0.7-3.8c0.2-0.4,0.2-1,0.1-1.6l0-0.1L86,73.7l0.1-0.5
					l-0.6,0.8l0.4-1L85.8,73l-0.3,0.8l0.2-0.9l-0.2-0.1L86,71.9 M81,66.6c0.1-0.8,0.5-1.5,0.4-2.4C81.5,65.1,81.2,65.8,81,66.6
					L81,66.9l0,0.2l0-0.2L81,66.6l0.2,0l0.1,0.7l-0.1-0.7L81,66.6 M82.3,70.1c-0.1-0.6,0.5-1.2,0.3-1.8
					C82.8,68.9,82.2,69.5,82.3,70.1 M82.5,70.7L82.5,70.7l0,0.5L82.5,70.7L82.5,70.7c0-0.6,0.3-1.1,0.3-1.7
					C82.8,69.6,82.5,70.1,82.5,70.7 M81.4,67l0.2,0.2L81.4,67 M83.2,79.7c0.3,0.3,0.5,0.7,0.8,1C83.7,80.3,83.5,80,83.2,79.7
					 M83.2,79.7c0.3,0.3,0.5,0.7,0.8,1C83.7,80.3,83.5,80,83.2,79.7 M83.2,79.7l-0.1-0.2L83,79.4l-0.1-0.2l-0.1-0.1l0,0l-0.1-0.2
					l-0.1-0.1l-0.1-0.2l-0.1-0.1l-0.1-0.1L82,78.2L81.8,78l-0.1-0.1l-0.1-0.1l-0.1-0.1l-0.1-0.1l-0.2-0.1c0.3,0.6,0.8,1.1,1.4,1.6
					l0.1,0.1l0,0l0.2,0.2l0,0l0.1,0.1l0.1,0.1L83.2,79.7 M83.7,82.6c0-0.1,0-0.2,0-0.2l-0.1-0.2l0-0.2l-0.1-0.2l-0.1-0.2l-0.1-0.1
					c-0.1-0.1-0.1-0.2-0.2-0.3l0,0l-0.1-0.2l0.1,0.2l-0.1-0.2l0.1,0.2l0,0c0-0.1-0.1-0.1-0.1-0.2c0.1,0.1,0.1,0.1,0.2,0.2l0.1,0.1
					l0.1,0.2l0,0.1l0.1,0.2l0,0.1l0.1,0.1C83.5,82.4,83.6,82.5,83.7,82.6 M75.2,65.6l0.1,0l0.1-0.2L75.2,65.6"/>
				<polyline class="st1" points="83.2,79.7 82.7,79.1 82.9,79.2 83,79.4 83.1,79.5 83.2,79.7 				"/>
				<polyline class="st1" points="83,79.5 82.9,79.4 82.8,79.3 82.7,79.2 83,79.5 				"/>
				<path class="st1" d="M82.7,79c-0.5-0.6-1-1.2-1.6-1.6l0.2,0.1l0.1,0.1l0.1,0.1l0.1,0.1l0.1,0.1l0.1,0.1l0.1,0.1l0.1,0.1l0.1,0.1
					l0.1,0.2l0.1,0.1L82.7,79"/>
				<polyline class="st1" points="82.5,79 82.5,79 82.4,79 82.5,79 				"/>
				<polyline class="st14" points="76.8,69.8 76.8,69.8 76.8,69.7 76.8,69.8 				"/>
				<polyline class="st13" points="77,78.2 76.8,78.6 77,78.2 				"/>
				<polyline class="st13" points="78.4,61.7 78.4,62 78.4,61.7 				"/>
				<polyline class="st13" points="77.5,62.9 77.7,63.9 77.5,62.9 				"/>
				<polyline class="st13" points="77,64.8 76.5,63.8 77,64.8 				"/>
				<polyline class="st15" points="83.2,79.7 83.1,79.5 83,79.4 82.9,79.2 82.7,79.1 82.9,79.2 83,79.4 83.1,79.5 83.2,79.7 				"/>
				<polyline class="st15" points="83,79.5 82.9,79.4 82.8,79.3 82.7,79.2 82.8,79.3 82.9,79.4 83,79.5 				"/>
				<polyline class="st15" points="82.7,79 82.6,78.9 82.5,78.7 82.4,78.6 82.2,78.4 82.1,78.3 82,78.2 81.8,78 81.7,77.9 
					81.5,77.7 81.4,77.6 81.3,77.5 81.1,77.4 81.3,77.5 81.4,77.6 81.5,77.7 81.7,77.9 81.8,78 82,78.2 82.1,78.3 82.2,78.4 
					82.4,78.6 82.5,78.7 82.6,78.9 82.7,79 				"/>
				<polyline class="st15" points="82.5,79 82.5,79 82.4,79 82.5,79 82.5,79 				"/>
				<path class="st15" d="M84,80.7c-0.3-0.3-0.5-0.7-0.8-1C83.5,80,83.7,80.3,84,80.7"/>
				<path class="st15" d="M84,80.7c-0.3-0.3-0.5-0.7-0.8-1C83.5,80,83.7,80.3,84,80.7"/>
				<path class="st12" d="M86.2,73.4c0.1,0.6,0.1,1.1-0.1,1.6c-0.6,1.2-0.8,2.6-0.7,3.8c-0.1-1.3,0.2-2.6,0.7-3.8
					C86.3,74.6,86.3,74,86.2,73.4"/>
				<path class="st12" d="M86.4,81.8c-0.4-0.5-0.6-1.1-0.8-1.7C85.7,80.7,86,81.3,86.4,81.8"/>
				<path class="st1" d="M83.5,82.1l0,0.2c-0.1-0.2-0.2-0.4-0.3-0.6l0.1,0.1l0.1,0.2L83.5,82.1"/>
				<polyline class="st1" points="83.5,82.2 83.4,82.1 83.4,82 83.5,82.2 				"/>
				<path class="st1" d="M83.3,81.8L83.3,81.8l-0.1-0.3l-0.1-0.1C83.2,81.5,83.2,81.6,83.3,81.8"/>
				<polyline class="st1" points="83,81.3 83,81.3 83,81.3 83,81.3 				"/>
				<polyline class="st2" points="83.3,83.9 83.2,83.8 83.3,83.9 				"/>
				<path class="st7" d="M83.8,83.4c0,0.4,0,0.8,0,1.3l-0.1,0.6c0,0.2-0.1,0.3-0.1,0.5c0,0.1-0.1,0.2-0.1,0.3c0,0.1,0,0.3,0,0.4
					l-0.4-0.3c-0.1-0.1-0.3-0.1-0.4-0.2l0.1,0c0-0.1,0-0.1,0-0.2c0,0,0-0.1,0-0.1c0-0.1,0-0.1-0.1-0.2c-0.1-0.3-0.2-0.7-0.1-1
					l0.3-0.5l0,0l0.3-0.1l0.4,0.2l-0.3-0.3l-0.1-0.1l-0.9-0.9L83.8,83.4"/>
				<path class="st16" d="M82.8,85.8c0,0.1,0,0.1,0,0.1c0,0.1,0,0.1,0,0.2c0-0.1,0-0.1,0-0.2C82.8,85.9,82.8,85.8,82.8,85.8
					c0-0.1,0-0.1-0.1-0.2C82.8,85.6,82.8,85.7,82.8,85.8"/>
				<polyline class="st16" points="82.9,86.1 82.7,86.1 82.9,86.1 				"/>
				<polyline class="st17" points="83.3,84 83,84.1 82.9,84.1 83.3,84 				"/>
				<polyline class="st16" points="83.8,83.4 82.3,82.9 83.8,83.4 				"/>
				<path class="st7" d="M86.9,82.7c0.2,0.7,0.1,1.6,0,2.3l0,0l0,0c-1.1-0.3-2.1-1.1-3.1-1.7l-0.1-0.7L84,83c0.1,0,0.3,0.2,0.4,0.2
					c0.2,0,0.2-0.4-0.1-1.8L84,80.7c0.6,0.7,1.2,1.4,2.1,1.8l0.2-0.7l0.2,0.3c0.1,0.1,0.2,0.3,0.3,0.4
					C86.9,82.6,86.9,82.7,86.9,82.7"/>
				<path class="st16" d="M86.1,82.5c-0.9-0.4-1.5-1.1-2.1-1.8C84.6,81.4,85.2,82,86.1,82.5"/>
				<path class="st16" d="M84.4,83.2c-0.1,0-0.3-0.2-0.4-0.2l-0.3-0.3L84,83C84.1,83,84.3,83.2,84.4,83.2"/>
				<path class="st18" d="M87.2,80.2l0.3,1.1c0.3,1.1,0.5,2.2,0.7,3.4l0,0.1c0,0.4,0,0.7,0,1c0,0.1,0,0.2,0.1,0.3
					c-1.1,0.5-2.3,1-3.5,1.5l-1.2-1.1c0-0.1,0-0.3,0-0.4c0-0.1,0-0.2,0.1-0.3c0-0.2,0.1-0.3,0.1-0.5l0.1-0.6c0-0.4,0.1-0.9,0-1.3
					c1,0.6,2,1.4,3.1,1.7l0,0l0,0c0.1-0.8,0.2-1.7,0-2.3l0,0c0-0.1,0-0.1-0.1-0.2c-0.1-0.2-0.2-0.3-0.3-0.4l-0.2-0.3
					c0.1-0.4,0.2-0.9,0.1-1.3c-0.1-0.4-0.1-0.9-0.3-1.3l-0.1-0.2l-0.2-0.7c-0.1-0.3-0.1-0.5-0.2-0.8l0.4-0.3
					C86.6,78.1,86.9,79.2,87.2,80.2"/>
				<path class="st13" d="M87.2,80.2c-0.3-1.1-0.6-2.1-1-3.1C86.6,78.1,86.9,79.2,87.2,80.2"/>
				<path class="st13" d="M87.5,81.3c0.3,1.1,0.5,2.2,0.7,3.4C87.9,83.5,87.7,82.5,87.5,81.3"/>
				<path class="st13" d="M85.9,78.1l0.2,0.7l0.1,0.2c0.1,0.5,0.2,0.9,0.3,1.3c-0.1-0.4-0.1-0.9-0.3-1.3l-0.1-0.2
					C86,78.6,86,78.4,85.9,78.1"/>
				<path class="st19" d="M86.9,82.7L86.9,82.7c0-0.1,0-0.1-0.1-0.2C86.9,82.6,86.9,82.7,86.9,82.7"/>
				<path class="st19" d="M86.9,85.1L86.9,85.1c-1.1-0.3-2.1-1.2-3.1-1.7C84.8,83.9,85.8,84.8,86.9,85.1L86.9,85.1"/>
				<path class="st2" d="M88.1,84.7L88.1,84.7l0.1,1.4c0-0.1-0.1-0.2-0.1-0.3C88.1,85.5,88.1,85.2,88.1,84.7L88.1,84.7"/>
				<polyline class="st17" points="88.1,84.7 88.2,84.8 88.2,86.2 88.2,84.8 88.1,84.7 				"/>
			</g>
		</g>
	</g>
</g>
</svg>
