<?xml version="1.0" encoding="utf-8"?>
<!-- Generator: Adobe Illustrator 23.0.1, SVG Export Plug-In . SVG Version: 6.00 Build 0)  -->
<svg version="1.1" id="Layer_1" xmlns="http://www.w3.org/2000/svg" xmlns:xlink="http://www.w3.org/1999/xlink" x="0px" y="0px"
	 viewBox="0 0 100 100" style="enable-background:new 0 0 100 100;" xml:space="preserve">
<style type="text/css">
	.st0{opacity:0.8;}
	.st1{fill:#DD9699;}
	.st2{fill:#CF6A6E;}
	.st3{fill:#C54C50;}
	.st4{fill:#C3464B;}
	.st5{fill:#E2A6A8;}
	.st6{fill:#CA5A5E;}
	.st7{fill:#CB6063;}
	.st8{fill:#D88689;}
	.st9{fill:#C54D51;}
	.st10{fill:#C75256;}
	.st11{opacity:0.8;fill:#DD9699;}
	.st12{fill:#CD6467;}
	.st13{fill:#C8565A;}
	.st14{fill:#D06D70;}
	.st15{fill:#C9575B;}
	.st16{fill:#C65155;}
	.st17{fill:#C44A4E;}
	.st18{fill:#D27478;}
	.st19{fill:#C54B4F;}
</style>
<g>
	<g>
		<g>
			<g class="st0">
				<path class="st1" d="M19.6,1.4c-0.3-0.7-0.4-1.3-0.4-1.9c-0.2-0.4-0.4-0.7-0.6-1.1c-0.2-0.3-0.3-0.7-0.5-1
					c-0.4-0.2-0.9-0.4-1.3-0.4c-0.4-0.1-0.4-0.1-0.2-0.1c-0.2,0-0.1-0.1,0.4-0.1c0.4,0,1,0.1,1.4,0.3c0.4,0.1,1.3,0.4,1.4,0.5
					c0.1,0.1,0.2,0.2,0.3,0.3c0,0,0.1,0.1,0.1,0.1c0.2,0.1,0.3,0.1,0.5,0.1C21-2,21-2,21.6-2c0.9,0,1.7,0.1,2.6,0.1
					c1.8,0.1,3.5,0.2,5.3,0.3c0.5,0,0.9,0,1.4,0c0.5,0,1,0,1.5,0.1c1,0.1,1.9,0.2,2.8,0.3c1.8,0.3,3.4,0.8,4.8,1.3
					c-1.7-0.4-3.8-0.7-5.8-0.7c-0.7,0-1.3,0-2,0c-0.6,0-1.2,0-1.8,0c-0.5,0-0.9,0-1.4,0l0.5-0.1l-3.6,0.8l-3.7,0.1l3.7-0.1l-3.3,0.6
					L21.7,1L21.3,1L21,1.1C20.6,1.2,20.1,1.3,19.6,1.4L19.6,1.4"/>
				<path class="st1" d="M89.4,66.2l0.1-0.1l-0.5,1c-0.6,0.8-1.3,1.7-1.9,2.5c-0.3,0.4-0.7,0.8-1,1.2l-0.5,0.6l-0.6,0.6
					c-0.8,0.7-1.5,1.3-2.2,2c-0.7,0.6-1.4,1.2-2.1,1.8c-3.5,2.7-7.7,4.9-12.2,6.4c-0.5,0.1-0.9,0.3-1.4,0.4c-0.5,0.1-1,0.3-1.6,0.4
					c0.5-0.2,1-0.4,1.5-0.6l1.3-0.6c0.9-0.4,1.7-0.9,2.6-1.4l0.5-0.2c3.8-1.5,7-3.5,9.9-5.7c0.7-0.5,1.4-1.1,2.1-1.7l1.1-0.9
					c0.2-0.2,0.5-0.4,0.7-0.6l0.5-0.5C86.9,69.2,88.2,67.8,89.4,66.2"/>
				<path class="st2" d="M66.6,84.8l-0.9,0.3L65,85.3c-0.5,0.1-1,0.3-1.5,0.5c-1,0.3-2,0.6-3,0.9c-2,0.6-4,1.2-6.1,1.8L54.4,88
					c2.3-0.6,4.6-1.4,7.1-1.9c0.7-0.2,1.4-0.3,2-0.4l-0.5,0l1.7-0.4C65.3,85.1,65.8,85,66.6,84.8"/>
				<polyline class="st2" points="57.6,86.5 54,87.6 53.5,87.6 57.6,86.5 				"/>
				<path class="st2" d="M83,60l0.6-0.6c-0.2,0.3-0.5,0.6-0.7,0.8L83,60"/>
				<polyline class="st2" points="50.9,70.9 52.6,70.8 50.9,70.9 				"/>
				<polyline class="st2" points="52.6,70.8 52.9,70.7 52.6,70.8 				"/>
				<polyline class="st2" points="31.2,88 32.4,88.1 31.2,88 				"/>
				<polyline class="st2" points="44.5,73.1 45,73.2 44.5,73.1 				"/>
				<path class="st2" d="M79.1,16.6c-0.3-0.4-0.6-0.7-0.9-1.1c-0.3-0.3-0.5-0.7-0.9-1.1c0.4,0.4,0.6,0.8,0.9,1.1
					C78.5,15.9,78.8,16.2,79.1,16.6"/>
				<path class="st2" d="M83.6,59.4c0.4-0.4,0.9-0.8,1.3-1.3C84.5,58.6,84.1,59,83.6,59.4"/>
				<polyline class="st2" points="34.5,88.8 36.3,88.8 34.8,88.8 34.5,88.8 				"/>
				<polyline class="st2" points="28.9,87.9 31.2,88 29.7,88 28.9,87.9 				"/>
				<polyline class="st2" points="45,88 42.3,88.6 41.8,88.6 42.3,88.6 41.8,88.6 41.8,88.5 45,88 				"/>
				<path class="st2" d="M31.2,88.6l3.3,0.2l1.8,0l-1.5,0.1c3.3,0.1,6.8,0.1,10.6-0.1l0.5-0.3l-5,0.5l1.5-0.3l-0.5,0l-1,0.1l1-0.1
					l-5,0.1l2,0.1l-2.5-0.1l0.5-0.1l-2.3-0.2L31.2,88.6 M36.3,88.7l-0.5,0.1L36.3,88.7"/>
				<polyline class="st3" points="34.8,88.8 36.3,88.8 34.8,88.8 				"/>
				<polyline class="st3" points="41.8,88.6 42.3,88.6 41.8,88.6 				"/>
				<path class="st2" d="M25.2,88.1l1.3,0l1.8,0l5.3,0.2l1,0.1l-3.3,0.2C29.2,88.5,27.2,88.3,25.2,88.1"/>
				<polyline class="st2" points="40.8,88.6 41.8,88.5 41.8,88.6 40.8,88.6 				"/>
				<polyline class="st3" points="40.8,88.6 41.8,88.5 40.8,88.6 				"/>
				<polyline class="st2" points="24.7,88.1 25.6,88.1 26.4,88.1 25.2,88.1 24.7,88.1 				"/>
				<polyline class="st2" points="25.4,88.1 25.6,88.1 25.4,88.1 				"/>
				<polyline class="st2" points="26.1,88 28.9,87.9 27.4,88 26.1,88 				"/>
				<polyline class="st3" points="41.8,88.6 42.3,88.6 41.8,88.6 				"/>
				<polyline class="st2" points="25.4,88.1 26.1,88 25.4,88.1 				"/>
				<polyline class="st2" points="25.6,88.1 26.1,88 27.4,88 28.2,88.1 26.4,88.1 28.2,88.1 26.4,88.1 25.6,88.1 				"/>
				<polyline class="st3" points="25.4,88.1 26.1,88 25.6,88.1 25.4,88.1 				"/>
				<polyline class="st3" points="26.1,88 27.4,88 26.1,88 				"/>
				<polyline class="st3" points="26.4,88.1 28.2,88.1 26.4,88.1 				"/>
				<polyline class="st2" points="27.4,88 28.9,87.9 29.7,88 27.4,88 				"/>
				<polyline class="st3" points="28.9,87.9 29.7,88 28.9,87.9 				"/>
				<polyline class="st3" points="27.4,88 28.9,87.9 27.4,88 				"/>
				<polyline class="st2" points="27.4,88 29.7,88 30.9,88.2 28.4,88.1 28.2,88.1 27.4,88 				"/>
				<polyline class="st3" points="27.4,88 29.7,88 27.4,88 				"/>
				<polyline class="st3" points="35.8,88.7 36.3,88.7 35.8,88.7 				"/>
				<polyline class="st2" points="36.3,88.7 36.8,88.6 38.8,88.7 36.3,88.7 				"/>
				<polyline class="st3" points="36.3,88.7 36.8,88.6 36.3,88.7 				"/>
				<polyline class="st3" points="36.8,88.6 38.8,88.7 36.8,88.6 				"/>
				<polyline class="st2" points="33.5,88.3 35,88.3 34.5,88.4 33.5,88.3 				"/>
				<polyline class="st2" points="28.2,88.1 28.4,88.1 33.5,88.3 28.2,88.1 				"/>
				<polyline class="st3" points="28.2,88.1 28.4,88.1 28.2,88.1 28.4,88.1 28.2,88.1 				"/>
				<polyline class="st4" points="28.2,88.1 28.4,88.1 28.2,88.1 				"/>
				<path class="st2" d="M47.1,76l1,0c0.3,0,0.7,0,0.9,0l0.3,0l0.4,0l0.8-0.1L49.7,76l-0.4,0l-0.3,0c-0.3,0-0.7,0-1.1,0l-1.2,0
					L47.1,76"/>
				<path class="st2" d="M48.7,75.6l0.2,0l0.3,0l0.4,0l0.8,0l1.6,0l-1.6,0.1l-0.8,0.1l-0.4,0l-0.3,0c-0.3,0-0.7,0-1.1,0L48.7,75.6"
					/>
				<path class="st2" d="M50.8,73.5c3.3-0.7,6.4-1.3,9.1-1.5l-4.6,0.8l0.2-0.1L50.8,73.5"/>
				<polyline class="st2" points="50.8,73.5 55.6,72.8 55.4,72.9 50.8,73.5 				"/>
				<polyline class="st3" points="50.8,73.5 55.6,72.8 50.8,73.5 				"/>
				<polyline class="st2" points="49.4,75.4 50.7,75.3 49.7,75.5 49.3,75.5 48.9,75.6 48.7,75.6 48.9,75.5 49.4,75.4 				"/>
				<polyline class="st2" points="39.9,76.9 41.3,76.8 39.9,76.9 				"/>
				<path class="st5" d="M-9.5,81.5l-1.2,0.1l-1.7,0.3c2.7,0.4,5.3,0.8,8.5,0.8l-1-0.2c3.4,0,5.9,0.4,8.8,0.5
					C-0.3,82.6-5.7,82.4-9.5,81.5"/>
				<polyline class="st2" points="9,82.4 10,82.4 9,82.4 				"/>
				<polyline class="st2" points="-3.9,82.8 -2.5,82.8 -3.9,82.8 				"/>
				<polyline class="st2" points="7.6,82.3 9,82.4 7.6,82.3 				"/>
				<polyline class="st2" points="40.5,78.2 42,78.1 43.5,78.2 40.5,78.3 40.5,78.2 				"/>
				<polyline class="st2" points="40.5,78.1 42,78.1 40.5,78.2 40.5,78.1 				"/>
				<polyline class="st2" points="39.9,77.5 41.2,77.6 44.1,77.7 40.5,77.8 39.9,77.5 				"/>
				<polyline class="st2" points="39.9,77.5 41.2,77.6 39.9,77.5 39.9,77.5 				"/>
				<polyline class="st2" points="39.7,77.3 43.1,77.5 41.2,77.6 39.9,77.5 39.7,77.3 				"/>
				<path class="st5" d="M40.5,78.3l2.9-0.1L42,78.1c2.3-0.2,5-0.5,7.3-0.6c0.4-0.1,0.8-0.1,1.1-0.2l-1.1,0.3c-0.9,0.2-2,0.4-3,0.5
					c-2.4,0.3-4.9,0.6-7.4,0.8L40.5,78.3"/>
				<polyline class="st6" points="40.5,78.3 43.5,78.2 40.5,78.3 				"/>
				<path class="st2" d="M37.7,79.2c3.7-0.1,7.8-0.5,10.6-0.3C48,79,47.7,79,47.5,79c-5,0.7-8.6,0.3-13.7,0.8c-0.1,0-0.3,0-0.4,0
					c2.5,0.2,6.4,0.1,8.9,0.2c-3.9,0.1-7.6,0-11.3-0.1C33.2,79.8,35.4,79.5,37.7,79.2"/>
				<polyline class="st2" points="43.7,79.9 48.9,80.1 46.7,80.3 43.7,79.9 				"/>
				<polyline class="st2" points="55.9,79.3 56.6,79.2 56.9,79.2 55.9,79.3 				"/>
				<path class="st2" d="M51.5,79.8l1.2-0.1l3.2-0.4l0.7-0.1L51.5,79.8 M52.7,79.7l3.2-0.4L52.7,79.7"/>
				<path class="st2" d="M46.7,80.3l2.2-0.1l0.8-0.1l3-0.4l3.2-0.4l1-0.1l-0.3,0l4.8-0.2l-5.3,1c-0.9,0-2,0-3,0.1
					c-0.5,0-1.1,0.1-1.6,0.1c-0.6,0-1,0.1-1.7,0.1C48.6,80.3,47.7,80.3,46.7,80.3"/>
				<polyline class="st3" points="46.7,80.3 48.9,80.1 46.7,80.3 				"/>
				<polyline class="st3" points="55.9,79.3 56.9,79.2 55.9,79.3 				"/>
				<polyline class="st3" points="52.7,79.7 55.9,79.3 52.7,79.7 				"/>
				<polyline class="st3" points="52.7,79.7 55.9,79.3 52.7,79.7 				"/>
				<path class="st2" d="M57.6,80c2.7-0.5,5.1-0.8,7.2-0.9c-2,0.5-3.8,1-5.8,1.5l0.6-0.5L57.6,80"/>
				<path class="st2" d="M83.4,44c-0.1-0.6-0.3-1.2-0.4-1.8c0.1,0.1,0.2,0.3,0.4,0.5C83.4,43.1,83.4,43.6,83.4,44"/>
				<path class="st7" d="M35.5,9.9c-1-0.5-2-0.9-2.9-1.3c-1-0.4-1.9-0.8-3-1.1c-2-0.8-3.9-1.6-5.5-2.4c2.4,0,4.9,0,7.3-0.1
					c3.8,0,7.6,1,10.1,2.3c2.6,1.3,4,2.7,3.7,3.4c-0.1,0.2-0.3,0.4-0.7,0.5c-1.6-0.5-3.3-0.9-4.7-1C38.3,9.8,36.8,9.8,35.5,9.9"/>
				<path class="st2" d="M59.8,19.4l-0.7-0.6c1.5,0.7,2,0.3,4.3,1.8C62.8,20.8,61.3,20,59.8,19.4"/>
				<path class="st8" d="M51.7,15.3c-1.2-1.5-3.2-2.7-5.5-3.6c-0.6-0.2-1.1-0.4-1.7-0.6c0.4-0.1,0.6-0.3,0.7-0.5
					c0.4-0.8-1.1-2.1-3.7-3.4c-2.5-1.3-6.3-2.2-10.1-2.3c2.9,0,5.9,0.3,8.7,0.9c2.8,0.6,5.7,1.7,8.4,2.8c1.8,0.8,3.6,1.6,5.3,2.6
					c1.2,0.7,2.5,1.4,3.7,2.2c0.3,0.2,0.7,0.5,1,0.6l0.9,0.5l1.9,1.1c2.5,1.5,4.9,3,7.3,4.7l-0.3-0.8c-1.1-0.9-2.2-1.7-3.4-2.5
					c-1.1-0.8-2.3-1.5-3.4-2.2c-0.4-0.2-0.7-0.4-1.1-0.6c-0.5-0.3-1.1-0.6-1.6-0.9c-0.6-0.3-1.1-0.7-1.6-1c-1-0.7-2-1.3-3.1-1.9
					c-2-1.2-4-2.2-5.9-3.3c3.1,1,6.2,2.5,9.1,4.3c0.5,0.3,1,0.6,1.4,0.9c0.5,0.3,1,0.6,1.5,0.9c1,0.6,1.9,1.2,2.8,1.8
					c2.8,1.9,5.4,3.9,7.6,6.1c1.1,1.1,2.2,2.2,3.2,3.3c1,1.1,1.9,2.2,2.7,3.2c1.1,1.5,2.9,3.7,4.5,6c-0.8-1.1-1.6-2.1-2.4-3.1
					l-0.6,0c0.9,1.6,1.8,3.1,2.5,4.8c-0.2-0.4-0.5-0.8-0.7-1.2c-0.9-1.4-1.9-2.7-3-4c-1-1.2-2-2.3-3.1-3.4c-0.7-0.7-1.4-1.3-2.2-1.9
					l0,0c-1.3-1-2.5-1.9-3.8-2.8c-1.3-0.9-2.7-1.7-4.2-2.6c1.1,0.8,2.1,1.6,3.1,2.5c0.4,0.5,0.6,0.8,0.6,1c-0.2,0.7-4.2-1.6-7-3.1
					l-0.3-0.3c1.5,0.6,3,1.3,3.6,1.2c-2.3-1.5-2.8-1.2-4.3-1.8l-0.5-1l-1.3-1c-0.1-0.1-0.2-0.1-0.4-0.3c-0.2-0.1-0.3-0.2-0.5-0.4
					l-0.4-0.4l-0.3-0.3c0.9,0.1,0.2-0.6-0.7-1.3c-0.9-0.7-1.9-1.4-1.6-1.6c-1.5-1.1-3.1-2-4.8-2.9c-1-0.2-2.1-0.3-3.1-0.4
					C49.3,11.4,52.6,14.3,51.7,15.3"/>
				<path class="st9" d="M45.2,10.5c0.4-0.8-1.1-2.1-3.7-3.4c-2.5-1.3-6.3-2.2-10.1-2.3c3.8,0,7.6,1,10.1,2.3
					C44.1,8.4,45.6,9.8,45.2,10.5"/>
				<path class="st10" d="M59.2,18.8c1.5,0.7,2,0.3,4.3,1.8C61.1,19.1,60.6,19.4,59.2,18.8"/>
				<path class="st2" d="M81.6,38.1c-0.4-1-0.9-2.3-1.1-2.9c-0.2-0.4-0.5-0.8-0.7-1.2c-0.9-1.4-1.9-2.7-3-4l-0.2-0.1
					c0.9,1.1,1.7,2.3,2.5,3.5c-1-1.2-2-2.5-3.1-3.6c1,1.5,2.5,3.3,3.7,5.1l0.5,0.7c0.1,0.1,0.1,0.2,0.2,0.3l0.2,0.4L81.6,38.1
					 M79.8,34c-0.9-1.4-1.9-2.7-3-4C77.8,31.3,78.8,32.6,79.8,34"/>
				<path class="st3" d="M79.8,34c-0.9-1.4-1.9-2.7-3-4C77.8,31.3,78.8,32.6,79.8,34"/>
				<polyline class="st2" points="59.2,19.1 59.2,18.8 59.8,19.4 59.2,19.1 				"/>
				<polyline class="st2" points="42.1,1.4 41.9,1 42.1,1.4 				"/>
				<path class="st11" d="M58.6,24.7c-2-2.1-2-3-1.4-3.7c0.6-0.7,1.8-1,1.9-1.9l0.6,0.3l0.3,0.3c2.8,1.5,6.8,3.7,7,3.1
					c0-0.2-0.1-0.5-0.6-1c-1-0.9-2.1-1.7-3.1-2.5c1.5,0.9,2.9,1.7,4.2,2.6c1.3,0.9,2.5,1.8,3.8,2.8c0.8,0.6,1.5,1.2,2.2,1.9
					c1.1,1.1,2.1,2.2,3.1,3.4l-0.2-0.1c-0.9-1-1.8-2-2.8-3c1.4,1.9,3.6,4.2,5.4,6.5c-1-1.2-2-2.5-3.1-3.6c1,1.5,2.5,3.3,3.7,5.1
					l-0.6-0.4c0.1,0.5,0.3,0.9,0.4,1.4c0.1,0.2,0,0.3,0,0.5l0,0.2l0.1,0.4l-0.1-0.3c0-0.1,0-0.1-0.1-0.2c0-0.1-0.1-0.2-0.1-0.4
					L78.6,35c-0.4-0.7-0.9-1.5-1.3-2.2c-0.5-0.3-1-0.7-1.5-1c0.3,0.9,0.6,2,0.9,3.2c0.2,0.6,0.4,1.2,0.6,1.9
					c0.1,0.2,0.1,0.3,0.2,0.5c0,0.1,0,0.2,0,0.2c0,0.1,0,0,0,0.1l0.1,0.3c0.1,0.2,0.2,0.4,0.2,0.7c-0.1-0.3-0.2-0.6-0.3-0.9
					c-0.1-0.2,0-0.2-0.1-0.2c0-0.1,0-0.1,0-0.1c0,0,0,0,0-0.1l-0.1-0.2l-0.2-0.4l-0.3-0.7c-0.4-1-0.9-1.9-1.5-2.9
					c-1.1-1.9-2.6-3.9-4.9-6.1l-0.7,0.1l-1-1.2c0.2,0.4,0.5,1,0.9,1.5c0.4,0.5,0.7,1,1,1.5c0.7,1,1.3,2,1.4,2.7
					c-0.7-1.1-1.5-2.1-2.3-3.1c-0.2,0.6,1,2.1,1.1,2.8c-0.9-1.3-1.2-2.3-1.6-3.3c-0.3-0.5-0.6-1.1-1.1-1.7c-0.4-0.5-0.9-1.1-1.7-1.7
					l-0.1-0.1l-0.2-0.2c-2.8-2.1-4.5-2.6-5.3-2.4c-0.8,0.3-0.6,1.3,0.2,2.7l-1-0.9C58,22.9,59.4,24.7,58.6,24.7"/>
				<path class="st12" d="M67.1,22.8c0-0.2-0.1-0.5-0.6-1c-1-0.9-2.1-1.7-3.1-2.5c1.1,0.8,2.1,1.6,3.1,2.5
					C67,22.3,67.2,22.7,67.1,22.8"/>
				<path class="st12" d="M63.5,19.3c1.5,0.9,2.9,1.7,4.2,2.6c1.3,0.9,2.5,1.8,3.8,2.8c-1.3-1-2.5-1.9-3.8-2.8
					C66.3,21,64.9,20.2,63.5,19.3"/>
				<path class="st13" d="M79.1,33.4c-1-1.2-2-2.5-3.1-3.6C77,31,78.1,32.2,79.1,33.4"/>
				<polyline class="st13" points="76.5,29.9 76.7,30 76.5,29.9 				"/>
				<path class="st11" d="M85,40.3l0.5,0.7c0.3,0.3,0.5,0.6,0.8,0.9c-0.2-0.4-0.4-0.8-0.5-1.2c0.2,0.4,0.4,0.8,0.5,1.2l0.5,0
					c-0.1-0.5-0.3-1.1-0.5-1.6c-0.2-0.5-0.4-1.1-0.6-1.6c0.3,0.6,0.6,1.2,0.8,1.7c-0.3-0.9-0.7-1.9-1-2.8c0.5,1.1,1.1,2.2,1.5,3.3
					l0.2-0.1c-0.1-0.4-0.2-0.8-0.4-1.1c-0.7-1.3-1.4-2.7-2.1-4c-0.3-0.7-0.7-1.3-1-2c-0.3-0.6-0.7-1.2-1.1-1.8
					c0.4,0.5,0.8,1,1.2,1.5l1,1.6c1.3,2.3,2.8,4.6,3.8,7.2l0.5,0.9c-0.5-1.8-1.3-3.6-2.1-5.2c-0.8-1.7-1.5-3.2-1.9-4.6
					c0.1,0.2,0.3,0.5,0.4,0.7c1.3,2.2,2.2,4.1,3.1,6.2c0.8,2.1,1.4,4.2,2,6.7l0.1,0.4c0-1.2-0.3-2.9-0.7-4.4c-0.4-1.6-1-3.2-1.4-4.4
					c1.7,3.7,2.4,7.6,2.4,11.2c0,0.2,0,0.3,0,0.5c-0.3,2.4-1.1,4.6-2.3,6.4c-0.3,0.5-0.6,0.9-1,1.3c-0.2,0.2-0.3,0.5-0.5,0.7
					l-0.4,0.7c-0.6,0.9-1.3,1.8-1.9,2.6c0.6-0.7,1.3-1.3,1.8-2.1c0.6-0.7,1.1-1.6,1.8-2.2c-0.7,0.7-1.2,1.5-1.8,2.2
					c-0.6,0.7-1.2,1.4-1.8,2.1c-1.1,1.3-2.4,2.5-3.7,3.5c-0.3,0.3-0.6,0.5-1,0.7c-0.4,0.2-0.7,0.5-1.1,0.7c-0.7,0.4-1.4,0.9-2.2,1.3
					c-2.9,1.6-5.9,2.8-9.1,3.8c1.7-0.3,3.4-0.7,5.1-1.3c-2.8,2-6.5,3.2-9.4,4.2c4.9-1,9.3-2.3,13.6-4.7c-4.3,2.4-8.7,3.6-13.6,4.7
					c-0.3,0.1-0.6,0.2-0.9,0.3c4.2-0.1,9.4-1.9,13.4-3.5c-2.7,1.3-5.1,2-8.4,3.1l1-0.2c0.5-0.2,0.9-0.3,1.4-0.5
					c-0.5,0.2-0.9,0.3-1.4,0.5c-1.5,0.5-3,0.9-4.4,1.2c-1.4,0.3-2.8,0.4-4.1,0.5c-2.7,1.3-5.9,2.7-9.2,3.5l-1,0.2l-0.8,0.1l0.8-0.1
					l3-0.4l-1.2,0.1l5.2-0.6l4.8-0.2l-5.3,1l1.5,0c2.7-0.5,5.1-0.8,7.2-0.9c-2,0.5-3.8,1-5.8,1.5L55.8,82l0.7,0.7
					c1.1,0.1,2.5,0,4.1-0.1c0.8-0.1,1.7-0.2,2.6-0.4c0.5-0.1,0.9-0.2,1.4-0.3l0.4-0.1l0.4-0.1c0.3-0.1,0.6-0.2,0.9-0.3
					c0.3-0.1,0.5-0.2,0.8-0.2l-0.5-0.6c0.5,0,1,0.1,1.4,0.1c0.7-0.4,1.4-0.9,2.1-1.3c0.8-0.3,1.5-0.5,2.3-0.8c1.1-1,2.6-1.8,4.3-2.7
					c1.7-0.9,3.5-1.8,5.1-2.9c-0.5,0.2-1,0.5-1.5,0.7c0.6-0.7,1.3-1.4,2.2-2c0.3-0.2,0.7-0.5,1-0.7c0.2-0.1,0.4-0.3,0.7-0.5l0.6-0.4
					c0.7-0.5,1.4-1.1,2-1.6c0.9-0.7,1.8-1.5,2.6-2.3c0.1-0.1,0.1-0.2,0.2-0.3L89.6,66l0.1-0.1c1.1-1.3,2.1-2.7,2.9-4.1
					c0.1-0.1,0.2-0.2,0.4-0.3c0,0,0.1-0.1,0.2-0.2l0.2-0.3c0.2-0.2,0.3-0.4,0.5-0.6c0.4-0.4,0.7-0.9,1.1-1.4
					c-0.3,0.5-0.7,0.9-1.1,1.4c-0.4,0.5-1,1.2-1,1.2l0.1-0.1l0.1,0c0,0,0.1-0.1,0.1-0.1c0.2-0.2,0.4-0.4,0.6-0.6
					c-0.2,0.2-0.4,0.4-0.5,0.7l-0.1,0.2l-0.1,0L93,61.8c-0.1,0.1-0.2,0.2-0.5,0.7c0.4-0.5,0.4-0.5,0.6-0.7l0.1-0.1l0.1,0l0.1-0.1
					c0.2-0.2,0.4-0.4,0.5-0.7c0.7-0.9,1.4-1.9,2-2.9c0.4-0.7,0.7-1.5,1-2.3c-0.1,0.2-0.1,0.5-0.2,0.7c0.5-1,0.9-2,1.2-3.1
					c0.3-1.3,0.5-2.6,0.6-3.9c-0.1-1.3-0.3-2.8-0.4-3.6c-0.3-1.3-0.8-2.6-1.2-3.8c0.4,1,0.8,2.1,1.1,3.2l0.3,0.9
					c0.1,0.3,0.1,0.5,0.3,1l-0.2-0.9l-0.2-0.8c-0.1-0.5-0.2-1-0.4-1.5c-0.3-1-0.6-2-0.9-3l0.3,0.2c-0.4-1.2-0.8-2.5-1.5-3.9
					c-0.1-0.3-0.3-0.7-0.5-1c-0.2-0.4-0.4-0.7-0.6-1.1c-0.3-0.5-0.6-1.1-0.9-1.6l-0.1-0.2l-2.3-3.5l2.1,3.1l0.3-0.4
					c-0.3-0.5-0.6-1-1-1.5c-0.4-0.5-0.7-1.1-1.1-1.6c-0.3-0.5-0.7-1-1-1.4l-0.7-0.9c-0.5-0.6-0.9-1.2-1.4-1.7
					c-0.5-0.6-0.9-1.1-1.4-1.7l0.3,0.5c-0.9-1.1-1.9-2.1-2.9-3.1c-1.8-1.6-3.7-3-5.7-4.2c0.4,0.5,0.8,1,1.2,1.5
					c-0.4-0.5-0.8-1-1.2-1.5c-0.8-0.5-1.5-0.9-2.2-1.4c-0.8-0.5-1.6-1-2.4-1.4c-1.6-0.9-3.1-1.7-4.6-2.4c-3-1.4-5.8-2.3-8.3-2.9
					c3.3,1.5,6.5,3.2,9.4,4.6c1,0.6,2,1.2,3,1.9c0.5,0.3,1,0.7,1.5,1l1.4,1l1.4,1c0.5,0.4,1,0.8,1.5,1.2c1,0.8,1.9,1.7,2.8,2.6
					c0.4,0.4,0.8,0.8,1.2,1.2c-1.5-1.2-3.1-2.3-4.7-3.4l0.2,0.2L78,19.1l1,0.5c-0.8-0.7-1.7-1.4-2.4-1.9c-0.7-0.5-1.5-1.1-2.2-1.6
					c-1.5-1.1-3.1-2-4.6-2.9c-1.5-0.9-3.1-1.7-4.6-2.5c-0.8-0.4-1.6-0.8-2.4-1.2C62.4,9.2,62,9,61.6,8.8c-0.4-0.2-0.4-0.2-0.8-0.5
					c0.1,0,0.2,0.1,0.3,0.1l0.2,0c0.1,0,0.1,0,0.2,0c0.1,0,0.1,0,0.2,0c-0.4-0.1-1.6-0.9-2.6-1.4c-1-0.5-2-1-3-1.5
					c-2-0.9-4.1-1.7-6.3-2.4c-1.7-0.2-3.4-0.4-5.1-0.4c1.3,0.4,2.6,0.9,3.8,1.4c-0.7-0.2-1.5-0.4-2.2-0.6c-0.3,0-1.6-0.3-1.8-0.2
					c-0.1,0.1,0.3,0.2,1.6,0.8c1.3,0.5,3.7,1.4,7.4,3.2c1.3,0.6,2.6,1.3,3.8,2C53,7.3,48.9,6,45.4,5.6c1,0.5,1.9,1,2.8,1.5
					c3.1,1,6.2,2.5,9.1,4.3c0.5,0.3,1,0.6,1.4,0.9c0.5,0.3,1,0.6,1.5,0.9c1,0.6,1.9,1.2,2.8,1.8c2.8,1.9,5.4,3.9,7.6,6.1
					c1.1,1.1,2.2,2.2,3.2,3.3c1,1.1,1.9,2.2,2.7,3.2c1.1,1.5,2.9,3.7,4.5,6l0.3,0.4l-0.7-1.3c0.4,0.6,0.8,1.2,1.1,1.8
					c-0.4-1-0.9-2.1-1.4-3.1c0.4,0.6,0.7,1.3,1,1.9l0.5,1c0.1,0.3,0.2,0.5,0.3,0.9l0.5,0.6l-0.4-0.8c-0.1-0.2-0.2-0.5-0.3-0.7
					c-0.3-0.5-0.6-1.1-0.9-1.6c0.3,0.6,0.7,1.2,1,1.7c0.2,0.5,0.5,1.2,0.8,1.8l0.7,0.7L85,40.3 M78.7,69.2
					c-3.3,1.7-6.4,2.7-10.7,4.2C72.3,72,75.4,70.9,78.7,69.2c0.4-0.2,0.9-0.5,1.3-0.7c0.3-0.2,0.6-0.4,0.8-0.5
					c-0.3,0.2-0.6,0.4-0.8,0.5C79.6,68.7,79.1,69,78.7,69.2l0.1-0.3c1.1-0.7,2.2-1.4,3.3-2.3c-1,0.9-2.2,1.5-3.3,2.3L78.7,69.2
					 M90.9,53c-0.5,1.7-1.3,2.9-2.1,4c-0.2,0.3-0.5,0.5-0.7,0.8c-0.2,0.3-0.5,0.5-0.7,0.8c-0.4,0.6-0.8,1.2-1.3,1.8
					c0.4-0.6,0.9-1.2,1.3-1.8c0.2-0.3,0.5-0.6,0.7-0.8c0.2-0.2,0.5-0.5,0.7-0.8C89.6,56,90.4,54.7,90.9,53 M91.3,50.1
					c0-0.1,0-0.2,0-0.3c-0.1-0.8-0.2-1.7-0.4-2.5c0.1,0.8,0.3,1.7,0.4,2.5C91.3,49.9,91.3,50,91.3,50.1c-0.4,3-1.5,5.1-3.2,7.3
					C89.8,55.1,90.9,53.1,91.3,50.1 M80.8,67.4c0.4-0.3,0.7-0.7,1.1-1.1C81.5,66.7,81.1,67.1,80.8,67.4 M63,12.3c-1-0.5-2-1-2.9-1.4
					c-0.2-0.1-0.4-0.2-0.6-0.3l-0.7-0.4c-0.5-0.3-1-0.5-1.5-0.8c0.5,0.2,1,0.5,1.5,0.8l0.7,0.4c0.2,0.1,0.4,0.2,0.6,0.3
					C61,11.3,62,11.8,63,12.3 M63,12.3c-1-0.5-2-1-2.9-1.4c-0.2-0.1-0.4-0.2-0.6-0.3l-0.7-0.4c-0.5-0.3-1-0.5-1.5-0.8
					c0.5,0.2,1,0.5,1.5,0.8l0.7,0.4c0.2,0.1,0.4,0.2,0.6,0.3C61,11.3,62,11.8,63,12.3 M63,12.3l0.9,0.5l0.9,0.4l0.9,0.5l0.9,0.4
					l0.1,0l0.8,0.5l0.9,0.5l0.9,0.5l0.9,0.5l0.9,0.5l0.6,0.4l0.9,0.5l0.9,0.5l0.9,0.6l0.6,0.4l0.8,0.5l0.7,0.3
					c-0.8-0.6-1.5-1.1-2.2-1.6c-0.8-0.5-1.5-1-2.2-1.5c-1.5-0.9-2.9-1.7-4.4-2.5l-0.3-0.2l-0.2-0.1l-1.1-0.5l-0.3-0.1L64.6,13
					l-0.5-0.2C63.7,12.6,63.4,12.5,63,12.3 M48.6,4.2c0.4,0.2,0.8,0.3,1.3,0.5c0.3,0.1,0.6,0.2,0.9,0.4l0.9,0.4l0.9,0.4l1.2,0.5
					l0.6,0.2c0.5,0.2,1,0.4,1.5,0.7l0,0l0.9,0.4l-0.9-0.4l0.9,0.4l-0.9-0.4l0,0c0.3,0.1,0.6,0.3,1,0.4c-0.4-0.2-0.8-0.4-1.2-0.6
					L55,6.9l-1.2-0.5l-0.4-0.2c-0.4-0.2-0.7-0.3-1.1-0.5l-0.6-0.3L51,5.1C50.2,4.8,49.3,4.5,48.6,4.2 M66.6,80.6l0-0.1l-1.1,0.2
					L66.6,80.6"/>
				<path class="st1" d="M63,12.3c1.2,0.6,2.4,1.2,3.5,1.9l-0.9-0.4l-0.9-0.5l-0.9-0.4L63,12.3"/>
				<path class="st1" d="M64.1,12.8l0.5,0.2l0.9,0.5l0.3,0.1C65.2,13.3,64.7,13.1,64.1,12.8"/>
				<path class="st1" d="M66.6,14.2c1.7,1,3.4,2,5.1,3c0.8,0.5,1.6,1,2.4,1.5c0.8,0.5,1.4,0.9,2.2,1.3l-0.7-0.3l-0.8-0.5l-0.6-0.4
					l-0.9-0.6l-0.9-0.5l-0.9-0.5l-0.6-0.4l-0.9-0.5l-0.9-0.5l-0.9-0.5l-0.9-0.5L66.6,14.2"/>
				<polyline class="st1" points="66.9,14.2 67.1,14.3 67.4,14.4 66.9,14.2 				"/>
				<path class="st14" d="M89.6,65.9L89.6,66l-0.1,0.1C89.5,66.1,89.6,66,89.6,65.9"/>
				<path class="st13" d="M80.4,18.1c-0.4-0.5-0.8-1-1.2-1.5C79.5,17.1,80,17.6,80.4,18.1"/>
				<polyline class="st13" points="51.5,79.8 52.7,79.7 51.5,79.8 				"/>
				<polyline class="st13" points="56.1,80 61.4,79 56.1,80 				"/>
				<path class="st13" d="M64.7,79.2c-2,0.5-3.8,1-5.8,1.5C60.9,80.1,62.8,79.7,64.7,79.2"/>
				<polyline class="st15" points="63,12.3 63.9,12.8 64.8,13.2 65.7,13.7 66.5,14.1 65.7,13.7 64.8,13.2 63.9,12.8 63,12.3 				"/>
				<polyline class="st15" points="64.1,12.8 64.6,13 65.5,13.5 65.8,13.6 65.5,13.5 64.6,13 64.1,12.8 				"/>
				<polyline class="st15" points="66.6,14.2 67.4,14.7 68.3,15.2 69.2,15.7 70.1,16.2 70.9,16.7 71.6,17.1 72.4,17.7 73.3,18.2 
					74.2,18.8 74.8,19.2 75.6,19.7 76.3,20 75.6,19.7 74.8,19.2 74.2,18.8 73.3,18.2 72.4,17.7 71.6,17.1 70.9,16.7 70.1,16.2 
					69.2,15.7 68.3,15.2 67.4,14.7 66.6,14.2 				"/>
				<polyline class="st15" points="66.9,14.2 67.1,14.3 67.4,14.4 67.1,14.3 66.9,14.2 				"/>
				<path class="st15" d="M57.3,9.4c0.5,0.2,1,0.5,1.5,0.8l0.7,0.4c0.2,0.1,0.4,0.2,0.6,0.3c0.9,0.4,2,0.9,2.9,1.4
					c-1-0.5-2-1-2.9-1.4c-0.2-0.1-0.4-0.2-0.6-0.3l-0.7-0.4C58.3,9.9,57.8,9.7,57.3,9.4"/>
				<path class="st15" d="M57.3,9.4c0.5,0.2,1,0.5,1.5,0.8l0.7,0.4c0.2,0.1,0.4,0.2,0.6,0.3c0.9,0.4,2,0.9,2.9,1.4
					c-1-0.5-2-1-2.9-1.4c-0.2-0.1-0.4-0.2-0.6-0.3l-0.7-0.4C58.3,9.9,57.8,9.7,57.3,9.4"/>
				<path class="st12" d="M81.1,33.6c-1.6-2.3-3.4-4.5-4.5-6c-0.8-1.1-1.7-2.2-2.7-3.2c-1-1-2.1-2.2-3.2-3.3
					c-2.3-2.2-4.8-4.2-7.6-6.1c2.8,1.9,5.4,3.9,7.6,6.1c1.1,1.1,2.2,2.2,3.2,3.3c1,1.1,1.9,2.2,2.7,3.2
					C77.7,29.1,79.5,31.3,81.1,33.6"/>
				<path class="st12" d="M48.2,7.1c3.1,1,6.2,2.5,9.1,4.3C54.4,9.6,51.3,8.1,48.2,7.1"/>
				<path class="st1" d="M51.6,5.5l-0.9-0.4c1.2,0.5,2.4,1,3.6,1.5l-0.6-0.2l-1.2-0.5L51.6,5.5"/>
				<path class="st1" d="M51,5.1l0.7,0.3l0.6,0.3C51.9,5.5,51.4,5.3,51,5.1"/>
				<path class="st1" d="M53.4,6.2l0.4,0.2L55,6.9l0.7,0.3C54.9,6.9,54.2,6.5,53.4,6.2"/>
				<path class="st1" d="M55.9,7.3C55.9,7.3,55.9,7.3,55.9,7.3L55.9,7.3L55.9,7.3"/>
				<polyline class="st2" points="42.9,1.6 43.4,1.7 42.9,1.6 				"/>
				<path class="st7" d="M44.7,2.8C44,2.5,43.2,2.3,42.4,2c-0.8-0.2-1.6-0.4-2.4-0.6c-1.6-0.4-3.2-0.7-4.8-0.9
					c-1.6-0.2-3.2-0.3-4.9-0.3c-1.5,0-3,0-4.5,0l3.6-0.8L29-0.5c0.4,0,0.8,0,1.4,0c0.6,0,1.2,0,1.8,0c0.6,0,1.3,0,1.9,0
					c2,0.1,4.1,0.3,5.8,0.7c0.7,0.3,1.4,0.5,2,0.8l0,0l0.2,0.4c-0.6,0-1.1,0-1.6,0c0.8,0.1,1.6,0.2,2.4,0.3l0.5,0.1
					c2.1,0.4,4.3,0.9,6.4,1.5C48.1,3,46.4,2.9,44.7,2.8"/>
				<path class="st16" d="M32.1-0.6c-0.6,0-1.2,0-1.8,0c-0.5,0-0.9,0-1.4,0c0.4,0,0.8,0,1.4,0C30.9-0.6,31.5-0.6,32.1-0.6
					c0.6,0,1.3,0,1.9,0C33.4-0.6,32.8-0.6,32.1-0.6"/>
				<polyline class="st16" points="29,-0.5 29.5,-0.6 29,-0.5 				"/>
				<polyline class="st17" points="42.1,1.4 41.9,1 41.9,1 42.1,1.4 				"/>
				<path class="st16" d="M44.7,2.8c1.7,0.1,3.4,0.2,5.1,0.4C48.1,3,46.4,2.9,44.7,2.8"/>
				<path class="st7" d="M42.8,5.6c-3.4-1-8-1.9-11.9-2c1.6-0.6,3.8-1,6.3-1.1c1.2-0.1,2.5-0.1,3.8,0c1.3,0.1,2.6,0.2,3.7,0.4
					c1.3,0.4,2.6,0.9,3.8,1.4c-0.7-0.2-1.5-0.4-2.2-0.6c-0.3,0-1.6-0.3-1.8-0.2c-0.1,0.1,0.3,0.2,1.6,0.8c1.3,0.5,3.7,1.4,7.4,3.2
					c1.3,0.6,2.6,1.3,3.8,2C53,7.3,48.9,6,45.4,5.6c1,0.5,1.9,1,2.8,1.5c-0.6-0.2-1.2-0.4-1.9-0.6c-0.8-0.2-1.6-0.4-2.6-0.7
					C43.5,5.8,43.1,5.7,42.8,5.6"/>
				<path class="st16" d="M45.4,5.6C48.9,6,53,7.3,57.3,9.4C53,7.3,48.9,6,45.4,5.6"/>
				<path class="st16" d="M44.5,3.5c0.2-0.1,1.4,0.2,1.8,0.2c0.7,0.2,1.5,0.4,2.2,0.6c-0.7-0.2-1.5-0.4-2.2-0.6
					C46,3.7,44.7,3.4,44.5,3.5"/>
				<path class="st18" d="M53.8,11.1c-1.7-1-3.5-1.8-5.3-2.6c-2.7-1.1-5.6-2.1-8.4-2.8c-2.9-0.6-5.8-0.9-8.7-0.9c-1.8,0-3.7,0-5.5,0
					L24.1,5c-1-0.6-1.9-1.1-2.7-1.7c-0.8-0.6-1.3-1.1-1.7-1.8c0,0,0-0.1,0-0.1l0.1,0c0.4,0,0.9-0.2,1.3-0.3L21.3,1L21.7,1l0.8-0.2
					l3.3-0.6c1.5,0,3,0,4.5,0c1.6,0,3.3,0.1,4.9,0.3c1.6,0.2,3.2,0.5,4.8,0.9c0.8,0.2,1.6,0.4,2.4,0.6c0.8,0.2,1.5,0.5,2.3,0.8
					c-1.2-0.1-2.4-0.3-3.7-0.4c-1.3-0.1-2.6-0.1-3.8,0c-2.5,0.1-4.7,0.5-6.3,1.1c3.9,0.1,8.4,1,11.9,2l0,0c0.3,0.1,0.7,0.2,1,0.3
					c1,0.3,1.8,0.5,2.6,0.7c0.6,0.2,1.2,0.4,1.9,0.6c1.9,1,3.8,2.1,5.9,3.3c1,0.6,2,1.2,3.1,1.9c0.5,0.3,1,0.7,1.6,1
					c0.5,0.3,1.1,0.6,1.6,0.9c0.4,0.2,0.7,0.4,1.1,0.6c1.2,0.7,2.3,1.4,3.4,2.2c1.2,0.8,2.3,1.6,3.4,2.5l0.3,0.8
					c-2.3-1.7-4.8-3.3-7.3-4.7l-1.9-1.1L58.5,14c-0.4-0.2-0.8-0.4-1-0.6C56.3,12.6,55.1,11.8,53.8,11.1"/>
				<path class="st13" d="M53.8,11.1c1.2,0.7,2.5,1.4,3.7,2.2c0.3,0.2,0.7,0.5,1,0.6l0.9,0.5l1.9,1.1c2.5,1.5,4.9,3,7.3,4.7
					c-2.3-1.7-4.8-3.3-7.3-4.7l-1.9-1.1L58.5,14c-0.4-0.2-0.8-0.4-1-0.6C56.3,12.6,55.1,11.8,53.8,11.1"/>
				<path class="st13" d="M48.5,8.5c-2.7-1.1-5.6-2.1-8.4-2.8c-2.9-0.6-5.8-0.9-8.7-0.9c2.9,0,5.9,0.3,8.7,0.9
					C43,6.4,45.8,7.4,48.5,8.5"/>
				<path class="st13" d="M64.9,17c-1.1-0.8-2.3-1.5-3.4-2.2c-0.4-0.2-0.7-0.4-1.1-0.6c-0.5-0.3-1.1-0.6-1.6-0.9
					c-0.6-0.3-1.1-0.7-1.6-1c-1-0.7-2-1.3-3.1-1.9c1,0.6,2,1.2,3.1,1.9c0.5,0.3,1,0.7,1.6,1c0.5,0.3,1.1,0.6,1.6,0.9
					c0.4,0.2,0.7,0.4,1.1,0.6C62.6,15.6,63.8,16.3,64.9,17"/>
				<path class="st19" d="M42.8,5.6L42.8,5.6c0.3,0.1,0.7,0.2,1,0.3C43.5,5.8,43.1,5.7,42.8,5.6"/>
				<path class="st19" d="M30.9,3.6c1.6-0.6,3.8-1,6.3-1.1c1.2-0.1,2.5-0.1,3.8,0c1.3,0.1,2.6,0.2,3.7,0.4c-1.2-0.1-2.4-0.3-3.7-0.4
					c-1.3-0.1-2.6-0.1-3.8,0C34.7,2.6,32.5,3,30.9,3.6"/>
				<path class="st2" d="M31.4,4.8C29,4.9,26.6,4.9,24.1,5L26,4.9C27.8,4.8,29.7,4.8,31.4,4.8"/>
				<path class="st17" d="M31.4,4.8C29,4.9,26.6,4.9,24.1,5C26.6,4.9,29,4.9,31.4,4.8"/>
			</g>
		</g>
	</g>
</g>
<g>
	<g>
		<g>
			<g class="st0">
				<path class="st1" d="M33.5,7.8c0.6,0,1.1,0.2,1.7,0.3c0.6,0.1,1.2,0.1,1.9,0.1c0.4-0.3,0.7-0.6,1-0.8c-0.1,0.3-0.4,0.7-0.6,1.1
					c-0.1,0.2-0.3,0.4-0.4,0.5C37.1,9,37,9,36.9,9l-0.1,0c-0.1,0-0.2,0.2-0.3,0.3l-0.3,0.4c-0.2,0.3-0.4,0.6-0.5,0.9
					c-0.4,0.6-0.7,1.3-1.1,1.9C34,14,33.2,15.2,32.4,16c0.3-0.6,0.5-1.3,0.7-2c0.1-0.2,0.1-0.5,0.2-0.7c0.1-0.4,0.3-0.8,0.4-1.1
					l0,0.2l-0.2-1.6l0.5-1.4l-0.5,1.4L33.5,7.8L33.5,7.8"/>
				<path class="st1" d="M26,51L26,51l0.2,0.3c0.1,1.4,0.1,2.9,0.4,4.3c0.2,1.6,0.1,3.3-0.2,5c-0.1,0.3-0.1,0.7-0.2,1l-0.5-2.2
					l0-0.2C26.3,56.3,25.7,53.7,26,51"/>
				<path class="st2" d="M28.5,61.8c0.1,1.6,0.1,3.4,0,5.1l-0.4-0.1c0.1-0.9,0-2,0.2-3c0-0.3,0.1-0.6,0.2-0.8l-0.1,0.2L28.5,61.8"/>
				<polyline class="st2" points="27.6,65.3 27.7,66.8 27.5,67 27.6,65.3 				"/>
				<polyline class="st2" points="17.4,49 17.6,48.6 17.4,49.1 17.4,49 				"/>
				<polyline class="st2" points="10.9,63.9 11.3,63.2 10.9,63.9 				"/>
				<polyline class="st2" points="11.3,63.2 11.3,63.1 11.3,63.2 				"/>
				<polyline class="st2" points="23.6,75.3 23.9,74.9 23.6,75.3 				"/>
				<polyline class="st2" points="11.5,67.1 11.6,66.9 11.5,67.1 				"/>
				<polyline class="st2" points="32.2,32.7 33,31.7 32.2,32.7 				"/>
				<polyline class="st2" points="17.6,48.6 18.1,47.9 17.6,48.6 				"/>
				<polyline class="st2" points="24.9,74.2 25.1,73.5 24.9,74.1 24.9,74.2 				"/>
				<polyline class="st2" points="23.1,76.2 23.6,75.3 23.3,75.9 23.1,76.2 				"/>
				<polyline class="st2" points="26,70 26,71.1 26,71.3 26,71.1 26,71.3 25.9,71.3 26,70 				"/>
				<path class="st2" d="M24.1,75.4l0.7-1.2l0.3-0.7l-0.2,0.6c0.7-1.3,1.3-2.6,1.8-4.1l-0.2-0.2l-0.5,2l0-0.6L26,71.3l-0.1,0.4
					l0.1-0.4l-0.8,2l0.5-0.8l-0.5,1l0-0.2l-0.6,0.9L24.1,75.4 M25,73.5l0,0.2L25,73.5"/>
				<polyline class="st3" points="24.9,74.1 25.1,73.5 24.9,74.1 				"/>
				<polyline class="st3" points="26,71.3 26,71.1 26,71.3 				"/>
				<polyline class="st2" points="22.7,77.7 22.9,77.2 23.2,76.5 24.2,74.5 24.5,74.1 24.1,75.4 22.7,77.7 				"/>
				<polyline class="st2" points="25.8,71.7 25.9,71.3 26,71.3 25.8,71.7 				"/>
				<polyline class="st3" points="25.8,71.7 25.9,71.3 25.8,71.7 				"/>
				<polyline class="st2" points="22.7,77.9 22.8,77.5 22.9,77.2 22.7,77.7 22.7,77.9 				"/>
				<polyline class="st2" points="22.7,77.6 22.8,77.5 22.7,77.6 				"/>
				<polyline class="st2" points="22.8,77.3 23.1,76.2 23,76.8 22.8,77.3 				"/>
				<polyline class="st3" points="26,71.3 26,71.1 26,71.3 				"/>
				<polyline class="st2" points="22.7,77.6 22.8,77.3 22.7,77.6 				"/>
				<polyline class="st2" points="22.8,77.5 22.8,77.3 23,76.8 23.2,76.5 22.9,77.2 23.2,76.5 22.9,77.2 22.8,77.5 				"/>
				<polyline class="st3" points="22.7,77.6 22.8,77.3 22.8,77.5 22.7,77.6 				"/>
				<polyline class="st3" points="22.8,77.3 23,76.8 22.8,77.3 				"/>
				<polyline class="st3" points="22.9,77.2 23.2,76.5 22.9,77.2 				"/>
				<polyline class="st2" points="23,76.8 23.1,76.2 23.3,75.9 23,76.8 				"/>
				<polyline class="st3" points="23.1,76.2 23.3,75.9 23.1,76.2 				"/>
				<polyline class="st3" points="23,76.8 23.1,76.2 23,76.8 				"/>
				<polyline class="st2" points="23,76.8 23.3,75.9 23.7,75.5 23.2,76.4 23.2,76.5 23,76.8 				"/>
				<polyline class="st3" points="23,76.8 23.3,75.9 23,76.8 				"/>
				<polyline class="st3" points="25,73.7 25,73.5 25,73.7 				"/>
				<polyline class="st2" points="25,73.5 25.1,73.3 25.6,72.5 25,73.5 				"/>
				<polyline class="st3" points="25,73.5 25.1,73.3 25,73.5 				"/>
				<polyline class="st3" points="25.1,73.3 25.6,72.5 25.1,73.3 				"/>
				<polyline class="st2" points="24.2,74.5 24.5,73.9 24.5,74.1 24.2,74.5 				"/>
				<polyline class="st2" points="23.2,76.5 23.2,76.4 24.2,74.5 23.2,76.5 				"/>
				<polyline class="st3" points="23.2,76.5 23.2,76.4 23.2,76.5 23.2,76.4 23.2,76.5 				"/>
				<polyline class="st4" points="23.2,76.5 23.2,76.4 23.2,76.5 				"/>
				<polyline class="st2" points="14.8,66.7 15.6,65.2 14.8,66.9 14.8,66.7 				"/>
				<polyline class="st2" points="14.7,65.9 15.8,64.6 14.8,66.4 14.7,65.9 				"/>
				<path class="st2" d="M13.4,64.6c0.3-1.4,0.5-2.7,1.2-3.8L14,62.7l0-0.1L13.4,64.6"/>
				<polyline class="st2" points="13.4,64.6 14.1,62.6 14,62.7 13.4,64.6 				"/>
				<polyline class="st3" points="13.4,64.6 14.1,62.6 13.4,64.6 				"/>
				<polyline class="st2" points="14.8,65.5 15.1,65.1 14.7,65.9 14.8,65.5 				"/>
				<polyline class="st2" points="14.3,69.7 14.5,69.1 14.3,69.7 				"/>
				<path class="st5" d="M12.5,90.3l0,0.5c0.1,0.2,0.1,0.5,0.2,0.7c0.6-0.8,1.1-1.9,1.3-3.2l-0.2,0.4c0.2-1.4,0.8-2.4,1.2-3.5
					c-0.4,0.8-0.9,1.7-1.2,2.7C13.4,88.7,13,89.7,12.5,90.3"/>
				<polyline class="st2" points="14.9,82.9 15,82.5 14.9,82.9 				"/>
				<polyline class="st2" points="14,88.2 14.1,87.6 14,88.2 				"/>
				<polyline class="st2" points="14.7,83.5 14.9,82.9 14.7,83.5 				"/>
				<polyline class="st2" points="15.6,69.7 15.8,69.1 16.2,68.5 15.7,69.7 15.6,69.7 				"/>
				<polyline class="st2" points="15.5,69.7 15.8,69.1 15.6,69.7 15.5,69.7 				"/>
				<polyline class="st2" points="14.9,69.7 15.1,69.3 15.9,68.2 15.3,69.6 14.9,69.7 				"/>
				<polyline class="st2" points="14.8,69.7 15.1,69.3 14.9,69.7 14.8,69.7 				"/>
				<polyline class="st2" points="14.6,69.8 15.4,68.5 15.1,69.3 14.8,69.7 14.6,69.8 				"/>
				<path class="st5" d="M15.7,69.7l0.5-1.2l-0.4,0.6c0.3-1.1,0.6-2.4,1-3.4c0,0.6-0.1,1.2-0.2,1.8c-0.2,1-0.4,2-0.6,3L15.7,69.7"/>
				<polyline class="st6" points="15.7,69.7 16.2,68.5 15.7,69.7 				"/>
				<path class="st2" d="M16.1,71c0.5-1.5,1-3.1,1.8-4.1c0,0.1,0,0.2,0,0.3c-0.3,2.1-1.4,3.4-1.8,5.5l0,0.2c0.6-0.9,1.2-2.5,1.8-3.4
					c-0.7,1.5-1.4,3-2.2,4.4L16.1,71"/>
				<polyline class="st2" points="17.9,68.8 19.2,66.8 18.9,67.7 17.9,68.8 				"/>
				<polyline class="st2" points="20.3,64.1 20.4,63.8 20.5,63.8 20.3,64.1 				"/>
				<path class="st2" d="M19.5,65.9l0.2-0.5l0.6-1.2l0.1-0.3L19.5,65.9 M19.7,65.4l0.6-1.2L19.7,65.4"/>
				<path class="st2" d="M18.9,67.7l0.3-0.9l0.5-1.5l0.6-1.2l0.2-0.4l-0.1,0.1l1.1-1.8L21,64.3C20.3,65.3,19.6,66.6,18.9,67.7"/>
				<polyline class="st3" points="18.9,67.7 19.2,66.8 18.9,67.7 				"/>
				<polyline class="st3" points="20.3,64.1 20.5,63.8 20.3,64.1 				"/>
				<polyline class="st3" points="19.7,65.4 20.3,64.1 19.7,65.4 				"/>
				<polyline class="st3" points="19.7,65.4 20.3,64.1 19.7,65.4 				"/>
				<path class="st2" d="M21.5,63.7c0.3-1.1,0.7-2,1.2-2.8l-0.2,2.4L22.2,63L21.5,63.7"/>
				<polyline class="st2" points="16.7,39.5 17.3,38.6 17.3,38.9 16.7,39.5 				"/>
				<path class="st7" d="M23,11.7c2.2-1.5,4.2-2.6,6.4-3.2l-1.1,2.9c-1.4,3-3.4,5.9-5,5.4c-0.2-0.1-0.5-0.2-0.7-0.4
					C22.9,14.7,23,13.1,23,11.7"/>
				<path class="st2" d="M20.3,23.9l0.3-0.4c0,0.7,0.5,1,0.2,2.2C20.4,25.4,20.4,24.7,20.3,23.9"/>
				<path class="st8" d="M20.7,19.9c0.8-0.6,1.4-1.8,1.7-2.8c0.1-0.3,0.1-0.6,0.2-0.8c0.2,0.2,0.4,0.4,0.7,0.4
					c1.6,0.5,3.7-2.3,5-5.4c-0.9,2.4-1.7,4.8-2.4,7.2c-0.2,0.8-0.5,1.6-0.7,2.5c-0.6,2.4-1.1,4.8-1.6,7.1l0.5-0.2
					c0.2-0.6,0.3-1.1,0.5-1.7c0.1-0.6,0.3-1.1,0.4-1.7l0.1-0.5c0.3-1,0.5-2,0.8-3c0.3-0.9,0.7-1.8,1.2-2.6c-0.2,1.4-0.4,2.8-0.8,4.1
					c-0.2,0.9-0.5,1.8-0.8,2.7c-0.9,2.6-2.2,5.1-3.6,7.1c-0.5,0.7-0.8,1.9-1.2,3.1l0.4-1.7l-0.4-0.3l-1.5,2.1l0.2-0.6l0.7-2.1
					c0.2-0.7,0.4-1.3,0.7-1.9c0.2-0.4,0.3-0.8,0.4-1.2l0,0c0.3-1.3,0.4-2.7,0.6-4.1l-0.7,1.6c-0.2,0.2-0.4,0.3-0.5,0.3
					c-0.7,0-0.7-2.2-0.6-3.6l0.1-0.2c0.1,0.8,0.1,1.5,0.5,1.8c0.2-1.2-0.2-1.4-0.2-2.2l0.7-0.3l0.8-1.3c0.6,0.9,1-1.5,1.6-1.2
					c0.3-0.7,0.7-1.6,1.1-2.3l-0.4-1.5c-0.6,0.8-1.3,1.6-2,2.2C21.9,19.8,21.3,20.1,20.7,19.9"/>
				<path class="st9" d="M23.3,16.7c1.6,0.5,3.7-2.3,5-5.4C26.9,14.4,24.9,17.2,23.3,16.7"/>
				<path class="st10" d="M20.6,23.5c0,0.7,0.5,1,0.2,2.2C21.1,24.5,20.6,24.3,20.6,23.5"/>
				<path class="st2" d="M18.5,37l0.9-1.3l0.2-0.6l0.7-2.1l-0.1-0.1l-0.8,1.8l0.5-2.1c-0.5,0.7-0.8,1.7-1.1,2.7L18.5,37 M19.6,35.1
					l0.7-2.1L19.6,35.1"/>
				<polyline class="st3" points="19.6,35.1 20.3,33 19.6,35.1 				"/>
				<polyline class="st2" points="20.3,23.6 20.6,23.5 20.3,23.9 20.3,23.6 				"/>
				<polyline class="st2" points="31.4,16.7 31.8,16.7 31.4,16.7 				"/>
				<path class="st11" d="M15.2,23.5c2-2.3,3.5,0,5.1,0.1l0,0.3l-0.1,0.2c-0.2,1.4-0.1,3.5,0.6,3.6c0.2,0,0.3-0.1,0.5-0.3l0.7-1.6
					c-0.2,1.5-0.3,2.9-0.6,4.1c-0.1,0.4-0.2,0.8-0.4,1.2c-0.3,0.6-0.5,1.3-0.7,1.9l-0.1-0.1c0.2-0.6,0.4-1.2,0.6-1.8
					c-0.8,0.9-1,2.3-1.4,3.6l0.5-2.1c-0.5,0.7-0.8,1.7-1.1,2.7l-0.2-0.4l-1.2,1l1.2-2.2l-0.3-0.9c-1,0.6-2.2,1.4-3.2,2.9
					c0.6-1,1.3-1.8,1.9-2.8c0.6-0.9,1.3-2,1.8-3.4l-0.4-0.3l0.4-0.5c-1,0.5-1.8,1.9-2.7,2.3c0.4-0.5,0.8-1.1,1.2-1.6
					c-0.6,0-1.2,0.8-1.7,1c1-1.3,2.7-1.2,3.1-2.9l0-0.1l0-0.1c0.8-3.1-1.1-3.5-2.7-2.5l0.4-0.5C16.5,23,15.5,23.9,15.2,23.5"/>
				<path class="st12" d="M20.7,27.6c0.2,0,0.3-0.1,0.5-0.3l0.7-1.6l-0.7,1.6C21.1,27.5,20.9,27.7,20.7,27.6"/>
				<path class="st12" d="M22,25.7c-0.2,1.5-0.3,2.9-0.6,4.1C21.7,28.5,21.8,27.1,22,25.7"/>
				<polyline class="st13" points="19.4,34.7 19.9,32.6 19.4,34.7 				"/>
				<polyline class="st13" points="20.2,32.8 20.3,33 20.2,32.8 				"/>
				<path class="st11" d="M19.9,38.9l0,0.4l0.2,0.6l0.2-0.6l-0.2,0.6l0.4,0.2l0.8-1.3L21,39.5l0.8-1.1l-0.6,1.4l0.2,0.1l0.3-0.5
					c0.4-1.2,0.7-2.5,1.2-3.5c0,0.5-0.1,1-0.2,1.6c-0.2,1.1-0.5,2.2-0.8,3.3l0,0.4c0.6-1.4,1.1-3.1,1.9-4.1c0,0.1,0,0.2-0.1,0.3
					c-0.4,2.1-1.5,3.3-2,5.4l0,0.2c0.6-0.9,1.3-2.4,1.9-3.3c-0.7,1.5-1.5,2.9-2.3,4.3l0,0.2c-0.6,2-1.1,3.7-1.6,5.5l1-2.2l-1,2.2
					c-0.9,2.8-1.7,5.5-2.7,8.2l1.3-2.1c0.3,1.5-0.1,3.1-0.2,4.4c0.7-2.1,1.6-3.8,2.1-5.7c-0.5,2-1.4,3.7-2.1,5.7l0,0.4
					c1.1-1.6,1.7-3.7,2.6-5.3c-0.3,1.2-0.9,2.1-1.2,3.5l0.3-0.4l0.1-0.6l-0.1,0.6c-0.3,1.3-0.8,2.3-1.3,3.4c0.4,1.3,0.9,2.8,0.7,4.2
					l-0.1,0.7l0.5-1.5l-0.2,0.5l0.9-2l1.1-1.8L21,64.3l0.4-0.5c0.3-1.1,0.7-2,1.2-2.8l-0.2,2.4l0.4,1.5l0.9-0.1
					c0.8-0.7,1.4-2.1,1.7-3.7l0-0.3l-0.8,0l0.6-0.4l-0.4-1l0.2-0.9c-0.4-0.6-0.4-1.2-0.3-1.9c0.1-0.7,0.4-1.4,0.5-2.1L25,55
					c-0.3-0.4-0.3-0.8-0.2-1.2c0.1-0.6,0.4-1.2,0.6-1.7L26,51l0-0.1l0,0l0,0l0.4-1.7l0.4-0.8l0.3-0.5l-0.3,0.5L26.7,49l0.4-0.4
					l-0.4,0.9l1-1.9l0.3-0.7l0,0.2l0.5-0.8c0.3-0.6,0.6-1.2,0.9-1.8l0.1-1.3l0,1.1l0,0.6l0.5-1.9l0.2,0.1c0.3-0.8,0.6-1.7,0.8-2.7
					l0-0.1l0.1-1.7l0,1.5l0.5,0c0.2-0.9,0.1-2,0.3-3c0.1-0.2,0.1-0.5,0.2-0.7L32,36.7l0.2-1.5c0-0.9,0-1.7-0.1-2.5l-0.5,0.6l0.5-0.6
					c-0.1-3-0.5-5.7-1.4-7.8c0,1.4-0.1,2.9,0.1,4.1c0,1.9-0.2,3.6-0.7,5.5L30,35c-0.1-0.7-0.2-1.5-0.3-2.2l0,0.1l-0.2-0.6l0.2,0.5
					c0.8-3.1,0.3-5.7,0.9-8.5l0.1,0.5l0.2-2.6L31,21l0.1-1.3l-0.7-2.2L29.9,19l0-0.9c0-0.2,0-0.7-0.1-0.8c-0.1-0.1-0.5,0.5-1.4,3.7
					l-0.3,1.7c0.1-2,0.1-3.7-0.2-5.3l-0.8,1.2c-0.2,1.4-0.4,2.8-0.8,4.1c-0.2,0.9-0.5,1.8-0.8,2.7c-0.9,2.6-2.2,5.1-3.6,7.1
					c-0.5,0.7-0.8,1.9-1.2,3.1l0,0.2l0.4-0.5l-0.4,0.9l1.1-1.2l-1,1.7l0,0.3l0.8-1.4l-0.8,1.6l0.1,0.4L19.9,38.9 M20.5,53.8
					c-0.6,1.4-1.4,2.6-1.9,4.5C19.1,56.4,19.9,55.2,20.5,53.8l0.2-0.6l0.1-0.4l-0.1,0.4L20.5,53.8l-0.1-0.1l0.4-1.6l-0.4,1.6
					L20.5,53.8 M21.6,45.4c-0.3,1.4-1.2,2.2-1.4,3.5C20.5,47.6,21.4,46.8,21.6,45.4 M21.9,44.2L21.9,44.2l0.3-1.1L21.9,44.2
					L21.9,44.2c-0.4,1.2-0.9,2-1.3,3.2C20.9,46.2,21.4,45.4,21.9,44.2 M20.4,52.6L20.4,52L20.4,52.6 M28,25.4l0.1-2.7L28,25.4
					 M28,25.4l0.1-2.7L28,25.4 M28,25.4l0,0.4l0,0.4l0,0.4l0,0.4l0,0l0,0.4l0,0.4l0,0.4l0,0.4l0,0.4l0,0.3l0,0.4l0,0.4l0,0.4l0,0.3
					l0,0.4l0.1,0.3c0.2-1.5,0.2-2.9,0.2-4.3l0-0.1l0-0.1l0-0.5l0-0.1l0-0.4l0-0.2L28,25.4 M29.9,19c-0.1,0.2-0.1,0.3-0.2,0.5
					c0,0.1-0.1,0.2-0.1,0.4l-0.1,0.4l-0.1,0.4l-0.1,0.5l0,0.2c0,0.2,0,0.4,0,0.7l0,0l0,0.4l0-0.4l0,0.4l0-0.4l0,0c0,0.1,0,0.3,0,0.4
					c0-0.2,0-0.4,0-0.5l0-0.3l0.1-0.5l0-0.2l0.1-0.4l0.1-0.3l0-0.3C29.8,19.7,29.9,19.4,29.9,19 M24.7,60.8l-0.1,0l-0.2,0.4
					L24.7,60.8"/>
				<path class="st1" d="M28,25.4c0,0.5-0.1,1.1-0.1,1.6l0-0.4l0-0.4l0-0.4L28,25.4"/>
				<polyline class="st1" points="28,25.9 28,26.1 28,26.5 28,26.6 28,25.9 				"/>
				<path class="st1" d="M27.9,27c-0.1,1.6-0.2,3.2,0,4.6l-0.1-0.3l0-0.4l0-0.3l0-0.4l0-0.4l0-0.4l0-0.3l0-0.4l0-0.4l0-0.4l0-0.4
					L27.9,27"/>
				<polyline class="st1" points="28,27.1 28,27.2 28,27.4 28,27.1 				"/>
				<polyline class="st14" points="26,50.9 26.1,50.9 26,51 26,50.9 				"/>
				<polyline class="st13" points="31.7,33.3 32.2,32.7 31.7,33.3 				"/>
				<polyline class="st13" points="19.5,65.9 19.7,65.4 19.5,65.9 				"/>
				<polyline class="st13" points="21,64.3 21.5,62.1 21,64.3 				"/>
				<polyline class="st13" points="22.7,60.9 22.4,63.4 22.7,60.9 				"/>
				<polyline class="st15" points="28,25.4 27.9,25.8 27.9,26.2 27.9,26.6 27.9,27 27.9,26.6 27.9,26.2 27.9,25.8 28,25.4 				"/>
				<polyline class="st15" points="28,25.9 28,26.1 28,26.5 28,26.6 28,26.5 28,26.1 28,25.9 				"/>
				<polyline class="st15" points="27.9,27 27.8,27.4 27.8,27.8 27.8,28.2 27.8,28.6 27.8,29.1 27.7,29.4 27.7,29.8 27.7,30.2 
					27.7,30.6 27.8,30.9 27.8,31.3 27.8,31.7 27.8,31.3 27.8,30.9 27.7,30.6 27.7,30.2 27.7,29.8 27.7,29.4 27.8,29.1 27.8,28.6 
					27.8,28.2 27.8,27.8 27.8,27.4 27.9,27 				"/>
				<polyline class="st15" points="28,27.1 28,27.2 28,27.4 28,27.2 28,27.1 				"/>
				<polyline class="st15" points="28.1,22.7 28,25.4 28.1,22.7 				"/>
				<polyline class="st15" points="28.1,22.7 28,25.4 28.1,22.7 				"/>
				<path class="st12" d="M20.8,35.6c0.3-1.2,0.7-2.4,1.2-3.1c1.4-2,2.7-4.5,3.6-7.1c-0.9,2.6-2.2,5.1-3.6,7.1
					C21.5,33.2,21.1,34.4,20.8,35.6"/>
				<path class="st12" d="M27.1,18.6c-0.2,1.4-0.4,2.8-0.8,4.1C26.7,21.3,27,19.9,27.1,18.6"/>
				<path class="st1" d="M29.6,20.3l0.1-0.4c-0.1,0.5-0.2,1-0.3,1.5l0-0.2l0.1-0.5L29.6,20.3"/>
				<polyline class="st1" points="29.7,20.1 29.7,20.3 29.6,20.6 29.7,20.1 				"/>
				<path class="st1" d="M29.5,21l0,0.2l-0.1,0.5l0,0.3C29.4,21.7,29.5,21.3,29.5,21"/>
				<polyline class="st1" points="29.4,22.1 29.4,22.1 29.4,22.1 29.4,22.1 				"/>
				<polyline class="st2" points="31.3,16.9 31.3,17.1 31.3,16.9 				"/>
				<path class="st7" d="M30.5,17.5c0.9-2.4,2.2-4.5,3.1-6.8l0.2,1.6l0-0.2c-0.1,0.3-0.3,0.7-0.4,1.1c-0.1,0.2-0.1,0.4-0.2,0.7
					c-0.2,0.7-0.5,1.4-0.7,2l-0.6,0.6l0,0l-0.3,0L31.3,16l0,0.9l0,0.2l-0.1,2.6L30.5,17.5"/>
				<path class="st16" d="M33.3,13.3c0.1-0.4,0.3-0.8,0.4-1.1C33.6,12.5,33.5,12.9,33.3,13.3c-0.1,0.2-0.1,0.4-0.2,0.7
					C33.2,13.8,33.3,13.5,33.3,13.3"/>
				<polyline class="st16" points="33.8,12.2 33.8,12.4 33.8,12.2 				"/>
				<polyline class="st17" points="31.4,16.7 31.7,16.6 31.8,16.7 31.4,16.7 				"/>
				<polyline class="st16" points="30.5,17.5 31.2,19.7 30.5,17.5 				"/>
				<path class="st7" d="M27.5,16.2c0.4-1.5,1.3-3.2,2.1-4.6c0.5,1.6,0.6,4,0.9,6L29.9,19l0-0.9c0-0.2,0-0.7-0.1-0.8
					c-0.1-0.1-0.5,0.5-1.4,3.7l-0.3,1.7c0.1-2,0.1-3.7-0.2-5.3l-0.8,1.2l0.1-0.8c0-0.3,0.1-0.7,0.2-1.1
					C27.4,16.5,27.4,16.3,27.5,16.2"/>
				<path class="st16" d="M27.9,17.4c0.3,1.6,0.3,3.3,0.2,5.3C28.2,20.7,28.2,19,27.9,17.4"/>
				<path class="st16" d="M29.8,17.3c0.1,0.1,0.1,0.6,0.1,0.8l0,0.9l0-0.9C29.9,18,29.9,17.4,29.8,17.3"/>
				<path class="st18" d="M25.2,21c0.2-0.8,0.4-1.7,0.7-2.5c0.7-2.4,1.5-4.8,2.4-7.2c0.3-0.7,0.6-1.4,0.9-2.1l0.2-0.7
					c1.4-0.4,2.7-0.7,4-0.7c0,0,0.1,0,0.1,0l0,0l0.1,2.9c-0.9,2.3-2.2,4.4-3.1,6.8c-0.3-2-0.3-4.4-0.9-6c-0.8,1.4-1.7,3.2-2.1,4.6
					l0,0c0,0.1-0.1,0.3-0.1,0.4c-0.1,0.4-0.2,0.8-0.2,1.1l-0.1,0.8c-0.5,0.8-0.9,1.7-1.2,2.6c-0.3,0.9-0.6,1.9-0.8,3L25,24.6
					c-0.1,0.5-0.3,1.1-0.4,1.7c-0.2,0.6-0.3,1.1-0.5,1.7l-0.5,0.2C24.1,25.8,24.6,23.4,25.2,21"/>
				<path class="st13" d="M25.2,21c-0.6,2.4-1.1,4.8-1.6,7.1C24.1,25.8,24.6,23.4,25.2,21"/>
				<path class="st13" d="M25.9,18.6c0.7-2.4,1.5-4.8,2.4-7.2C27.4,13.7,26.6,16.1,25.9,18.6"/>
				<path class="st13" d="M24.6,26.3c0.1-0.6,0.3-1.1,0.4-1.7l0.1-0.5c0.3-1,0.5-2,0.8-3c-0.3,0.9-0.6,1.9-0.8,3L25,24.6
					C24.9,25.2,24.8,25.7,24.6,26.3"/>
				<path class="st19" d="M27.5,16.2L27.5,16.2c0,0.1-0.1,0.3-0.1,0.4C27.4,16.5,27.4,16.3,27.5,16.2"/>
				<path class="st19" d="M29.6,11.5c0.5,1.6,0.6,4,0.9,6C30.2,15.6,30.1,13.1,29.6,11.5"/>
				<path class="st2" d="M28.3,11.3l1.1-2.9l-0.2,0.7C28.9,9.9,28.6,10.6,28.3,11.3"/>
				<polyline class="st17" points="28.3,11.3 29.4,8.5 28.3,11.3 				"/>
			</g>
		</g>
	</g>
</g>
</svg>
