<svg id="Layer_1" data-name="Layer 1" xmlns="http://www.w3.org/2000/svg" viewBox="0 0 74.1 60.13"><defs><style>.cls-1{opacity:0.8;}.cls-2{fill:#c34549;}</style></defs><title>Z-tier</title><g class="cls-1"><path class="cls-2" d="M24.57,23.18a12,12,0,0,1-1.31.42,5.34,5.34,0,0,1-1,.14,3.31,3.31,0,0,1-1.48-.28l-3.65-1.61,3.28-2.37c.27-.19.53-.37.8-.53,1.56-.84,2.83-.63,3.81-.94a3.3,3.3,0,0,0,.56-.2L27.16,21a6.37,6.37,0,0,0-.82.29c-.43.11-1,.28-1.59.41l-.9-2.92a10.84,10.84,0,0,1,2-.17l1.79-.09-.3,1.65a2,2,0,0,1-.22.58l-.09.12L27,21l-.07.07a1.18,1.18,0,0,1-.25.23l-.33.23c-.2.12-.38.21-.55.3s-.67.2-.48.48l-.74.21-.39.1-.23.06-.19,0-.13,0a1.46,1.46,0,0,1-.64,0,1.58,1.58,0,0,1-.58-.35l-1.86-1.84L23,20.09a5.93,5.93,0,0,0,2.35-.77l1.12,2.22-.07,0a2,2,0,0,1-.42.18,1,1,0,0,1-.3,0,1.65,1.65,0,0,0-.51.11,1.62,1.62,0,0,1-.85.19h-.07l0,0,.05-.07a.86.86,0,0,1,.13-.14.37.37,0,0,1,.18-.08s-.11.07-.16.1.07.23,0,.24l-.26.05h0a7.72,7.72,0,0,1,1.11-.07h0v.06a1.51,1.51,0,0,1-.1.17,2.78,2.78,0,0,1-.23.31,3.62,3.62,0,0,1-.43.44,7.93,7.93,0,0,1-.75.59c-.23.13-.3.2-.5.33a6.28,6.28,0,0,1-.58.31c0,.15-.08.17-.18.28a10.12,10.12,0,0,1-1.34.38l.23-.12a2.52,2.52,0,0,1-1.81.24,4.15,4.15,0,0,0,1.57-.61l-.16.08a11.8,11.8,0,0,0,2.25-1.32c-.06-.06-1.88.88-2.36,1.09l.13-.07-.14.08.12-.1-.12.06,2.28-1.66c.59-.44,1.11-.81,1.14-1.25h0a3.73,3.73,0,0,0-.91.15.79.79,0,0,1,.21-.11l.25-.07c-.05-.12.13-.1.27-.1h0c0,.05-.08.08,0,.15s0,.11,0,.14l-.17.21a5.52,5.52,0,0,1-.5.42c-.38.27-.76.55-1.11.82s-.83.63-1.56,1l.07,0,0,0,0,0-.07,0c.4-.35,1.05-1.22,1.24-1.34a10.65,10.65,0,0,0,.8-.72,4.86,4.86,0,0,1,.85-.57l.12-.11c.18,0-.38-.29-.11-.34h0l-.27,0a1.73,1.73,0,0,0,.15.19c0,.05-.06,0-.08.06a1.07,1.07,0,0,0-.3.23,1.45,1.45,0,0,0-.15.23c0,.07-.23,0-.35,0h0c.33-.08.17-.3.21-.51a.52.52,0,0,1,.08-.3l0-.06,0,0v0h0l-.2-.12h0a.28.28,0,0,0,0,.15.19.19,0,0,1,0-.11l0,0,.18.12h0v0l0,.07a.77.77,0,0,0-.06.3c0,.21,0,.4-.3.49h0a.77.77,0,0,0,.69-.14,1,1,0,0,1-.31.16,1.22,1.22,0,0,1-.38,0h0c.4-.15.33-.36.46-.66l.07-.12h0c-.3-.19-.09-.05-.15-.1h0l0,0a.08.08,0,0,0,0,0c0,.08,0,.2.18.38s0,.1,0,.13l-.14.09c-.08.06-.32.2-.07.12l.22,0c.07,0,0-.1,0-.16-.29-.29-.48-.56-.25-.68A8.38,8.38,0,0,1,24.32,20c.22-.11.48-.24.63-.33l.45-.26,1,1.95A5.7,5.7,0,0,1,25,22c.1,0,.23.09.35.07a3.13,3.13,0,0,0,1.16-.39l-1.25-2.48c-.29.15-.46.28-1,.54a6.42,6.42,0,0,1-.7.31,4.71,4.71,0,0,0-.77.29.28.28,0,0,0-.17.39,2.23,2.23,0,0,0,.2.33l.32.33c.14.2-.33.22-.36.21l.27-.17s.1-.05.12-.09,0,0,0,0l-.1-.09L23,21c.06,0,.1.11.17.17l.1.09a0,0,0,0,1,0,0s-.08.06-.12.09l-.28.19c.12-.06.68,0,.12-.43a1.37,1.37,0,0,1-.55-.7l.1-.2a1.1,1.1,0,0,1,.21-.14c.32-.18.75-.27,1.09-.42a2.71,2.71,0,0,0,.71-.62c-.29.13-.67.29-1,.42a6.77,6.77,0,0,0-1.1.39c-.07.07-.22.1-.22.21l0,.14s0,.05,0,.08l.09.12a1.47,1.47,0,0,0,.45.51l.37.29.08.07,0,0,0,0,.06.11s-.06,0-.09,0l-.23,0c-.13,0,0,0,.05-.07l.19-.12.1-.06v-.05l-.16-.13a2.44,2.44,0,0,1-.41-.47.48.48,0,0,1-.07-.15v0h0c-.06,0,.48.31.25.17h0v0l0,.05a.32.32,0,0,0-.08.23,1.15,1.15,0,0,0,.1.46c0,.07.08.15,0,.18l-.18.09h0l.28,0c.08,0,0-.07,0-.12a2.2,2.2,0,0,1-.12-.41.29.29,0,0,1,.05-.1.13.13,0,0,1,0-.06.67.67,0,0,1,.06-.12l.05-.05,0,0-.17-.15-.34-.3s.05,0,.08-.05a.53.53,0,0,0,.14-.11h0l-.13.05s-.16,0,0,.09c-.19-.08-.07-.08-.05-.1l.12-.07h0l-.15.06-.08,0,0,0h0l.07.05.28.25c.07.07.25.21.19.2s-.06.05-.07.09a.43.43,0,0,0,0,.56,1.08,1.08,0,0,0,.18.25.86.86,0,0,1-.31,0h0l.19-.1c.05,0-.08-.15-.13-.23a1.31,1.31,0,0,1-.24-.56c0-.11.05-.17.09-.25l0,0h0l-.33-.21v0a.36.36,0,0,0,0,.09,1.23,1.23,0,0,0,.15.22,5.1,5.1,0,0,0,.65.59l.1.07v0s0,0,0,0l-.1.06-.18.12-.09.07s.05,0,.07,0l.22-.05s.11,0,.07,0l-.08-.12s-.37-.32-.61-.51l-.2-.16-.09-.13L22,20.33c-.12-.29.07-.44.27-.57a4.1,4.1,0,0,1,1.23-.36,4,4,0,0,0,1.05-.4l.46-.3,1.73,3.43A6.79,6.79,0,0,1,23.9,23h0l-.5-1.65a.14.14,0,0,0,.06-.15c0-.08-.07-.07-.08-.2a4.67,4.67,0,0,0-.13-.65c-.06-.22-.14-.42-.21-.63h.13l.31,0,.66-.16.63-.19.26-.08h.05l.06.07.1.12a1.9,1.9,0,0,0,.4.4c.13.11.16.17.29.17l.2,1.2a11,11,0,0,0-1.54-.09L24,19.45c.7,0,1.53-.34,2.41-.46l3.39-.46-3.08,1.11c-1.49.55-2.88.35-4.44.66l-.26.14.16,0-.29,0-.53.3-1,.6,1.15.54a3.25,3.25,0,0,0,1.37.25c.28.05-.41.13-.7.23l.36,0-.05.15c.13-.05.22,0,.32.06a2.47,2.47,0,0,1-1.57-.12l-2.15-.89L21,20.29a8.84,8.84,0,0,1,2.53-1.16c-.18-.15-.48,0-.65,0a8.31,8.31,0,0,1-1.1.48l-.91.47-2.6,1.37,2.84,1.29A3.46,3.46,0,0,0,23.2,23a5.27,5.27,0,0,0,1.23-.3,2.74,2.74,0,0,1,.55-.05C25.21,22.67,25,23.05,24.57,23.18ZM24,20.35l.91-.05.28-.1a.75.75,0,0,0,.32-.21l.14,0,0,0s.06.09.18.08l.11.26c-.45-.05-.88-.12-1.33-.13A11.12,11.12,0,0,0,26,20.5L25.9,20a.23.23,0,0,1-.19-.09s-.25-.19-.19-.14,0,0-.05,0l-.2.08.18-.1,0,0c-.06,0,.23.16.21.18a.25.25,0,0,0,.2.09l.14.56c-.6,0-1.13-.08-1.68-.08l-.12-.4c.83,0,1.73-.2,2.52-.2l-.49-1-.31.07c-.43.14-.89.26-1.38.38a8.44,8.44,0,0,0-1,.38,15.89,15.89,0,0,0,2.92-.49l.15.3c-.82.09-1.67.37-2.45.41l.24.76a10.72,10.72,0,0,1,1.64.13L25.9,20c-.13,0-.16-.06-.29-.17l-.21-.18-.09-.09h0s-.06,0-.09,0l-.29.09-.66.18-.69.16-.32.06a.31.31,0,0,1-.13,0h0s0,0,0,0,.06.19.09.28a5.13,5.13,0,0,1,.13.66c0,.13.08.12.08.2a.14.14,0,0,1-.06.15l.4,1.3a10.83,10.83,0,0,0,2.88-.74l-1.51-3-.68.27c.33-.09.48-.1.73-.17l1.41,2.8a14.42,14.42,0,0,1-2.94.49l-.29-.95c.16-.14,0-.22-.05-.57l-.05-.22c0-.07,0-.18,0-.15h.07l.23,0Zm-.4.39-.2.06-.08,0s0,0,0,0l0,.21c0,.06.05.07.06.11a.15.15,0,0,1-.05.19l.16.54a10.81,10.81,0,0,0,1.26-.39A9.32,9.32,0,0,0,26.17,21l-.56-1.12-.78.39c-.3.15-.59.3-.87.42a1.32,1.32,0,0,0-.59.45.66.66,0,0,0,0,.27c0,.09-.1.1-.16.14.24-.05.19-.27.39-.4a3.81,3.81,0,0,1,.67-.38c.25-.12.51-.26.76-.4l.66-.39.46.92a7.72,7.72,0,0,1-1.33.63c1.36-.47.45-.12-1.27.36l-.15-.51a.16.16,0,0,0,.06-.18.47.47,0,0,0-.06-.09.84.84,0,0,1,0-.18c0-.11,0,0,0-.06l.08,0A.63.63,0,0,1,23.62,20.74Z" transform="translate(1.87 -1.38)"/><path class="cls-2" d="M24.73,20.25c-.71,0-1.4-.05-2.14,0,.33.1.61.22.95.3a9.39,9.39,0,0,0,2.66-.22,4.68,4.68,0,0,0,.86-.21l8-2.59-8.74.95c-1,.11-1.81.39-2.41.41l.86,2.8c.37,0,.82,0,1.42.05L25.9,20a.26.26,0,0,1-.22-.12,1.74,1.74,0,0,1-.36-.31c-.11-.12-.18-.24-.36-.43l-.21-.26,0-.05-.13.05-.46.18c-.34.13-.72.27-1,.37l-.12,0h0l0,.15a2.12,2.12,0,0,0,.09.27,5.22,5.22,0,0,1,.25.88c0,.37.22.48.06.61l.58,1.9.15-.08-.17,0-.56-1.85a.14.14,0,0,0,.06-.15c0-.09-.08-.06-.08-.21a5.18,5.18,0,0,0-.14-.66c-.06-.23-.13-.39-.22-.68s0-.11,0-.13h.1l.3-.07.65-.17.6-.2.23-.07h0l.13.16a1.83,1.83,0,0,1,.21.26,1.9,1.9,0,0,0,.41.39c.11.11.15.17.28.17l.23,1.49a14.23,14.23,0,0,0-1.48-.07L24,19.14c.64,0,1.47-.32,2.4-.44l6.21-.78-5.63,2A6.9,6.9,0,0,1,24.73,20.25Z" transform="translate(1.87 -1.38)"/><path class="cls-2" d="M22.47,19.23c-.44.18-.92.36-.88.79l.37.46a1,1,0,0,0,.31.26l.39.29.34.26.09.1c.06.07.15.16,0,.15s.08,0,.05,0l-.08-.09c-.06-.08,0-.09-.36-.32l-.37-.28c-.12-.09-.28-.2-.3-.26s-.22-.3-.3-.43l.11-.25c.05-.08.17-.11.26-.17a2.71,2.71,0,0,1,.64-.23,9.82,9.82,0,0,0,1.39-.55l.77-.4,1.91,3.79-.34.17.37-.11-2-3.91-.37.1-.18.05-.3.12A11.47,11.47,0,0,1,22.47,19.23Z" transform="translate(1.87 -1.38)"/><path class="cls-2" d="M24.1,23.18l.4-.07a8.26,8.26,0,0,0,2-.63,14.12,14.12,0,0,1-2.24.35A.3.3,0,0,1,24.1,23.18Z" transform="translate(1.87 -1.38)"/></g><g class="cls-1"><path class="cls-2" d="M35.24,13.76h0l1.47,2.33-5.48,1.55-2.69.8-.25.08-.27.1q-.41.15-.81.27a12.37,12.37,0,0,1-1.69.35l-14.7,2,13.41-6.4c1.36-.65,2.71-1.23,4.07-1.78,2.09-.83,4.12-1.53,6.07-2.24L47,6.25,36.65,14.77a4.32,4.32,0,0,1-1.1.65,4.06,4.06,0,0,1-.59.19l-.29.06h-.05L30,17.05l-2.46.71-.09,0-.06,0-.36.13c-.26.09-.51.17-.78.24a9.58,9.58,0,0,1-1.6.29L13.43,19.59l10-4.86a12.7,12.7,0,0,1,3.11-.93l2.83-.61,2.09-.45.16-.07a3,3,0,0,1,.45-.18,4.34,4.34,0,0,1,1-.21,4.06,4.06,0,0,1,2.08.35l3.56,1.64-3.52,1.64L28.62,19l-6.64,3-.93-3a12.77,12.77,0,0,0,1.8-.45c.64-.2,1.41-.42,2.08-.6a23.27,23.27,0,0,1,4.48-.85l6.47-.43-5.66,3.08a34.17,34.17,0,0,1-5.1,2l-5.05,1.82c-.59.19-1.9.62-2.72,1L6.17,29.33l10.06-7.2c.54-.39.94-.61.76-.67,1.16-.42,2.16-.92,3.24-1.37s2.21-.93,3.32-1.35a52.49,52.49,0,0,1,6.83-2.14L31.11,19l-4.47,1.58-.9-2.23a27.13,27.13,0,0,1,4.47-1.39l8-1.82-7.15,4.06c-.94.53-1.89,1-2.84,1.45-1.63.74-3.31,1.35-4.91,2l-.91-2.12c.81-.28,1.64-.71,2.55-1.13s1.88-.77,2.69-1.13l.1-.05a3,3,0,0,1,.39-.23,2.73,2.73,0,0,1,.59-.2,2.48,2.48,0,0,1,1.27,0l2.33.69-2.08,1.25a19.47,19.47,0,0,1-2.38,1.13l-2.26,1-4.62,2-.81-1.62c1.81-1,3.6-1.73,5.37-2.57a19.88,19.88,0,0,1,3-1.38,14.92,14.92,0,0,1,3.33-.53l2.26-.09-1.5,1.7a2.21,2.21,0,0,1-1.34.69l.2-.05a74.51,74.51,0,0,0-8.65,4.15l-1.1-1.94A79.44,79.44,0,0,1,29.55,17a39.3,39.3,0,0,1,7.08-3.34l1.21,2.93-.5.24a5.88,5.88,0,0,1-1.54.91c-1,.49-4.34,1.72-7.39,3-1.55.66-3.1,1.33-4.35,1.81a21.07,21.07,0,0,1-2.47.84c-.18.05,2.35-1,5.53-2.54s7.26-3.18,10.46-4.81l-.77-1.85a27.32,27.32,0,0,0-5.26,2.41,54.37,54.37,0,0,1,5.32-2.24l.63,1.53C35.39,17,32.93,18,31,18.82s-3.46,1.58-3.85,1.74c3.75-2,7.26-3.36,10.24-5L37,14.69a49.3,49.3,0,0,0-8.89,4.62c-2.35,1.49-4.19,2.8-5.63,3.88l-.05-.1c8.1-4.27,5.64-3.07-.07-.15l.22.39c1.78-1.32,4-2.82,6.34-4.26a50.73,50.73,0,0,1,7.35-3.87l.81-.28.19.46C34.91,16.6,31.63,18,27.42,20c2.7-1.46,8.34-4.29,9.62-5.05l.15.36h0a33.87,33.87,0,0,0-5.72,2.86c-1.33.81-2.8,1.63-6.09,3.7-.79.51-1.66,1.1-2.58,1.76l-.64-1.11c2.63-1.23,5.61-3,8.74-4.25h0l.17,0a.34.34,0,0,0,.22-.14L32,19.62a14.53,14.53,0,0,0-4.55,1.32c-1.38.61-2.67,1.27-3.71,1.76.84-.48,2.1-1.22,3.51-1.94A13.79,13.79,0,0,1,32,19.21l-.38-.8a.71.71,0,0,1-.47.28l-.07,0h0l-3.31,1.45c1.26-.54,2.38-.94,3.35-1.34h.07a.88.88,0,0,0,.56-.3l.26.55a13.73,13.73,0,0,0-5.36,1.79L24.1,22.21c-.91.48-1.9,1-2.93,1.65l-.88-1.75c.85-.41,1.8-.85,2.88-1.33.8-.37,1.7-.81,2.68-1.32s2-.76,3-1.26l.32-.18.23,1.78a.54.54,0,0,0-.28,0,.65.65,0,0,0-.15.05,1.71,1.71,0,0,0-.25.17l-1.5.64c-.44.19-.9.36-1.33.58-.85.42-1.72.94-2.72,1.34l-.8-1.88c2.6-1.25,5.19-2.21,7.53-3.54l.78,2.06a25.38,25.38,0,0,0-4.06,1.25L25.8,18.4l1.52-.53c-.57.21-1,.22-1.57.38l.95,2.36.13-.05a28.75,28.75,0,0,1,3.93-1.08l-1-2.57c-2.34,1.28-4.88,2.23-7.53,3.51l1,2.42c1-.4,1.88-.92,2.71-1.33.42-.22.88-.39,1.32-.58l1.56-.65.17-.12.05,0,.08,0h.14L29,17.76a29.37,29.37,0,0,1-3.19,1.7c-2,.92-3.81,1.65-5.66,2.4l1.12,2.23c.51-.29,1.06-.55,1.62-.81-.52.29-1,.59-1.55.92l-1.24-2.47c1.39-.68,2.84-1.37,4.33-2.06l1.11-.52c.42-.21.83-.39,1.22-.56a20.15,20.15,0,0,0,2.12-1l.35,2.73s0-.09,0,0l0,0s0,0-.23.15l-2,.87a15.05,15.05,0,0,0-1.77.85c-.53.28-1.13.64-1.78.95l-1.3-3,1.56-.88L22.05,20l1.43,3.34c1.09-.42,2-.95,2.82-1.34.42-.21.86-.36,1.29-.55l1.57-.66.2-.15a2,2,0,0,1-.11-.34.82.82,0,0,1,0,.25l-.45-3.22a17.46,17.46,0,0,1-1.94,1c-.37.17-.76.35-1.17.56l-1.12.55-4.45,2.18,1.39,2.8a24.51,24.51,0,0,1,2.64-1.48c.94-.46,1.89-.93,2.79-1.35A14.26,14.26,0,0,1,32,20l-1-2.19.07.08,0-.1h0l-.13,0-.13,0c-1.56.6-3,1.14-4.2,1.65l-.72.4-.38.14a37.18,37.18,0,0,1-3.66,1.65L23.3,24.4l.23-.13-.22.15-1.53-2.69c1-.44,2-.93,3-1.41s1.81-1,2.77-1.49,2-.91,3-1.36l.35-.15,0,.27c.05.39.19.42,0,.25l1.08,2.67A16.09,16.09,0,0,0,26.92,22L24.18,23.3a25.09,25.09,0,0,0-2.54,1.33L20,21.27l4.42-2,1.11-.52,1.21-.55a16,16,0,0,0,2-1l.52,3.34c.07-.23,0-.32.05-.22a1.34,1.34,0,0,0,.08.26l.09.18-.05,0-.15.12-.84.37-.6.24-1.3.52c-.85.37-1.87.91-3,1.33L22,19.93c.81-.35,1.55-.67,2.16-.95,1.85-.85,3.68-1.62,5.33-2.55L30.88,20A23.79,23.79,0,0,0,27,21.22l-1.45-3.58L30,16.06l1.08,3.56A47.73,47.73,0,0,0,26.35,21c-1.47.5-3,1.09-4.37,1.68l-2.24,1-.56.24L18.9,24l-.38.15a3.54,3.54,0,0,0-.77.34l-1.24-2.61,6.33-2.11A52,52,0,0,0,29,17.54l.6,2a20.32,20.32,0,0,0-4,.69c-1.36.3-2.62.82-4.18,1.07l-6.36,1L21,19.77,34.26,14v.62a2.19,2.19,0,0,0-2.07.13l-4,.78-2,.4a8.07,8.07,0,0,0-1.91.57l-.14.06h.15a8.79,8.79,0,0,0,2.5-.6l2.47-.69,4.88-1.37a2.39,2.39,0,0,0,1.27-.5l1.89-1.57L35,12.57,30.59,14,29,14.63l.7-.17-1.49.48c-1.12.46-2.24.93-3.33,1.42L21,18.13l4.3-.51a10.28,10.28,0,0,0,1.45-.27c.23-.06.47-.13.7-.21a4.12,4.12,0,0,1,.61-.18l2.65-.66c1.23-.25-2.12.65-2.87,1L29.08,17l-.2.22A4.67,4.67,0,0,1,30.05,17l-2.13.65a11,11,0,0,1-2.55.66l-8.2,1.07,7.47-3.55c3.3-1.57,6.74-2.73,10.06-4l7.42-2.86L36,14a3.2,3.2,0,0,1-.83.51,4.11,4.11,0,0,1-.46.15l-.23.05h-.09l-3.2,1a8.19,8.19,0,0,0,1.61-.36l1.63-.5h.06l.16,0a3.59,3.59,0,0,0,1.46-.73L43,8.21l-8.36,3.4c-1.74.71-3.51,1.37-5.17,2s-3.28,1.28-4.93,2l-9.09,4,10-1.12a10.54,10.54,0,0,0,1.66-.31c.27-.07.53-.15.8-.24l.23-.08.35-.09L31.22,17l5.35-1.42-1.35-1.85a.7.7,0,0,1,.33.05.82.82,0,0,1-.25-.4,2.62,2.62,0,0,1-.14-.49c0-.18-.09-.5-.08-.42l-.74.24L32.19,14c-.42.26-.38.14,0-.19s1.14-.87,2-1.4l.88-.57,0,.49a3.38,3.38,0,0,0,.4,1.43C35.6,13.92,35.6,13.77,35.24,13.76ZM20,22.62l-1.43.56a2.3,2.3,0,0,1-.39.14l-.32.1a4.91,4.91,0,0,0-.62.28l-.47-1L19.16,22,21,21.39c.78-.25,1.6-.56,2.45-.89a46.17,46.17,0,0,0,6-2.12l.06.2a20.84,20.84,0,0,0-4.13.69,23.32,23.32,0,0,1,4.14-.53l-.15-.5c-2,.94-4.44,1.44-7,2.38,1.19-.43,2.4-.85,3.58-1.23a22.42,22.42,0,0,0,3.33-1.32l.27.86a21.64,21.64,0,0,0-4.13.71c-1.37.3-2.68.8-4.09,1l-1,.14.94-.39,13.41-5.56,1.18-.49-1.2-.6a2.91,2.91,0,0,0-1.93-.23,2.81,2.81,0,0,0-.49.16l-.23.1-.13.06-3.82.82-1.95.43a8.92,8.92,0,0,0-2.13.69l-4,2,4.54-.5a9.26,9.26,0,0,0,1-.17L32.08,15,28.31,16c-.63.19-1.25.32-1.84.56a9,9,0,0,1-2,.44l-3,.27L24.1,16a8.32,8.32,0,0,1,2-.62l2-.4,3.9-.78a2.74,2.74,0,0,1,2.48-.1l.35.19-.35.15L21.17,20.2l-2.38,1,2.59-.39c1.47-.23,2.77-.75,4.14-1a20.68,20.68,0,0,1,4.05-.69l-.36-1.2A51.77,51.77,0,0,1,23,20.11l-6.36,2.1.92,1.94a4.29,4.29,0,0,1,.65-.31l.44-.15.44-.19,1.72-.73,1.68-.72,1.69-.67A47.75,47.75,0,0,1,31,19.25l-.86-2.83L25.64,18l1.18,2.92a22.53,22.53,0,0,1,4-1.16l-1.16-3.05c-1.9,1-4,1.83-6.24,2.77,2.24-.88,4.4-1.63,6.33-2.61l1,2.72a23.57,23.57,0,0,0-4.06,1.1l-1-2.46,4.55-1.48L31,18.94A60.54,60.54,0,0,0,20,22.62Zm3-1.6a53.58,53.58,0,0,1,7.77-2.65l-.34-1.1-2.7,1L26,18.89,26.44,20a24.12,24.12,0,0,1,4.16-1.26l-.43-1.14c-2.45,1.35-5.14,2.3-7.61,3.48L23,22.19c1-.42,1.93-1,2.8-1.39l2.67-1.19a1.13,1.13,0,0,1,1-.29l-.11-.87c-.77.49-1.61.86-2.38,1.25s-1.5.79-2.16,1.14c.77-.35,1.53-.74,2.32-1.1a21.45,21.45,0,0,0,2.3-1.15l.07.58a1.29,1.29,0,0,0-1.18.28c-1,.45-1.8.78-2.71,1.21S24,21.62,23,22l-.35-.81C25.13,20,27.77,19,30.2,17.65l.38,1A24.38,24.38,0,0,0,26.43,20L26,18.91l1.78-.66L26,18.89,26.44,20a18.5,18.5,0,0,1,2.11-.74,17.09,17.09,0,0,0-2.12.73L26,18.9l4.49-1.6.32,1a46.43,46.43,0,0,0-6.3,2.05Z" transform="translate(1.87 -1.38)"/><path class="cls-2" d="M26.21,15.92c1.32-.41,2.67-.71,4-1.07l4-1.06a2.35,2.35,0,0,0,1.25-.46l1.73-1.39L35,12.61l-2.94.91c1-.22,1.95-.42,3-.69l1.09-.28-.9.59a2.3,2.3,0,0,1-1.17.36c-.16,0-.36.07-.58.11-1.49.36-3,.77-4.58,1.2l-2.37.66a8.05,8.05,0,0,1-2.3.56l.28.88a14.45,14.45,0,0,1,3-.78l3.05-.59,1.79-.33a2.48,2.48,0,0,1,.53-.22,2.11,2.11,0,0,1,.4-.07,1.43,1.43,0,0,1,.73.17l0-1.61q-6.6,2.77-13.31,5.74l-9.78,4.3L21.56,21.9a16.47,16.47,0,0,0,2.25-.55c.69-.21,1.28-.37,2-.55a20.08,20.08,0,0,1,3.86-.7l-.93-3.05a19.4,19.4,0,0,1-2.83,1.14c-1,.32-2.17.7-3.19,1.07l-6.31,2.19L18,24.81a2.38,2.38,0,0,1,.45-.23l.24-.09a5.13,5.13,0,0,0,.53-.22l1.54-.69c1.06-.48,2-.9,3-1.32l3.5-1.38c-1.62.54-3.23,1.16-4.81,1.83l-4.55,2-1.45-3.06,6.33-2.15a52.38,52.38,0,0,0,6.07-2.19l.79,2.58a20.24,20.24,0,0,0-3.91.69c-.69.18-1.3.34-2,.55a15.2,15.2,0,0,1-2.21.54l-8.69,1.31,8-3.47,13.3-5.78,0,1.18a1.67,1.67,0,0,0-.85-.18,2.36,2.36,0,0,0-.45.08,3.22,3.22,0,0,0-.54.22l-4,.77-2,.38a8.76,8.76,0,0,0-1.87.53l-.12-.38A8,8,0,0,0,26.21,15.92Z" transform="translate(1.87 -1.38)"/><path class="cls-2" d="M27.56,22l1.86-.82.15-.11,0,0h0c.06.08-.07-.12-.06-.1h0v0l0-.07a1.93,1.93,0,0,1-.13-.24,1.7,1.7,0,0,1-.12-.32c0-.13,0-.05-.05.2l-.71-3.67a16.53,16.53,0,0,1-2.22,1.08l-2.5,1.15c.72-.27,1.49-.59,2.46-1a21.5,21.5,0,0,0,2.37-1l.6,3.47c.07-.26,0-.33.06-.19a1.32,1.32,0,0,0,.11.32l.06.11,0,.08-.2.15-2,.81c-.59.24-1.11.51-1.71.82a20,20,0,0,1-2,.95l-1.65-3.86c2.51-1.18,4.95-2.08,7.06-3.2-2.14,1-4.58,1.84-7.17,3l1.85,4.3a22.58,22.58,0,0,0,2.11-.95l.88-.43C27,22.27,27.26,22.17,27.56,22Z" transform="translate(1.87 -1.38)"/><path class="cls-2" d="M27.25,20.88c.75-.24,1.49-.47,2.25-.67.55-.15,1.11-.29,1.67-.42L30,15.9l-4.53,1.58L27,21.37a23.6,23.6,0,0,1,3.9-1.18l-1.49-3.92-.44.24.45-.22,1.48,3.89a22.14,22.14,0,0,0-4,1l-1.45-3.59,4.57-1.47,1,3.36c-.81.16-1.64.36-2.46.59C28.7,20.27,28.08,20.54,27.25,20.88Z" transform="translate(1.87 -1.38)"/></g><g class="cls-1"><path class="cls-2" d="M32.41,19.22a54.13,54.13,0,0,0-6.5,4.25l-.22-2.56c-.46.27-.63.54-.62.58a1.3,1.3,0,0,0-.21-.73,5.67,5.67,0,0,0-.48-.76c-.07-.1-.06-.07-.05-.08h0l0,0,0,0,.18-.19.36-.41,2.51-1.06a61.76,61.76,0,0,1,11.9-3.72l10.73-2.17L41,18.2a16.35,16.35,0,0,1-3.37,1.56c-1,.37-2,.8-3.11,1.24-2.21.89-4.29,1.75-6.41,2.64L13.69,29.7l12.66-9.11a27.11,27.11,0,0,1,2.39-1.51c1.8-1,3.77-2.06,5.77-3s4.06-2,6.14-2.94l1.13,2.57L38,16.9a38.57,38.57,0,0,1-4,1.08l-.51.06-5,.65,4-3c.89-.66,2.43-1.48,2.12-1.63,1.6-.82,3.16-1.43,4.55-2.17l.5,2.59a.83.83,0,0,0-.22,0l-.11,0-.06,0-.21.09L36,15.37l-3,.82a55.18,55.18,0,0,1-6.12,1.48l-1.48.24.09-1.6a2,2,0,0,1,.83-1.37,2.45,2.45,0,0,1,1.19-.38l-.49.13,1-.51c1.58-.78,3.14-1.32,4.74-2l.83,2.07c-1.14.39-2.28.75-3.39,1.21-1.3.58-2.61,1.12-3.93,1.64L25,17.67l-.69.27-.35.14-.17.06c-.05,0,.06,0,.1-.06.43-.21.91-.42,1.37-.62l.69-.3.34-.14.17-.08.09,0h0s0,0-.06,0l-.1,0-.7-1.73c1.74-.63,3.47-1.24,5.16-2,.57-.3,1.78-1,2.28-1.2,2-.72,3.9-1.52,5.76-2.36S42.55,8,44.53,7.22l7-2.56L45.6,9.3A27.55,27.55,0,0,1,42.87,11l-2.58,1.56-2.83,1.64c-.93.49-1.84,1-2.87,1.47-.12.23-.62.45-1.17.79-.78.39-3.37,1.58-5.86,2.7A29.45,29.45,0,0,1,21.94,21c-.12,0,1-.35,2.64-1s3.76-1.78,5.87-2.85l5.78-3a16,16,0,0,0,2.44-1.41l-5.87,3c-2.89,1.45-5.83,2.95-6.33,3.16,4.47-2.45,8.2-4.46,11.23-6.19l4-2.42c1.16-.77,2.32-1.2,3.16-1.88h0a44.48,44.48,0,0,0-4.53,2c-.85.42-1.11.56-.92.49s.83-.35,1.79-.79,2.22-1,3.71-1.56l-.16-.31a18.86,18.86,0,0,1-2.3,1.33L40,11c-1.68,1-3.39,2-5,2.92-1.94.94-4.56,2.53-8.29,4.42,2.17-1.23,6.44-4,7.48-4.52C39,11.21,38,11.21,43.62,8.39a5.56,5.56,0,0,0,.89-.54L45.07,9a34.19,34.19,0,0,0-3.9,1.61l-4.27,2c-2.85,1.32-5.54,2.68-7.43,3.43,2-1.05,6.69-3.74,9.8-5-6.28,2.36-7.19,3.75-12.85,6l-.74-1.86h0l0,.14a2.15,2.15,0,0,1,.11.25l0,.15A2.39,2.39,0,0,0,26,16l0,.07-.49-.84h-.09l-.11,0-.23.09-.48.2c-.07,0-.23.1-.24.13l.32-.15.66-.34,2.49-.92c1.7-.73,3.44-1.39,5.14-2l.74,1.87c-1.93.89-3.88,1.75-5.65,2.65l-.19.09-.25,0H27.6s0,0,0,0l0-.13a1.3,1.3,0,0,0-.1-.18c-.12-.17-.09,0,.31,0l-1.18-1.23c1.53-.25,3.08-.64,4.69-1.07-.5.15-.86.08-1.37.19-1.17.24-2.28.45-3.37.6l1.23,1.51c-.4-.05-.43-.2-.31,0a1.5,1.5,0,0,1,.19.46l0,.16h.05l.32,0,.23-.12c1.75-.86,3.69-1.74,5.65-2.65L33,12c-1.33.53-2.8,1-4.19,1.62-1,.37-2.29,1.18-3.35,1.62l-.55.22-.26.1-.13,0c-.06,0,.05-.05.07-.06l.49-.25L25.6,15l.9,2.24,2.28-.77-2.2,1-3.33,1.46,2.27-4.09h0v0l.11.25.2.49a2.77,2.77,0,0,0,.1.26,1.08,1.08,0,0,0,.12.24c.19.33-1.34-2.27-.7-1.17h-.05l-.07,0-.13,0-.26.09-.26.11c-.07,0,0,0,.06,0l.13-.06.63-.28,1.36-.57,2.71-1.15L32.3,12l.58-.24L34,14.61c-.73.38-1.48.84-2,1.16l2.12-.92L32.8,11.47c-1.34.51-2.8,1-4.07,1.55l-3.59,1.59-.47.26a2.46,2.46,0,0,1,.29-.09l.16,0,.08,0h.07c.36.6-.8-1.36.81,1.36L26,16l-.09-.19c-.06-.14-.06-.21-.19-.5l-.29-.68h0l1.18,3c5.14-2.17,10.16-4.71,13.64-5.83l.58-.3a2.15,2.15,0,0,0,.31-.1,22.14,22.14,0,0,1,3.17-1.16c-.87.3-1.74.66-2.64,1a159.49,159.49,0,0,1-15,6.63l-1.4-3.5h0s0,0,0,0l.08.19c.19.46.45,1.08.5,1.24L26,16l.05.09c-1.89-3.2-.52-.88-.94-1.6h-.05l0,0-.1,0-.2.09c-.06,0,0,0,0,0l.1,0,.23-.1,3.77-1.65a38.76,38.76,0,0,1,3.91-1.39l1.39,3.5c-1,.37-1.86.74-2.55,1.08L30,16.76l-1.5.75-.77.21c0,.07,0-.18,0-.3a3.45,3.45,0,0,0-.07-.39,1.5,1.5,0,0,0-.19-.46c-.12-.17-.09,0,.31,0l-1.31-2.05C30,14,33.68,12.64,37.52,11.84l.51-.12.08,0,.27-.1a3.77,3.77,0,0,1,.58-.14,3.59,3.59,0,0,1,1.18,0l4.88.8-4.29,2.27c-2.39,1.25-4.72,2-6.53,3.31l-1-2.49A24.23,24.23,0,0,0,37,14.49l3.89-1.14.89,2c-2.42,1.09-4.83,2.17-7.19,3.32-1.18.58-2.33,1.18-3.5,1.82s-2.33,1.21-3.4,1.91l-.47-.81,6.38-2.43c1.07-.4,2.12-.81,3.19-1.19a15.17,15.17,0,0,0,3.12-1.37l.57-.35-.67.12a74.67,74.67,0,0,0-10.35,2.84l-1.24.51.57-.12L27.58,20l-1.67.68a2.4,2.4,0,0,1-.76.67l-.08,0s0,.05,0,.08v0s.09-.15.06-.12l-.05-.08-.16.91a27.46,27.46,0,0,1,2.75-1.78c.86-.44-1.4,1-1.9,1.52l.88-.59-.07.24a2.6,2.6,0,0,1,.82-.45c-.72.49-1.41,1-2.1,1.54L25.6,21a1.17,1.17,0,0,0-.2.14,1.62,1.62,0,0,0-.19.17.64.64,0,0,0-.14.21,1.3,1.3,0,0,0-.2-.71s.08-.06.15-.14l.07-.06.14-.15.29-.32,2.83-1.17c.87-.36,1.72-.71,2.6-1,1.75-.66,3.53-1.28,5.35-1.82a14.2,14.2,0,0,0-2.93.75l-4.9,1.87-1.39.57-1.67.67-.31.33-.15.16-.07.05a.46.46,0,0,1-.1.07s0,0,0,0,0,0,0,0l.09.18a1.28,1.28,0,0,1,.21.72s.16-.31.62-.58l-.22,2a77.67,77.67,0,0,1,6.94-4.25c.72-.36,1.44-.72,2.15-1.06C35.46,17.18,33.82,18.44,32.41,19.22Zm4.94-4A24.06,24.06,0,0,0,33.59,17l-.29-.7h.14A13.1,13.1,0,0,0,35,16.05a18.36,18.36,0,0,0,2-.6l4.27-1.21.11.25-3.67,1.62c1.22-.46,2.45-.93,3.75-1.45l-.26-.6c-1.6.39-3.23.88-5.1,1.4l5-1.55.4.89c-2.51,1.14-5,2.19-7.33,3.3-1.19.55-2.36,1.13-3.52,1.73a37.89,37.89,0,0,0-3.49,1.86l-3,1.95,3.45-1.25,4.13-1.48,3.59-1.44C36.49,19,37.68,18.56,39,18a10.35,10.35,0,0,0,1.33-.76l3.63-2.53-4.3,1c-1.38.33-2.71.72-4,1.16q2-.56,4.05-1l3.3-.64L40.18,17A16,16,0,0,1,37,18.46c-1.06.38-2.12.8-3.18,1.2l-6.37,2.41-.39.15.35-.24c1.1-.73,2.29-1.31,3.46-1.93s2.33-1.23,3.52-1.8C36.73,17.1,39.14,16,41.57,15L41,13.74,37.1,14.87a24.89,24.89,0,0,1-3.89.86L34,17.54c1.88-1.33,4.22-2.09,6.58-3.33l3.33-1.76-3.79-.63a3.2,3.2,0,0,0-1.07,0,3,3,0,0,0-.52.13l-.24.08-.1,0-2.88.7-3,.8a46.83,46.83,0,0,1-5.82,1.28l1.27,1.76c-.39,0-.43-.2-.31,0a1.39,1.39,0,0,1,.19.46,3.25,3.25,0,0,1,.07.38c0,.09,0,0,0,.05l.05.1.62-.28,1.84-.84,2-.85-2,.79-1.87.77-.41.18h-.22s0,0,0,0v-.09l0-.18a1.39,1.39,0,0,0-.19-.46c-.12-.17-.08,0,.31,0L26.51,15a41.77,41.77,0,0,0,5.85-1.17l3-.75,2.94-.67.11-.05.22-.07a2.37,2.37,0,0,1,.46-.11,3,3,0,0,1,1,0l2.64.48-2.32,1.19C39.36,14.38,38.35,14.81,37.35,15.24Zm2.38-1.44.44-.24,1.39-.75L40,12.56a2.63,2.63,0,0,0-.84,0,2.48,2.48,0,0,0-.39.1,1.42,1.42,0,0,0-.31.13L35,13.72l-3.39,1a40.31,40.31,0,0,1-5,1.13l.7.69c0-.09,0-.06,0-.08a.72.72,0,0,1,.28-.06h.12l.13-.06c1.87-.91,3.86-1.75,5.69-2.59l-.44-1.11c-1.7.66-3.32,1.29-4.71,2s-2.74,1.3-3.67,1.81l4.08-1.82c1.39-.64,2.87-1.19,4.35-1.78l.31.79c-1.87.87-3.81,1.73-5.66,2.66l-.09,0h-.12a.61.61,0,0,0-.32.09s0,0-.06.14l-.62-.61a40.78,40.78,0,0,0,5-1.2c-3.37.92-3.9.94-2.46.65.72-.16,1.93-.47,3.51-.93l2.66-.78,3.12-.84a3.3,3.3,0,0,1,.55-.2,2.11,2.11,0,0,1,1-.06l1.57.21-1.38.77Z" transform="translate(1.87 -1.38)"/><path class="cls-2" d="M39.27,16.72l.51-.28,0,.13a70,70,0,0,0-9.2,2.22c1.27-.24,2.39-.43,3.85-.74,1.74-.4,3.56-.83,5.42-1.18l-.3-.68a18,18,0,0,1-3.22,1.41L33,18.85l-6,2.21L28,22.87c1-.66,2.15-1.23,3.32-1.85s2.3-1.21,3.48-1.79C37.16,18.07,39.57,17,42,15.85l-1.34-3L36.84,14a24.52,24.52,0,0,1-3.75.92l1.38,3.28A53.65,53.65,0,0,1,40.53,15l.35-.19,5.2-2.69-5.9-.95a4.19,4.19,0,0,0-1.18,0,4.74,4.74,0,0,0-.65.16l-.32.11-.1.05-.5.14-.68.21.71-.17.5-.12.07,0,.29-.1a3.88,3.88,0,0,1,.61-.15,4,4,0,0,1,1.24,0l5.52.89-4.85,2.59c-2.43,1.29-4.75,2.07-6.48,3.33l-1.24-3a24,24,0,0,0,3.79-.88l3.85-1.15,1.13,2.56c-2.42,1.11-4.83,2.19-7.17,3.35-1.18.58-2.32,1.17-3.48,1.8S28.91,22,27.87,22.66l-.8-1.36L33.18,19l3.06-1.12A24.64,24.64,0,0,0,39.27,16.72Z" transform="translate(1.87 -1.38)"/><path class="cls-2" d="M30.17,11.84l-5.32,2.29,0,0h0l.1,0,.21-.08L27,13.44c1.19-.45,2.29-.94,3.46-1.35l2.31-.88,1.54,3.88c-1.94.88-4,1.76-5.67,2.59l-.83.41v-.21a3.65,3.65,0,0,0-.21-1.13c-.09-.23-.2-.29-.14-.25s.05,0,.14.25a3.71,3.71,0,0,1,.21,1.13v.2l.85-.37c1.7-.74,3.77-1.54,5.77-2.38L32.64,11Z" transform="translate(1.87 -1.38)"/><path class="cls-2" d="M36.75,11.81l-1.94.49a84.13,84.13,0,0,1-8.4,2.07l1.34,2.23a.71.71,0,0,1-.35-.1.71.71,0,0,0,.35.1l-1.34-2.22a71.74,71.74,0,0,0,9.14-1.94C35.5,12.29,36,12.05,36.75,11.81Z" transform="translate(1.87 -1.38)"/></g><g class="cls-1"><path class="cls-2" d="M33.35,36.35c-1.53,1.13-3,2.32-4.49,3.46l-1.44,1.08-1.36-1.12a2.38,2.38,0,0,1-.88-2.29,2.89,2.89,0,0,1,.34-.89,3.26,3.26,0,0,1,.41-.53l.2-.2h0a4.26,4.26,0,0,0,.27-.38c.22-.35.59-.93.9-1.35a54.42,54.42,0,0,1,4.3-4.91l4.5-4.84,4.56-4.9,2.21-2.13c.75-.73,1.57-1.47,2.37-2.18L47.65,13c.4-.37.79-.74,1.17-1.12a8.12,8.12,0,0,0,.9-.92l2.14,1.59-1.25,1.25c-.4.36-1.6,1.44-1.26,1.57C45.73,18.72,42.17,22,39,25.52c-1.37,1.46-3,2.77-4.41,4.24-2,2.26-4.41,4.12-6.52,6.21L26.9,34.71l.52-.49c.28-.34.84-1.13,1.11-1.37,3.33-2.84,5.58-6.27,8.12-9.55,1-1.28,1.78-2.3,2.81-3.47,0-.2.25-.47.5-.84.55-.64,2.94-3.14,4.56-4.75l.85-.75c.08-.08.14-.13.15-.12s.06-.06.07-.07,0,.08,0,.17a3.34,3.34,0,0,1-.28.36l-.22.25-.33.34-4.41,5.29a38.64,38.64,0,0,0-2.52,3.18c.26-.17,5.62-6.56,6.14-7.09L34.45,28.15c-1.74,2.24-2.22,2.84-1.86,2.47.73-.73,4.54-5.52,7.39-9.33,1-1.11,2.17-2.87,4-5.05-1,1.37-2.88,4.35-3.39,5a61.9,61.9,0,0,1-4.58,6c-2.12,2.45-5.5,6.66-7.8,9l-1.5-1.65.59-.63-.52.71,1.36,1.49c1.15-1.44,2.92-3.82,4.29-5.23A41.12,41.12,0,0,0,28,35.9L27,34.75a29.46,29.46,0,0,1,2.87-3.12c.35-.34.73-.76,1.12-1.22s.85-.75,1.36-1.21c3-3.08,5.47-6,8.49-8.94-.24.27-.53.31-.8.57-2.76,2.41-4.66,4.9-7.41,7.62-.55.49-1.08,1.43-1.64,2-1.12,1.12-2.23,2-3.34,2.95,1-1.11,2.08-2.25,3.23-3.4l3.39-3.54a14.57,14.57,0,0,0,1.18-1.62L32.3,28l-5.77,6.28,1.93,2.12c1.95-2,3.68-3.93,5.09-5.14l.26-.37a1,1,0,0,0,.18-.14A19.62,19.62,0,0,1,35.69,29l-1.38,1.5a47.12,47.12,0,0,1-5.55,6.19l-2.52-2.76,3.06-3,1.52-1.53,1.48-1.6c.81-1,2.47-2.26,3.29-3.22a92.92,92.92,0,0,1,8-8L50,10.7l6.44-5.88L52,12.22a4.19,4.19,0,0,1-.9,1l-.35.31-.37.34c-.5.46-1,.9-1.51,1.33l-3,2.55c-1.94,1.71-3.83,3.55-5.69,5.37C36.48,26.82,33,30.6,29.27,34.31l-.56.75L29,34.8l-.6.65-.76,1.1a4.76,4.76,0,0,1-.36.44s-.14.12-.25.24a1.31,1.31,0,0,0-.2.26.84.84,0,0,0-.11.36.9.9,0,0,0,.07.36.93.93,0,0,0,.22.3l.38.32.46-.31c.66-.45,1.32-.89,2-1.31s-.93.75-1.27,1.17l.62-.43,0,.2a1.57,1.57,0,0,1,.59-.32c-.49.39-1,.79-1.53,1.18l-.81.61L26.67,39a1.36,1.36,0,0,1-.37-.45,1.37,1.37,0,0,1-.16-.57,1.28,1.28,0,0,1,.13-.66,2,2,0,0,1,.26-.43c.13-.15.24-.26.29-.31l.09-.09.14-.18c.18-.25.37-.56.61-.91.47-.69.94-1.3,1.44-1.92,1-1.22,2-2.35,3-3.5a8.31,8.31,0,0,0-1.46,1.4c-.77,1-1.55,1.94-2.32,2.83l-.55.75-.55.77c-.17.23-.32.44-.46.6l-.06.06s0,0-.14.12a2.84,2.84,0,0,0-.33.37,1.68,1.68,0,0,0-.28.58,1.51,1.51,0,0,0-.06.34,1.69,1.69,0,0,0,.63,1.41l.88.72,1-.69c1.7-1.14,3.31-2.3,4.78-3.38.47-.29.93-.56,1.38-.8C35.18,34.76,34.23,35.74,33.35,36.35ZM46.84,14.66c.79-.66,1.58-1.27,2.4-1.92l.81-.74c.21-.19.42-.39.63-.61l1.55-1.63-1,2a3.24,3.24,0,0,1-.35.53c-1.47,1.34-3,2.56-4.48,3.8.81-.56,1.63-1.13,2.47-1.78.42-.33.84-.67,1.27-1.05a6.46,6.46,0,0,0,1.33-1.37L53.85,8l-3.37,3.16,0,0,0,0,3.05-3-2.1,3.71a4.19,4.19,0,0,1-.89,1l-.83.79c-.57.53-1.15,1-1.72,1.51L44.61,18c-2.18,1.88-4.31,3.77-6.42,5.81q-1.84,1.92-3.66,4c-.85,1-1.65,2-2.42,2.94,3-3.29,6.18-6.52,9.41-9.59,1.63-1.54,3.25-3.07,5-4.48l2.58-2.15c.43-.36.86-.74,1.28-1.12A6.81,6.81,0,0,0,51.69,12l3.47-5.42L50.27,11c-5,4.51-10.08,9.1-14.93,14l5.71-5.18C43,18.08,44.87,16.38,46.84,14.66Zm-1.19,1.49c-1.49,1.45-2.95,2.9-4.36,4.35A136.53,136.53,0,0,0,31,31.59C34.31,28,37.67,24.25,41.29,20.5c-3.49,3.53-1,1,3.75-3.71C45.14,16.67,45.37,16.44,45.65,16.15Z" transform="translate(1.87 -1.38)"/><path class="cls-2" d="M34.89,28.85,32.4,31.26l-2.53,2.4c.74-.53,1.4-1,2.21-1.63,2.1-1.85,4.11-4.24,6.21-6.26s4.48-4.29,6.78-6.43c1.13-1.06,2.32-2.06,3.55-3.11.61-.53,1.22-1.07,1.84-1.63l.87-.82a5.43,5.43,0,0,0,1.14-1.32L59,1.38l-9.31,9-5.06,4.87a17,17,0,0,0-1.51,1.53l6.72-6.25,8.27-7.68-5.78,9.53A5.91,5.91,0,0,1,51,13.77l-1.13,1L47.6,16.75c-1.5,1.25-2.9,2.53-4.32,3.89C40.45,23.32,37.69,26.07,34.89,28.85Z" transform="translate(1.87 -1.38)"/><path class="cls-2" d="M32.72,26.73c-1.09,1.21-2.18,2.45-3.29,3.48A37.47,37.47,0,0,0,33,26.89l4.52-4.73C35.93,23.61,34.32,25.11,32.72,26.73Z" transform="translate(1.87 -1.38)"/><path class="cls-2" d="M43.07,16.75l-1,.92c-1.54,1.42-3,2.94-4.55,4.49l5.11-4.58C42.53,17.47,42.74,17.14,43.07,16.75Z" transform="translate(1.87 -1.38)"/></g><g class="cls-1"><path class="cls-2" d="M28.23,32.42a14,14,0,0,1,2-1.28l20.17-10.4L32.81,35c-1.37,1.12-2.64,2.2-3.9,3.35-2.67,2.35-5.34,4.15-8.12,6.63-1.16,1-2.21,2-3.26,3.07l-1.85-2.89A1.38,1.38,0,0,0,16,45a7.88,7.88,0,0,0,1-.69l.6-.47.59-.43,2.36-1.73c1.59-1.17,3.15-2.45,4.74-3.8.36-.26,1.43-1,1.12-1.22q2.05-1.56,4.14-3l1.55,2.07a40.9,40.9,0,0,0-5.25,4.1c-1.24,1.06-2.6,2.07-3.78,3.19-.92.95-1.92,1.81-2.91,2.66a25.71,25.71,0,0,0-2.86,2.64,11.39,11.39,0,0,1-.83,1.17c-.36.32-.72.64-1.05,1l-1.26-1.43c2.22-1.57,3.78-4.26,5.77-6.42.9-1,1.57-1.78,2.48-2.67,0-.18.21-.38.42-.68s1.57-1.42,2.65-2.39a20.24,20.24,0,0,1,1.7-1.47,4.85,4.85,0,0,1,1.21-.69A14,14,0,0,0,27,35.79c-.38.37-.78.83-1.19,1.29S25,38,24.5,38.48c-1.84,1.92-3.68,3.85-3.55,3.84s5-5,5.38-5.42c-4.08,4.84-6.82,7.83-8.21,9.68s-1.91,2.27-1.58,2A34.24,34.24,0,0,0,19,45.78c1.17-1.42,2.67-3.07,3.91-4.56.87-.84,1.94-2.22,3.52-3.92-.83,1.1-2.49,3.47-2.93,4a48.66,48.66,0,0,1-4,4.65c-.57.59-1.22,1.35-1.93,2.15-.35.4-.74.82-1.12,1.21a9.72,9.72,0,0,1-1.31,1.21L9.39,54.68,14,49.17c1-1.27,2-2.47,2.76-3.28-.5.78-1.46,2.28-2.44,3.55l-2.39,3.1,3-2.4c.62-.5,1.05-1,1.49-1.39-.59.47-1.07.92-1.57,1.27l-2.19,1.49,1.76-2A21.52,21.52,0,0,0,16.29,47a14.3,14.3,0,0,1,1-1.35,21.26,21.26,0,0,1,1.58-1.58c.29-.28.6-.62.93-1l1.17-1c1.31-1.2,2.47-2.4,3.66-3.55a47,47,0,0,1,3.9-3.25c-.23.2-.49.18-.75.35a26.32,26.32,0,0,0-3.38,2.7c-1,1-2,2-3.2,3.1-.48.39-.93,1.16-1.4,1.6-.94.91-1.9,1.59-2.86,2.37,1.63-1.83,3.77-3.77,5.66-5.61a12,12,0,0,0,1-1.33L20.92,41c-1.2,1.18-2.48,2.57-3.74,3.93s-2.41,2.85-3.51,4l-8,8.17,9.67-6.23A12.36,12.36,0,0,0,16.54,50c.31-.26.59-.47.89-.69l.24-.3a.66.66,0,0,0,.16-.11A16.09,16.09,0,0,1,19.3,47.5l-1.18,1.2c-.32.42-.71.86-1.07,1.25a8.54,8.54,0,0,1-1.42,1.29L3.48,59.75l9.83-11.16c1.16-1.32,2.4-2.72,3.71-4s2.64-2.51,3.89-3.8c.71-.77,2.15-1.75,2.86-2.53a41.56,41.56,0,0,1,6.51-5.15L32.43,36l-.89.6c-2.46,1.74-4.89,3.62-7.37,5.44-1.25.91-2.51,1.78-3.76,2.66-.63.45-1.26.85-1.84,1.3a7.37,7.37,0,0,1-2.13,1.29l-2.38.78,1.83-1.64a127.93,127.93,0,0,1,11.3-8.87l.56-.49-.31.13.59-.38a28,28,0,0,1,3.25-2.46c.5-.27-.73.63-1,1L30.8,35v.19a1.07,1.07,0,0,1,.48-.27q-3.42,2.91-6.81,5.88a5.54,5.54,0,0,0,1.37-.95A23.46,23.46,0,0,1,28,37.94c1.38-1.22,2.94-2.31,4.43-3.39l-2-2.93a11.6,11.6,0,0,0-2.06,1.29c-.41.26-.79.51-1.15.7S27.41,33,28.23,32.42Zm.43,5.28c-.7.46-1.41.88-2.13,1.33l-.71.54a7.77,7.77,0,0,0-.89.77c-1.3.93-2.6,1.84-3.93,2.73a28.09,28.09,0,0,0,4.46-2.85,48.59,48.59,0,0,1-4.68,3.44l-2.33,1.51a8,8,0,0,1-2.3,1.31l.35.55,2.42-2,3.3-2.89c.79-.7,1.53-1.4,2.28-2.1-2.81,2.17-5.58,4.36-8.24,6.7h0a7.34,7.34,0,0,0,2.08-1.25c.63-.48,1.33-.92,2-1.38,1.34-.91,2.68-1.81,4-2.77,2.64-1.9,5.22-3.87,7.86-5.7l-1.7-2.27a66.13,66.13,0,0,0-6.94,5.21c2.33-1.75,4.67-3.4,7.14-4.93L32,35.43C30.89,36.15,29.78,36.92,28.66,37.7Zm1.05-1.14,2-1.53L31,34.12c-.71.5-1.38,1-2,1.52a49.21,49.21,0,0,0-9,8.49l4.26-4.34A60.21,60.21,0,0,1,29,35.64c-1.44,1.09-1.76,1.37-1.33,1s1.65-1.29,3.39-2.52l.64.85-1.4,1.09C30.17,36.18,30,36.35,29.71,36.56Z" transform="translate(1.87 -1.38)"/><path class="cls-2" d="M21.92,41.18C23.48,40.1,25,39,26.62,38a18.5,18.5,0,0,0-2.05,1,67.18,67.18,0,0,0-5.78,4.35Q17.11,44.59,15.47,46l-4.06,3.55,5.22-1.74a7.39,7.39,0,0,0,2.17-1.26c.29-.22.55-.42.8-.58l.86-.61c1.15-.81,2.3-1.61,3.45-2.47,2.3-1.73,4.51-3.55,6.75-5.31A13.2,13.2,0,0,0,32,36.53c-2.56,1.82-5,3.79-7.54,5.66-1.26,1-2.53,1.84-3.8,2.73-.64.46-1.28.87-1.85,1.31a7.44,7.44,0,0,1-2.26,1.36l-4,1.34,3.08-2.72C17.67,44.43,19.76,42.76,21.92,41.18Z" transform="translate(1.87 -1.38)"/><path class="cls-2" d="M21.26,39.9c-1,1-1.9,2-2.86,2.83a35.53,35.53,0,0,0,3.12-2.64l2-1.9c.66-.61,1.35-1.2,2.05-1.78-.74.53-1.48,1.06-2.19,1.64S22,39.26,21.26,39.9Z" transform="translate(1.87 -1.38)"/><path class="cls-2" d="M32,36.53l.55-.38L30.17,33l-.36.24a49.46,49.46,0,0,0-4.27,3.2c1.55-1.1,3.15-2.14,4.78-3.15a.11.11,0,0,1,0-.1l2.37-8.79L32.41,36A1.26,1.26,0,0,1,32,36.53Z" transform="translate(1.87 -1.38)"/></g><g class="cls-1"><path class="cls-2" d="M56.61,48.28a45.91,45.91,0,0,1,6.67-.87l9-.33-7.66,4.65a3.65,3.65,0,0,1-1.46.48,3.88,3.88,0,0,1-1.35-.11l.72.07c-2,.11-3.94.3-5.88.5l-5.8.59c-4.82.49-9.45,1.1-14.17,1.54-2.36.22-4.74.43-7.19.61l-1.85.13-1.82.14c-1.24.1-2.56.21-4,.21-.63,0-1.26,0-1.86-.1L6.78,54.34l12.89-2.2L26.29,51c2.15-.37,4.27-.72,6.42-1.13,2.84-.48,5.78-1,8.83-1.48,1.54-.23,3.06-.42,4.64-.61a33.06,33.06,0,0,1,4.93-.26l6.4.21-5.86,2.52a3.54,3.54,0,0,1-.74.23l-.39.06h-.28l-6.31.94c-1.08.17-2.16.32-3.25.5l-3.27.62c-1.2.19-4.72.84-4.31,1.11a101.36,101.36,0,0,0-16.59,4.54l-.72-2.37,7.53-1c2.46-.32,4.9-.69,7.34-1.14,4.4-.76,9.06-1.31,13.55-1.89a63.92,63.92,0,0,1,7.34-.63l.14,2.07c-4.77.55-9.5,1-14.2,1.65-1,.17-3.08.63-3.91.71-3.56.35-7,.79-10.4,1.29l-5,.78c-1.68.26-3.37.53-5.12.66L2,59.21,12.63,56c2.62-.8,5.15-1,7.54-1.49a78.18,78.18,0,0,1,10-1.6,1.77,1.77,0,0,1,.62-.14l10.09-1.26L31.5,56a7.15,7.15,0,0,1-2,.52l-9.77,1L14.07,58c-1.64.2-2.82.34-3.17.35s2.76-.6,6.71-1.06l6.58-.86L27.68,56l1.67-.2a6.81,6.81,0,0,0,1.88-.43l5.45-2.26-5.88.31a44.33,44.33,0,0,0-6,.78,16.08,16.08,0,0,0-2.21.48c.15,0,1.13-.18,2.61-.43a46.8,46.8,0,0,1,5.64-.65l4.81-.2-4.46,1.8a7.81,7.81,0,0,1-2.27.44l-2.05.25-3.9.47-4.62.57,6.64-1L28,55.49a13.81,13.81,0,0,0,3-.59l3-1.24-3.22.23a82.16,82.16,0,0,0-10.2,1.72c-2.93.6-5.54.81-7.67,1.49l-.4.13.42,0c2.23-.17,4-.49,5.54-.73L22,55.9c1.69-.28,2.19-.38,1.78-.34s-1.71.23-3.62.52-4.39.73-7.2.92l0,.29c2.33-.71,5-.9,7.66-1.46s5.31-1.14,7.85-1.49c.7-.07,1.46-.14,2.31-.19l1.51-.09-1.4.6a10.19,10.19,0,0,1-2.49.5l-2.81.41-6.74.92L25,55.43l3.23-.58a10.53,10.53,0,0,0,2.54-.58l.07.3-1.26.12a46.58,46.58,0,0,0-4.73.81l-3,.69c-.95.2-1.94.41-3.3.62a52.71,52.71,0,0,0-5.33.92l-.06,0-.19-1.22a64,64,0,0,0,6.69-.79l7.64-1.16c5.15-.8,10.15-1.6,13.49-2.08-3.46.71-11.5,2.35-16.63,3,11.17-1.17,12.54-2.36,24.18-3.78.94-.12,2-.28,3.16-.47l.14,2.13-.52,0c-1.27,0-2.48.09-4,.2-4.76.47-9.18,1.27-13.61,2.06-2.22.4-4.44.79-6.7,1.13l-6.93.91c.81-.12,1.35,0,2.18-.11,8.22-.66,15-2.58,23.48-3.5,1.64-.15,3.87-.62,5.59-.69l.52,0-.14-2.16c-3.33.42-6.34.66-9.49,1,3-.48,6.16-.93,9.45-1.38l.19,3a111.38,111.38,0,0,0-11.78,1.31c-1.45.24-3.18.7-4.3,1,3.25-.53,6.48-1,9.74-1.41,2-.26,4.18-.52,6.35-.63l-.23-3.46C41.16,52.07,29.86,54,23,54.53l-1,.18-.49,0c-1.61.21-3.58.46-5.3.56l4.45-.54c4.74-.85,9.77-1.59,14.93-2.31l15.75-2.08.26,3.8c-2.21.08-4.43.34-6.66.64-2.74.38-7.35.84-10.12,1.39-3,.56-6.1,1.13-9.23,1.55L16.44,59,.36,61l15-5.65q3.16-1.19,6.35-2.08a143.23,143.23,0,0,1,14.11-3.16c2.36-.41,4.7-.82,7.09-1.11l7.17-1a.72.72,0,0,0,.22,0h.12a1.05,1.05,0,0,0,.24-.06l.39,2a45.83,45.83,0,0,0-7.67.56c-2.58.32-5.15.76-7.73,1.19-5.17.9-10.36,1.59-15.48,2.4l0-.44a39,39,0,0,0,7.08-.15q3.56-.2,7.09-.49l14.1-1.28,2-.21h-.88l1.91-.09c1.85-.18,3.68-.35,5.5-.49s3.62-.26,5.43-.28l-.27,0,.23,0c.4.08.57.06.5.08a2.28,2.28,0,0,1-.75-.06l.29,0c-.9.07-2.89.19-3.62.36l1.66-.1-.31.17a7.15,7.15,0,0,1,1.47,0c-4.06.31-8.11.77-12.19,1.14s-8.15,1-12.27,1.51a39.73,39.73,0,0,0,4.55-.37c2.72-.38,5.42-.8,7.9-1,2.12-.22,4.27-.4,6.42-.56s4.31-.32,6.44-.39l-.53,0a3.08,3.08,0,0,0,2.36-.29l5.37-3.35L63.3,48a40.71,40.71,0,0,0-7,.86c-1.24.2-2.44.39-3.6.53C51.2,49.54,54.12,48.76,56.61,48.28ZM29.86,52.13c2.26-.43,4.46-.77,6.75-1.1L39,50.62l3.17-.56,8-1a2.27,2.27,0,0,0,.9-.15l0,.14a29.13,29.13,0,0,0-4.07.11,32.42,32.42,0,0,1,4.06,0L51,48.77a2,2,0,0,1-.85.12c-2.87.31-5.89.64-9.31,1.13,3.19-.49,6.24-.9,9.29-1.33a1.71,1.71,0,0,0,.78-.12l.17.83a45.72,45.72,0,0,0-7.31.46c-2.42.26-4.8.61-7.17,1-4.74.76-9.47,1.35-14.34,2l-2.3.38-5,.84,5.09.56a24.87,24.87,0,0,0,5-.06l4.91-.41c2.88-.26,5.69-.61,8.46-1-3,.3-6.08.58-9.12.78l-4.55.31a24.6,24.6,0,0,1-4.62,0L17.91,54l2.14-.34c5.2-.82,10.37-1.49,15.53-2.38,2.58-.42,5.16-.84,7.75-1.16a46.08,46.08,0,0,1,7.73-.52l-.23-1.17a1.55,1.55,0,0,1-.72.1l-8.74,1.13c-2.9.41-5.78.92-8.67,1.47a105.77,105.77,0,0,0-17.2,4.64L3.84,60.11l12.52-1.54L26,57.38c3.31-.42,6.59-1,9.86-1.48-3.29.44-6.58.92-9.88,1.28s-6.65.71-9.73,1.09L5.91,59.56,15.62,56A99.11,99.11,0,0,1,29.86,52.13Zm-4.07,1.24a89.58,89.58,0,0,0-9.95,3.21l-4.73,1.86,5.06-.75,3.26-.48c2.92-.39,5.9-.74,8.85-1.18s5.85-1,8.64-1.43c5.57-.94,10.69-1.7,14.67-2.05l0-.57-1.23.23L51.55,52l0,.48c-10.42.64-21,3.45-32.16,4.7,4.34-.56,5.73-.75,4.93-.65l-2.76.35-2.45.32-3,.43-4.73.67,4.42-1.71c2.27-.89,5-1.82,8-2.7C24.21,53.81,24.92,53.6,25.79,53.37Z" transform="translate(1.87 -1.38)"/><path class="cls-2" d="M31.08,53.12c5.11-.28,10.29-.76,15.39-1.14-1.95,0-3.68,0-6,.14-3.09.18-6.37.48-9.68.72l-5,.34A30.42,30.42,0,0,1,21,53.3c-.27,0-.53,0-.79-.09l.11,1.44c5-.73,10.16-1.39,15.33-2.28,2.58-.43,5.16-.86,7.74-1.2A47.51,47.51,0,0,1,51,50.58l-.61-3.09-.12,0h-.26l-6.26.89-3.1.43c-1,.17-2,.35-3.08.54-4.11.74-8.25,1.59-12.38,2.69-1,.23-3.11.81-4.67,1.38A138.23,138.23,0,0,1,35.33,50c2.46-.44,4.87-.89,7.34-1.19l7.39-1h.3a.55.55,0,0,0,.17-.05l.52,2.6a46.63,46.63,0,0,0-7.63.57c-2.57.33-5.14.76-7.71,1.2-5.16.9-10.36,1.57-15.47,2.35l-.07-1a27.83,27.83,0,0,0,5.4,0Z" transform="translate(1.87 -1.38)"/><path class="cls-2" d="M42.76,55.51a81.31,81.31,0,0,1,8.89-.95L51.34,50l-1.59.2,1.6-.14.3,4.44a73.65,73.65,0,0,0-9.12.73c-4.78.69-9.59,1.62-14.43,2.36C33,57,37.8,56.17,42.76,55.51Z" transform="translate(1.87 -1.38)"/><path class="cls-2" d="M20.56,53.44c-1,.3-2,.61-2.94,1-.77.26-1.54.55-2.32.83l-17.17,6.3,18.35-2.4,5.64-.74c2-.26,4-.5,6-.8-2,.24-4,.42-6,.64l-3,.31-2.77.31L1,60.61,15.4,55.49c1.09-.39,2.2-.77,3.32-1.13C18.66,54.22,19.46,53.84,20.56,53.44Z" transform="translate(1.87 -1.38)"/></g><g class="cls-1"><path class="cls-2" d="M17.55,30.67l4.79-.17,4.57-.23c2.06-.08,4-.07,5.95-.08l2.91,0,3-.16-1.67,1.4.06-.19,1.54,2.43-1.65-.38c-2.4-.53-4.66-1-7-1.41l-2.3-.49-.51-.16L27,31.13a2.3,2.3,0,0,0-.69,0l.19-2.95c1.53.69,3.21,1.27,5,1.89.87.32,1.78.64,2.66,1l2.66,1.11c.54.26,2.13,1,2.12.65.86.37,1.62.89,2.43,1.33l.39.22.38.29.58.52c.37.36.69.71,1,1.06l.56.64-.27.7a1.66,1.66,0,0,1-.39.64,1.5,1.5,0,0,1-1.12.45,1.69,1.69,0,0,1-1-.38l.49.22-4.64-1c-1.58-.32-3.16-.63-4.71-1-2.13-.46-4.26-1.24-6.38-1.7a39.46,39.46,0,0,1-4.61-1.25l-4-1.24,4-.69a3.37,3.37,0,0,1,1,0c.27,0,.52.09.77.15.48.1.95.25,1.32.31.93.16,1.85.3,2.77.42.48,0,1.53,0,1.92.07,2.33.46,4.62.91,6.82,1.28a47.29,47.29,0,0,0,6.45.77,8.15,8.15,0,0,0,.85,0l-.67,2.86a33.83,33.83,0,0,0-3.46-.89c-.18.1-.56,0-1-.09-1.23-.31-7.94-2.41-8.53-2.76-.15-.09,3.22.73,6.6,1.54,1.69.4,3.39.84,4.69,1.1S43,37,43,37a5.29,5.29,0,0,0-1.37-.49l-3.17-.79c-2.3-.58-4.66-1.17-5-1.29l5.54,1.12a33.38,33.38,0,0,1,4.42,1l.14-.58a27.22,27.22,0,0,1-5.23-.46L35.13,35c-1.46-.22-1.71-.22-1.18-.11l3.59.66a28.46,28.46,0,0,0,6,.62l0,.15a14.31,14.31,0,0,0-2.91-.69c-1.55-.43-3.79-.74-6.78-1.49,1.8.33,5.55.74,6.41.93a22,22,0,0,1,3.52.74l2.06.8-2.27.13a15.19,15.19,0,0,1-4.62-.47C37,35.86,34.46,35.35,32,35s-4.92-.46-6.52-.65c1.7,0,5.7-.12,8.1.49a19.57,19.57,0,0,0-5.73-.71c-.78,0-1.58,0-2.52-.06L24.59,34a6.9,6.9,0,0,1-.87-.11,10.78,10.78,0,0,0-1.62-.24H22l0-.07,0-1.88c.45.11,1,.22,1.52.33s1.17.4,1.88.61c2.24.53,4.35,1,6.46,1.41l3.15.69c1.07.2,2.14.42,3.24.66a9.72,9.72,0,0,1-1-.38c-1.88-.49-3.63-.9-5.42-1.28s-3.62-.72-5.62-1.23c-.75-.21-1.9-.25-2.72-.48-.52-.14-1-.29-1.49-.44l-.08,2,0,.19h.14l.3,0c.22,0,.46.11.7.18l.79.22.27.06.2,0,.4.09-.39,0-.2,0-.26,0-.82-.14a6.89,6.89,0,0,0-.71-.09l-.29,0H22.1s0,0,0-.08a2.26,2.26,0,0,0-.08-.44l.16-2.32,3.47.88,3.41.77a17.62,17.62,0,0,0,2.12.21l-4.59-1.1c-1.34-.26-2.84-.65-4.36-1L22,33.61a2.26,2.26,0,0,1,.08.44,1.2,1.2,0,0,0,0,.24c0,.09,0,0,0,.05s0,0,.07,0h.27a7.23,7.23,0,0,1,.74.08l.91.15.9.08,3.35.32a25.5,25.5,0,0,1,5.46,1l.47,0,.22.08A21.4,21.4,0,0,1,37,36.8l-2.1-.49-3.18-.43c-1.05-.15-2.16-.27-3.3-.41L25,35l-.89-.12-.94-.19c-.26-.05-.51-.1-.72-.12l-.26,0s-.06,0,0,0a5.18,5.18,0,0,0-.13-1l.27-2.75c1.5.39,3,.82,4.48,1.09s3.42,1,4.74,1.22c1.81.33,3.64.79,5.47,1.13s3.54.82,5.6,1.25l.76.15-.39.53a2.06,2.06,0,0,0-.46.93c0,.15,0,0-.35-.15l-.7,1.38-.1-.13c-.24-.27-.47-.52-.7-.75a3.51,3.51,0,0,0-.34-.33L40.13,37,40.06,37l-1.92-1.12L34.06,34c-2.69-1.32-5.62-2.2-8.47-3.53l-2.26-1.05,2.36-.52a4.7,4.7,0,0,1,2,0,4.12,4.12,0,0,1,.47.13,1.82,1.82,0,0,0,.31.1l.82.18,3.29.73,6.47,1.65.09,0,0,.08-.07.18v0h0c-3.68.21-7.32.08-11-.06l-1,0,.42.09L26.56,32c-1.82.06-3.61.1-5.38,0-.72-.08,1.28-.07,1.83-.22h-.8l.14-.15a1.57,1.57,0,0,1-.71-.08c3.94-.23,7.93-.28,11.85-.46a9.15,9.15,0,0,0-2.18-.1c-1.31.09-2.62.17-3.82.14-1.67.07-3.4.05-5.09.05l-2.52,0c-.83,0-1.64,0-2.53,0-.64,0-1.28,0-1.91-.06-.36,0-.21-.13.26-.23A11.18,11.18,0,0,1,17.55,30.67Zm21.56,4.82-.69-.44-.71-.38-1.43-.8-1.06-.48a13.51,13.51,0,0,0-1.42-.58C31.92,31.91,30,31.2,28,30.39c1.88,1,3.91,1.8,6.27,2.9-2.91-1.27-5.8-2.16-8.45-3.49l-.41-.21.43-.09a4.4,4.4,0,0,1,2.44.32l2.36.61c1.57.38,3.14.84,4.75,1.28l3.51.8-.63-1-.06.19.69-.57-2,.15c-1.38.13-2.7.22-4,.32,2,0,4-.05,6.07-.15l-.4.34.06-.19.36.57-6.49-1.66-3.27-.75-.81-.19c-.24,0-.5-.18-.8-.24a4.15,4.15,0,0,0-1.79,0l-1,.21,1,.46c2.82,1.35,5.78,2.27,8.51,3.63l4.12,2,1.89,1.11.32.28.36.35c.24.25.48.52.73.8L42.13,37c.36.1.38.3.35.15a2,2,0,0,1,.46-.93l.15-.2-.6-.12c-2.11-.42-3.87-.89-5.8-1.32s-3.8-1-5.72-1.41c1.9.55,3.77,1.18,5.66,1.64s3.7,1,5.78,1.44l.39.17a3,3,0,0,0-.21.36.9.9,0,0,0-.11.37c0,.15,0,0-.35-.15l-.17.87a12,12,0,0,0-1.27-1.37,2,2,0,0,0-.28-.22L40,36Zm1.78.75a13.52,13.52,0,0,1,1.39,1.34L42.16,37a.76.76,0,0,1,.29.16s0,0,0,0a.91.91,0,0,1,.09-.31l0,0-.12-.08-.09,0c-1.37-.23-2.65-.49-3.92-.74-2.89-.56-5.89-1.32-8.65-1.93s-5.3-1.06-7.21-1.37c2.54.65,5.16,1.1,7.8,1.67l4,.85c1.34.29,2.7.51,4.07.78-2.38-.5-2.88-.59-2-.41L38.5,36c1,.22,2.27.48,3.8.74l.08,0,.12.07,0,0h0l0,.1a.56.56,0,0,0,0,.15c0,.09,0,.09,0,0l-.12-.08-.09-.05,0,0,.11.53c-.23-.25-.47-.5-.73-.75Z" transform="translate(1.87 -1.38)"/><path class="cls-2" d="M36.4,32.29c-2.47,0-5-.16-7.43-.34.94.2,1.77.38,2.88.52a49.42,49.42,0,0,0,7.2,0l.34,0,.13-.37.06-.19.19-.54-.63-.16-2-.54c-1.8-.49-3.57-1-5.43-1.44l-2.8-.64-.35-.07-.16-.06a5.19,5.19,0,0,0-2.85-.17l-4.08.91,3.9,1.8C28,32.17,30.59,33,33.05,34l3.7,1.64a18.4,18.4,0,0,1,1.85.88l.9.5.41.21,0,0,.13.1c.23.2.69.67,1.18,1.15L42.13,37a.66.66,0,0,1,.34.19s0,0,0-.14c0,.14,0,.18,0,.14a.69.69,0,0,0-.34-.19l-.85,1.52c-.24-.29-.48-.55-.71-.78l-.35-.33L40,37.19l-1.89-1.08L34,34.21c-2.7-1.3-5.62-2.15-8.5-3.48l-3.16-1.46,3.3-.74a5,5,0,0,1,2.14,0,4.1,4.1,0,0,1,.5.14l.27.09.82.18,3.29.74c2.16.55,4.31,1.13,6.47,1.72l.39.1-.12.32L39.3,32l-.08.23H39Z" transform="translate(1.87 -1.38)"/><path class="cls-2" d="M28,31.79l-2.54-.51q-1.29-.32-2.52-.66c.73.28,1.6.57,2.49.84s1.77.46,2.58.66l6.77,1.53C32.52,33,30.29,32.36,28,31.79Z" transform="translate(1.87 -1.38)"/><path class="cls-2" d="M42.49,37.06a2.56,2.56,0,0,1,.45-.83l.51-.7-.84-.17-1.27-.27c-2.24-.51-4.36-1-6.61-1.44,1.17.35,2.32.63,3.48,1l1.75.47.88.23,1,.22c0-.14.33-.16.79-.13l.91.06-.57.78A2.46,2.46,0,0,0,42.49,37.06Z" transform="translate(1.87 -1.38)"/></g></svg>